<svg width="70" height="43" viewBox="0 0 70 43" fill="none" xmlns="http://www.w3.org/2000/svg">
<path d="M2.34368 11.6931C2.34368 11.6931 1.49791 7.04142 1.5 4.73851C1.5021 2.43561 26.7787 1.57031 26.7787 1.57031L25.2649 8.44763M2.34368 11.6931C2.34368 11.6931 5.23999 38.483 5.80276 40.2069C6.36552 41.9308 30.1594 36.9615 30.1594 36.9615L33.0023 29.6978L26.7787 21.6613L33.0023 14.5522L24.5505 11.6931L25.2649 8.44763M2.34368 11.6931L25.2649 8.44763M67.5032 11.6931C67.5032 11.6931 65.1074 36.6008 63.5826 39.0478C62.0577 41.4948 37.5356 35.9569 37.5356 35.9569L41.531 29.6978L37.5356 20.3477L44.5275 15.7113L37.5356 10.534L38.7517 8.44763M67.5032 11.6931C67.5032 11.6931 68.5 5.86327 68.5 4.73851C68.5 3.61376 42.7603 1.57031 42.7603 1.57031L38.7517 8.44763M67.5032 11.6931L39.6101 8.44763H38.7517M52.0573 27.6114V31.0114L60.2018 31.9387V28.4614L52.0573 27.6114Z" stroke="#C3BDFF" stroke-width="3"/>
</svg>
