<svg width="215" height="189" viewBox="0 0 215 189" fill="none" xmlns="http://www.w3.org/2000/svg">
<path d="M86.1096 37.5283C91.4699 35.2804 93.7177 28.8827 91.297 23.6954L82.8243 5.88558C80.4036 0.872891 74.5246 -1.37668 69.3373 0.872891C54.6398 7.09768 42.0173 15.2245 31.9885 25.0804C19.7118 36.6637 11.4121 49.9779 6.91644 64.6753C2.42075 79.5474 0 99.7762 0 125.54V178.624C0 184.33 4.66859 188.998 10.3747 188.998H78.3286C84.0347 188.998 88.7033 184.33 88.7033 178.624V110.67C88.7033 104.962 84.0347 100.295 78.3286 100.295H45.8214C46.1672 82.8292 50.3171 68.8251 57.9251 58.2759C64.1499 49.8067 73.4871 42.8902 86.1096 37.5283Z" fill="#7736FF" fill-opacity="0.19"/>
<path d="M208.187 37.5265C213.547 35.2786 215.793 28.8809 213.374 23.6936L204.901 6.05841C202.481 1.04399 196.602 -1.20385 191.414 1.04399C176.89 7.26879 164.439 15.3956 154.239 25.0786C141.96 36.8366 133.489 50.1507 128.992 64.8481C124.496 79.3709 122.25 99.6032 122.25 125.54V178.623C122.25 184.33 126.919 188.998 132.625 188.998H200.579C206.285 188.998 210.953 184.33 210.953 178.623V110.67C210.953 104.962 206.285 100.295 200.579 100.295H167.898C168.244 82.8291 172.396 68.8251 180.002 58.2758C186.227 49.8049 195.564 42.8884 208.187 37.5265Z" fill="#7736FF" fill-opacity="0.19"/>
</svg>
