<svg width="23" height="43" viewBox="0 0 23 43" fill="none" xmlns="http://www.w3.org/2000/svg">
<rect width="3.54769" height="3.60893" rx="0.5" transform="matrix(-0.940644 0.339395 -0.32638 -0.945239 5.67188 6.88867)" fill="#BF9FFF"/>
<rect width="3.54294" height="3.61359" rx="0.5" transform="matrix(-0.97303 -0.23068 0.221252 -0.975217 8.9668 12.1216)" fill="#BF9FFF"/>
<rect width="3.53992" height="3.61654" rx="0.5" transform="matrix(-0.993163 0.116734 -0.111776 -0.993733 14.0391 9.51074)" fill="#BF9FFF"/>
<rect width="3.56121" height="3.59559" rx="0.5" transform="matrix(-0.842323 0.538974 -0.522211 -0.852816 18.6777 4.32422)" fill="#BF9FFF"/>
<rect width="3.53914" height="3.61731" rx="0.5" transform="matrix(-0.998325 -0.0578608 0.0553792 -0.998465 18.2539 11.5972)" fill="#BF9FFF"/>
<rect x="9.19922" y="36.667" width="5.52" height="4.65909" rx="0.5" fill="#BF9FFF"/>
<rect width="3.54294" height="3.61359" rx="0.5" transform="matrix(-0.97303 -0.23068 0.221252 -0.975217 12.6465 5.59912)" fill="#BF9FFF"/>
<rect width="3.54769" height="3.60893" rx="0.5" transform="matrix(-0.940644 0.339395 -0.32638 -0.945239 9.21094 3.27148)" fill="#BF9FFF"/>
<path d="M22.8444 13.657C22.7083 13.3354 22.4826 13.0618 22.1955 12.8702C21.9085 12.6787 21.5726 12.5776 21.2298 12.5796H1.76596C1.42349 12.5803 1.08859 12.6826 0.80186 12.874C0.515134 13.0654 0.288913 13.3378 0.150641 13.6581C0.0123686 13.9784 -0.0320134 14.3328 0.0228792 14.6783C0.0777717 15.0239 0.22958 15.3457 0.459887 15.6048L0.468735 15.615L7.95901 23.7907V32.4762C7.95893 32.8036 8.04577 33.1248 8.21026 33.4057C8.37475 33.6866 8.61073 33.9165 8.89304 34.0711C9.17534 34.2257 9.49339 34.299 9.81326 34.2833C10.1331 34.2676 10.6167 34.2833 10.6167 34.2833H13.2673C13.5657 34.2849 15.0368 34.3129 15.0368 34.192C15.0368 34.0711 15.0368 30.3617 15.0368 30.0637V23.7907L22.5282 15.615L22.537 15.6048C22.7697 15.3469 22.923 15.0246 22.9777 14.6782C23.0324 14.3318 22.986 13.9766 22.8444 13.657ZM13.5084 22.8196C13.3554 22.9854 13.2693 23.2043 13.2673 23.4323V32.4762H9.72845V23.4323C9.72852 23.2026 9.64311 22.9816 9.48957 22.8139L1.76596 14.3884H21.2298L13.5084 22.8196Z" fill="#BF9FFF"/>
</svg>
