<svg width="34" height="34" viewBox="0 0 34 34" fill="none" xmlns="http://www.w3.org/2000/svg">
<path d="M21.7162 3.29486C21.5375 3.2078 21.338 3.1726 21.1403 3.19326C20.9426 3.21392 20.7547 3.28961 20.5979 3.41174L11.3223 10.6248H5.3125C4.74891 10.6248 4.20841 10.8487 3.8099 11.2472C3.41138 11.6457 3.1875 12.1862 3.1875 12.7498V21.2498C3.1875 21.8134 3.41138 22.3539 3.8099 22.7524C4.20841 23.1509 4.74891 23.3748 5.3125 23.3748H11.3223L20.5979 30.5878C20.7549 30.7099 20.9429 30.7854 21.1407 30.8058C21.3384 30.8263 21.5379 30.7909 21.7166 30.7036C21.8952 30.6163 22.0457 30.4806 22.1511 30.312C22.2564 30.1434 22.3124 29.9486 22.3125 29.7498V4.24979C22.3125 4.05074 22.2566 3.85568 22.1512 3.68685C22.0458 3.51802 21.895 3.3822 21.7162 3.29486ZM20.1875 27.577L12.3396 21.4742C12.1535 21.3284 11.9239 21.2494 11.6875 21.2498H5.3125V12.7498H11.6875C11.9239 12.7502 12.1535 12.6711 12.3396 12.5253L20.1875 6.4226V27.577ZM27.625 13.8123V20.1873C27.625 20.4691 27.5131 20.7393 27.3138 20.9386C27.1145 21.1378 26.8443 21.2498 26.5625 21.2498C26.2807 21.2498 26.0105 21.1378 25.8112 20.9386C25.6119 20.7393 25.5 20.4691 25.5 20.1873V13.8123C25.5 13.5305 25.6119 13.2602 25.8112 13.061C26.0105 12.8617 26.2807 12.7498 26.5625 12.7498C26.8443 12.7498 27.1145 12.8617 27.3138 13.061C27.5131 13.2602 27.625 13.5305 27.625 13.8123ZM31.875 11.6873V22.3123C31.875 22.5941 31.7631 22.8643 31.5638 23.0636C31.3645 23.2628 31.0943 23.3748 30.8125 23.3748C30.5307 23.3748 30.2605 23.2628 30.0612 23.0636C29.8619 22.8643 29.75 22.5941 29.75 22.3123V11.6873C29.75 11.4055 29.8619 11.1352 30.0612 10.936C30.2605 10.7367 30.5307 10.6248 30.8125 10.6248C31.0943 10.6248 31.3645 10.7367 31.5638 10.936C31.7631 11.1352 31.875 11.4055 31.875 11.6873Z" fill="#BF9FFF"/>
</svg>
