<svg width="34" height="34" viewBox="0 0 34 34" fill="none" xmlns="http://www.w3.org/2000/svg">
<path d="M26.5625 10.0459V5.3125C26.5625 4.74891 26.3386 4.20841 25.9401 3.8099C25.5416 3.41138 25.0011 3.1875 24.4375 3.1875H9.5625C8.99891 3.1875 8.45841 3.41138 8.0599 3.8099C7.66138 4.20841 7.4375 4.74891 7.4375 5.3125V10.0938C7.43822 10.4235 7.51534 10.7486 7.66282 11.0436C7.8103 11.3385 8.02412 11.5953 8.2875 11.7937L15.2296 17L8.2875 22.2062C8.02412 22.4047 7.8103 22.6615 7.66282 22.9564C7.51534 23.2514 7.43822 23.5765 7.4375 23.9062V28.6875C7.4375 29.2511 7.66138 29.7916 8.0599 30.1901C8.45841 30.5886 8.99891 30.8125 9.5625 30.8125H24.4375C25.0011 30.8125 25.5416 30.5886 25.9401 30.1901C26.3386 29.7916 26.5625 29.2511 26.5625 28.6875V23.9541C26.5617 23.6256 26.4853 23.3017 26.339 23.0075C26.1927 22.7134 25.9806 22.4569 25.7191 22.258L18.7624 17L25.7191 11.7406C25.9807 11.5422 26.193 11.286 26.3393 10.992C26.4855 10.6981 26.5619 10.3743 26.5625 10.0459ZM9.5625 5.3125H24.4375V10.0459L23.6712 10.625H10.2704L9.5625 10.0938V5.3125ZM17 15.6719L13.1046 12.75H20.8609L17 15.6719ZM24.4375 28.6875H9.5625V23.9062L15.9375 19.125V22.3125C15.9375 22.5943 16.0494 22.8645 16.2487 23.0638C16.448 23.2631 16.7182 23.375 17 23.375C17.2818 23.375 17.552 23.2631 17.7513 23.0638C17.9506 22.8645 18.0625 22.5943 18.0625 22.3125V19.1356L24.4375 23.9541V28.6875Z" fill="#BF9FFF"/>
</svg>
