<svg width="21" height="20" viewBox="0 0 21 20" fill="none" xmlns="http://www.w3.org/2000/svg">
<path d="M7.18971 3.62835L10.3014 6.63797L6.86871 9.95807L3.75702 6.94845C3.57994 6.77717 3.57994 6.49877 3.75702 6.32749L6.5477 3.62835C6.72479 3.45707 7.01262 3.45707 7.18971 3.62835Z" fill="#6F31FF"/>
<path d="M16.8426 6.95208L13.7309 9.9617L10.2983 6.6416L13.4099 3.63198C13.587 3.4607 13.8749 3.4607 14.0519 3.63198L16.8426 6.33112C17.0197 6.5024 17.0197 6.7808 16.8426 6.95208Z" fill="#6F31FF"/>
<path d="M13.4129 16.296L10.3013 13.2863L13.7339 9.96624L16.8456 12.9759C17.0227 13.1471 17.0227 13.4255 16.8456 13.5968L14.0549 16.296C13.8779 16.4672 13.59 16.4672 13.4129 16.296Z" fill="#6F31FF"/>
<path d="M3.75417 12.9722L6.86585 9.96261L10.2985 13.2827L7.18685 16.2923C7.00977 16.4636 6.72193 16.4636 6.54484 16.2923L3.75416 13.5932C3.57708 13.4219 3.57708 13.1435 3.75417 12.9722Z" fill="#6F31FF"/>
</svg>
