<svg width="26" height="25" viewBox="0 0 26 25" fill="none" xmlns="http://www.w3.org/2000/svg">
<path d="M8.88702 4.48544L12.7343 8.20653L8.49013 12.3115L4.64286 8.5904C4.42391 8.37863 4.42391 8.03442 4.64286 7.82265L8.09324 4.48544C8.31219 4.27367 8.66807 4.27367 8.88702 4.48544Z" fill="#C3BDFF"/>
<path d="M20.8242 8.59481L16.9769 12.3159L12.7328 8.21094L16.58 4.48985C16.799 4.27808 17.1549 4.27808 17.3738 4.48985L20.8242 7.82706C21.0431 8.03883 21.0431 8.38304 20.8242 8.59481Z" fill="#C3BDFF"/>
<path d="M16.5791 20.1435L12.7318 16.4224L16.976 12.3174L20.8232 16.0385C21.0422 16.2503 21.0422 16.5945 20.8232 16.8063L17.3729 20.1435C17.1539 20.3552 16.798 20.3552 16.5791 20.1435Z" fill="#C3BDFF"/>
<path d="M4.64081 16.038L8.48809 12.3169L12.7323 16.4219L8.88498 20.143C8.66603 20.3547 8.31014 20.3547 8.09119 20.143L4.64081 16.8057C4.42186 16.594 4.42186 16.2498 4.64081 16.038Z" fill="#C3BDFF"/>
</svg>
