<svg width="103" height="153" viewBox="0 0 103 153" fill="none" xmlns="http://www.w3.org/2000/svg">
<path d="M103 94.0071C103 96.6735 100.818 98.835 98.1259 98.835H57.9836C55.2917 98.835 53.1095 96.6735 53.1095 94.0071V55.0426C53.1095 52.3762 55.2917 50.2147 57.9836 50.2147H98.1259C100.818 50.2147 103 52.3762 103 55.0426V94.0071Z" fill="#6F31FF"/>
<path d="M49.2004 148.172C49.2004 150.838 47.0182 153 44.3263 153H4.98869C2.29677 153 0.114535 150.838 0.114535 148.172V108.411C0.114535 105.744 2.29676 103.583 4.98868 103.583H44.3262C47.0182 103.583 49.2004 105.744 49.2004 108.411V148.172Z" fill="#6F31FF"/>
<path d="M103 148.172C103 150.838 100.818 153 98.1259 153H57.9836C55.2917 153 53.1095 150.838 53.1095 148.172V108.411C53.1095 105.744 55.2917 103.583 57.9836 103.583H98.1259C100.818 103.583 103 105.744 103 108.411V148.172Z" fill="#6F31FF"/>
<path d="M49.0859 44.5895C49.0859 47.2559 46.9036 49.4174 44.2117 49.4174H4.87413C2.18222 49.4174 0 47.2559 0 44.5895V4.82791C0 2.16153 2.18223 0 4.87414 0H44.2117C46.9036 0 49.0859 2.16153 49.0859 4.82792V44.5895Z" fill="#6F31FF"/>
</svg>
