<svg width="1368" height="363" viewBox="0 0 1368 363" fill="none" xmlns="http://www.w3.org/2000/svg">
<rect x="331.389" y="271.971" width="124.586" height="124.586" rx="2" transform="rotate(180 331.389 271.971)" fill="#A0A0A0" fill-opacity="0.2"/>
<rect x="192.986" y="410.4" width="124.586" height="124.586" rx="2" transform="rotate(180 192.986 410.4)" fill="#A0A0A0" fill-opacity="0.2"/>
<rect x="331.389" y="410.4" width="124.586" height="124.586" rx="2" transform="rotate(180 331.389 410.4)" fill="#A0A0A0" fill-opacity="0.2"/>
<path d="M192.986 145.385C192.986 146.49 192.091 147.385 190.986 147.385H70.4006C69.2961 147.385 68.4006 146.49 68.4006 145.385V24.7997C68.4006 23.6952 69.2961 22.7997 70.4006 22.7997H190.986C192.091 22.7997 192.986 23.6952 192.986 24.7997V145.385Z" fill="#A0A0A0" fill-opacity="0.2"/>
<path d="M481.112 406.918V329.384C481.112 324.848 481.112 320.998 481.112 317.833C481.112 314.668 481.112 311.715 481.112 308.972C481.112 300.744 479.849 293.518 477.324 287.294C474.799 280.965 470.643 276.059 464.856 272.578C459.07 268.992 451.337 267.198 441.657 267.198C433.135 267.198 425.402 269.308 418.458 273.528C411.619 277.747 406.148 283.496 402.045 290.775C398.046 297.948 396.047 306.124 396.047 315.301L381.37 308.023C381.37 294.415 384.579 282.231 390.997 271.471C397.415 260.605 405.99 252.008 416.722 245.679C427.559 239.349 439.395 236.185 452.231 236.185C465.488 236.185 476.798 238.769 486.162 243.938C495.631 249.001 502.838 256.28 507.783 265.774C512.833 275.163 515.358 286.397 515.358 299.478C515.358 304.33 515.358 309.71 515.358 315.618C515.358 321.525 515.358 327.222 515.358 332.707V406.918H481.112ZM361.801 406.918V238.875H396.047V406.918H361.801Z" fill="#A0A0A0" fill-opacity="0.2"/>
<path d="M603.752 409.925C591.863 409.925 581.973 407.921 574.082 403.912C566.191 399.798 559.931 394.471 555.301 387.93C550.672 381.285 547.41 374.059 545.517 366.252C543.623 358.341 542.676 350.64 542.676 343.15C542.676 339.247 542.676 335.186 542.676 330.966C542.676 326.641 542.676 322.316 542.676 317.991V238.875H577.08V313.086C577.08 316.884 577.08 320.629 577.08 324.321C577.08 327.907 577.08 331.283 577.08 334.448C577.08 342.57 578.133 350.06 580.237 356.917C582.341 363.668 586.023 369.153 591.284 373.373C596.65 377.487 604.12 379.544 613.694 379.544C622.637 379.544 630.423 376.907 637.052 371.632C643.68 366.252 648.835 359.501 652.518 351.379C656.2 343.15 658.041 334.922 658.041 326.694L673.034 334.764C673.034 344.469 671.403 353.805 668.142 362.771C664.985 371.738 660.409 379.808 654.412 386.981C648.414 394.049 641.102 399.64 632.475 403.754C623.953 407.868 614.378 409.925 603.752 409.925ZM658.041 406.918V238.875H692.288V406.918H658.041ZM593.651 213.557L631.37 173.524H660.409L618.902 213.557H593.651Z" fill="#A0A0A0" fill-opacity="0.2"/>
<path d="M801.129 410.241C784.295 410.241 769.197 406.707 755.835 399.64C742.578 392.466 732.109 382.287 724.429 369.101C716.854 355.915 713.066 340.408 713.066 322.58C713.066 304.752 716.854 289.404 724.429 276.534C732.109 263.559 742.578 253.59 755.835 246.628C769.197 239.666 784.295 236.185 801.129 236.185C813.86 236.185 825.17 238.136 835.06 242.039C844.95 245.837 853.314 250.9 860.153 257.23C866.992 263.559 872.2 270.521 875.777 278.116C879.354 285.712 881.143 293.307 881.143 300.902C881.143 301.008 881.143 301.166 881.143 301.377C881.143 301.588 881.143 301.799 881.143 302.01H847.212C847.212 301.482 847.159 300.902 847.054 300.269C846.949 299.531 846.844 298.845 846.738 298.212C845.897 291.988 843.477 286.45 839.479 281.598C835.481 276.745 830.22 272.895 823.697 270.047C817.174 267.198 809.546 265.774 800.813 265.774C791.239 265.774 782.401 267.884 774.3 272.104C766.303 276.218 759.886 282.494 755.046 290.933C750.206 299.372 747.786 309.921 747.786 322.58C747.786 335.239 750.153 345.893 754.888 354.543C759.728 363.088 766.146 369.575 774.142 374.006C782.243 378.436 791.134 380.652 800.813 380.652C811.229 380.652 819.751 379.069 826.38 375.905C833.008 372.635 838.006 368.31 841.373 362.93C844.739 357.444 846.686 351.537 847.212 345.207H881.143C881.143 352.803 879.407 360.503 875.935 368.31C872.463 376.01 867.36 383.025 860.627 389.355C853.893 395.684 845.529 400.747 835.533 404.545C825.643 408.343 814.175 410.241 801.129 410.241Z" fill="#A0A0A0" fill-opacity="0.2"/>
<path d="M939.334 159.6V406.918H905.56V159.6H939.334Z" fill="#A0A0A0" fill-opacity="0.2"/>
<path d="M981.555 334.922V308.181H1104.97L1100.23 316.092C1100.23 315.46 1100.23 314.827 1100.23 314.194C1100.23 313.455 1100.23 312.822 1100.23 312.295C1100.23 303.75 1098.39 295.891 1094.71 288.718C1091.03 281.439 1085.51 275.637 1078.14 271.312C1070.88 266.882 1061.78 264.667 1050.84 264.667C1039.9 264.667 1030.27 267.04 1021.96 271.787C1013.75 276.429 1007.33 283.074 1002.7 291.725C998.179 300.269 995.917 310.554 995.917 322.58C995.917 334.817 998.126 345.366 1002.55 354.227C1006.96 362.982 1013.33 369.734 1021.64 374.481C1029.95 379.228 1039.9 381.601 1051.47 381.601C1059.57 381.601 1066.57 380.81 1072.46 379.228C1078.46 377.54 1083.35 375.325 1087.14 372.582C1091.03 369.839 1093.97 366.885 1095.97 363.721C1097.97 360.451 1099.13 357.233 1099.45 354.069H1133.53C1132.9 360.925 1130.64 367.729 1126.75 374.481C1122.96 381.126 1117.54 387.192 1110.49 392.677C1103.55 398.057 1095.03 402.382 1084.93 405.653C1074.93 408.817 1063.41 410.4 1050.36 410.4C1032.9 410.4 1017.59 406.708 1004.44 399.323C991.287 391.939 981.029 381.707 973.664 368.626C966.299 355.44 962.617 340.355 962.617 323.371C962.617 306.071 966.352 290.881 973.822 277.8C981.292 264.719 991.656 254.54 1004.91 247.261C1018.17 239.877 1033.37 236.185 1050.52 236.185C1067.99 236.185 1083.09 239.877 1095.82 247.261C1108.65 254.645 1118.54 264.825 1125.49 277.8C1132.43 290.775 1135.9 305.702 1135.9 322.58C1135.9 324.584 1135.85 326.905 1135.74 329.542C1135.64 332.18 1135.48 333.973 1135.27 334.922H981.555Z" fill="#A0A0A0" fill-opacity="0.2"/>
<path d="M1239.25 410.083C1222 410.083 1206.74 406.338 1193.49 398.849C1180.33 391.359 1170.02 381.074 1162.55 367.993C1155.19 354.807 1151.51 339.722 1151.51 322.738C1151.51 305.86 1155.19 290.933 1162.55 277.958C1170.02 264.878 1180.33 254.698 1193.49 247.419C1206.74 240.035 1222 236.343 1239.25 236.343C1256.51 236.343 1271.71 240.035 1284.86 247.419C1298.12 254.698 1308.43 264.878 1315.8 277.958C1323.27 290.933 1327 305.86 1327 322.738C1327 339.722 1323.27 354.807 1315.8 367.993C1308.43 381.074 1298.12 391.359 1284.86 398.849C1271.71 406.338 1256.51 410.083 1239.25 410.083ZM1239.25 380.652C1249.77 380.652 1259.03 378.278 1267.03 373.531C1275.03 368.784 1281.29 362.086 1285.81 353.436C1290.33 344.68 1292.6 334.448 1292.6 322.738C1292.6 311.134 1290.33 301.06 1285.81 292.516C1281.29 283.971 1275.03 277.378 1267.03 272.737C1259.03 268.095 1249.77 265.774 1239.25 265.774C1228.84 265.774 1219.58 268.095 1211.48 272.737C1203.48 277.378 1197.22 283.971 1192.7 292.516C1188.17 301.06 1185.91 311.134 1185.91 322.738C1185.91 334.448 1188.17 344.68 1192.7 353.436C1197.22 362.086 1203.48 368.784 1211.48 373.531C1219.58 378.278 1228.84 380.652 1239.25 380.652Z" fill="#A0A0A0" fill-opacity="0.2"/>
</svg>
