<svg width="1270" height="519" viewBox="0 0 1270 519" fill="none" xmlns="http://www.w3.org/2000/svg">
<g filter="url(#filter0_n_4323_7772)">
<path d="M1264.76 517H0.201172C638.362 430.535 933.327 360.718 1264.76 170V517Z" fill="#27273F"/>
<path d="M1264.76 517H0.201172C638.362 430.535 933.327 360.718 1264.76 170V517Z" stroke="#27273F" stroke-width="3"/>
</g>
<rect x="806.027" y="90.5" width="215.307" height="74" rx="11.5" fill="#6F31FF" stroke="#6F31FF"/>
<path d="M835.008 117H832.788L825.268 105.36V117H823.408V102.64H825.788L833.168 114.04V102.64H835.008V117ZM839.43 102.64V117H837.55V102.64H839.43ZM851.923 102.64H853.823L848.483 117H846.443L841.143 102.64H843.143L847.503 114.72L851.923 102.64ZM857.359 115.28H864.799V117H855.479V102.64H864.799V104.36H857.359L857.339 108.96H864.799V110.68H857.339L857.359 115.28ZM875.54 115.28V117H867.1V102.64H868.96V115.28H875.54ZM890.893 112.26V113.84H889.053V117H887.353V113.84H880.813V112.58L887.793 102.58H889.053V112.26H890.893ZM887.353 105.66L882.893 112.26H887.353V105.66Z" fill="#FFFFEE"/>
<path d="M836.885 145H833.365L830.405 140.32H828.245V145H825.185V130.54H830.485C833.965 130.54 836.145 132.34 836.145 135.4C836.145 137.5 835.185 138.96 833.505 139.74C833.485 139.74 833.465 139.74 833.445 139.76L836.885 145ZM830.705 133.24H828.245V137.5H830.705C832.005 137.5 833.085 136.72 833.085 135.28C833.085 133.98 832.125 133.24 830.705 133.24ZM841.449 142.14H848.989V145H838.429V130.64H848.989V133.48H841.449L841.429 136.4H848.989V139.24H841.429L841.449 142.14ZM859.836 142.14V145H850.556V130.64H853.616V142.14H859.836ZM864.261 142.14H871.801V145H861.241V130.64H871.801V133.48H864.261L864.241 136.4H871.801V139.24H864.241L864.261 142.14ZM883.348 130.64H886.448L881.248 145H877.968L872.788 130.64H876.128L879.688 141.2L883.348 130.64ZM887.905 145H884.605L890.025 130.64H893.305L898.665 145H895.165L894.245 142.38H888.845L887.905 145ZM891.585 134.74L889.825 139.66H893.305L891.585 134.74ZM912.036 145H908.436L902.736 135.12V145H899.716V130.64H903.616L909.016 140.04V130.64H912.036V145ZM920.741 133.48V145H917.701V133.48H913.201V130.64H925.281V133.48H920.741ZM929.515 142.14H937.055V145H926.495V130.64H937.055V133.48H929.515L929.495 136.4H937.055V139.24H929.495L929.515 142.14Z" fill="#FFFFEE"/>
<rect x="1053.39" y="0.5" width="215.307" height="74" rx="11.5" fill="#6F31FF" stroke="#6F31FF"/>
<path d="M1082.37 27H1080.15L1072.63 15.36V27H1070.77V12.64H1073.15L1080.53 24.04V12.64H1082.37V27ZM1086.79 12.64V27H1084.91V12.64H1086.79ZM1099.29 12.64H1101.19L1095.85 27H1093.81L1088.51 12.64H1090.51L1094.87 24.72L1099.29 12.64ZM1104.72 25.28H1112.16V27H1102.84V12.64H1112.16V14.36H1104.72L1104.7 18.96H1112.16V20.68H1104.7L1104.72 25.28ZM1122.91 25.28V27H1114.47V12.64H1116.33V25.28H1122.91ZM1133.1 27.2C1130.54 27.2 1128.58 25.38 1128.5 22.88H1130.2C1130.34 24.54 1131.48 25.56 1133.08 25.56C1135.06 25.56 1136.1 24.22 1136.1 22.44C1136.1 20.8 1134.98 19.4 1133.1 19.4C1131.84 19.4 1130.88 20.02 1130.34 20.92L1128.76 20.86L1129.96 12.64H1137.08V14.28H1131.2L1130.52 18.86C1131.3 18.14 1132.36 17.82 1133.34 17.82C1136.22 17.82 1137.86 19.94 1137.86 22.42C1137.86 25.04 1136.08 27.2 1133.1 27.2Z" fill="#FFFFEE"/>
<path d="M1077.71 55H1072.63V40.64H1077.71C1082.29 40.64 1085.03 43.54 1085.03 47.74C1085.03 51.92 1082.17 55 1077.71 55ZM1077.55 43.56H1075.65V52.08H1077.55C1080.45 52.08 1081.95 50.4 1081.95 47.74C1081.95 45.14 1080.43 43.56 1077.55 43.56ZM1089.64 40.64V55H1086.58V40.64H1089.64ZM1094.38 49.24V55H1091.38V40.64H1101.8V43.48H1094.38V46.4H1101.8V49.24H1094.38ZM1106.3 52.14H1113.84V55H1103.28V40.64H1113.84V43.48H1106.3L1106.28 46.4H1113.84V49.24H1106.28L1106.3 52.14ZM1127.1 55H1123.58L1120.62 50.32H1118.46V55H1115.4V40.54H1120.7C1124.18 40.54 1126.36 42.34 1126.36 45.4C1126.36 47.5 1125.4 48.96 1123.72 49.74C1123.7 49.74 1123.68 49.74 1123.66 49.76L1127.1 55ZM1120.92 43.24H1118.46V47.5H1120.92C1122.22 47.5 1123.3 46.72 1123.3 45.28C1123.3 43.98 1122.34 43.24 1120.92 43.24ZM1131.67 52.14H1139.21V55H1128.65V40.64H1139.21V43.48H1131.67L1131.65 46.4H1139.21V49.24H1131.65L1131.67 52.14ZM1153.09 55H1149.49L1143.79 45.12V55H1140.77V40.64H1144.67L1150.07 50.04V40.64H1153.09V55ZM1161.8 55.3C1157.76 55.3 1154.6 52 1154.6 47.8C1154.6 43.62 1157.76 40.34 1161.8 40.34C1165.56 40.34 1168.54 42.86 1169.02 46.52H1165.76C1165.52 45.16 1164.76 44.28 1163.66 43.7C1163.1 43.4 1162.48 43.26 1161.82 43.26C1159.44 43.26 1157.78 45.1 1157.78 47.8C1157.78 50.52 1159.38 52.36 1161.82 52.36C1163.84 52.36 1165.4 51.06 1165.76 49.1H1169.02C1168.54 52.78 1165.54 55.3 1161.8 55.3ZM1173.64 40.64V55H1170.58V40.64H1173.64ZM1178.05 55H1174.75L1180.17 40.64H1183.45L1188.81 55H1185.31L1184.39 52.38H1178.99L1178.05 55ZM1181.73 44.74L1179.97 49.66H1183.45L1181.73 44.74ZM1195.02 55H1189.94V40.64H1195.02C1199.6 40.64 1202.34 43.54 1202.34 47.74C1202.34 51.92 1199.48 55 1195.02 55ZM1194.86 43.56H1192.96V52.08H1194.86C1197.76 52.08 1199.26 50.4 1199.26 47.74C1199.26 45.14 1197.74 43.56 1194.86 43.56ZM1210.94 55.3C1206.8 55.3 1203.6 52.1 1203.6 47.8C1203.6 43.5 1206.8 40.34 1210.94 40.34C1215.1 40.34 1218.3 43.5 1218.3 47.8C1218.3 52.1 1215.1 55.3 1210.94 55.3ZM1210.94 52.42C1213.6 52.42 1215.2 50.38 1215.2 47.8C1215.2 45.26 1213.6 43.2 1210.94 43.2C1208.32 43.2 1206.68 45.26 1206.68 47.8C1206.68 50.38 1208.32 52.42 1210.94 52.42Z" fill="#FFFFEE"/>
<line x1="250.701" y1="517" x2="250.701" y2="362" stroke="#A0A0A0" stroke-dasharray="5 5"/>
<path d="M332.51 289H330.29L322.77 277.36V289H320.91V274.64H323.29L330.67 286.04V274.64H332.51V289ZM336.931 274.64V289H335.051V274.64H336.931ZM349.425 274.64H351.325L345.985 289H343.945L338.645 274.64H340.645L345.005 286.72L349.425 274.64ZM354.861 287.28H362.301V289H352.981V274.64H362.301V276.36H354.861L354.841 280.96H362.301V282.68H354.841L354.861 287.28ZM373.042 287.28V289H364.602V274.64H366.462V287.28H373.042ZM381.555 287.44H387.315V289H378.855V288.02L383.135 282.72C384.175 281.44 384.715 280.78 385.095 279.92C385.275 279.5 385.375 279.08 385.375 278.66C385.375 277.08 384.355 276.1 382.855 276.1C381.275 276.1 380.215 277.16 380.215 278.74H378.535C378.535 276.32 380.355 274.56 382.915 274.56C385.355 274.56 387.155 276.22 387.155 278.52C387.155 280.32 386.555 280.98 384.455 283.62L381.555 287.44Z" fill="#A0A0A0"/>
<path d="M329.769 317.3C325.729 317.3 322.569 314 322.569 309.8C322.569 305.62 325.729 302.34 329.769 302.34C333.529 302.34 336.509 304.86 336.989 308.52H333.729C333.489 307.16 332.729 306.28 331.629 305.7C331.069 305.4 330.449 305.26 329.789 305.26C327.409 305.26 325.749 307.1 325.749 309.8C325.749 312.52 327.349 314.36 329.789 314.36C331.809 314.36 333.369 313.06 333.729 311.1H336.989C336.509 314.78 333.509 317.3 329.769 317.3ZM345.61 317.3C341.47 317.3 338.27 314.1 338.27 309.8C338.27 305.5 341.47 302.34 345.61 302.34C349.77 302.34 352.97 305.5 352.97 309.8C352.97 314.1 349.77 317.3 345.61 317.3ZM345.61 314.42C348.27 314.42 349.87 312.38 349.87 309.8C349.87 307.26 348.27 305.2 345.61 305.2C342.99 305.2 341.35 307.26 341.35 309.8C341.35 312.38 342.99 314.42 345.61 314.42ZM363.408 317H360.908L357.388 307.78V317H354.368V302.64H358.408L362.168 312.16L365.928 302.64H369.968V317H366.948V307.72L363.408 317ZM376.875 312.32H374.635V317H371.575V302.54H376.875C380.355 302.54 382.535 304.34 382.535 307.4C382.535 310.54 380.355 312.32 376.875 312.32ZM377.095 305.24H374.635V309.5H377.095C378.395 309.5 379.475 308.72 379.475 307.28C379.475 305.98 378.515 305.24 377.095 305.24ZM395.619 317H392.099L389.139 312.32H386.979V317H383.919V302.54H389.219C392.699 302.54 394.879 304.34 394.879 307.4C394.879 309.5 393.919 310.96 392.239 311.74C392.219 311.74 392.199 311.74 392.179 311.76L395.619 317ZM389.439 305.24H386.979V309.5H389.439C390.739 309.5 391.819 308.72 391.819 307.28C391.819 305.98 390.859 305.24 389.439 305.24ZM400.183 314.14H407.723V317H397.163V302.64H407.723V305.48H400.183L400.163 308.4H407.723V311.24H400.163L400.183 314.14ZM421.61 317H418.01L412.31 307.12V317H409.29V302.64H413.19L418.59 312.04V302.64H421.61V317ZM434.836 312.54C434.836 315.26 432.656 317.2 429.036 317.2C426.636 317.2 424.756 316.36 423.796 314.9C423.316 314.16 423.056 313.38 423.016 312.52H426.096C426.176 313.9 427.196 314.5 428.976 314.5C430.716 314.5 431.756 313.96 431.756 312.84C431.756 311.94 431.076 311.54 429.816 311.28L427.376 310.84C426.036 310.58 425.136 310.18 424.436 309.54C423.716 308.9 423.316 308 423.316 306.82C423.316 305.12 424.256 303.74 425.936 303C426.756 302.64 427.676 302.46 428.676 302.46H428.776C431.516 302.46 432.996 303.28 433.876 304.7C434.316 305.4 434.556 306.2 434.616 307.08H431.516C431.396 305.76 430.576 305.08 428.796 305.08C427.156 305.08 426.256 305.66 426.256 306.7C426.256 307.74 427.096 308.04 428.336 308.28L430.896 308.76C433.396 309.24 434.836 310.44 434.836 312.54ZM439.501 302.64V317H436.441V302.64H439.501ZM451.985 312.78C451.985 315.42 450.025 317 446.845 317H441.245V302.64H446.625C449.665 302.64 451.505 304 451.505 306.46C451.505 307.76 450.765 308.84 449.465 309.5C451.085 310.06 451.985 311.18 451.985 312.78ZM446.405 305.26H444.185V308.34H446.405C447.685 308.34 448.485 307.82 448.485 306.84C448.485 305.78 447.685 305.26 446.405 305.26ZM446.625 310.88H444.185V314.28H446.625C448.065 314.28 448.965 313.62 448.965 312.58C448.965 311.48 448.065 310.88 446.625 310.88ZM462.867 314.14V317H453.587V302.64H456.647V314.14H462.867ZM467.293 314.14H474.833V317H464.273V302.64H474.833V305.48H467.293L467.273 308.4H474.833V311.24H467.273L467.293 314.14Z" fill="#A0A0A0"/>
<rect x="303.531" y="262.5" width="215.307" height="74" rx="11.5" stroke="#A0A0A0"/>
<path d="M64.0685 357H61.8485L54.3285 345.36V357H52.4685V342.64H54.8485L62.2285 354.04V342.64H64.0685V357ZM68.4901 342.64V357H66.6101V342.64H68.4901ZM80.9832 342.64H82.8832L77.5432 357H75.5032L70.2032 342.64H72.2032L76.5632 354.72L80.9832 342.64ZM86.4198 355.28H93.8598V357H84.5398V342.64H93.8598V344.36H86.4198L86.3998 348.96H93.8598V350.68H86.3998L86.4198 355.28ZM104.6 355.28V357H96.1604V342.64H98.0204V355.28H104.6ZM114.074 342.64V357H112.354V344.12H109.714V342.64H114.074Z" fill="#A0A0A0"/>
<path d="M61.3253 385.3C57.2853 385.3 54.1253 382 54.1253 377.8C54.1253 373.62 57.2853 370.34 61.3253 370.34C65.0853 370.34 68.0653 372.86 68.5453 376.52H65.2853C65.0453 375.16 64.2853 374.28 63.1853 373.7C62.6253 373.4 62.0053 373.26 61.3453 373.26C58.9653 373.26 57.3053 375.1 57.3053 377.8C57.3053 380.52 58.9053 382.36 61.3453 382.36C63.3653 382.36 64.9253 381.06 65.2853 379.1H68.5453C68.0653 382.78 65.0653 385.3 61.3253 385.3ZM77.1666 385.3C73.0266 385.3 69.8266 382.1 69.8266 377.8C69.8266 373.5 73.0266 370.34 77.1666 370.34C81.3266 370.34 84.5266 373.5 84.5266 377.8C84.5266 382.1 81.3266 385.3 77.1666 385.3ZM77.1666 382.42C79.8266 382.42 81.4266 380.38 81.4266 377.8C81.4266 375.26 79.8266 373.2 77.1666 373.2C74.5466 373.2 72.9066 375.26 72.9066 377.8C72.9066 380.38 74.5466 382.42 77.1666 382.42ZM98.245 385H94.645L88.945 375.12V385H85.925V370.64H89.825L95.225 380.04V370.64H98.245V385ZM102.95 379.24V385H99.9503V370.64H110.37V373.48H102.95V376.4H110.37V379.24H102.95ZM120.505 370.64H123.545V379.54C123.545 382.94 121.405 385.3 117.665 385.3C113.905 385.3 111.765 382.94 111.765 379.54V370.64H114.805V379.68C114.805 381.32 115.685 382.42 117.665 382.42C119.665 382.42 120.505 381.32 120.505 379.68V370.64ZM136.744 380.54C136.744 383.26 134.564 385.2 130.944 385.2C128.544 385.2 126.664 384.36 125.704 382.9C125.224 382.16 124.964 381.38 124.924 380.52H128.004C128.084 381.9 129.104 382.5 130.884 382.5C132.624 382.5 133.664 381.96 133.664 380.84C133.664 379.94 132.984 379.54 131.724 379.28L129.284 378.84C127.944 378.58 127.044 378.18 126.344 377.54C125.624 376.9 125.224 376 125.224 374.82C125.224 373.12 126.164 371.74 127.844 371C128.664 370.64 129.584 370.46 130.584 370.46H130.684C133.424 370.46 134.904 371.28 135.784 372.7C136.224 373.4 136.464 374.2 136.524 375.08H133.424C133.304 373.76 132.484 373.08 130.704 373.08C129.064 373.08 128.164 373.66 128.164 374.7C128.164 375.74 129.004 376.04 130.244 376.28L132.804 376.76C135.304 377.24 136.744 378.44 136.744 380.54ZM145.018 385.3C140.878 385.3 137.678 382.1 137.678 377.8C137.678 373.5 140.878 370.34 145.018 370.34C149.178 370.34 152.378 373.5 152.378 377.8C152.378 382.1 149.178 385.3 145.018 385.3ZM145.018 382.42C147.678 382.42 149.278 380.38 149.278 377.8C149.278 375.26 147.678 373.2 145.018 373.2C142.398 373.2 140.758 375.26 140.758 377.8C140.758 380.38 142.398 382.42 145.018 382.42Z" fill="#A0A0A0"/>
<rect x="35.0898" y="330.5" width="215.307" height="74" rx="11.5" stroke="#A0A0A0"/>
<line y1="-0.5" x2="199.001" y2="-0.5" transform="matrix(0.00278704 -0.999996 0.999997 0.00226502 519.338 517)" stroke="#A0A0A0" stroke-dasharray="5 5"/>
<path d="M589.86 209H587.64L580.12 197.36V209H578.26V194.64H580.64L588.02 206.04V194.64H589.86V209ZM594.281 194.64V209H592.401V194.64H594.281ZM606.774 194.64H608.674L603.334 209H601.294L595.994 194.64H597.994L602.354 206.72L606.774 194.64ZM612.211 207.28H619.651V209H610.331V194.64H619.651V196.36H612.211L612.191 200.96H619.651V202.68H612.191L612.211 207.28ZM630.391 207.28V209H621.951V194.64H623.811V207.28H630.391ZM640.825 209.18C638.065 209.18 636.185 207.52 636.145 205H637.805C637.885 206.68 639.065 207.72 640.825 207.72C642.665 207.72 643.765 206.62 643.765 204.6C643.765 202.74 642.525 201.62 640.525 201.62H639.165V200.16L643.185 196.3V196.24H636.145V194.64L644.985 194.6V196.56L641.085 200.32C642.745 200.36 643.905 200.8 644.565 201.62C645.205 202.44 645.525 203.42 645.525 204.56C645.525 206.4 644.705 207.94 643.285 208.64C642.585 209 641.765 209.18 640.825 209.18Z" fill="#A0A0A0"/>
<path d="M587.118 237.3C583.078 237.3 579.918 234 579.918 229.8C579.918 225.62 583.078 222.34 587.118 222.34C590.878 222.34 593.858 224.86 594.338 228.52H591.078C590.838 227.16 590.078 226.28 588.978 225.7C588.418 225.4 587.798 225.26 587.138 225.26C584.758 225.26 583.098 227.1 583.098 229.8C583.098 232.52 584.698 234.36 587.138 234.36C589.158 234.36 590.718 233.06 591.078 231.1H594.338C593.858 234.78 590.858 237.3 587.118 237.3ZM605.1 234.14V237H595.82V222.64H598.88V234.14H605.1ZM609.165 237H605.865L611.285 222.64H614.565L619.925 237H616.425L615.505 234.38H610.105L609.165 237ZM612.845 226.74L611.085 231.66H614.565L612.845 226.74ZM632.676 237H629.156L626.196 232.32H624.036V237H620.976V222.54H626.276C629.756 222.54 631.936 224.34 631.936 227.4C631.936 229.5 630.976 230.96 629.296 231.74C629.276 231.74 629.256 231.74 629.236 231.76L632.676 237ZM626.496 225.24H624.036V229.5H626.496C627.796 229.5 628.876 228.72 628.876 227.28C628.876 225.98 627.916 225.24 626.496 225.24ZM641.28 237.3C637.14 237.3 633.94 234.1 633.94 229.8C633.94 225.5 637.14 222.34 641.28 222.34C645.44 222.34 648.64 225.5 648.64 229.8C648.64 234.1 645.44 237.3 641.28 237.3ZM641.28 234.42C643.94 234.42 645.54 232.38 645.54 229.8C645.54 227.26 643.94 225.2 641.28 225.2C638.66 225.2 637.02 227.26 637.02 229.8C637.02 232.38 638.66 234.42 641.28 234.42Z" fill="#A0A0A0"/>
<rect x="560.881" y="182.5" width="215.307" height="74" rx="11.5" stroke="#A0A0A0"/>
<line y1="-0.5" x2="275" y2="-0.5" transform="matrix(0.00201679 -0.999998 0.999999 0.00163904 776.688 517)" stroke="#A0A0A0" stroke-dasharray="5 5"/>
<line x1="1020.78" y1="517" x2="1020.78" y2="165" stroke="#6F31FF" stroke-dasharray="5 5"/>
<line x1="1265.37" y1="517" x2="1265.37" y2="75" stroke="#6F31FF" stroke-dasharray="5 5"/>
<defs>
<filter id="filter0_n_4323_7772" x="0" y="167.406" width="1266.26" height="351.094" filterUnits="userSpaceOnUse" color-interpolation-filters="sRGB">
<feFlood flood-opacity="0" result="BackgroundImageFix"/>
<feBlend mode="normal" in="SourceGraphic" in2="BackgroundImageFix" result="shape"/>
<feTurbulence type="fractalNoise" baseFrequency="2 2" stitchTiles="stitch" numOctaves="3" result="noise" seed="8092" />
<feColorMatrix in="noise" type="luminanceToAlpha" result="alphaNoise" />
<feComponentTransfer in="alphaNoise" result="coloredNoise1">
<feFuncA type="discrete" tableValues="1 1 1 1 1 1 1 1 1 1 1 1 1 1 1 1 1 1 1 1 1 1 1 1 1 1 1 1 1 1 1 1 1 1 1 1 1 1 1 1 1 1 1 1 1 1 1 1 1 1 1 0 0 0 0 0 0 0 0 0 0 0 0 0 0 0 0 0 0 0 0 0 0 0 0 0 0 0 0 0 0 0 0 0 0 0 0 0 0 0 0 0 0 0 0 0 0 0 0 0 "/>
</feComponentTransfer>
<feComposite operator="in" in2="shape" in="coloredNoise1" result="noise1Clipped" />
<feFlood flood-color="rgba(0, 0, 0, 0.25)" result="color1Flood" />
<feComposite operator="in" in2="noise1Clipped" in="color1Flood" result="color1" />
<feMerge result="effect1_noise_4323_7772">
<feMergeNode in="shape" />
<feMergeNode in="color1" />
</feMerge>
</filter>
</defs>
</svg>
