<svg width="457" height="463" viewBox="0 0 457 463" fill="none" xmlns="http://www.w3.org/2000/svg">
<g filter="url(#filter0_n_4497_14165)">
<path d="M455.484 461H15.1758C237.377 374.535 340.081 304.718 455.484 114V461Z" fill="#27273F"/>
<path d="M455.484 461H15.1758C237.377 374.535 340.081 304.718 455.484 114V461Z" stroke="#27273F" stroke-width="3"/>
</g>
<g filter="url(#filter1_n_4497_14165)">
<path d="M102.57 462H15L102.57 424V462Z" fill="#27273F"/>
</g>
<line x1="102.07" y1="461" x2="102.07" y2="339" stroke="#3F3F50" stroke-dasharray="5 5"/>
<rect x="0.5" y="318.5" width="101" height="44" rx="11.5" stroke="#3F3F50"/>
<path d="M10.8966 335V327.9H12.1166L15.6266 334.14V327.9H16.4866V335H15.2066L11.7566 328.88V335H10.8966ZM18.0129 335V329.7H18.8529V335H18.0129ZM17.9929 328.87V327.89H18.8729V328.87H17.9929ZM21.7066 335L19.7766 329.7H20.6966L22.2366 334.14L23.7766 329.7H24.6966L22.7666 335H21.7066ZM27.5243 335.12C27.0243 335.12 26.591 335.007 26.2243 334.78C25.8643 334.553 25.5843 334.233 25.3843 333.82C25.191 333.4 25.0943 332.91 25.0943 332.35C25.0943 331.79 25.191 331.303 25.3843 330.89C25.5843 330.477 25.861 330.157 26.2143 329.93C26.5743 329.697 26.9976 329.58 27.4843 329.58C27.9443 329.58 28.351 329.69 28.7043 329.91C29.0576 330.123 29.331 330.437 29.5243 330.85C29.7243 331.263 29.8243 331.767 29.8243 332.36V332.61H25.9743C26.0076 333.177 26.1576 333.603 26.4243 333.89C26.6976 334.177 27.0643 334.32 27.5243 334.32C27.871 334.32 28.1543 334.24 28.3743 334.08C28.601 333.913 28.7576 333.697 28.8443 333.43L29.7443 333.5C29.6043 333.973 29.3376 334.363 28.9443 334.67C28.5576 334.97 28.0843 335.12 27.5243 335.12ZM25.9743 331.87H28.9043C28.8643 331.357 28.7143 330.98 28.4543 330.74C28.201 330.5 27.8776 330.38 27.4843 330.38C27.0776 330.38 26.741 330.507 26.4743 330.76C26.2143 331.007 26.0476 331.377 25.9743 331.87ZM32.0509 335C31.7443 335 31.4943 334.92 31.3009 334.76C31.1076 334.6 31.0109 334.347 31.0109 334V327.9H31.8509V333.93C31.8509 334.037 31.8776 334.12 31.9309 334.18C31.9909 334.233 32.0743 334.26 32.1809 334.26H32.6409V335H32.0509ZM37.257 335V329.74H35.777V329H36.377C36.637 329 36.8436 328.967 36.997 328.9C37.157 328.833 37.2703 328.72 37.337 328.56C37.4036 328.4 37.437 328.18 37.437 327.9H38.117V335H37.257Z" fill="#3F3F50"/>
<path d="M15.6016 353.24C14.6316 353.24 13.7666 353.02 13.0066 352.58C12.2566 352.14 11.6666 351.505 11.2366 350.675C10.8166 349.845 10.6066 348.85 10.6066 347.69C10.6066 346.56 10.8116 345.58 11.2216 344.75C11.6316 343.91 12.2166 343.26 12.9766 342.8C13.7366 342.34 14.6266 342.11 15.6466 342.11C17.0366 342.11 18.1166 342.455 18.8866 343.145C19.6666 343.825 20.1666 344.8 20.3866 346.07L18.0166 346.16C17.8966 345.49 17.6366 344.97 17.2366 344.6C16.8366 344.22 16.3066 344.03 15.6466 344.03C15.0766 344.03 14.5916 344.18 14.1916 344.48C13.7916 344.78 13.4866 345.205 13.2766 345.755C13.0666 346.305 12.9616 346.95 12.9616 347.69C12.9616 348.44 13.0666 349.09 13.2766 349.64C13.4966 350.18 13.8066 350.595 14.2066 350.885C14.6066 351.175 15.0816 351.32 15.6316 351.32C16.3516 351.32 16.9066 351.12 17.2966 350.72C17.6966 350.31 17.9466 349.745 18.0466 349.025L20.4316 349.115C20.2916 349.985 20.0166 350.725 19.6066 351.335C19.1966 351.945 18.6566 352.415 17.9866 352.745C17.3266 353.075 16.5316 353.24 15.6016 353.24ZM26.8122 353.24C25.7322 353.24 24.8022 353.015 24.0222 352.565C23.2522 352.115 22.6572 351.475 22.2372 350.645C21.8272 349.815 21.6222 348.83 21.6222 347.69C21.6222 346.55 21.8272 345.565 22.2372 344.735C22.6572 343.895 23.2522 343.25 24.0222 342.8C24.8022 342.34 25.7322 342.11 26.8122 342.11C27.8922 342.11 28.8172 342.34 29.5872 342.8C30.3672 343.25 30.9622 343.895 31.3722 344.735C31.7922 345.565 32.0022 346.55 32.0022 347.69C32.0022 348.83 31.7922 349.815 31.3722 350.645C30.9622 351.475 30.3672 352.115 29.5872 352.565C28.8172 353.015 27.8922 353.24 26.8122 353.24ZM26.7972 351.32C27.3972 351.32 27.9072 351.18 28.3272 350.9C28.7572 350.61 29.0822 350.195 29.3022 349.655C29.5322 349.115 29.6472 348.46 29.6472 347.69C29.6472 346.92 29.5322 346.265 29.3022 345.725C29.0822 345.175 28.7572 344.755 28.3272 344.465C27.9072 344.175 27.3972 344.03 26.7972 344.03C26.2072 344.03 25.7022 344.175 25.2822 344.465C24.8622 344.755 24.5372 345.175 24.3072 345.725C24.0872 346.265 23.9772 346.92 23.9772 347.69C23.9772 348.46 24.0872 349.115 24.3072 349.655C24.5372 350.195 24.8622 350.61 25.2822 350.9C25.7122 351.18 26.2172 351.32 26.7972 351.32ZM33.5133 353V342.35H36.0333L40.2633 349.7V342.35H42.5433V353H39.9933L35.7933 345.905V353H33.5133ZM44.5582 353V342.35H51.9082V344.27H45.5782L46.8382 342.965V347.84L45.5782 346.85H51.6382V348.74H45.5782L46.8382 347.75V353H44.5582ZM57.781 353.24C56.881 353.24 56.101 353.075 55.441 352.745C54.791 352.415 54.286 351.945 53.926 351.335C53.566 350.715 53.386 349.99 53.386 349.16V342.335H55.666V349.16C55.666 349.85 55.846 350.385 56.206 350.765C56.576 351.135 57.101 351.32 57.781 351.32C58.461 351.32 58.981 351.135 59.341 350.765C59.701 350.385 59.881 349.85 59.881 349.16V342.335H62.161V349.16C62.161 349.99 61.981 350.715 61.621 351.335C61.271 351.945 60.766 352.415 60.106 352.745C59.446 353.075 58.671 353.24 57.781 353.24ZM68.3729 353.24C67.4529 353.24 66.6629 353.085 66.0029 352.775C65.3429 352.465 64.8279 352.03 64.4579 351.47C64.0879 350.91 63.8779 350.25 63.8279 349.49L66.1229 349.385C66.1829 349.805 66.3029 350.165 66.4829 350.465C66.6729 350.755 66.9229 350.975 67.2329 351.125C67.5529 351.275 67.9429 351.35 68.4029 351.35C68.7829 351.35 69.1029 351.305 69.3629 351.215C69.6329 351.125 69.8379 350.99 69.9779 350.81C70.1179 350.62 70.1879 350.39 70.1879 350.12C70.1879 349.87 70.1279 349.655 70.0079 349.475C69.8879 349.285 69.6579 349.115 69.3179 348.965C68.9779 348.805 68.4779 348.65 67.8179 348.5C66.9079 348.29 66.1729 348.055 65.6129 347.795C65.0629 347.535 64.6629 347.21 64.4129 346.82C64.1629 346.42 64.0379 345.92 64.0379 345.32C64.0379 344.68 64.1929 344.12 64.5029 343.64C64.8229 343.16 65.2829 342.785 65.8829 342.515C66.4829 342.245 67.1979 342.11 68.0279 342.11C68.9079 342.11 69.6529 342.265 70.2629 342.575C70.8729 342.885 71.3479 343.31 71.6879 343.85C72.0379 344.39 72.2479 345.01 72.3179 345.71L70.0379 345.83C70.0079 345.46 69.9079 345.14 69.7379 344.87C69.5679 344.59 69.3379 344.375 69.0479 344.225C68.7579 344.075 68.4079 344 67.9979 344C67.4779 344 67.0679 344.115 66.7679 344.345C66.4779 344.575 66.3329 344.875 66.3329 345.245C66.3329 345.505 66.3979 345.725 66.5279 345.905C66.6679 346.075 66.8929 346.225 67.2029 346.355C67.5229 346.485 67.9729 346.61 68.5529 346.73C69.5429 346.93 70.3229 347.185 70.8929 347.495C71.4729 347.795 71.8829 348.155 72.1229 348.575C72.3629 348.995 72.4829 349.475 72.4829 350.015C72.4829 350.675 72.3129 351.25 71.9729 351.74C71.6429 352.22 71.1679 352.59 70.5479 352.85C69.9379 353.11 69.2129 353.24 68.3729 353.24ZM79.0778 353.24C77.9978 353.24 77.0678 353.015 76.2878 352.565C75.5178 352.115 74.9228 351.475 74.5028 350.645C74.0928 349.815 73.8878 348.83 73.8878 347.69C73.8878 346.55 74.0928 345.565 74.5028 344.735C74.9228 343.895 75.5178 343.25 76.2878 342.8C77.0678 342.34 77.9978 342.11 79.0778 342.11C80.1578 342.11 81.0828 342.34 81.8528 342.8C82.6328 343.25 83.2278 343.895 83.6378 344.735C84.0578 345.565 84.2678 346.55 84.2678 347.69C84.2678 348.83 84.0578 349.815 83.6378 350.645C83.2278 351.475 82.6328 352.115 81.8528 352.565C81.0828 353.015 80.1578 353.24 79.0778 353.24ZM79.0628 351.32C79.6628 351.32 80.1728 351.18 80.5928 350.9C81.0228 350.61 81.3478 350.195 81.5678 349.655C81.7978 349.115 81.9128 348.46 81.9128 347.69C81.9128 346.92 81.7978 346.265 81.5678 345.725C81.3478 345.175 81.0228 344.755 80.5928 344.465C80.1728 344.175 79.6628 344.03 79.0628 344.03C78.4728 344.03 77.9678 344.175 77.5478 344.465C77.1278 344.755 76.8028 345.175 76.5728 345.725C76.3528 346.265 76.2428 346.92 76.2428 347.69C76.2428 348.46 76.3528 349.115 76.5728 349.655C76.8028 350.195 77.1278 350.61 77.5478 350.9C77.9778 351.18 78.4828 351.32 79.0628 351.32Z" fill="#3F3F50"/>
<rect x="55.5" y="226.5" width="140" height="44" rx="11.5" stroke="#3F3F50"/>
<path d="M65.92 244V236.9H67.14L70.65 243.14V236.9H71.51V244H70.23L66.78 237.88V244H65.92ZM73.0363 244V238.7H73.8763V244H73.0363ZM73.0163 237.87V236.89H73.8963V237.87H73.0163ZM76.7301 244L74.8001 238.7H75.7201L77.2601 243.14L78.8001 238.7H79.7201L77.7901 244H76.7301ZM82.5477 244.12C82.0477 244.12 81.6144 244.007 81.2477 243.78C80.8877 243.553 80.6077 243.233 80.4077 242.82C80.2144 242.4 80.1177 241.91 80.1177 241.35C80.1177 240.79 80.2144 240.303 80.4077 239.89C80.6077 239.477 80.8844 239.157 81.2377 238.93C81.5977 238.697 82.0211 238.58 82.5077 238.58C82.9677 238.58 83.3744 238.69 83.7277 238.91C84.0811 239.123 84.3544 239.437 84.5477 239.85C84.7477 240.263 84.8477 240.767 84.8477 241.36V241.61H80.9977C81.0311 242.177 81.1811 242.603 81.4477 242.89C81.7211 243.177 82.0877 243.32 82.5477 243.32C82.8944 243.32 83.1777 243.24 83.3977 243.08C83.6244 242.913 83.7811 242.697 83.8677 242.43L84.7677 242.5C84.6277 242.973 84.3611 243.363 83.9677 243.67C83.5811 243.97 83.1077 244.12 82.5477 244.12ZM80.9977 240.87H83.9277C83.8877 240.357 83.7377 239.98 83.4777 239.74C83.2244 239.5 82.9011 239.38 82.5077 239.38C82.1011 239.38 81.7644 239.507 81.4977 239.76C81.2377 240.007 81.0711 240.377 80.9977 240.87ZM87.0744 244C86.7677 244 86.5177 243.92 86.3244 243.76C86.131 243.6 86.0344 243.347 86.0344 243V236.9H86.8744V242.93C86.8744 243.037 86.901 243.12 86.9544 243.18C87.0144 243.233 87.0977 243.26 87.2044 243.26H87.6644V244H87.0744ZM92.2804 244V238.74H90.8004V238H91.4004C91.6604 238 91.8671 237.967 92.0204 237.9C92.1804 237.833 92.2937 237.72 92.3604 237.56C92.4271 237.4 92.4604 237.18 92.4604 236.9H93.1404V244H92.2804Z" fill="#3F3F50"/>
<path d="M70.625 262.24C69.655 262.24 68.79 262.02 68.03 261.58C67.28 261.14 66.69 260.505 66.26 259.675C65.84 258.845 65.63 257.85 65.63 256.69C65.63 255.56 65.835 254.58 66.245 253.75C66.655 252.91 67.24 252.26 68 251.8C68.76 251.34 69.65 251.11 70.67 251.11C72.06 251.11 73.14 251.455 73.91 252.145C74.69 252.825 75.19 253.8 75.41 255.07L73.04 255.16C72.92 254.49 72.66 253.97 72.26 253.6C71.86 253.22 71.33 253.03 70.67 253.03C70.1 253.03 69.615 253.18 69.215 253.48C68.815 253.78 68.51 254.205 68.3 254.755C68.09 255.305 67.985 255.95 67.985 256.69C67.985 257.44 68.09 258.09 68.3 258.64C68.52 259.18 68.83 259.595 69.23 259.885C69.63 260.175 70.105 260.32 70.655 260.32C71.375 260.32 71.93 260.12 72.32 259.72C72.72 259.31 72.97 258.745 73.07 258.025L75.455 258.115C75.315 258.985 75.04 259.725 74.63 260.335C74.22 260.945 73.68 261.415 73.01 261.745C72.35 262.075 71.555 262.24 70.625 262.24ZM81.8356 262.24C80.7556 262.24 79.8256 262.015 79.0456 261.565C78.2756 261.115 77.6806 260.475 77.2606 259.645C76.8506 258.815 76.6456 257.83 76.6456 256.69C76.6456 255.55 76.8506 254.565 77.2606 253.735C77.6806 252.895 78.2756 252.25 79.0456 251.8C79.8256 251.34 80.7556 251.11 81.8356 251.11C82.9156 251.11 83.8406 251.34 84.6106 251.8C85.3906 252.25 85.9856 252.895 86.3956 253.735C86.8156 254.565 87.0256 255.55 87.0256 256.69C87.0256 257.83 86.8156 258.815 86.3956 259.645C85.9856 260.475 85.3906 261.115 84.6106 261.565C83.8406 262.015 82.9156 262.24 81.8356 262.24ZM81.8206 260.32C82.4206 260.32 82.9306 260.18 83.3506 259.9C83.7806 259.61 84.1056 259.195 84.3256 258.655C84.5556 258.115 84.6706 257.46 84.6706 256.69C84.6706 255.92 84.5556 255.265 84.3256 254.725C84.1056 254.175 83.7806 253.755 83.3506 253.465C82.9306 253.175 82.4206 253.03 81.8206 253.03C81.2306 253.03 80.7256 253.175 80.3056 253.465C79.8856 253.755 79.5606 254.175 79.3306 254.725C79.1106 255.265 79.0006 255.92 79.0006 256.69C79.0006 257.46 79.1106 258.115 79.3306 258.655C79.5606 259.195 79.8856 259.61 80.3056 259.9C80.7356 260.18 81.2406 260.32 81.8206 260.32ZM88.5368 262V251.35H91.5818L94.2968 259.105L96.9968 251.35H100.042V262H97.7618V255.1L95.2568 261.97H93.3068L90.8168 255.1V262H88.5368ZM102.057 262V251.35H106.317C107.597 251.35 108.597 251.66 109.317 252.28C110.047 252.9 110.412 253.75 110.412 254.83C110.412 255.54 110.247 256.16 109.917 256.69C109.597 257.21 109.127 257.615 108.507 257.905C107.897 258.185 107.167 258.325 106.317 258.325H104.337V262H102.057ZM104.337 256.405H106.182C106.782 256.405 107.247 256.275 107.577 256.015C107.907 255.745 108.072 255.35 108.072 254.83C108.072 254.32 107.907 253.935 107.577 253.675C107.257 253.405 106.792 253.27 106.182 253.27H104.337V256.405ZM111.842 262V251.35H116.507C117.287 251.35 117.962 251.48 118.532 251.74C119.112 252 119.557 252.37 119.867 252.85C120.177 253.32 120.332 253.88 120.332 254.53C120.332 255.02 120.227 255.455 120.017 255.835C119.817 256.215 119.537 256.525 119.177 256.765C118.827 257.005 118.422 257.155 117.962 257.215L117.917 257.08C118.627 257.08 119.167 257.235 119.537 257.545C119.907 257.845 120.117 258.31 120.167 258.94L120.437 262H118.112L117.917 259.3C117.887 258.89 117.757 258.59 117.527 258.4C117.307 258.2 116.927 258.1 116.387 258.1H114.122V262H111.842ZM114.122 256.195H116.252C116.802 256.195 117.227 256.07 117.527 255.82C117.837 255.56 117.992 255.195 117.992 254.725C117.992 254.245 117.837 253.885 117.527 253.645C117.217 253.395 116.767 253.27 116.177 253.27H114.122V256.195ZM122.301 262V251.35H129.711V253.27H124.581V255.715H129.531V257.605H124.581V260.08H129.831V262H122.301ZM131.545 262V251.35H134.065L138.295 258.7V251.35H140.575V262H138.025L133.825 254.905V262H131.545ZM146.775 262.24C145.855 262.24 145.065 262.085 144.405 261.775C143.745 261.465 143.23 261.03 142.86 260.47C142.49 259.91 142.28 259.25 142.23 258.49L144.525 258.385C144.585 258.805 144.705 259.165 144.885 259.465C145.075 259.755 145.325 259.975 145.635 260.125C145.955 260.275 146.345 260.35 146.805 260.35C147.185 260.35 147.505 260.305 147.765 260.215C148.035 260.125 148.24 259.99 148.38 259.81C148.52 259.62 148.59 259.39 148.59 259.12C148.59 258.87 148.53 258.655 148.41 258.475C148.29 258.285 148.06 258.115 147.72 257.965C147.38 257.805 146.88 257.65 146.22 257.5C145.31 257.29 144.575 257.055 144.015 256.795C143.465 256.535 143.065 256.21 142.815 255.82C142.565 255.42 142.44 254.92 142.44 254.32C142.44 253.68 142.595 253.12 142.905 252.64C143.225 252.16 143.685 251.785 144.285 251.515C144.885 251.245 145.6 251.11 146.43 251.11C147.31 251.11 148.055 251.265 148.665 251.575C149.275 251.885 149.75 252.31 150.09 252.85C150.44 253.39 150.65 254.01 150.72 254.71L148.44 254.83C148.41 254.46 148.31 254.14 148.14 253.87C147.97 253.59 147.74 253.375 147.45 253.225C147.16 253.075 146.81 253 146.4 253C145.88 253 145.47 253.115 145.17 253.345C144.88 253.575 144.735 253.875 144.735 254.245C144.735 254.505 144.8 254.725 144.93 254.905C145.07 255.075 145.295 255.225 145.605 255.355C145.925 255.485 146.375 255.61 146.955 255.73C147.945 255.93 148.725 256.185 149.295 256.495C149.875 256.795 150.285 257.155 150.525 257.575C150.765 257.995 150.885 258.475 150.885 259.015C150.885 259.675 150.715 260.25 150.375 260.74C150.045 261.22 149.57 261.59 148.95 261.85C148.34 262.11 147.615 262.24 146.775 262.24ZM152.536 262V251.35H154.816V262H152.536ZM156.828 262V251.35H160.968C162.288 251.35 163.298 251.585 163.998 252.055C164.698 252.515 165.048 253.245 165.048 254.245C165.048 254.685 164.958 255.07 164.778 255.4C164.598 255.72 164.333 255.975 163.983 256.165C163.643 256.355 163.228 256.47 162.738 256.51V256.48C163.628 256.54 164.308 256.8 164.778 257.26C165.258 257.71 165.498 258.31 165.498 259.06C165.498 260.05 165.148 260.79 164.448 261.28C163.758 261.76 162.768 262 161.478 262H156.828ZM159.108 260.14H161.373C161.923 260.14 162.363 260.03 162.693 259.81C163.033 259.58 163.203 259.24 163.203 258.79C163.203 258.34 163.033 258 162.693 257.77C162.363 257.53 161.923 257.41 161.373 257.41H159.108V260.14ZM159.108 255.76H160.908C161.468 255.76 161.913 255.65 162.243 255.43C162.583 255.21 162.753 254.895 162.753 254.485C162.753 254.045 162.588 253.725 162.258 253.525C161.938 253.315 161.488 253.21 160.908 253.21H159.108V255.76ZM167.375 262V251.35H169.655V261.385L168.395 260.08H174.56V262H167.375ZM175.724 262V251.35H183.134V253.27H178.004V255.715H182.954V257.605H178.004V260.08H183.254V262H175.724Z" fill="#3F3F50"/>
<rect x="153" y="156" width="125.757" height="45" rx="12" fill="#8075F3"/>
<path d="M166.221 173V165.9H167.441L170.951 172.14V165.9H171.811V173H170.531L167.081 166.88V173H166.221ZM173.337 173V167.7H174.177V173H173.337ZM173.317 166.87V165.89H174.197V166.87H173.317ZM177.031 173L175.101 167.7H176.021L177.561 172.14L179.101 167.7H180.021L178.091 173H177.031ZM182.849 173.12C182.349 173.12 181.915 173.007 181.549 172.78C181.189 172.553 180.909 172.233 180.709 171.82C180.515 171.4 180.419 170.91 180.419 170.35C180.419 169.79 180.515 169.303 180.709 168.89C180.909 168.477 181.185 168.157 181.539 167.93C181.899 167.697 182.322 167.58 182.809 167.58C183.269 167.58 183.675 167.69 184.029 167.91C184.382 168.123 184.655 168.437 184.849 168.85C185.049 169.263 185.149 169.767 185.149 170.36V170.61H181.299C181.332 171.177 181.482 171.603 181.749 171.89C182.022 172.177 182.389 172.32 182.849 172.32C183.195 172.32 183.479 172.24 183.699 172.08C183.925 171.913 184.082 171.697 184.169 171.43L185.069 171.5C184.929 171.973 184.662 172.363 184.269 172.67C183.882 172.97 183.409 173.12 182.849 173.12ZM181.299 169.87H184.229C184.189 169.357 184.039 168.98 183.779 168.74C183.525 168.5 183.202 168.38 182.809 168.38C182.402 168.38 182.065 168.507 181.799 168.76C181.539 169.007 181.372 169.377 181.299 169.87ZM187.375 173C187.068 173 186.818 172.92 186.625 172.76C186.432 172.6 186.335 172.347 186.335 172V165.9H187.175V171.93C187.175 172.037 187.202 172.12 187.255 172.18C187.315 172.233 187.398 172.26 187.505 172.26H187.965V173H187.375ZM192.581 173V167.74H191.101V167H191.701C191.961 167 192.168 166.967 192.321 166.9C192.481 166.833 192.595 166.72 192.661 166.56C192.728 166.4 192.761 166.18 192.761 165.9H193.441V173H192.581Z" fill="#17171A"/>
<path d="M170.926 191.24C169.956 191.24 169.091 191.02 168.331 190.58C167.581 190.14 166.991 189.505 166.561 188.675C166.141 187.845 165.931 186.85 165.931 185.69C165.931 184.56 166.136 183.58 166.546 182.75C166.956 181.91 167.541 181.26 168.301 180.8C169.061 180.34 169.951 180.11 170.971 180.11C172.361 180.11 173.441 180.455 174.211 181.145C174.991 181.825 175.491 182.8 175.711 184.07L173.341 184.16C173.221 183.49 172.961 182.97 172.561 182.6C172.161 182.22 171.631 182.03 170.971 182.03C170.401 182.03 169.916 182.18 169.516 182.48C169.116 182.78 168.811 183.205 168.601 183.755C168.391 184.305 168.286 184.95 168.286 185.69C168.286 186.44 168.391 187.09 168.601 187.64C168.821 188.18 169.131 188.595 169.531 188.885C169.931 189.175 170.406 189.32 170.956 189.32C171.676 189.32 172.231 189.12 172.621 188.72C173.021 188.31 173.271 187.745 173.371 187.025L175.756 187.115C175.616 187.985 175.341 188.725 174.931 189.335C174.521 189.945 173.981 190.415 173.311 190.745C172.651 191.075 171.856 191.24 170.926 191.24ZM177.339 191V180.35H179.619V190.385L178.359 189.08H184.524V191H177.339ZM185.054 191L188.894 180.35H191.594L195.434 191H193.064L192.284 188.735H188.189L187.409 191H185.054ZM188.834 186.86H191.654L190.244 182.75L188.834 186.86ZM196.455 191V180.35H201.12C201.9 180.35 202.575 180.48 203.145 180.74C203.725 181 204.17 181.37 204.48 181.85C204.79 182.32 204.945 182.88 204.945 183.53C204.945 184.02 204.84 184.455 204.63 184.835C204.43 185.215 204.15 185.525 203.79 185.765C203.44 186.005 203.035 186.155 202.575 186.215L202.53 186.08C203.24 186.08 203.78 186.235 204.15 186.545C204.52 186.845 204.73 187.31 204.78 187.94L205.05 191H202.725L202.53 188.3C202.5 187.89 202.37 187.59 202.14 187.4C201.92 187.2 201.54 187.1 201 187.1H198.735V191H196.455ZM198.735 185.195H200.865C201.415 185.195 201.84 185.07 202.14 184.82C202.45 184.56 202.605 184.195 202.605 183.725C202.605 183.245 202.45 182.885 202.14 182.645C201.83 182.395 201.38 182.27 200.79 182.27H198.735V185.195ZM211.404 191.24C210.324 191.24 209.394 191.015 208.614 190.565C207.844 190.115 207.249 189.475 206.829 188.645C206.419 187.815 206.214 186.83 206.214 185.69C206.214 184.55 206.419 183.565 206.829 182.735C207.249 181.895 207.844 181.25 208.614 180.8C209.394 180.34 210.324 180.11 211.404 180.11C212.484 180.11 213.409 180.34 214.179 180.8C214.959 181.25 215.554 181.895 215.964 182.735C216.384 183.565 216.594 184.55 216.594 185.69C216.594 186.83 216.384 187.815 215.964 188.645C215.554 189.475 214.959 190.115 214.179 190.565C213.409 191.015 212.484 191.24 211.404 191.24ZM211.389 189.32C211.989 189.32 212.499 189.18 212.919 188.9C213.349 188.61 213.674 188.195 213.894 187.655C214.124 187.115 214.239 186.46 214.239 185.69C214.239 184.92 214.124 184.265 213.894 183.725C213.674 183.175 213.349 182.755 212.919 182.465C212.499 182.175 211.989 182.03 211.389 182.03C210.799 182.03 210.294 182.175 209.874 182.465C209.454 182.755 209.129 183.175 208.899 183.725C208.679 184.265 208.569 184.92 208.569 185.69C208.569 186.46 208.679 187.115 208.899 187.655C209.129 188.195 209.454 188.61 209.874 188.9C210.304 189.18 210.809 189.32 211.389 189.32Z" fill="#17171A"/>
<rect x="237" y="84" width="129.359" height="45" rx="12" fill="#6F31FF"/>
<path d="M250.576 101V93.9H251.796L255.306 100.14V93.9H256.166V101H254.886L251.436 94.88V101H250.576ZM257.693 101V95.7H258.533V101H257.693ZM257.673 94.87V93.89H258.553V94.87H257.673ZM261.386 101L259.456 95.7H260.376L261.916 100.14L263.456 95.7H264.376L262.446 101H261.386ZM267.204 101.12C266.704 101.12 266.271 101.007 265.904 100.78C265.544 100.553 265.264 100.233 265.064 99.82C264.871 99.4 264.774 98.91 264.774 98.35C264.774 97.79 264.871 97.3033 265.064 96.89C265.264 96.4767 265.541 96.1567 265.894 95.93C266.254 95.6967 266.677 95.58 267.164 95.58C267.624 95.58 268.031 95.69 268.384 95.91C268.737 96.1233 269.011 96.4367 269.204 96.85C269.404 97.2633 269.504 97.7667 269.504 98.36V98.61H265.654C265.687 99.1767 265.837 99.6033 266.104 99.89C266.377 100.177 266.744 100.32 267.204 100.32C267.551 100.32 267.834 100.24 268.054 100.08C268.281 99.9133 268.437 99.6967 268.524 99.43L269.424 99.5C269.284 99.9733 269.017 100.363 268.624 100.67C268.237 100.97 267.764 101.12 267.204 101.12ZM265.654 97.87H268.584C268.544 97.3567 268.394 96.98 268.134 96.74C267.881 96.5 267.557 96.38 267.164 96.38C266.757 96.38 266.421 96.5067 266.154 96.76C265.894 97.0067 265.727 97.3767 265.654 97.87ZM271.731 101C271.424 101 271.174 100.92 270.981 100.76C270.787 100.6 270.691 100.347 270.691 100V93.9H271.531V99.93C271.531 100.037 271.557 100.12 271.611 100.18C271.671 100.233 271.754 100.26 271.861 100.26H272.321V101H271.731ZM276.937 101V95.74H275.457V95H276.057C276.317 95 276.523 94.9667 276.677 94.9C276.837 94.8333 276.95 94.72 277.017 94.56C277.083 94.4 277.117 94.18 277.117 93.9H277.797V101H276.937Z" fill="#FFFFEE"/>
<path d="M250.766 119V108.35H255.431C256.211 108.35 256.886 108.48 257.456 108.74C258.036 109 258.481 109.37 258.791 109.85C259.101 110.32 259.256 110.88 259.256 111.53C259.256 112.02 259.151 112.455 258.941 112.835C258.741 113.215 258.461 113.525 258.101 113.765C257.751 114.005 257.346 114.155 256.886 114.215L256.841 114.08C257.551 114.08 258.091 114.235 258.461 114.545C258.831 114.845 259.041 115.31 259.091 115.94L259.361 119H257.036L256.841 116.3C256.811 115.89 256.681 115.59 256.451 115.4C256.231 115.2 255.851 115.1 255.311 115.1H253.046V119H250.766ZM253.046 113.195H255.176C255.726 113.195 256.151 113.07 256.451 112.82C256.761 112.56 256.916 112.195 256.916 111.725C256.916 111.245 256.761 110.885 256.451 110.645C256.141 110.395 255.691 110.27 255.101 110.27H253.046V113.195ZM261.225 119V108.35H268.635V110.27H263.505V112.715H268.455V114.605H263.505V117.08H268.755V119H261.225ZM270.556 119V108.35H272.836V118.385L271.576 117.08H277.741V119H270.556ZM278.906 119V108.35H286.316V110.27H281.186V112.715H286.136V114.605H281.186V117.08H286.436V119H278.906ZM291.369 119L287.529 108.35H289.884L292.719 116.435L295.554 108.35H297.909L294.054 119H291.369ZM296.758 119L300.598 108.35H303.298L307.138 119H304.768L303.988 116.735H299.893L299.113 119H296.758ZM300.538 114.86H303.358L301.948 110.75L300.538 114.86ZM308.159 119V108.35H310.679L314.909 115.7V108.35H317.189V119H314.639L310.439 111.905V119H308.159ZM321.219 119V110.27H318.039V108.35H326.709V110.27H323.514V119H321.219ZM327.685 119V108.35H335.095V110.27H329.965V112.715H334.915V114.605H329.965V117.08H335.215V119H327.685Z" fill="#FFFFEE"/>
<rect x="321" width="133.999" height="45" rx="12" fill="#1A0B33"/>
<path d="M335.029 17V9.9H336.249L339.759 16.14V9.9H340.619V17H339.339L335.889 10.88V17H335.029ZM342.146 17V11.7H342.986V17H342.146ZM342.126 10.87V9.89H343.006V10.87H342.126ZM345.839 17L343.909 11.7H344.829L346.369 16.14L347.909 11.7H348.829L346.899 17H345.839ZM351.657 17.12C351.157 17.12 350.724 17.0067 350.357 16.78C349.997 16.5533 349.717 16.2333 349.517 15.82C349.324 15.4 349.227 14.91 349.227 14.35C349.227 13.79 349.324 13.3033 349.517 12.89C349.717 12.4767 349.994 12.1567 350.347 11.93C350.707 11.6967 351.13 11.58 351.617 11.58C352.077 11.58 352.484 11.69 352.837 11.91C353.19 12.1233 353.464 12.4367 353.657 12.85C353.857 13.2633 353.957 13.7667 353.957 14.36V14.61H350.107C350.14 15.1767 350.29 15.6033 350.557 15.89C350.83 16.1767 351.197 16.32 351.657 16.32C352.004 16.32 352.287 16.24 352.507 16.08C352.734 15.9133 352.89 15.6967 352.977 15.43L353.877 15.5C353.737 15.9733 353.47 16.3633 353.077 16.67C352.69 16.97 352.217 17.12 351.657 17.12ZM350.107 13.87H353.037C352.997 13.3567 352.847 12.98 352.587 12.74C352.334 12.5 352.01 12.38 351.617 12.38C351.21 12.38 350.874 12.5067 350.607 12.76C350.347 13.0067 350.18 13.3767 350.107 13.87ZM356.184 17C355.877 17 355.627 16.92 355.434 16.76C355.24 16.6 355.144 16.3467 355.144 16V9.9H355.984V15.93C355.984 16.0367 356.01 16.12 356.064 16.18C356.124 16.2333 356.207 16.26 356.314 16.26H356.774V17H356.184ZM361.39 17V11.74H359.91V11H360.51C360.77 11 360.976 10.9667 361.13 10.9C361.29 10.8333 361.403 10.72 361.47 10.56C361.536 10.4 361.57 10.18 361.57 9.9H362.25V17H361.39Z" fill="#FFFFEE"/>
<path d="M335.219 35V24.35H338.894C340.624 24.35 341.954 24.815 342.884 25.745C343.814 26.665 344.279 27.98 344.279 29.69C344.279 31.39 343.819 32.7 342.899 33.62C341.989 34.54 340.684 35 338.984 35H335.219ZM337.499 33.08H338.894C339.924 33.08 340.684 32.805 341.174 32.255C341.674 31.695 341.924 30.835 341.924 29.675C341.924 28.515 341.674 27.66 341.174 27.11C340.684 26.55 339.924 26.27 338.894 26.27H337.499V33.08ZM345.781 35V24.35H348.061V35H345.781ZM350.073 35V24.35H357.423V26.27H351.093L352.353 24.965V29.84L351.093 28.85H357.153V30.74H351.093L352.353 29.75V35H350.073ZM358.921 35V24.35H366.331V26.27H361.201V28.715H366.151V30.605H361.201V33.08H366.451V35H358.921ZM368.208 35V24.35H372.873C373.653 24.35 374.328 24.48 374.898 24.74C375.478 25 375.923 25.37 376.233 25.85C376.543 26.32 376.698 26.88 376.698 27.53C376.698 28.02 376.593 28.455 376.383 28.835C376.183 29.215 375.903 29.525 375.543 29.765C375.193 30.005 374.788 30.155 374.328 30.215L374.283 30.08C374.993 30.08 375.533 30.235 375.903 30.545C376.273 30.845 376.483 31.31 376.533 31.94L376.803 35H374.478L374.283 32.3C374.253 31.89 374.123 31.59 373.893 31.4C373.673 31.2 373.293 31.1 372.753 31.1H370.488V35H368.208ZM370.488 29.195H372.618C373.168 29.195 373.593 29.07 373.893 28.82C374.203 28.56 374.358 28.195 374.358 27.725C374.358 27.245 374.203 26.885 373.893 26.645C373.583 26.395 373.133 26.27 372.543 26.27H370.488V29.195ZM378.667 35V24.35H386.077V26.27H380.947V28.715H385.897V30.605H380.947V33.08H386.197V35H378.667ZM387.91 35V24.35H390.43L394.66 31.7V24.35H396.94V35H394.39L390.19 27.905V35H387.91ZM403.44 35.24C402.47 35.24 401.605 35.02 400.845 34.58C400.095 34.14 399.505 33.505 399.075 32.675C398.655 31.845 398.445 30.85 398.445 29.69C398.445 28.56 398.65 27.58 399.06 26.75C399.47 25.91 400.055 25.26 400.815 24.8C401.575 24.34 402.465 24.11 403.485 24.11C404.875 24.11 405.955 24.455 406.725 25.145C407.505 25.825 408.005 26.8 408.225 28.07L405.855 28.16C405.735 27.49 405.475 26.97 405.075 26.6C404.675 26.22 404.145 26.03 403.485 26.03C402.915 26.03 402.43 26.18 402.03 26.48C401.63 26.78 401.325 27.205 401.115 27.755C400.905 28.305 400.8 28.95 400.8 29.69C400.8 30.44 400.905 31.09 401.115 31.64C401.335 32.18 401.645 32.595 402.045 32.885C402.445 33.175 402.92 33.32 403.47 33.32C404.19 33.32 404.745 33.12 405.135 32.72C405.535 32.31 405.785 31.745 405.885 31.025L408.27 31.115C408.13 31.985 407.855 32.725 407.445 33.335C407.035 33.945 406.495 34.415 405.825 34.745C405.165 35.075 404.37 35.24 403.44 35.24ZM409.765 35V24.35H412.045V35H409.765ZM413.291 35L417.131 24.35H419.831L423.671 35H421.301L420.521 32.735H416.426L415.646 35H413.291ZM417.071 30.86H419.891L418.481 26.75L417.071 30.86ZM424.692 35V24.35H428.367C430.097 24.35 431.427 24.815 432.357 25.745C433.287 26.665 433.752 27.98 433.752 29.69C433.752 31.39 433.292 32.7 432.372 33.62C431.462 34.54 430.157 35 428.457 35H424.692ZM426.972 33.08H428.367C429.397 33.08 430.157 32.805 430.647 32.255C431.147 31.695 431.397 30.835 431.397 29.675C431.397 28.515 431.147 27.66 430.647 27.11C430.157 26.55 429.397 26.27 428.367 26.27H426.972V33.08ZM440.198 35.24C439.118 35.24 438.188 35.015 437.408 34.565C436.638 34.115 436.043 33.475 435.623 32.645C435.213 31.815 435.008 30.83 435.008 29.69C435.008 28.55 435.213 27.565 435.623 26.735C436.043 25.895 436.638 25.25 437.408 24.8C438.188 24.34 439.118 24.11 440.198 24.11C441.278 24.11 442.203 24.34 442.973 24.8C443.753 25.25 444.348 25.895 444.758 26.735C445.178 27.565 445.388 28.55 445.388 29.69C445.388 30.83 445.178 31.815 444.758 32.645C444.348 33.475 443.753 34.115 442.973 34.565C442.203 35.015 441.278 35.24 440.198 35.24ZM440.183 33.32C440.783 33.32 441.293 33.18 441.713 32.9C442.143 32.61 442.468 32.195 442.688 31.655C442.918 31.115 443.033 30.46 443.033 29.69C443.033 28.92 442.918 28.265 442.688 27.725C442.468 27.175 442.143 26.755 441.713 26.465C441.293 26.175 440.783 26.03 440.183 26.03C439.593 26.03 439.088 26.175 438.668 26.465C438.248 26.755 437.923 27.175 437.693 27.725C437.473 28.265 437.363 28.92 437.363 29.69C437.363 30.46 437.473 31.115 437.693 31.655C437.923 32.195 438.248 32.61 438.668 32.9C439.098 33.18 439.603 33.32 440.183 33.32Z" fill="#FFFFEE"/>
<line y1="-0.5" x2="199.001" y2="-0.5" transform="matrix(0.000970422 -0.999999 0.999979 0.00650501 195.934 461)" stroke="#3F3F50" stroke-dasharray="5 5"/>
<line y1="-0.5" x2="275" y2="-0.5" transform="matrix(0.000702228 -1 0.999989 0.00470728 285.539 461)" stroke="#A0A0A0" stroke-dasharray="5 5"/>
<line x1="370.203" y1="461" x2="370.203" y2="109" stroke="#BF9FFF" stroke-dasharray="5 5"/>
<line x1="455.367" y1="461" x2="455.367" y2="19" stroke="#BF9FFF" stroke-dasharray="5 5"/>
<g filter="url(#filter2_n_4497_14165)">
<path d="M285.715 461V315.5C319.962 288.719 338.178 270.369 369.977 232V461H285.715Z" fill="#6729EA"/>
</g>
<g filter="url(#filter3_n_4497_14165)">
<path d="M285.5 316C249.5 344.5 230 357.5 196.23 377V462H285.019L285.5 316Z" fill="#877BFF"/>
</g>
<g filter="url(#filter4_n_4497_14165)">
<path d="M455.285 111C421.513 167.697 403.024 194.222 371.023 231V461H455.285V111Z" fill="#1A0B33"/>
</g>
<defs>
<filter id="filter0_n_4497_14165" x="14.6328" y="108.624" width="442.352" height="353.876" filterUnits="userSpaceOnUse" color-interpolation-filters="sRGB">
<feFlood flood-opacity="0" result="BackgroundImageFix"/>
<feBlend mode="normal" in="SourceGraphic" in2="BackgroundImageFix" result="shape"/>
<feTurbulence type="fractalNoise" baseFrequency="2 2" stitchTiles="stitch" numOctaves="3" result="noise" seed="8092" />
<feColorMatrix in="noise" type="luminanceToAlpha" result="alphaNoise" />
<feComponentTransfer in="alphaNoise" result="coloredNoise1">
<feFuncA type="discrete" tableValues="1 1 1 1 1 1 1 1 1 1 1 1 1 1 1 1 1 1 1 1 1 1 1 1 1 1 1 1 1 1 1 1 1 1 1 1 1 1 1 1 1 1 1 1 1 1 1 1 1 1 1 0 0 0 0 0 0 0 0 0 0 0 0 0 0 0 0 0 0 0 0 0 0 0 0 0 0 0 0 0 0 0 0 0 0 0 0 0 0 0 0 0 0 0 0 0 0 0 0 0 "/>
</feComponentTransfer>
<feComposite operator="in" in2="shape" in="coloredNoise1" result="noise1Clipped" />
<feFlood flood-color="rgba(0, 0, 0, 0.25)" result="color1Flood" />
<feComposite operator="in" in2="noise1Clipped" in="color1Flood" result="color1" />
<feMerge result="effect1_noise_4497_14165">
<feMergeNode in="shape" />
<feMergeNode in="color1" />
</feMerge>
</filter>
<filter id="filter1_n_4497_14165" x="15" y="424" width="87.5703" height="38" filterUnits="userSpaceOnUse" color-interpolation-filters="sRGB">
<feFlood flood-opacity="0" result="BackgroundImageFix"/>
<feBlend mode="normal" in="SourceGraphic" in2="BackgroundImageFix" result="shape"/>
<feTurbulence type="fractalNoise" baseFrequency="2 2" stitchTiles="stitch" numOctaves="3" result="noise" seed="4536" />
<feColorMatrix in="noise" type="luminanceToAlpha" result="alphaNoise" />
<feComponentTransfer in="alphaNoise" result="coloredNoise1">
<feFuncA type="discrete" tableValues="1 1 1 1 1 1 1 1 1 1 1 1 1 1 1 1 1 1 1 1 1 1 1 1 1 1 1 1 1 1 1 1 1 1 1 1 1 1 1 1 1 1 1 1 1 1 1 1 1 1 1 0 0 0 0 0 0 0 0 0 0 0 0 0 0 0 0 0 0 0 0 0 0 0 0 0 0 0 0 0 0 0 0 0 0 0 0 0 0 0 0 0 0 0 0 0 0 0 0 0 "/>
</feComponentTransfer>
<feComposite operator="in" in2="shape" in="coloredNoise1" result="noise1Clipped" />
<feFlood flood-color="rgba(0, 0, 0, 0.25)" result="color1Flood" />
<feComposite operator="in" in2="noise1Clipped" in="color1Flood" result="color1" />
<feMerge result="effect1_noise_4497_14165">
<feMergeNode in="shape" />
<feMergeNode in="color1" />
</feMerge>
</filter>
<filter id="filter2_n_4497_14165" x="285.715" y="232" width="84.2617" height="229" filterUnits="userSpaceOnUse" color-interpolation-filters="sRGB">
<feFlood flood-opacity="0" result="BackgroundImageFix"/>
<feBlend mode="normal" in="SourceGraphic" in2="BackgroundImageFix" result="shape"/>
<feTurbulence type="fractalNoise" baseFrequency="1 1" stitchTiles="stitch" numOctaves="3" result="noise" seed="9973" />
<feColorMatrix in="noise" type="luminanceToAlpha" result="alphaNoise" />
<feComponentTransfer in="alphaNoise" result="coloredNoise1">
<feFuncA type="discrete" tableValues="1 1 1 1 1 1 1 1 1 1 1 1 1 1 1 1 1 1 1 1 1 1 1 1 1 1 1 1 1 1 1 1 1 1 1 1 1 1 1 1 1 1 1 1 1 1 1 1 1 1 1 0 0 0 0 0 0 0 0 0 0 0 0 0 0 0 0 0 0 0 0 0 0 0 0 0 0 0 0 0 0 0 0 0 0 0 0 0 0 0 0 0 0 0 0 0 0 0 0 0 "/>
</feComponentTransfer>
<feComposite operator="in" in2="shape" in="coloredNoise1" result="noise1Clipped" />
<feFlood flood-color="rgba(0, 0, 0, 0.25)" result="color1Flood" />
<feComposite operator="in" in2="noise1Clipped" in="color1Flood" result="color1" />
<feMerge result="effect1_noise_4497_14165">
<feMergeNode in="shape" />
<feMergeNode in="color1" />
</feMerge>
</filter>
<filter id="filter3_n_4497_14165" x="196.23" y="316" width="89.2695" height="146" filterUnits="userSpaceOnUse" color-interpolation-filters="sRGB">
<feFlood flood-opacity="0" result="BackgroundImageFix"/>
<feBlend mode="normal" in="SourceGraphic" in2="BackgroundImageFix" result="shape"/>
<feTurbulence type="fractalNoise" baseFrequency="1 1" stitchTiles="stitch" numOctaves="3" result="noise" seed="6733" />
<feColorMatrix in="noise" type="luminanceToAlpha" result="alphaNoise" />
<feComponentTransfer in="alphaNoise" result="coloredNoise1">
<feFuncA type="discrete" tableValues="1 1 1 1 1 1 1 1 1 1 1 1 1 1 1 1 1 1 1 1 1 1 1 1 1 1 1 1 1 1 1 1 1 1 1 1 1 1 1 1 1 1 1 1 1 1 1 1 1 1 1 0 0 0 0 0 0 0 0 0 0 0 0 0 0 0 0 0 0 0 0 0 0 0 0 0 0 0 0 0 0 0 0 0 0 0 0 0 0 0 0 0 0 0 0 0 0 0 0 0 "/>
</feComponentTransfer>
<feComposite operator="in" in2="shape" in="coloredNoise1" result="noise1Clipped" />
<feFlood flood-color="rgba(0, 0, 0, 0.25)" result="color1Flood" />
<feComposite operator="in" in2="noise1Clipped" in="color1Flood" result="color1" />
<feMerge result="effect1_noise_4497_14165">
<feMergeNode in="shape" />
<feMergeNode in="color1" />
</feMerge>
</filter>
<filter id="filter4_n_4497_14165" x="371.023" y="111" width="84.2617" height="350" filterUnits="userSpaceOnUse" color-interpolation-filters="sRGB">
<feFlood flood-opacity="0" result="BackgroundImageFix"/>
<feBlend mode="normal" in="SourceGraphic" in2="BackgroundImageFix" result="shape"/>
<feTurbulence type="fractalNoise" baseFrequency="1 1" stitchTiles="stitch" numOctaves="3" result="noise" seed="8093" />
<feColorMatrix in="noise" type="luminanceToAlpha" result="alphaNoise" />
<feComponentTransfer in="alphaNoise" result="coloredNoise1">
<feFuncA type="discrete" tableValues="1 1 1 1 1 1 1 1 1 1 1 1 1 1 1 1 1 1 1 1 1 1 1 1 1 1 1 1 1 1 1 1 1 1 1 1 1 1 1 1 1 1 1 1 1 1 1 1 1 1 1 0 0 0 0 0 0 0 0 0 0 0 0 0 0 0 0 0 0 0 0 0 0 0 0 0 0 0 0 0 0 0 0 0 0 0 0 0 0 0 0 0 0 0 0 0 0 0 0 0 "/>
</feComponentTransfer>
<feComposite operator="in" in2="shape" in="coloredNoise1" result="noise1Clipped" />
<feFlood flood-color="rgba(0, 0, 0, 0.25)" result="color1Flood" />
<feComposite operator="in" in2="noise1Clipped" in="color1Flood" result="color1" />
<feMerge result="effect1_noise_4497_14165">
<feMergeNode in="shape" />
<feMergeNode in="color1" />
</feMerge>
</filter>
</defs>
</svg>
