<svg width="41" height="43" viewBox="0 0 41 43" fill="none" xmlns="http://www.w3.org/2000/svg">
<path d="M1.01568 16.7773H13.2796V25.6751H1.01568C0.45465 25.6751 0 25.2204 0 24.6594V17.7945C0 17.2334 0.45465 16.7788 1.01568 16.7788V16.7773Z" fill="#C3BDFF"/>
<path d="M39.9843 25.6758H27.7204V16.778H39.9843C40.5453 16.778 41 17.2327 41 17.7937V24.6586C41 25.2197 40.5453 25.6743 39.9843 25.6743V25.6758Z" fill="#C3BDFF"/>
<path d="M24.9492 1.01568V13.2796H16.0515V1.01568C16.0515 0.454651 16.5061 0 17.0671 0L23.9321 0C24.4931 0 24.9478 0.454651 24.9478 1.01568H24.9492Z" fill="#C3BDFF"/>
<path d="M16.0508 41.4335V29.1696H24.9485V41.4335C24.9485 41.9946 24.4939 42.4492 23.9329 42.4492H17.0679C16.5069 42.4492 16.0522 41.9946 16.0522 41.4335H16.0508Z" fill="#C3BDFF"/>
<path d="M7.98637 16.7773H16.0521V25.6751H7.98637C7.52734 25.6751 7.1543 25.302 7.1543 24.843V17.6094C7.1543 17.1504 7.52734 16.7773 7.98637 16.7773Z" fill="#C3BDFF"/>
<path d="M24.9473 8.71098V16.7767H16.0495V8.71098C16.0495 8.25195 16.4226 7.87891 16.8816 7.87891L24.1152 7.87891C24.5742 7.87891 24.9473 8.25195 24.9473 8.71098Z" fill="#C3BDFF"/>
<path d="M33.0156 25.6758H24.9499V16.778H33.0156C33.4746 16.778 33.8477 17.1511 33.8477 17.6101V24.8437C33.8477 25.3027 33.4746 25.6758 33.0156 25.6758Z" fill="#C3BDFF"/>
<path d="M16.0508 33.7382V25.6726H24.9485V33.7382C24.9485 34.1973 24.5755 34.5703 24.1165 34.5703H16.8828C16.4238 34.5703 16.0508 34.1973 16.0508 33.7382Z" fill="#C3BDFF"/>
</svg>
