<svg width="42" height="42" viewBox="0 0 42 42" fill="none" xmlns="http://www.w3.org/2000/svg">
<path d="M31.5 24.9365V17.0615C31.5 16.7134 31.6383 16.3796 31.8844 16.1334C32.1306 15.8873 32.4644 15.749 32.8125 15.749C33.1606 15.749 33.4944 15.8873 33.7406 16.1334C33.9867 16.3796 34.125 16.7134 34.125 17.0615V24.9365C34.125 25.2846 33.9867 25.6185 33.7406 25.8646C33.4944 26.1107 33.1606 26.249 32.8125 26.249C32.4644 26.249 32.1306 26.1107 31.8844 25.8646C31.6383 25.6185 31.5 25.2846 31.5 24.9365ZM38.0625 13.124C37.7144 13.124 37.3806 13.2623 37.1344 13.5084C36.8883 13.7546 36.75 14.0884 36.75 14.4365V27.5615C36.75 27.9096 36.8883 28.2435 37.1344 28.4896C37.3806 28.7357 37.7144 28.874 38.0625 28.874C38.4106 28.874 38.7444 28.7357 38.9906 28.4896C39.2367 28.2435 39.375 27.9096 39.375 27.5615V14.4365C39.375 14.0884 39.2367 13.7546 38.9906 13.5084C38.7444 13.2623 38.4106 13.124 38.0625 13.124ZM36.4087 34.5539C36.5271 34.681 36.619 34.8303 36.6792 34.9933C36.7394 35.1562 36.7667 35.3294 36.7594 35.503C36.7522 35.6765 36.7106 35.8469 36.637 36.0042C36.5634 36.1615 36.4593 36.3027 36.3308 36.4195C36.2023 36.5363 36.0518 36.6264 35.8882 36.6847C35.7246 36.7429 35.551 36.7681 35.3776 36.7588C35.2041 36.7494 35.0343 36.7058 34.8779 36.6303C34.7214 36.5549 34.5815 36.4491 34.4663 36.3192L27.5625 28.7247V36.749C27.5623 36.9946 27.4932 37.2352 27.3631 37.4435C27.233 37.6518 27.047 37.8194 26.8263 37.9272C26.6057 38.0351 26.3592 38.0788 26.1149 38.0536C25.8706 38.0283 25.6383 37.935 25.4445 37.7843L13.9863 28.874H6.5625C5.86631 28.874 5.19863 28.5975 4.70634 28.1052C4.21406 27.6129 3.9375 26.9452 3.9375 26.249V15.749C3.9375 15.0528 4.21406 14.3851 4.70634 13.8929C5.19863 13.4006 5.86631 13.124 6.5625 13.124H13.3793L8.21625 7.44417C7.98705 7.18581 7.86893 6.84753 7.88748 6.50265C7.90603 6.15778 8.05977 5.83412 8.31536 5.60184C8.57096 5.36956 8.9078 5.24739 9.25287 5.26181C9.59794 5.27622 9.92342 5.42607 10.1587 5.67886L36.4087 34.5539ZM24.9375 25.8372L15.7664 15.749H6.5625V26.249H14.4375C14.7295 26.2485 15.0132 26.3462 15.243 26.5263L24.9375 34.065V25.8372ZM20.5177 11.3702L24.9375 7.92488V17.5176C24.9375 17.8657 25.0758 18.1995 25.3219 18.4457C25.5681 18.6918 25.9019 18.8301 26.25 18.8301C26.5981 18.8301 26.9319 18.6918 27.1781 18.4457C27.4242 18.1995 27.5625 17.8657 27.5625 17.5176V5.24902C27.5623 5.00342 27.4932 4.76281 27.3631 4.55453C27.233 4.34625 27.047 4.17866 26.8263 4.07082C26.6057 3.96297 26.3592 3.9192 26.1149 3.94447C25.8706 3.96974 25.6383 4.06305 25.4445 4.21378L18.9066 9.29972C18.6373 9.51523 18.4637 9.82807 18.4232 10.1706C18.3828 10.5131 18.4788 10.8578 18.6905 11.1301C18.9022 11.4023 19.2126 11.5804 19.5545 11.6256C19.8964 11.6708 20.2424 11.5797 20.5177 11.3718V11.3702Z" fill="#C3BDFF"/>
</svg>
