<svg width="150" height="80" viewBox="0 0 150 80" fill="none" xmlns="http://www.w3.org/2000/svg">
<g clip-path="url(#clip0_4451_3307)">
<mask id="mask0_4451_3307" style="mask-type:luminance" maskUnits="userSpaceOnUse" x="22" y="30" width="105" height="19">
<path d="M127 30H22V49H127V30Z" fill="white"/>
</mask>
<g mask="url(#mask0_4451_3307)">
<path d="M24.5898 48.9694C26.2344 46.1901 27.1795 42.9521 27.1795 39.495C27.1795 36.0379 26.2344 32.7998 24.5898 30.0186C22.9451 32.7998 22 36.0379 22 39.495C22 42.9521 22.9451 46.1901 24.5898 48.9694Z" fill="white"/>
<path d="M24.625 30C26.2284 32.8038 28.5808 35.2348 31.5978 36.9634C34.6147 38.692 37.9122 39.499 41.1603 39.4764C39.5569 36.6726 37.2044 34.2415 34.1875 32.513C31.1706 30.7844 27.873 29.9774 24.625 30Z" fill="white"/>
<path d="M24.625 48.9999C26.2284 46.1961 28.5808 43.765 31.5978 42.0364C34.6147 40.3078 37.9122 39.5009 41.1603 39.5234C39.5569 42.3272 37.2044 44.7583 34.1875 46.4869C31.1706 48.2155 27.873 49.0224 24.625 48.9999Z" fill="#F2F2F2"/>
<path d="M49.3825 40.5907H52.7791C53.1258 40.5907 53.4147 40.7279 53.6417 41.0003C53.8687 41.2747 53.9842 41.6065 53.9842 41.9997C53.9842 42.393 53.8584 42.7309 53.6066 42.9808C53.3549 43.2306 53.0371 43.3556 52.6532 43.3556H49.3825V40.5907ZM49.3825 35.6671H52.385C52.6966 35.6671 52.9628 35.7798 53.1856 36.0071C53.4064 36.2324 53.5179 36.5539 53.5179 36.9697C53.5179 37.4223 53.392 37.7541 53.1402 37.9691C52.8885 38.1842 52.6017 38.2907 52.2777 38.2907H49.3846V35.6671H49.3825ZM46.4337 33.1685V45.8358H52.6532C53.2393 45.8358 53.7965 45.7682 54.3247 45.631C54.8509 45.4938 55.3132 45.291 55.7094 45.0247C56.1056 44.7564 56.4172 44.4206 56.6442 44.0171C56.8712 43.6136 56.9846 43.1364 56.9846 42.5896C56.9846 41.7335 56.7721 41.031 56.347 40.4842C55.9219 39.9374 55.3421 39.5564 54.6116 39.3414C55.2224 39.069 55.6805 38.6634 55.9859 38.1289C56.2913 37.5944 56.444 37.0229 56.444 36.4167C56.444 36.0132 56.3759 35.6159 56.2376 35.2309C56.0994 34.8438 55.9054 34.4997 55.6537 34.1966C55.4019 33.8935 55.0965 33.6477 54.7374 33.4572C54.3784 33.2668 53.976 33.1726 53.5323 33.1726H46.4316L46.4337 33.1685Z" fill="white"/>
<mask id="mask1_4451_3307" style="mask-type:luminance" maskUnits="userSpaceOnUse" x="46" y="33" width="11" height="13">
<path d="M49.3825 40.5907H52.7791C53.1258 40.5907 53.4147 40.7279 53.6417 41.0003C53.8687 41.2747 53.9842 41.6065 53.9842 41.9997C53.9842 42.393 53.8584 42.7309 53.6066 42.9808C53.3549 43.2306 53.0371 43.3556 52.6532 43.3556H49.3825V40.5907ZM49.3825 35.6671H52.385C52.6966 35.6671 52.9628 35.7798 53.1856 36.0071C53.4064 36.2324 53.5179 36.5539 53.5179 36.9697C53.5179 37.4223 53.392 37.7541 53.1402 37.9691C52.8885 38.1842 52.6017 38.2907 52.2777 38.2907H49.3846V35.6671H49.3825ZM46.4337 33.1685V45.8358H52.6532C53.2393 45.8358 53.7965 45.7682 54.3247 45.631C54.8509 45.4938 55.3132 45.291 55.7094 45.0247C56.1056 44.7564 56.4172 44.4206 56.6442 44.0171C56.8712 43.6136 56.9846 43.1364 56.9846 42.5896C56.9846 41.7335 56.7721 41.031 56.347 40.4842C55.9219 39.9374 55.3421 39.5564 54.6116 39.3414C55.2224 39.069 55.6805 38.6634 55.9859 38.1289C56.2913 37.5944 56.444 37.0229 56.444 36.4167C56.444 36.0132 56.3759 35.6159 56.2376 35.2309C56.0994 34.8438 55.9054 34.4997 55.6537 34.1966C55.4019 33.8935 55.0965 33.6477 54.7374 33.4572C54.3784 33.2668 53.976 33.1726 53.5323 33.1726H46.4316L46.4337 33.1685Z" fill="white"/>
</mask>
<g mask="url(#mask1_4451_3307)">
<path d="M56.9845 33.1685H46.4336V45.8358H56.9845V33.1685Z" fill="white"/>
</g>
<path d="M58.4961 45.8357H61.3727V36.4678H58.4961V45.8337V45.8357ZM58.4961 35.3987H61.3727V32.812H58.4961V35.3987Z" fill="white"/>
<mask id="mask2_4451_3307" style="mask-type:luminance" maskUnits="userSpaceOnUse" x="58" y="32" width="4" height="14">
<path d="M58.4961 45.8357H61.3727V36.4678H58.4961V45.8337V45.8357ZM58.4961 35.3987H61.3727V32.812H58.4961V35.3987Z" fill="white"/>
</mask>
<g mask="url(#mask2_4451_3307)">
<path d="M61.3727 32.812H58.4961V45.8357H61.3727V32.812Z" fill="white"/>
</g>
<path d="M66.3342 42.9356C65.938 42.4891 65.7419 41.8972 65.7419 41.1599C65.7419 40.8035 65.7956 40.4738 65.9029 40.1707C66.0102 39.8675 66.1567 39.6095 66.3424 39.3944C66.5281 39.1794 66.7489 39.0135 67.0069 38.8947C67.2648 38.7759 67.5434 38.7165 67.8426 38.7165C68.441 38.7165 68.9384 38.9398 69.3346 39.3862C69.7308 39.8327 69.9268 40.4246 69.9268 41.1619C69.9268 41.5183 69.8732 41.8481 69.7659 42.1512C69.6585 42.4543 69.51 42.7123 69.3263 42.9274C69.1406 43.1424 68.9219 43.3083 68.6701 43.4271C68.4184 43.5459 68.1418 43.6053 67.8426 43.6053C67.2318 43.6053 66.7283 43.3821 66.3321 42.9356M65.6945 36.691C65.0651 36.9593 64.5347 37.3156 64.1035 37.7621C63.6722 38.2086 63.3461 38.7247 63.1233 39.3146C62.9004 39.9024 62.791 40.5189 62.791 41.1619C62.791 41.805 62.9025 42.4195 63.1233 43.0093C63.3441 43.5971 63.6722 44.1153 64.1035 44.5618C64.5347 45.0082 65.0651 45.3625 65.6945 45.6227C66.3238 45.8848 67.0399 46.0159 67.8426 46.0159C68.6453 46.0159 69.3614 45.8848 69.9908 45.6227C70.6202 45.3605 71.1505 45.0082 71.5818 44.5618C72.0131 44.1153 72.3391 43.5992 72.562 43.0093C72.7828 42.4215 72.8942 41.805 72.8942 41.1619C72.8942 40.5189 72.7807 39.9044 72.5537 39.3146C72.3267 38.7268 71.9966 38.2086 71.5653 37.7621C71.134 37.3156 70.6057 36.9593 69.9825 36.691C69.3593 36.4227 68.6453 36.2896 67.8426 36.2896C67.0399 36.2896 66.3238 36.4227 65.6945 36.691Z" fill="white"/>
<mask id="mask3_4451_3307" style="mask-type:luminance" maskUnits="userSpaceOnUse" x="62" y="36" width="11" height="11">
<path d="M66.3342 42.9356C65.938 42.4891 65.7419 41.8972 65.7419 41.1599C65.7419 40.8035 65.7956 40.4738 65.9029 40.1707C66.0102 39.8675 66.1567 39.6095 66.3424 39.3944C66.5281 39.1794 66.7489 39.0135 67.0069 38.8947C67.2648 38.7759 67.5434 38.7165 67.8426 38.7165C68.441 38.7165 68.9384 38.9398 69.3346 39.3862C69.7308 39.8327 69.9268 40.4246 69.9268 41.1619C69.9268 41.5183 69.8732 41.8481 69.7659 42.1512C69.6585 42.4543 69.51 42.7123 69.3263 42.9274C69.1406 43.1424 68.9219 43.3083 68.6701 43.4271C68.4184 43.5459 68.1418 43.6053 67.8426 43.6053C67.2318 43.6053 66.7283 43.3821 66.3321 42.9356M65.6945 36.691C65.0651 36.9593 64.5347 37.3156 64.1035 37.7621C63.6722 38.2086 63.3461 38.7247 63.1233 39.3146C62.9004 39.9024 62.791 40.5189 62.791 41.1619C62.791 41.805 62.9025 42.4195 63.1233 43.0093C63.3441 43.5971 63.6722 44.1153 64.1035 44.5618C64.5347 45.0082 65.0651 45.3625 65.6945 45.6227C66.3238 45.8848 67.0399 46.0159 67.8426 46.0159C68.6453 46.0159 69.3614 45.8848 69.9908 45.6227C70.6202 45.3605 71.1505 45.0082 71.5818 44.5618C72.0131 44.1153 72.3391 43.5992 72.562 43.0093C72.7828 42.4215 72.8942 41.805 72.8942 41.1619C72.8942 40.5189 72.7807 39.9044 72.5537 39.3146C72.3267 38.7268 71.9966 38.2086 71.5653 37.7621C71.134 37.3156 70.6057 36.9593 69.9825 36.691C69.3593 36.4227 68.6453 36.2896 67.8426 36.2896C67.0399 36.2896 66.3238 36.4227 65.6945 36.691Z" fill="white"/>
</mask>
<g mask="url(#mask3_4451_3307)">
<path d="M72.8941 36.2896H62.793V46.0118H72.8941V36.2896Z" fill="white"/>
</g>
<path d="M79.0976 36.5048L80.5896 40.9818H77.5706L79.0976 36.5048ZM77.7666 33.1685L73.1113 45.8358H76.1302L77.1001 42.9992H81.0725L82.0609 45.8358H85.0799L80.4245 33.1685H77.7646H77.7666Z" fill="white"/>
<mask id="mask4_4451_3307" style="mask-type:luminance" maskUnits="userSpaceOnUse" x="73" y="33" width="13" height="13">
<path d="M79.0976 36.5048L80.5896 40.9818H77.5706L79.0976 36.5048ZM77.7666 33.1685L73.1113 45.8358H76.1302L77.1001 42.9992H81.0725L82.0609 45.8358H85.0799L80.4245 33.1685H77.7646H77.7666Z" fill="white"/>
</mask>
<g mask="url(#mask4_4451_3307)">
<path d="M85.082 33.1685H73.1113V45.8358H85.082V33.1685Z" fill="white"/>
</g>
<path d="M88.2169 36.6826C87.5875 36.9447 87.0572 37.297 86.6259 37.7435C86.1946 38.19 85.8645 38.7061 85.6375 39.2959C85.4105 39.8858 85.2949 40.5002 85.2949 41.1433C85.2949 41.7864 85.4084 42.4009 85.6375 42.9887C85.8645 43.5765 86.1967 44.0946 86.6342 44.5411C87.0716 44.9876 87.604 45.344 88.2334 45.6122C88.8628 45.8805 89.5727 46.0137 90.363 46.0137C91.4526 46.0137 92.3791 45.7822 93.1406 45.3173C93.902 44.8524 94.455 44.2585 94.8038 43.5335L91.9994 42.6774C91.855 42.9518 91.6342 43.175 91.3349 43.3471C91.0357 43.5191 90.7056 43.6051 90.3465 43.6051C90.0597 43.6051 89.7852 43.5457 89.5293 43.4269C89.2714 43.3082 89.0465 43.1423 88.8545 42.9272C88.6626 42.7122 88.5141 42.4541 88.4047 42.151C88.2974 41.8479 88.2437 41.512 88.2437 41.1433C88.2437 40.406 88.4439 39.8161 88.8463 39.3779C89.2466 38.9375 89.7481 38.7184 90.3465 38.7184C91.0646 38.7184 91.6115 39.0153 91.9829 39.6093L94.7873 38.7716C94.4158 38.0343 93.8587 37.4363 93.1158 36.9796C92.3729 36.5208 91.4567 36.2935 90.3651 36.2935C89.5623 36.2935 88.8463 36.4245 88.2169 36.6867" fill="white"/>
<mask id="mask5_4451_3307" style="mask-type:luminance" maskUnits="userSpaceOnUse" x="85" y="36" width="10" height="11">
<path d="M88.2169 36.6826C87.5875 36.9447 87.0572 37.297 86.6259 37.7435C86.1946 38.19 85.8645 38.7061 85.6375 39.2959C85.4105 39.8858 85.2949 40.5002 85.2949 41.1433C85.2949 41.7864 85.4084 42.4009 85.6375 42.9887C85.8645 43.5765 86.1967 44.0946 86.6342 44.5411C87.0716 44.9876 87.604 45.344 88.2334 45.6122C88.8628 45.8805 89.5727 46.0137 90.363 46.0137C91.4526 46.0137 92.3791 45.7822 93.1406 45.3173C93.902 44.8524 94.455 44.2585 94.8038 43.5335L91.9994 42.6774C91.855 42.9518 91.6342 43.175 91.3349 43.3471C91.0357 43.5191 90.7056 43.6051 90.3465 43.6051C90.0597 43.6051 89.7852 43.5457 89.5293 43.4269C89.2714 43.3082 89.0465 43.1423 88.8545 42.9272C88.6626 42.7122 88.5141 42.4541 88.4047 42.151C88.2974 41.8479 88.2437 41.512 88.2437 41.1433C88.2437 40.406 88.4439 39.8161 88.8463 39.3779C89.2466 38.9375 89.7481 38.7184 90.3465 38.7184C91.0646 38.7184 91.6115 39.0153 91.9829 39.6093L94.7873 38.7716C94.4158 38.0343 93.8587 37.4363 93.1158 36.9796C92.3729 36.5208 91.4567 36.2935 90.3651 36.2935C89.5623 36.2935 88.8463 36.4245 88.2169 36.6867" fill="white"/>
</mask>
<g mask="url(#mask5_4451_3307)">
<path d="M94.8057 36.2891H85.2969V46.0113H94.8057V36.2891Z" fill="white"/>
</g>
<path d="M96.6914 33.4898V36.4698H95.4863V38.6285H96.6914V43.5172C96.6914 43.9699 96.7595 44.3549 96.8978 44.6765C97.036 44.998 97.2238 45.2561 97.4632 45.4527C97.7026 45.6493 97.9811 45.7927 98.2989 45.8807C98.6167 45.9708 98.9551 46.0138 99.3142 46.0138C99.8301 46.0138 100.342 45.9422 100.852 45.8008C101.361 45.6575 101.813 45.5039 102.209 45.3359L101.652 43.0708C101.485 43.1547 101.287 43.2305 101.06 43.3022C100.833 43.3739 100.61 43.4087 100.396 43.4087C100.156 43.4087 99.958 43.3411 99.8033 43.2039C99.6485 43.0667 99.5701 42.8434 99.5701 42.5342V38.6264H101.493V36.4677H99.5701V33.4878H96.6935L96.6914 33.4898Z" fill="white"/>
<mask id="mask6_4451_3307" style="mask-type:luminance" maskUnits="userSpaceOnUse" x="95" y="33" width="8" height="14">
<path d="M96.6914 33.4898V36.4698H95.4863V38.6285H96.6914V43.5172C96.6914 43.9699 96.7595 44.3549 96.8978 44.6765C97.036 44.998 97.2238 45.2561 97.4632 45.4527C97.7026 45.6493 97.9811 45.7927 98.2989 45.8807C98.6167 45.9708 98.9551 46.0138 99.3142 46.0138C99.8301 46.0138 100.342 45.9422 100.852 45.8008C101.361 45.6575 101.813 45.5039 102.209 45.3359L101.652 43.0708C101.485 43.1547 101.287 43.2305 101.06 43.3022C100.833 43.3739 100.61 43.4087 100.396 43.4087C100.156 43.4087 99.958 43.3411 99.8033 43.2039C99.6485 43.0667 99.5701 42.8434 99.5701 42.5342V38.6264H101.493V36.4677H99.5701V33.4878H96.6935L96.6914 33.4898Z" fill="white"/>
</mask>
<g mask="url(#mask6_4451_3307)">
<path d="M102.211 33.4897H95.4883V46.0138H102.211V33.4897Z" fill="white"/>
</g>
<path d="M103.326 45.8357H106.203V36.4678H103.326V45.8337V45.8357ZM103.326 35.3987H106.203V32.812H103.326V35.3987Z" fill="white"/>
<mask id="mask7_4451_3307" style="mask-type:luminance" maskUnits="userSpaceOnUse" x="103" y="32" width="4" height="14">
<path d="M103.326 45.8357H106.203V36.4678H103.326V45.8337V45.8357ZM103.326 35.3987H106.203V32.812H103.326V35.3987Z" fill="white"/>
</mask>
<g mask="url(#mask7_4451_3307)">
<path d="M106.203 32.812H103.326V45.8357H106.203V32.812Z" fill="white"/>
</g>
<path d="M114.4 36.4678L112.314 43.5521L110.247 36.4678H107.281L110.624 45.8357H113.753L117.077 36.4678H114.4Z" fill="white"/>
<mask id="mask8_4451_3307" style="mask-type:luminance" maskUnits="userSpaceOnUse" x="107" y="36" width="11" height="10">
<path d="M114.4 36.4678L112.314 43.5521L110.247 36.4678H107.281L110.624 45.8357H113.753L117.077 36.4678H114.4Z" fill="white"/>
</mask>
<g mask="url(#mask8_4451_3307)">
<path d="M117.077 36.4678H107.281V45.8336H117.077V36.4678Z" fill="white"/>
</g>
<path d="M120.456 43.632C120.192 43.4129 120.06 43.1302 120.06 42.7841C120.06 42.4032 120.231 42.0939 120.571 41.8563C120.914 41.6187 121.347 41.5 121.876 41.5C122.127 41.5 122.4 41.5266 122.693 41.5798C122.986 41.6331 123.258 41.7068 123.51 41.8031V42.696C123.51 42.9336 123.372 43.1609 123.097 43.3739C122.905 43.5521 122.662 43.6955 122.369 43.802C122.076 43.9085 121.772 43.9617 121.461 43.9617C121.052 43.9617 120.718 43.8511 120.454 43.632M119.771 36.5948C119.1 36.7976 118.452 37.1007 117.829 37.5041L118.673 39.288C119.189 38.9439 119.68 38.6838 120.146 38.5118C120.613 38.3398 121.104 38.2537 121.62 38.2537C122.878 38.2537 123.508 38.7944 123.508 39.8779V40.3059C123.231 40.1748 122.909 40.0765 122.538 40.011C122.166 39.9455 121.783 39.9127 121.387 39.9127C120.788 39.9127 120.241 39.9905 119.75 40.1441C119.259 40.2977 118.834 40.5128 118.473 40.7872C118.114 41.0617 117.835 41.3873 117.637 41.7682C117.439 42.1492 117.34 42.5711 117.34 43.034C117.34 43.462 117.424 43.8573 117.592 44.2198C117.759 44.5823 117.988 44.8977 118.275 45.166C118.561 45.4343 118.906 45.6412 119.309 45.7907C119.709 45.9402 120.144 46.0139 120.613 46.0139C121.261 46.0139 121.874 45.8705 122.455 45.5859C123.037 45.3012 123.537 44.8895 123.956 44.355L124.009 44.783C124.081 45.164 124.255 45.4589 124.531 45.6657C124.808 45.8726 125.214 45.977 125.753 45.977C125.92 45.977 126.106 45.9689 126.31 45.9504C126.514 45.932 126.741 45.8931 126.993 45.8337V43.4251C126.766 43.4006 126.607 43.333 126.516 43.2203C126.428 43.1077 126.382 42.909 126.382 42.6223V40.2138C126.382 38.9296 125.992 37.9547 125.214 37.2871C124.434 36.6214 123.332 36.2876 121.907 36.2876C121.151 36.2876 120.437 36.3879 119.767 36.5907" fill="white"/>
<mask id="mask9_4451_3307" style="mask-type:luminance" maskUnits="userSpaceOnUse" x="117" y="36" width="10" height="11">
<path d="M120.456 43.632C120.192 43.4129 120.06 43.1302 120.06 42.7841C120.06 42.4032 120.231 42.0939 120.571 41.8563C120.914 41.6187 121.347 41.5 121.876 41.5C122.127 41.5 122.4 41.5266 122.693 41.5798C122.986 41.6331 123.258 41.7068 123.51 41.8031V42.696C123.51 42.9336 123.372 43.1609 123.097 43.3739C122.905 43.5521 122.662 43.6955 122.369 43.802C122.076 43.9085 121.772 43.9617 121.461 43.9617C121.052 43.9617 120.718 43.8511 120.454 43.632M119.771 36.5948C119.1 36.7976 118.452 37.1007 117.829 37.5041L118.673 39.288C119.189 38.9439 119.68 38.6838 120.146 38.5118C120.613 38.3398 121.104 38.2537 121.62 38.2537C122.878 38.2537 123.508 38.7944 123.508 39.8779V40.3059C123.231 40.1748 122.909 40.0765 122.538 40.011C122.166 39.9455 121.783 39.9127 121.387 39.9127C120.788 39.9127 120.241 39.9905 119.75 40.1441C119.259 40.2977 118.834 40.5128 118.473 40.7872C118.114 41.0617 117.835 41.3873 117.637 41.7682C117.439 42.1492 117.34 42.5711 117.34 43.034C117.34 43.462 117.424 43.8573 117.592 44.2198C117.759 44.5823 117.988 44.8977 118.275 45.166C118.561 45.4343 118.906 45.6412 119.309 45.7907C119.709 45.9402 120.144 46.0139 120.613 46.0139C121.261 46.0139 121.874 45.8705 122.455 45.5859C123.037 45.3012 123.537 44.8895 123.956 44.355L124.009 44.783C124.081 45.164 124.255 45.4589 124.531 45.6657C124.808 45.8726 125.214 45.977 125.753 45.977C125.92 45.977 126.106 45.9689 126.31 45.9504C126.514 45.932 126.741 45.8931 126.993 45.8337V43.4251C126.766 43.4006 126.607 43.333 126.516 43.2203C126.428 43.1077 126.382 42.909 126.382 42.6223V40.2138C126.382 38.9296 125.992 37.9547 125.214 37.2871C124.434 36.6214 123.332 36.2876 121.907 36.2876C121.151 36.2876 120.437 36.3879 119.767 36.5907" fill="white"/>
</mask>
<g mask="url(#mask9_4451_3307)">
<path d="M127.001 36.29H117.348V46.0122H127.001V36.29Z" fill="white"/>
</g>
</g>
</g>
<defs>
<clipPath id="clip0_4451_3307">
<rect width="105" height="19" fill="white" transform="translate(22 30)"/>
</clipPath>
</defs>
</svg>
