<svg width="150" height="80" viewBox="0 0 150 80" fill="none" xmlns="http://www.w3.org/2000/svg">
<g clip-path="url(#clip0_4451_3278)">
<path d="M45.5664 46.1902V32.5186H48.1286V46.1902H45.5664Z" fill="white"/>
<path d="M53.4593 37.6629H53.5019C53.6628 37.4427 53.8488 37.2412 54.0565 37.0621C54.2894 36.8596 54.5463 36.685 54.8217 36.542C55.123 36.3869 55.4414 36.2656 55.7708 36.1805C56.1306 36.0857 56.502 36.0394 56.8746 36.0426C57.2338 36.0415 57.5919 36.0825 57.9411 36.1649C58.2758 36.2414 58.5954 36.3705 58.8876 36.5472C59.1804 36.7252 59.4378 36.9534 59.6474 37.2207C59.8781 37.5183 60.054 37.8527 60.1673 38.209C60.2387 38.4333 60.286 38.6643 60.3086 38.8982C60.3326 39.1582 60.3433 39.4339 60.3433 39.7616V46.1904H57.8611V40.1413C57.8611 39.8812 57.8611 39.6472 57.8318 39.4573C57.8173 39.2889 57.7815 39.1229 57.7251 38.9632C57.6248 38.6787 57.422 38.4394 57.1546 38.2896C56.8686 38.1471 56.5504 38.0773 56.2294 38.0868C55.7459 38.0864 55.2694 38.1997 54.8403 38.417C54.3806 38.6518 53.9786 38.981 53.6619 39.3819V46.1904H51.1797V36.2897H53.2326L53.4593 37.6629Z" fill="white"/>
<path d="M72.1393 36.2896L68.212 46.1902H65.7511L61.8105 36.2896H64.4314L65.8444 40.0683C66.2497 41.1328 66.6194 42.1956 66.9536 43.2567H66.9962C67.2895 42.3378 67.653 41.2975 68.0867 40.1359L69.4998 36.2948L72.1393 36.2896Z" fill="white"/>
<path d="M83.2827 41.2438C83.2915 41.967 83.1706 42.686 82.9254 43.3686C82.7062 43.9806 82.3584 44.5413 81.9043 45.0148C81.455 45.4754 80.9095 45.8364 80.3046 46.0732C79.6345 46.3283 78.9202 46.4546 78.201 46.4451C77.4722 46.4548 76.7483 46.3286 76.0681 46.0732C75.4625 45.8376 74.9167 45.4764 74.4684 45.0148C74.0186 44.54 73.6746 43.9795 73.4579 43.3686C73.2159 42.6854 73.0968 41.9666 73.106 41.2438C73.0974 40.5207 73.2183 39.8016 73.4632 39.1191C73.6828 38.508 74.0306 37.9482 74.4844 37.4755C74.9329 37.014 75.4787 36.6529 76.0841 36.417C76.7547 36.1607 77.4701 36.0343 78.1903 36.0451C78.9192 36.034 79.6435 36.1603 80.3233 36.417C80.9293 36.6517 81.4753 37.013 81.923 37.4755C82.3734 37.9488 82.7176 38.5086 82.9334 39.1191C83.1744 39.8024 83.2925 40.5212 83.2827 41.2438ZM80.7152 41.2438C80.7234 40.7745 80.6605 40.3065 80.5286 39.8551C80.4189 39.4876 80.2379 39.1442 79.9953 38.8434C79.7834 38.5789 79.509 38.3683 79.1955 38.2297C78.8717 38.0925 78.522 38.0234 78.169 38.0268C77.8212 38.0236 77.4768 38.0928 77.1585 38.2297C76.8454 38.3689 76.5711 38.5794 76.3587 38.8434C76.1161 39.1441 75.935 39.4876 75.8254 39.8551C75.6925 40.3064 75.6287 40.7743 75.6361 41.2438C75.6289 41.7141 75.6927 42.1829 75.8254 42.6352C75.9334 43.0009 76.1147 43.3421 76.3587 43.639C76.5737 43.9006 76.8473 44.1105 77.1585 44.2528C77.4792 44.3917 77.8261 44.4635 78.177 44.4635C78.5279 44.4635 78.8748 44.3917 79.1955 44.2528C79.5071 44.1112 79.7809 43.9011 79.9953 43.639C80.2384 43.3415 80.4195 43.0005 80.5286 42.6352C80.6603 42.1828 80.7232 41.714 80.7152 41.2438Z" fill="white"/>
<path d="M85.4824 31.395H88.0899V34.0217H85.4824V31.395ZM85.5464 36.2895H88.0286V46.1901H85.5464V36.2895Z" fill="white"/>
<path d="M98.4296 38.8746C99.4338 40.272 100.251 41.5116 100.88 42.5935H100.941C100.859 40.8146 100.818 39.5204 100.816 38.7107V32.5186H103.383V46.1902H100.69L96.118 39.8966C95.3199 38.8061 94.4908 37.5413 93.6305 36.1023H93.5692C93.6518 37.7797 93.6945 39.0748 93.6945 40.0032V46.1902H91.127V32.5186H93.8198L98.4296 38.8746Z" fill="white"/>
<path d="M111.647 44.4947C112.154 44.492 112.659 44.4432 113.156 44.349C113.699 44.2517 114.234 44.1152 114.756 43.9407V45.873C114.278 46.0512 113.783 46.181 113.279 46.2605C112.598 46.3847 111.907 46.4465 111.215 46.4451C110.523 46.4514 109.834 46.3639 109.167 46.1851C108.546 46.0153 107.97 45.7173 107.477 45.3113C106.977 44.8843 106.584 44.3503 106.331 43.7509C106.028 43.0069 105.883 42.2105 105.907 41.4103C105.889 40.6069 106.024 39.8072 106.304 39.0515C106.536 38.4261 106.899 37.8547 107.37 37.3741C107.803 36.9398 108.326 36.6003 108.904 36.378C109.472 36.1586 110.078 36.0466 110.69 36.0477C111.294 36.0406 111.895 36.1375 112.466 36.3338C113 36.5195 113.481 36.8271 113.868 37.231C114.286 37.6858 114.598 38.2234 114.782 38.807C115.016 39.5462 115.128 40.317 115.113 41.0904C115.113 41.4311 115.094 41.7224 115.081 41.959H108.432C108.453 42.366 108.56 42.7643 108.746 43.1293C108.911 43.4369 109.145 43.7038 109.431 43.9095C109.73 44.1163 110.067 44.2646 110.423 44.3464C110.823 44.4455 111.234 44.4953 111.647 44.4947ZM110.653 37.9228C110.375 37.9185 110.099 37.9736 109.845 38.0841C109.592 38.1946 109.366 38.3579 109.183 38.5626C109.002 38.7624 108.858 38.9922 108.76 39.2413C108.654 39.5071 108.584 39.7851 108.552 40.0683H112.551C112.553 39.7884 112.512 39.5098 112.431 39.2413C112.356 38.9957 112.236 38.7656 112.076 38.5626C111.919 38.3681 111.718 38.2107 111.49 38.1022C111.229 37.9799 110.942 37.9184 110.653 37.9228Z" fill="white"/>
<path d="M123.619 46.18C123.291 46.2706 122.956 46.3349 122.617 46.3725C122.258 46.4196 121.896 46.444 121.534 46.4453C120.815 46.4719 120.099 46.3338 119.444 46.0422C118.932 45.8018 118.525 45.3902 118.298 44.8823C118.118 44.412 118.037 43.9116 118.058 43.4103V38.2818H116.162V36.2897H118.058V33.52H120.54V36.2897H123.473V38.2818H120.54V43.093C120.52 43.3859 120.58 43.6788 120.716 43.9408C120.927 44.2633 121.343 44.4246 121.964 44.4246C122.249 44.425 122.535 44.4033 122.817 44.3595C123.086 44.3173 123.353 44.2609 123.617 44.1905L123.619 46.18Z" fill="white"/>
<path d="M29.6786 30.6645L36.9945 31.0624C37.8119 30.5886 38.6766 30.1973 39.5754 29.8947L28.1322 29.2705C24.1063 38.339 27.599 48.6402 27.599 48.6402C27.5788 47.1411 27.6957 45.6433 27.9482 44.1645C27.5243 40.4143 27.599 35.3742 29.6786 30.6645Z" fill="white"/>
<path d="M42.8597 32.3394C41.6792 32.9764 40.5787 33.7453 39.5804 34.6305C39.0151 36.7995 38.6739 40.1543 39.4231 45.0774L31.2726 48.9992C31.126 49.6727 31.006 50.3645 30.8887 51.0797L41.1694 46.1384C39.5964 35.7566 42.8597 32.3394 42.8597 32.3394Z" fill="white"/>
<path d="M31.2715 49.0092L39.4193 45.0875C38.6701 40.1644 39.0114 36.8096 39.5793 34.6406C36.7505 37.067 32.8818 41.5974 31.2715 49.0092Z" fill="#C6C8CA"/>
<path d="M36.9931 31.0625L29.6745 30.6646C27.5975 35.3743 27.5202 40.4144 27.9441 44.1646C29.2425 36.5706 33.9777 32.7581 36.9931 31.0625Z" fill="#C6C8CA"/>
<path d="M36.9943 31.062C33.9788 32.7576 29.2464 36.5702 27.9453 44.1641C28.1544 46.1505 28.5552 48.1131 29.1424 50.026L31.2754 48.9987C32.875 41.5869 36.7543 37.0591 39.5831 34.6327C40.2097 32.2245 41.1135 31.2779 41.1135 31.2779L36.9943 31.062Z" fill="#EBEBEB"/>
</g>
<defs>
<clipPath id="clip0_4451_3278">
<rect width="113" height="27" fill="white" transform="translate(18 27)"/>
</clipPath>
</defs>
</svg>
