<svg width="237" height="57" viewBox="0 0 237 57" fill="none" xmlns="http://www.w3.org/2000/svg">
<g clip-path="url(#clip0_4048_10673)">
<path d="M57.8142 40.5108V11.6484H63.188V40.5108H57.8142Z" fill="white"/>
<path d="M74.3719 22.5067H74.4613C74.7987 22.042 75.189 21.6165 75.6244 21.2385C76.113 20.811 76.6517 20.4424 77.2293 20.1404C77.8614 19.813 78.5292 19.557 79.22 19.3773C79.9746 19.1772 80.7535 19.0793 81.535 19.0863C82.2885 19.0838 83.0395 19.1705 83.7718 19.3443C84.4737 19.5058 85.1442 19.7784 85.7569 20.1514C86.371 20.5273 86.9109 21.0091 87.3506 21.5734C87.8343 22.2016 88.2033 22.9075 88.441 23.6597C88.5907 24.1333 88.69 24.6209 88.7374 25.1146C88.7877 25.6636 88.8101 26.2456 88.8101 26.9374V40.5093H83.604V27.7389C83.604 27.1899 83.604 26.6958 83.5425 26.295C83.5123 25.9395 83.4371 25.5891 83.3189 25.2519C83.1084 24.6513 82.6832 24.1461 82.1222 23.8299C81.5225 23.5289 80.855 23.3816 80.1818 23.4016C79.1678 23.401 78.1684 23.6401 77.2684 24.0989C76.3043 24.5944 75.461 25.2894 74.7968 26.1358V40.5093H69.5908V19.6079H73.8966L74.3719 22.5067Z" fill="white"/>
<path d="M113.548 19.6094L105.312 40.5108H100.15L91.8855 19.6094H97.3823L100.346 27.5867C101.196 29.8341 101.971 32.0778 102.672 34.3178H102.762C103.377 32.3779 104.139 30.1818 105.049 27.7295L108.012 19.6204L113.548 19.6094Z" fill="white"/>
<path d="M136.922 30.0702C136.941 31.5969 136.687 33.1149 136.173 34.5558C135.713 35.8479 134.984 37.0316 134.031 38.0311C133.089 39.0035 131.945 39.7656 130.676 40.2657C129.271 40.8042 127.773 41.0708 126.264 41.0508C124.736 41.0712 123.217 40.8047 121.791 40.2657C120.521 39.7682 119.376 39.0058 118.436 38.0311C117.492 37.0288 116.771 35.8455 116.316 34.5558C115.809 33.1136 115.559 31.596 115.578 30.0702C115.56 28.5436 115.814 27.0256 116.327 25.5847C116.788 24.2945 117.517 23.1128 118.469 22.1148C119.41 21.1407 120.555 20.3784 121.824 19.8803C123.231 19.3391 124.731 19.0724 126.242 19.0952C127.771 19.0717 129.29 19.3383 130.715 19.8803C131.986 20.3757 133.132 21.1384 134.07 22.1148C135.015 23.114 135.737 24.2958 136.19 25.5847C136.695 27.0273 136.943 28.5448 136.922 30.0702ZM131.537 30.0702C131.555 29.0794 131.423 28.0915 131.146 27.1384C130.916 26.3627 130.536 25.6377 130.028 25.0027C129.583 24.4442 129.007 23.9997 128.35 23.707C127.671 23.4175 126.937 23.2715 126.197 23.2788C125.468 23.272 124.745 23.418 124.078 23.707C123.421 24.001 122.846 24.4453 122.4 25.0027C121.891 25.6376 121.512 26.3627 121.282 27.1384C121.003 28.0911 120.869 29.0791 120.885 30.0702C120.87 31.0631 121.004 32.0528 121.282 33.0075C121.508 33.7796 121.888 34.4999 122.4 35.1268C122.851 35.6789 123.425 36.1222 124.078 36.4225C124.75 36.7158 125.478 36.8673 126.214 36.8673C126.95 36.8673 127.677 36.7158 128.35 36.4225C129.004 36.1235 129.578 35.68 130.028 35.1268C130.537 34.4986 130.917 33.7787 131.146 33.0075C131.422 32.0525 131.554 31.0629 131.537 30.0702Z" fill="white"/>
<path d="M141.536 9.28125H147.004V14.8264H141.536V9.28125ZM141.67 19.6139H146.876V40.5154H141.67V19.6139Z" fill="white"/>
<path d="M168.69 25.0667C170.796 28.0168 172.509 30.6338 173.829 32.9177H173.957C173.786 29.1624 173.698 26.4301 173.695 24.7208V11.6484H179.08V40.5108H173.432L163.842 27.2243C162.168 24.9221 160.429 22.252 158.625 19.214H158.496C158.669 22.7553 158.759 25.4894 158.759 27.4494V40.5108H153.374V11.6484H159.022L168.69 25.0667Z" fill="white"/>
<path d="M196.409 36.9347C197.471 36.9291 198.531 36.8261 199.574 36.6273C200.712 36.4218 201.834 36.1337 202.929 35.7653V39.8446C201.927 40.2207 200.889 40.4948 199.831 40.6626C198.404 40.9247 196.955 41.0552 195.503 41.0524C194.052 41.0656 192.607 40.8808 191.208 40.5034C189.906 40.1449 188.697 39.5158 187.663 38.6587C186.614 37.7573 185.791 36.6299 185.259 35.3645C184.623 33.794 184.32 32.1126 184.369 30.4233C184.333 28.7272 184.615 27.039 185.203 25.4436C185.689 24.1233 186.451 22.9171 187.439 21.9024C188.347 20.9856 189.443 20.2688 190.655 19.7996C191.847 19.3365 193.119 19.0998 194.401 19.1023C195.669 19.0874 196.93 19.2918 198.125 19.7063C199.246 20.0982 200.254 20.7477 201.067 21.6004C201.943 22.5604 202.598 23.6955 202.985 24.9275C203.475 26.488 203.709 28.1152 203.678 29.748C203.678 30.4672 203.639 31.0821 203.611 31.5817H189.665C189.71 32.4409 189.935 33.2819 190.325 34.0523C190.67 34.7017 191.161 35.2651 191.762 35.6994C192.388 36.1359 193.094 36.4491 193.842 36.6218C194.681 36.831 195.543 36.9361 196.409 36.9347ZM194.323 23.0608C193.74 23.0518 193.162 23.168 192.63 23.4013C192.098 23.6347 191.624 23.9794 191.242 24.4114C190.861 24.8333 190.56 25.3185 190.353 25.8444C190.132 26.4055 189.985 26.9923 189.917 27.5903H198.304C198.308 26.9994 198.223 26.4111 198.053 25.8444C197.897 25.3259 197.645 24.8401 197.309 24.4114C196.979 24.0008 196.558 23.6686 196.079 23.4396C195.531 23.1813 194.93 23.0516 194.323 23.0608Z" fill="white"/>
<path d="M221.522 40.4923C220.833 40.6835 220.13 40.8193 219.419 40.8985C218.667 40.9981 217.908 41.0495 217.149 41.0523C215.64 41.1084 214.139 40.817 212.765 40.2013C211.691 39.6937 210.838 38.825 210.36 37.7526C209.985 36.7598 209.813 35.7035 209.857 34.6451V23.8183H205.881V19.6128H209.857V13.7656H215.063V19.6128H221.214V23.8183H215.063V33.9753C215.02 34.5936 215.148 35.2119 215.432 35.7651C215.876 36.4459 216.748 36.7863 218.049 36.7863C218.648 36.7873 219.247 36.7414 219.839 36.6491C220.404 36.5599 220.964 36.4407 221.516 36.2922L221.522 40.4923Z" fill="white"/>
<path d="M24.4923 7.73966L39.8364 8.57967C41.5506 7.57946 43.3643 6.75348 45.2493 6.11454L21.249 4.79688C12.8053 23.9415 20.1306 45.6884 20.1306 45.6884C20.0884 42.5237 20.3335 39.3616 20.8632 36.2397C19.9741 28.3227 20.1306 17.6825 24.4923 7.73966Z" fill="white"/>
<path d="M52.1385 11.2734C49.6624 12.6183 47.3542 14.2415 45.2605 16.1104C44.075 20.6893 43.3592 27.7717 44.9306 38.1648L27.8362 46.4441C27.5287 47.8661 27.277 49.3265 27.031 50.8363L48.5932 40.4048C45.294 18.4877 52.1385 11.2734 52.1385 11.2734Z" fill="white"/>
<path d="M27.8362 46.4666L44.9249 38.1872C43.3536 27.7942 44.0694 20.7117 45.2604 16.1328C39.3275 21.2552 31.2137 30.8193 27.8362 46.4666Z" fill="white"/>
<path d="M39.8365 8.57439L24.4869 7.73438C20.1308 17.6773 19.9686 28.3174 20.8578 36.2344C23.581 20.2028 33.5121 12.154 39.8365 8.57439Z" fill="white"/>
<g filter="url(#filter0_i_4048_10673)">
<path d="M39.8365 8.57812C33.5121 12.1578 23.5865 20.2065 20.8577 36.2381C21.2961 40.4315 22.1367 44.5749 23.3684 48.6132L27.8419 46.4445C31.197 30.7973 39.3332 21.2387 45.2662 16.1163C46.5802 11.0323 48.4759 9.03382 48.4759 9.03382L39.8365 8.57812Z" fill="#EFEFEF"/>
</g>
</g>
<defs>
<filter id="filter0_i_4048_10673" x="20.8577" y="8.57812" width="27.6182" height="44.0312" filterUnits="userSpaceOnUse" color-interpolation-filters="sRGB">
<feFlood flood-opacity="0" result="BackgroundImageFix"/>
<feBlend mode="normal" in="SourceGraphic" in2="BackgroundImageFix" result="shape"/>
<feColorMatrix in="SourceAlpha" type="matrix" values="0 0 0 0 0 0 0 0 0 0 0 0 0 0 0 0 0 0 127 0" result="hardAlpha"/>
<feOffset dy="4"/>
<feGaussianBlur stdDeviation="2"/>
<feComposite in2="hardAlpha" operator="arithmetic" k2="-1" k3="1"/>
<feColorMatrix type="matrix" values="0 0 0 0 0 0 0 0 0 0 0 0 0 0 0 0 0 0 0.25 0"/>
<feBlend mode="normal" in2="shape" result="effect1_innerShadow_4048_10673"/>
</filter>
<clipPath id="clip0_4048_10673">
<rect width="237" height="57" fill="white"/>
</clipPath>
</defs>
</svg>
