<svg width="74" height="40" viewBox="0 0 74 40" fill="none" xmlns="http://www.w3.org/2000/svg">
<path d="M39.5459 8.23438V32.0405H35.3937V8.23438H0V40.0014H74V8.23438H39.5459ZM16.0336 29.2367C15.7579 29.8555 15.3509 30.4059 14.8412 30.8492C14.2776 31.3352 13.6279 31.7096 12.9262 31.9527C12.0892 32.2407 11.2088 32.3802 10.3244 32.3648C9.27534 32.3565 8.23499 32.1723 7.24609 31.8198C6.18809 31.4533 5.21638 30.8715 4.3915 30.1105L6.75168 27.2482C7.30565 27.697 7.91748 28.0682 8.57048 28.3517C9.14873 28.6191 9.77543 28.764 10.4116 28.7773C11.038 28.7773 11.4922 28.6805 11.774 28.4868C11.909 28.3972 12.0186 28.2741 12.0923 28.1292C12.166 27.9844 12.2013 27.8229 12.1946 27.6603C12.2011 27.4875 12.1508 27.3173 12.0515 27.1761C11.9336 27.0298 11.7903 26.9062 11.6286 26.8113C11.4134 26.6856 11.1891 26.5765 10.9575 26.4848C10.7002 26.3789 10.4027 26.2596 10.0626 26.1334L8.14094 25.3137C7.71546 25.148 7.31075 24.9325 6.93512 24.6719C6.55364 24.4084 6.2129 24.0897 5.92394 23.726C5.62885 23.3499 5.39685 22.9277 5.23714 22.4762C5.06386 21.9777 4.97832 21.4526 4.98435 20.9245C4.97632 20.2609 5.12265 19.6046 5.41163 19.008C5.70315 18.4134 6.11279 17.8853 6.61521 17.4564C7.16036 16.9944 7.7852 16.6371 8.45862 16.4025C9.21318 16.1362 10.0081 16.0044 10.8076 16.0129C11.7414 16.0217 12.6662 16.197 13.5392 16.5308C14.4669 16.8739 15.3074 17.42 16 18.1298L13.9284 20.7489C13.4539 20.4066 12.941 20.1216 12.4004 19.8998C11.8894 19.7023 11.346 19.6038 10.7987 19.6093C10.3802 19.5866 9.96353 19.6784 9.59284 19.8751C9.45486 19.9561 9.34163 20.0737 9.26549 20.2151C9.18935 20.3565 9.15324 20.5162 9.16108 20.6768C9.16108 21.0476 9.3654 21.3344 9.77405 21.5371C10.1827 21.7397 10.7487 21.9785 11.472 22.2532L13.3758 23.0031C14.2691 23.3261 15.0559 23.892 15.6488 24.6381C16.1797 25.3317 16.4444 26.2288 16.443 27.3293C16.4426 27.9871 16.303 28.6374 16.0336 29.2367ZM31.8949 32.09H27.7517V25.8339H23.0783V32.09H18.9351V16.3259H23.0783V22.1924H27.7517V16.3304H31.8949V32.09ZM53.1991 19.8053H47.1298V22.8117H53.1991V26.3046H47.1298V32.0698H42.9866V16.3056H53.1991V19.8053ZM68.6353 19.8053H64.481V32.0698H60.3378V19.8053H56.1946V16.3056H68.6242L68.6353 19.8053Z" fill="white"/>
<path d="M39.5433 0H35.2368V4.33514H39.5433V0Z" fill="white"/>
</svg>
