<svg width="105" height="19" viewBox="0 0 105 19" fill="none" xmlns="http://www.w3.org/2000/svg">
<g clip-path="url(#clip0_3871_556)">
<mask id="mask0_3871_556" style="mask-type:luminance" maskUnits="userSpaceOnUse" x="0" y="0" width="105" height="19">
<path d="M105 0H0V19H105V0Z" fill="white"/>
</mask>
<g mask="url(#mask0_3871_556)">
<path d="M2.58977 18.9704C4.23442 16.1911 5.17953 12.9531 5.17953 9.49598C5.17953 6.03883 4.23442 2.80082 2.58977 0.0195312C0.94511 2.80082 0 6.03883 0 9.49598C0 12.9531 0.94511 16.1911 2.58977 18.9704Z" fill="white"/>
<path d="M2.625 0.000458689C4.22838 2.80428 6.58084 5.23534 9.59776 6.96392C12.6147 8.6925 15.9122 9.49944 19.1603 9.47691C17.5569 6.67309 15.2044 4.24203 12.1875 2.51345C9.17061 0.784872 5.87304 -0.0220701 2.625 0.000458689Z" fill="white"/>
<path d="M2.625 19.0004C4.22838 16.1966 6.58084 13.7655 9.59776 12.0369C12.6147 10.3083 15.9122 9.50137 19.1603 9.5239C17.5569 12.3277 15.2044 14.7588 12.1875 16.4874C9.17061 18.216 5.87304 19.0229 2.625 19.0004Z" fill="#F2F2F2"/>
<path d="M27.3835 10.5902H30.7801C31.1268 10.5902 31.4157 10.7274 31.6427 10.9998C31.8697 11.2742 31.9852 11.606 31.9852 11.9992C31.9852 12.3925 31.8594 12.7304 31.6076 12.9803C31.3559 13.2301 31.0381 13.3551 30.6542 13.3551H27.3835V10.5902ZM27.3835 5.66663H30.386C30.6976 5.66663 30.9638 5.77927 31.1866 6.00661C31.4074 6.2319 31.5189 6.55344 31.5189 6.9692C31.5189 7.42183 31.393 7.75362 31.1412 7.96866C30.8895 8.18371 30.6027 8.29021 30.2787 8.29021H27.3856V5.66663H27.3835ZM24.4347 3.16797V15.8353H30.6542C31.2403 15.8353 31.7975 15.7677 32.3257 15.6305C32.8519 15.4933 33.3142 15.2905 33.7104 15.0242C34.1066 14.7559 34.4182 14.4201 34.6452 14.0166C34.8722 13.6131 34.9856 13.1359 34.9856 12.5891C34.9856 11.733 34.7731 11.0305 34.348 10.4837C33.9229 9.93687 33.3431 9.55592 32.6126 9.34088C33.2234 9.06848 33.6815 8.66296 33.9869 8.12841C34.2923 7.59387 34.445 7.02245 34.445 6.41622C34.445 6.01275 34.3769 5.61543 34.2386 5.23039C34.1004 4.8433 33.9064 4.49922 33.6547 4.19611C33.4029 3.89299 33.0975 3.64722 32.7384 3.45675C32.3794 3.26628 31.977 3.17207 31.5333 3.17207H24.4326L24.4347 3.16797Z" fill="white"/>
<mask id="mask1_3871_556" style="mask-type:luminance" maskUnits="userSpaceOnUse" x="24" y="3" width="11" height="13">
<path d="M27.3835 10.5902H30.7801C31.1268 10.5902 31.4157 10.7274 31.6427 10.9998C31.8697 11.2742 31.9852 11.606 31.9852 11.9992C31.9852 12.3925 31.8594 12.7304 31.6076 12.9803C31.3559 13.2301 31.0381 13.3551 30.6542 13.3551H27.3835V10.5902ZM27.3835 5.66663H30.386C30.6976 5.66663 30.9638 5.77927 31.1866 6.00661C31.4074 6.2319 31.5189 6.55344 31.5189 6.9692C31.5189 7.42183 31.393 7.75362 31.1412 7.96866C30.8895 8.18371 30.6027 8.29021 30.2787 8.29021H27.3856V5.66663H27.3835ZM24.4347 3.16797V15.8353H30.6542C31.2403 15.8353 31.7975 15.7677 32.3257 15.6305C32.8519 15.4933 33.3142 15.2905 33.7104 15.0242C34.1066 14.7559 34.4182 14.4201 34.6452 14.0166C34.8722 13.6131 34.9856 13.1359 34.9856 12.5891C34.9856 11.733 34.7731 11.0305 34.348 10.4837C33.9229 9.93687 33.3431 9.55592 32.6126 9.34088C33.2234 9.06848 33.6815 8.66296 33.9869 8.12841C34.2923 7.59387 34.445 7.02245 34.445 6.41622C34.445 6.01275 34.3769 5.61543 34.2386 5.23039C34.1004 4.8433 33.9064 4.49922 33.6547 4.19611C33.4029 3.89299 33.0975 3.64722 32.7384 3.45675C32.3794 3.26628 31.977 3.17207 31.5333 3.17207H24.4326L24.4347 3.16797Z" fill="white"/>
</mask>
<g mask="url(#mask1_3871_556)">
<path d="M34.9855 3.16797H24.4346V15.8353H34.9855V3.16797Z" fill="white"/>
</g>
<path d="M36.4961 15.8362H39.3727V6.46832H36.4961V15.8342V15.8362ZM36.4961 5.39922H39.3727V2.8125H36.4961V5.39922Z" fill="white"/>
<mask id="mask2_3871_556" style="mask-type:luminance" maskUnits="userSpaceOnUse" x="36" y="2" width="4" height="14">
<path d="M36.4961 15.8362H39.3727V6.46832H36.4961V15.8342V15.8362ZM36.4961 5.39922H39.3727V2.8125H36.4961V5.39922Z" fill="white"/>
</mask>
<g mask="url(#mask2_3871_556)">
<path d="M39.3727 2.8125H36.4961V15.8362H39.3727V2.8125Z" fill="white"/>
</g>
<path d="M44.3332 12.9351C43.937 12.4886 43.7409 11.8967 43.7409 11.1594C43.7409 10.803 43.7946 10.4733 43.9019 10.1702C44.0092 9.86705 44.1557 9.60899 44.3414 9.39395C44.5271 9.1789 44.7479 9.013 45.0059 8.89422C45.2638 8.77543 45.5424 8.71603 45.8416 8.71603C46.44 8.71603 46.9374 8.93927 47.3336 9.38575C47.7298 9.83224 47.9258 10.4241 47.9258 11.1614C47.9258 11.5178 47.8722 11.8476 47.7649 12.1507C47.6575 12.4538 47.509 12.7118 47.3253 12.9269C47.1396 13.1419 46.9209 13.3078 46.6691 13.4266C46.4174 13.5454 46.1408 13.6048 45.8416 13.6048C45.2308 13.6048 44.7273 13.3816 44.3311 12.9351M43.6935 6.69049C43.0641 6.95878 42.5337 7.31515 42.1025 7.76163C41.6712 8.20811 41.3451 8.72423 41.1223 9.31407C40.8994 9.90187 40.79 10.5184 40.79 11.1614C40.79 11.8045 40.9015 12.419 41.1223 13.0088C41.3431 13.5966 41.6712 14.1148 42.1025 14.5613C42.5337 15.0077 43.0641 15.362 43.6935 15.6222C44.3228 15.8843 45.0389 16.0154 45.8416 16.0154C46.6443 16.0154 47.3604 15.8843 47.9898 15.6222C48.6192 15.36 49.1495 15.0077 49.5808 14.5613C50.0121 14.1148 50.3381 13.5987 50.561 13.0088C50.7818 12.421 50.8932 11.8045 50.8932 11.1614C50.8932 10.5184 50.7797 9.90392 50.5527 9.31407C50.3257 8.72627 49.9956 8.20811 49.5643 7.76163C49.133 7.31515 48.6047 6.95878 47.9815 6.69049C47.3583 6.42219 46.6443 6.28906 45.8416 6.28906C45.0389 6.28906 44.3228 6.42219 43.6935 6.69049Z" fill="white"/>
<mask id="mask3_3871_556" style="mask-type:luminance" maskUnits="userSpaceOnUse" x="40" y="6" width="11" height="11">
<path d="M44.3332 12.9351C43.937 12.4886 43.7409 11.8967 43.7409 11.1594C43.7409 10.803 43.7946 10.4733 43.9019 10.1702C44.0092 9.86705 44.1557 9.60899 44.3414 9.39395C44.5271 9.1789 44.7479 9.013 45.0059 8.89422C45.2638 8.77543 45.5424 8.71603 45.8416 8.71603C46.44 8.71603 46.9374 8.93927 47.3336 9.38575C47.7298 9.83224 47.9258 10.4241 47.9258 11.1614C47.9258 11.5178 47.8722 11.8476 47.7649 12.1507C47.6575 12.4538 47.509 12.7118 47.3253 12.9269C47.1396 13.1419 46.9209 13.3078 46.6691 13.4266C46.4174 13.5454 46.1408 13.6048 45.8416 13.6048C45.2308 13.6048 44.7273 13.3816 44.3311 12.9351M43.6935 6.69049C43.0641 6.95878 42.5337 7.31515 42.1025 7.76163C41.6712 8.20811 41.3451 8.72423 41.1223 9.31407C40.8994 9.90187 40.79 10.5184 40.79 11.1614C40.79 11.8045 40.9015 12.419 41.1223 13.0088C41.3431 13.5966 41.6712 14.1148 42.1025 14.5613C42.5337 15.0077 43.0641 15.362 43.6935 15.6222C44.3228 15.8843 45.0389 16.0154 45.8416 16.0154C46.6443 16.0154 47.3604 15.8843 47.9898 15.6222C48.6192 15.36 49.1495 15.0077 49.5808 14.5613C50.0121 14.1148 50.3381 13.5987 50.561 13.0088C50.7818 12.421 50.8932 11.8045 50.8932 11.1614C50.8932 10.5184 50.7797 9.90392 50.5527 9.31407C50.3257 8.72627 49.9956 8.20811 49.5643 7.76163C49.133 7.31515 48.6047 6.95878 47.9815 6.69049C47.3583 6.42219 46.6443 6.28906 45.8416 6.28906C45.0389 6.28906 44.3228 6.42219 43.6935 6.69049Z" fill="white"/>
</mask>
<g mask="url(#mask3_3871_556)">
<path d="M50.8931 6.28906H40.792V16.0113H50.8931V6.28906Z" fill="white"/>
</g>
<path d="M57.0966 6.50429L58.5886 10.9813H55.5696L57.0966 6.50429ZM55.7657 3.16797L51.1104 15.8353H54.1292L55.0992 12.9987H59.0716L60.06 15.8353H63.0789L58.4235 3.16797H55.7636H55.7657Z" fill="white"/>
<mask id="mask4_3871_556" style="mask-type:luminance" maskUnits="userSpaceOnUse" x="51" y="3" width="13" height="13">
<path d="M57.0966 6.50429L58.5886 10.9813H55.5696L57.0966 6.50429ZM55.7657 3.16797L51.1104 15.8353H54.1292L55.0992 12.9987H59.0716L60.06 15.8353H63.0789L58.4235 3.16797H55.7636H55.7657Z" fill="white"/>
</mask>
<g mask="url(#mask4_3871_556)">
<path d="M63.0811 3.16797H51.1104V15.8353H63.0811V3.16797Z" fill="white"/>
</g>
<path d="M66.2169 6.68211C65.5875 6.94426 65.0572 7.29653 64.6259 7.74301C64.1946 8.18949 63.8645 8.7056 63.6375 9.29545C63.4105 9.8853 63.2949 10.4997 63.2949 11.1428C63.2949 11.7859 63.4084 12.4004 63.6375 12.9882C63.8645 13.576 64.1967 14.0941 64.6342 14.5406C65.0716 14.9871 65.604 15.3435 66.2334 15.6117C66.8628 15.88 67.5727 16.0132 68.363 16.0132C69.4526 16.0132 70.3791 15.7817 71.1406 15.3168C71.902 14.8519 72.455 14.258 72.8038 13.533L69.9994 12.6769C69.855 12.9513 69.6342 13.1745 69.3349 13.3466C69.0357 13.5186 68.7056 13.6046 68.3465 13.6046C68.0597 13.6046 67.7852 13.5452 67.5293 13.4264C67.2714 13.3077 67.0465 13.1418 66.8545 12.9267C66.6626 12.7117 66.5141 12.4536 66.4047 12.1505C66.2974 11.8474 66.2437 11.5115 66.2437 11.1428C66.2437 10.4055 66.4439 9.81566 66.8463 9.37737C67.2466 8.93704 67.7481 8.71789 68.3465 8.71789C69.0646 8.71789 69.6115 9.01486 69.9829 9.60881L72.7873 8.77114C72.4158 8.03384 71.8587 7.4358 71.1158 6.97908C70.3729 6.52031 69.4567 6.29297 68.3651 6.29297C67.5623 6.29297 66.8463 6.42405 66.2169 6.6862" fill="white"/>
<mask id="mask5_3871_556" style="mask-type:luminance" maskUnits="userSpaceOnUse" x="63" y="6" width="10" height="11">
<path d="M66.2169 6.68211C65.5875 6.94426 65.0572 7.29653 64.6259 7.74301C64.1946 8.18949 63.8645 8.7056 63.6375 9.29545C63.4105 9.8853 63.2949 10.4997 63.2949 11.1428C63.2949 11.7859 63.4084 12.4004 63.6375 12.9882C63.8645 13.576 64.1967 14.0941 64.6342 14.5406C65.0716 14.9871 65.604 15.3435 66.2334 15.6117C66.8628 15.88 67.5727 16.0132 68.363 16.0132C69.4526 16.0132 70.3791 15.7817 71.1406 15.3168C71.902 14.8519 72.455 14.258 72.8038 13.533L69.9994 12.6769C69.855 12.9513 69.6342 13.1745 69.3349 13.3466C69.0357 13.5186 68.7056 13.6046 68.3465 13.6046C68.0597 13.6046 67.7852 13.5452 67.5293 13.4264C67.2714 13.3077 67.0465 13.1418 66.8545 12.9267C66.6626 12.7117 66.5141 12.4536 66.4047 12.1505C66.2974 11.8474 66.2437 11.5115 66.2437 11.1428C66.2437 10.4055 66.4439 9.81566 66.8463 9.37737C67.2466 8.93704 67.7481 8.71789 68.3465 8.71789C69.0646 8.71789 69.6115 9.01486 69.9829 9.60881L72.7873 8.77114C72.4158 8.03384 71.8587 7.4358 71.1158 6.97908C70.3729 6.52031 69.4567 6.29297 68.3651 6.29297C67.5623 6.29297 66.8463 6.42405 66.2169 6.6862" fill="white"/>
</mask>
<g mask="url(#mask5_3871_556)">
<path d="M72.8057 6.28906H63.2969V16.0113H72.8057V6.28906Z" fill="white"/>
</g>
<path d="M74.6924 3.49032V6.47027H73.4873V8.62895H74.6924V13.5177C74.6924 13.9704 74.7605 14.3554 74.8988 14.677C75.037 14.9985 75.2248 15.2566 75.4642 15.4532C75.7036 15.6498 75.9821 15.7932 76.2999 15.8812C76.6177 15.9713 76.9561 16.0143 77.3152 16.0143C77.8311 16.0143 78.3429 15.9427 78.8526 15.8013C79.3623 15.658 79.8142 15.5044 80.2104 15.3364L79.6532 13.0713C79.4861 13.1552 79.288 13.231 79.061 13.3027C78.834 13.3744 78.6111 13.4092 78.3965 13.4092C78.1571 13.4092 77.959 13.3416 77.8043 13.2044C77.6495 13.0672 77.5711 12.8439 77.5711 12.5347V8.6269H79.4943V6.46823H77.5711V3.48828H74.6945L74.6924 3.49032Z" fill="white"/>
<mask id="mask6_3871_556" style="mask-type:luminance" maskUnits="userSpaceOnUse" x="73" y="3" width="8" height="14">
<path d="M74.6924 3.49032V6.47027H73.4873V8.62895H74.6924V13.5177C74.6924 13.9704 74.7605 14.3554 74.8988 14.677C75.037 14.9985 75.2248 15.2566 75.4642 15.4532C75.7036 15.6498 75.9821 15.7932 76.2999 15.8812C76.6177 15.9713 76.9561 16.0143 77.3152 16.0143C77.8311 16.0143 78.3429 15.9427 78.8526 15.8013C79.3623 15.658 79.8142 15.5044 80.2104 15.3364L79.6532 13.0713C79.4861 13.1552 79.288 13.231 79.061 13.3027C78.834 13.3744 78.6111 13.4092 78.3965 13.4092C78.1571 13.4092 77.959 13.3416 77.8043 13.2044C77.6495 13.0672 77.5711 12.8439 77.5711 12.5347V8.6269H79.4943V6.46823H77.5711V3.48828H74.6945L74.6924 3.49032Z" fill="white"/>
</mask>
<g mask="url(#mask6_3871_556)">
<path d="M80.2123 3.48828H73.4893V16.0123H80.2123V3.48828Z" fill="white"/>
</g>
<path d="M81.3271 15.8362H84.2037V6.46832H81.3271V15.8342V15.8362ZM81.3271 5.39922H84.2037V2.8125H81.3271V5.39922Z" fill="white"/>
<mask id="mask7_3871_556" style="mask-type:luminance" maskUnits="userSpaceOnUse" x="81" y="2" width="4" height="14">
<path d="M81.3271 15.8362H84.2037V6.46832H81.3271V15.8342V15.8362ZM81.3271 5.39922H84.2037V2.8125H81.3271V5.39922Z" fill="white"/>
</mask>
<g mask="url(#mask7_3871_556)">
<path d="M84.2037 2.8125H81.3271V15.8362H84.2037V2.8125Z" fill="white"/>
</g>
<path d="M92.4005 6.46875L90.3142 13.5531L88.2466 6.46875H85.2812L88.6242 15.8367H91.7525L95.077 6.46875H92.4005Z" fill="white"/>
<mask id="mask8_3871_556" style="mask-type:luminance" maskUnits="userSpaceOnUse" x="85" y="6" width="11" height="10">
<path d="M92.4005 6.46875L90.3142 13.5531L88.2466 6.46875H85.2812L88.6242 15.8367H91.7525L95.077 6.46875H92.4005Z" fill="white"/>
</mask>
<g mask="url(#mask8_3871_556)">
<path d="M95.077 6.46875H85.2812V15.8346H95.077V6.46875Z" fill="white"/>
</g>
<path d="M98.4568 13.6335C98.1927 13.4144 98.0606 13.1317 98.0606 12.7856C98.0606 12.4047 98.2319 12.0954 98.5724 11.8578C98.9149 11.6202 99.3483 11.5015 99.8765 11.5015C100.128 11.5015 100.401 11.5281 100.694 11.5813C100.987 11.6346 101.259 11.7083 101.511 11.8046V12.6975C101.511 12.9351 101.373 13.1624 101.098 13.3754C100.906 13.5536 100.663 13.697 100.37 13.8035C100.077 13.91 99.7733 13.9632 99.4617 13.9632C99.0532 13.9632 98.7189 13.8526 98.4547 13.6335M97.7717 6.59627C97.101 6.79903 96.4531 7.10214 95.8299 7.50561L96.6739 9.28949C97.1898 8.94541 97.6809 8.68531 98.1473 8.51327C98.6136 8.34123 99.1048 8.25521 99.6206 8.25521C100.879 8.25521 101.509 8.7959 101.509 9.87933V10.3074C101.232 10.1763 100.91 10.078 100.539 10.0125C100.167 9.94692 99.7837 9.91415 99.3875 9.91415C98.789 9.91415 98.2422 9.99198 97.7511 10.1456C97.2599 10.2992 96.8348 10.5143 96.4737 10.7887C96.1147 11.0632 95.8361 11.3888 95.638 11.7697C95.4399 12.1507 95.3408 12.5726 95.3408 13.0355C95.3408 13.4635 95.4254 13.8588 95.5926 14.2213C95.7597 14.5838 95.9888 14.8992 96.2756 15.1675C96.5624 15.4358 96.9071 15.6427 97.3095 15.7922C97.7098 15.9417 98.1452 16.0154 98.6136 16.0154C99.2616 16.0154 99.8745 15.872 100.456 15.5874C101.038 15.3027 101.538 14.891 101.957 14.3565L102.01 14.7845C102.082 15.1655 102.256 15.4604 102.532 15.6672C102.809 15.8741 103.215 15.9785 103.754 15.9785C103.921 15.9785 104.107 15.9704 104.311 15.9519C104.515 15.9335 104.742 15.8946 104.994 15.8352V13.4266C104.767 13.4021 104.608 13.3345 104.517 13.2218C104.429 13.1092 104.383 12.9105 104.383 12.6238V10.2153C104.383 8.93108 103.993 7.95619 103.215 7.28852C102.435 6.62289 101.333 6.28906 99.9075 6.28906C99.1522 6.28906 98.4382 6.38941 97.7676 6.59217" fill="white"/>
<mask id="mask9_3871_556" style="mask-type:luminance" maskUnits="userSpaceOnUse" x="95" y="6" width="10" height="11">
<path d="M98.4568 13.6335C98.1927 13.4144 98.0606 13.1317 98.0606 12.7856C98.0606 12.4047 98.2319 12.0954 98.5724 11.8578C98.9149 11.6202 99.3483 11.5015 99.8765 11.5015C100.128 11.5015 100.401 11.5281 100.694 11.5813C100.987 11.6346 101.259 11.7083 101.511 11.8046V12.6975C101.511 12.9351 101.373 13.1624 101.098 13.3754C100.906 13.5536 100.663 13.697 100.37 13.8035C100.077 13.91 99.7733 13.9632 99.4617 13.9632C99.0532 13.9632 98.7189 13.8526 98.4547 13.6335M97.7717 6.59627C97.101 6.79903 96.4531 7.10214 95.8299 7.50561L96.6739 9.28949C97.1898 8.94541 97.6809 8.68531 98.1473 8.51327C98.6136 8.34123 99.1048 8.25521 99.6206 8.25521C100.879 8.25521 101.509 8.7959 101.509 9.87933V10.3074C101.232 10.1763 100.91 10.078 100.539 10.0125C100.167 9.94692 99.7837 9.91415 99.3875 9.91415C98.789 9.91415 98.2422 9.99198 97.7511 10.1456C97.2599 10.2992 96.8348 10.5143 96.4737 10.7887C96.1147 11.0632 95.8361 11.3888 95.638 11.7697C95.4399 12.1507 95.3408 12.5726 95.3408 13.0355C95.3408 13.4635 95.4254 13.8588 95.5926 14.2213C95.7597 14.5838 95.9888 14.8992 96.2756 15.1675C96.5624 15.4358 96.9071 15.6427 97.3095 15.7922C97.7098 15.9417 98.1452 16.0154 98.6136 16.0154C99.2616 16.0154 99.8745 15.872 100.456 15.5874C101.038 15.3027 101.538 14.891 101.957 14.3565L102.01 14.7845C102.082 15.1655 102.256 15.4604 102.532 15.6672C102.809 15.8741 103.215 15.9785 103.754 15.9785C103.921 15.9785 104.107 15.9704 104.311 15.9519C104.515 15.9335 104.742 15.8946 104.994 15.8352V13.4266C104.767 13.4021 104.608 13.3345 104.517 13.2218C104.429 13.1092 104.383 12.9105 104.383 12.6238V10.2153C104.383 8.93108 103.993 7.95619 103.215 7.28852C102.435 6.62289 101.333 6.28906 99.9075 6.28906C99.1522 6.28906 98.4382 6.38941 97.7676 6.59217" fill="white"/>
</mask>
<g mask="url(#mask9_3871_556)">
<path d="M105.001 6.29297H95.3477V16.0151H105.001V6.29297Z" fill="white"/>
</g>
</g>
</g>
<defs>
<clipPath id="clip0_3871_556">
<rect width="105" height="19" fill="white"/>
</clipPath>
</defs>
</svg>
