<svg width="150" height="21" viewBox="0 0 150 21" fill="none" xmlns="http://www.w3.org/2000/svg">
<path d="M48.1309 8.25142L47.0887 9.97363L49.809 9.83825L50.5332 8.97872C51.7103 9.16245 52.9142 9.06605 54.0472 8.69735C55.1801 8.32864 56.2101 7.69801 57.0537 6.85664C57.0728 6.83868 57.0881 6.81698 57.0985 6.79288C57.109 6.76878 57.1144 6.7428 57.1144 6.71654C57.1144 6.69027 57.109 6.66429 57.0985 6.64019C57.0881 6.61609 57.0728 6.59439 57.0537 6.57643C56.2761 5.90048 55.3849 5.36751 54.4215 5.00219C53.1711 4.53444 51.8308 4.35681 50.5017 4.48269L49.872 3.64204L47.0636 3.46258L48.1277 5.22888C47.7499 5.30129 47.3406 5.36426 46.903 5.41149C46.3992 5.46501 45.9238 5.49335 45.4862 5.49965C45.1309 5.50006 44.779 5.43039 44.4507 5.29462C44.1224 5.15885 43.8241 4.95965 43.5728 4.70843C43.3216 4.45721 43.1224 4.15889 42.9866 3.83058C42.8509 3.50226 42.7812 3.15039 42.7816 2.7951C42.7816 2.08282 43.0646 1.39971 43.5682 0.896056C44.0719 0.392398 44.755 0.10945 45.4673 0.10945H54.0406C55.8348 0.101076 57.5608 0.796221 58.8483 2.04576C59.4484 2.6134 59.9276 3.29645 60.2571 4.05392C60.5866 4.81138 60.7596 5.62763 60.7657 6.45364C60.7437 8.65757 59.9125 10.9623 57.3024 11.8911C59.0026 12.4798 60.0668 13.4653 60.1109 16.195V20.5242H53.9776V16.4941C53.9776 16.019 53.7889 15.5633 53.4529 15.2274C53.1169 14.8914 52.6613 14.7027 52.1861 14.7027H48.6756V20.5494H42.7627V10.6852C42.7611 10.3333 42.8287 9.98459 42.9618 9.65888C43.095 9.33317 43.2909 9.03688 43.5386 8.78691C43.7862 8.53693 44.0807 8.33819 44.4051 8.20201C44.7295 8.06583 45.0776 7.99489 45.4295 7.99324C45.8955 7.99324 46.3929 8.03102 46.9187 8.08455C47.3532 8.13492 47.7531 8.1916 48.1309 8.25142Z" fill="white"/>
<path d="M13.0442 0.277344H17.5181V17.6444C17.5181 18.4101 17.214 19.1444 16.6725 19.6859C16.1311 20.2273 15.3967 20.5315 14.631 20.5315H12.3704L4.40787 7.38347V20.5315H0V0.277344H4.95886L13.0536 13.2113L13.0442 0.277344Z" fill="white"/>
<path d="M40.9991 9.25251C41.0274 9.687 41.0841 10.1971 41.0841 10.5119C41.0841 16.6924 37.1233 20.8137 30.6532 20.8137C24.1831 20.8137 19.5391 16.6388 19.5391 10.4017C19.5391 4.16456 23.9469 0.0117188 30.6847 0.0117188C34.148 0.0117188 36.5818 1.205 38.3481 3.02167L35.4137 5.92456C34.1697 4.81253 32.5513 4.21195 30.883 4.24328C26.9222 4.24328 24.5263 6.73687 24.5263 10.1813C24.5263 14.0036 27.1489 16.5255 30.9114 16.5255C34.1323 16.5255 36.0402 14.8977 36.4118 12.8103H32.6903C32.4527 12.8103 32.2174 12.7634 31.9979 12.6724C31.7785 12.5814 31.5791 12.448 31.4112 12.2799C31.2434 12.1117 31.1103 11.9121 31.0197 11.6925C30.9291 11.4729 30.8826 11.2375 30.883 10.9999V10.9558C30.883 10.5058 31.0618 10.0741 31.3801 9.75586C31.6983 9.4376 32.13 9.25881 32.5801 9.25881L40.9991 9.25251Z" fill="white"/>
<path d="M61.9053 10.39C61.9053 4.15599 66.3793 0 73.0478 0C79.7162 0 84.2186 4.1497 84.2186 10.39C84.2186 16.6303 79.6879 20.802 73.0478 20.802C66.4076 20.802 61.9053 16.6271 61.9053 10.39ZM79.2219 10.39C79.2219 6.73145 76.7724 4.23786 73.0383 4.23786C69.3042 4.23786 66.883 6.73145 66.883 10.39C66.883 14.0485 69.3325 16.5201 73.0383 16.5201C76.7441 16.5201 79.2314 14.0517 79.2314 10.39H79.2219Z" fill="white"/>
<path d="M110.446 0.277344H113.711L107.386 20.5315H102.663L98.7777 6.73173L94.9586 20.5315H90.2013L83.9043 0.277344H87.1031C87.6902 0.277481 88.2608 0.47133 88.7265 0.828827C89.1921 1.18632 89.5268 1.68749 89.6786 2.25459L92.9404 14.4581L96.7186 0.289936H101.315L105.22 14.2881L108.683 1.63119C108.789 1.24428 109.019 0.902661 109.337 0.658288C109.655 0.413915 110.045 0.280153 110.446 0.277344Z" fill="white"/>
<path d="M120.363 20.5599V4.31685H115.641V0.277344H129.862V4.31685H125.108V18.1261C125.108 18.7716 124.852 19.3906 124.395 19.847C123.939 20.3034 123.32 20.5599 122.674 20.5599H120.363Z" fill="white"/>
<path d="M147.311 0.277344H150V20.5315H145.236V12.5344H136.861V20.5315H132.101V0.277344H134.49C135.117 0.277339 135.719 0.525823 136.163 0.968394C136.608 1.41097 136.859 2.01157 136.861 2.6387V8.56415H145.236V2.34904C145.237 1.79931 145.456 1.27237 145.845 0.883941C146.234 0.495512 146.761 0.277343 147.311 0.277344Z" fill="white"/>
</svg>
