<svg width="150" height="80" viewBox="0 0 150 80" fill="none" xmlns="http://www.w3.org/2000/svg">
<path d="M58.0641 38.1542L57.4131 39.2299L59.1123 39.1454L59.5646 38.6085C60.2999 38.7232 61.0519 38.663 61.7596 38.4327C62.4673 38.2024 63.1107 37.8085 63.6376 37.2829C63.6495 37.2717 63.6591 37.2582 63.6656 37.2431C63.6721 37.2281 63.6755 37.2118 63.6755 37.1954C63.6755 37.179 63.6721 37.1628 63.6656 37.1477C63.6591 37.1327 63.6495 37.1191 63.6376 37.1079C63.1519 36.6857 62.5952 36.3528 61.9935 36.1246C61.2124 35.8324 60.3752 35.7215 59.545 35.8001L59.1517 35.275L57.3974 35.1629L58.0621 36.2662C57.8261 36.3114 57.5705 36.3507 57.2971 36.3802C56.9824 36.4137 56.6855 36.4314 56.4121 36.4353C56.1902 36.4356 55.9704 36.392 55.7653 36.3072C55.5602 36.2224 55.3739 36.098 55.217 35.9411C55.0601 35.7842 54.9356 35.5978 54.8508 35.3927C54.766 35.1877 54.7225 34.9679 54.7228 34.746C54.7228 34.301 54.8995 33.8743 55.2141 33.5597C55.5287 33.2451 55.9554 33.0684 56.4003 33.0684H61.7555C62.8762 33.0632 63.9543 33.4974 64.7586 34.2779C65.1334 34.6325 65.4327 35.0591 65.6385 35.5323C65.8444 36.0054 65.9524 36.5153 65.9563 37.0312C65.9425 38.4079 65.4233 39.8474 63.7929 40.4276C64.8549 40.7954 65.5197 41.4109 65.5472 43.116V45.8202H61.7162V43.3028C61.7162 43.0061 61.5983 42.7214 61.3884 42.5116C61.1786 42.3017 60.8939 42.1838 60.5971 42.1838H58.4043V45.8359H54.711V39.6744C54.7099 39.4546 54.7522 39.2368 54.8353 39.0333C54.9185 38.8299 55.0409 38.6448 55.1956 38.4886C55.3503 38.3325 55.5342 38.2084 55.7368 38.1233C55.9395 38.0382 56.1569 37.9939 56.3767 37.9929C56.6678 37.9929 56.9785 38.0165 57.3069 38.0499C57.5783 38.0814 57.8281 38.1168 58.0641 38.1542Z" fill="white"/>
<path d="M36.1478 33.1729H38.9424V44.0209C38.9424 44.4992 38.7524 44.9579 38.4142 45.2961C38.076 45.6343 37.6173 45.8243 37.139 45.8243H35.727L30.7533 37.6116V45.8243H28V33.1729H31.0975L36.1537 41.2518L36.1478 33.1729Z" fill="white"/>
<path d="M53.6156 38.7785C53.6333 39.0499 53.6687 39.3685 53.6687 39.5651C53.6687 43.4257 51.1947 46 47.1532 46C43.1117 46 40.2109 43.3922 40.2109 39.4963C40.2109 35.6004 42.9642 33.0063 47.1729 33.0063C49.3362 33.0063 50.8564 33.7517 51.9597 34.8865L50.1268 36.6997C49.3498 36.0051 48.3388 35.63 47.2968 35.6495C44.8227 35.6495 43.3261 37.2071 43.3261 39.3586C43.3261 41.7461 44.9643 43.3214 47.3145 43.3214C49.3264 43.3214 50.5181 42.3047 50.7502 41.0008H48.4256C48.2772 41.0008 48.1303 40.9715 47.9932 40.9147C47.8561 40.8578 47.7316 40.7745 47.6267 40.6694C47.5219 40.5644 47.4388 40.4397 47.3821 40.3026C47.3255 40.1654 47.2965 40.0184 47.2968 39.87V39.8424C47.2968 39.5613 47.4085 39.2917 47.6072 39.0929C47.806 38.8941 48.0757 38.7824 48.3568 38.7824L53.6156 38.7785Z" fill="white"/>
<path d="M66.6699 39.4899C66.6699 35.596 69.4645 33 73.6299 33C77.7953 33 80.6076 35.592 80.6076 39.4899C80.6076 43.3878 77.7776 45.9937 73.6299 45.9937C69.4822 45.9937 66.6699 43.3859 66.6699 39.4899ZM77.4865 39.4899C77.4865 37.2047 75.9564 35.6471 73.624 35.6471C71.2916 35.6471 69.7792 37.2047 69.7792 39.4899C69.7792 41.7752 71.3093 43.319 73.624 43.319C75.9387 43.319 77.4924 41.7772 77.4924 39.4899H77.4865Z" fill="white"/>
<path d="M96.989 33.1729H99.0284L95.0774 45.8243H92.1275L89.7006 37.2045L87.3151 45.8243H84.3435L80.4102 33.1729H82.4083C82.775 33.1729 83.1314 33.294 83.4223 33.5173C83.7131 33.7406 83.9222 34.0537 84.017 34.4079L86.0544 42.0306L88.4144 33.1807H91.2857L93.7244 41.9244L95.8877 34.0185C95.9541 33.7768 96.0976 33.5634 96.2964 33.4108C96.4952 33.2582 96.7384 33.1746 96.989 33.1729Z" fill="white"/>
<path d="M103.186 45.842V35.6961H100.236V33.1729H109.12V35.6961H106.15V44.3218C106.15 44.725 105.99 45.1116 105.705 45.3967C105.42 45.6818 105.033 45.842 104.63 45.842H103.186Z" fill="white"/>
<path d="M120.018 33.1729H121.698V45.8243H118.722V40.829H113.491V45.8243H110.518V33.1729H112.01C112.402 33.1728 112.778 33.3281 113.055 33.6045C113.333 33.881 113.49 34.2561 113.491 34.6478V38.3491H118.722V34.4669C118.723 34.1235 118.86 33.7944 119.103 33.5518C119.346 33.3091 119.675 33.1729 120.018 33.1729Z" fill="white"/>
</svg>
