<svg width="150" height="80" viewBox="0 0 150 80" fill="none" xmlns="http://www.w3.org/2000/svg">
<path d="M52.2902 37.1631C52.9326 37.1631 53.5184 37.2647 54.0503 37.4649C54.5822 37.6651 55.0394 37.958 55.4249 38.3435C55.8074 38.729 56.1062 39.1981 56.3214 39.754C56.5366 40.3098 56.6441 40.9403 56.6441 41.6456C56.6441 41.8667 56.6352 42.046 56.6143 42.1835C56.5963 42.3209 56.5605 42.4315 56.5126 42.5152C56.4618 42.5958 56.3961 42.6526 56.3124 42.6855C56.2288 42.7184 56.1212 42.7333 55.9897 42.7333H50.4015C50.4942 43.5521 50.7422 44.1438 51.1397 44.5114C51.5371 44.8789 52.0511 45.0642 52.6816 45.0642C53.0163 45.0642 53.3062 45.0224 53.5512 44.9417C53.7933 44.858 54.0114 44.7684 54.1997 44.6668C54.388 44.5651 54.5643 44.4755 54.7226 44.3918C54.881 44.3111 55.0484 44.2693 55.2217 44.2693C55.4518 44.2693 55.6251 44.356 55.7447 44.5233L56.5844 45.5722C56.2855 45.9189 55.9628 46.1998 55.6191 46.4179C55.2725 46.6361 54.9199 46.8064 54.5553 46.9289C54.1907 47.0514 53.8262 47.1351 53.4616 47.1829C53.097 47.2307 52.7504 47.2546 52.4187 47.2546C51.7403 47.2546 51.1038 47.1411 50.5091 46.9199C49.9144 46.6958 49.3945 46.3641 48.9492 45.9248C48.504 45.4855 48.1513 44.9387 47.8943 44.2813C47.6373 43.6268 47.5059 42.8648 47.5059 41.9952C47.5059 41.3408 47.6164 40.7222 47.8376 40.1365C48.0587 39.5508 48.3755 39.0397 48.7908 38.5975C49.2062 38.1582 49.7053 37.8086 50.294 37.5486C50.8856 37.2916 51.5491 37.1631 52.2902 37.1631ZM52.3469 39.1802C51.7941 39.1802 51.3608 39.3386 51.047 39.6553C50.7362 39.9721 50.53 40.4293 50.4314 41.03H54.0473C54.0473 40.7969 54.0174 40.5698 53.9576 40.3516C53.8979 40.1305 53.8022 39.9362 53.6678 39.7629C53.5333 39.5896 53.357 39.4491 53.1388 39.3446C52.9237 39.234 52.6577 39.1802 52.3469 39.1802Z" fill="white"/>
<path d="M63.3002 47.1012H60.6645L56.9082 37.3145H59.3198C59.526 37.3145 59.6993 37.3623 59.8397 37.4609C59.9802 37.5595 60.0758 37.679 60.1236 37.8255L61.4684 42.2153C61.573 42.5739 61.6746 42.9235 61.7732 43.2642C61.8688 43.6049 61.9525 43.9425 62.0212 44.2832C62.0899 43.9425 62.1736 43.6049 62.2722 43.2642C62.3708 42.9235 62.4784 42.5769 62.589 42.2153L63.9905 37.8255C64.0413 37.682 64.134 37.5595 64.2714 37.4609C64.4089 37.3623 64.5703 37.3145 64.7585 37.3145H67.0565L63.3002 47.1012Z" fill="white"/>
<path d="M72.0323 37.1631C72.6748 37.1631 73.2605 37.2647 73.7955 37.4649C74.3274 37.6651 74.7846 37.958 75.1701 38.3435C75.5526 38.729 75.8514 39.1981 76.0666 39.754C76.2817 40.3098 76.3893 40.9403 76.3893 41.6456C76.3893 41.8667 76.3803 42.046 76.3594 42.1835C76.3415 42.3209 76.3056 42.4315 76.2578 42.5152C76.207 42.5958 76.1413 42.6526 76.0576 42.6855C75.9739 42.7184 75.8664 42.7333 75.7349 42.7333H70.1437C70.2364 43.5521 70.4844 44.1438 70.8818 44.5114C71.2793 44.8789 71.7933 45.0642 72.4238 45.0642C72.7585 45.0642 73.0484 45.0224 73.2934 44.9417C73.5355 44.861 73.7536 44.7684 73.9419 44.6668C74.1301 44.5651 74.3065 44.4755 74.4648 44.3918C74.6232 44.3111 74.7906 44.2693 74.9639 44.2693C75.194 44.2693 75.3703 44.356 75.4868 44.5233L76.3266 45.5722C76.0277 45.9189 75.705 46.1998 75.3583 46.4179C75.0117 46.6361 74.6591 46.8064 74.2945 46.9289C73.9299 47.0514 73.5654 47.1351 73.2008 47.1829C72.8362 47.2307 72.4896 47.2546 72.1608 47.2546C71.4825 47.2546 70.846 47.1411 70.2513 46.9199C69.6566 46.6958 69.1367 46.3641 68.6914 45.9248C68.2461 45.4855 67.8935 44.9387 67.6365 44.2813C67.3795 43.6268 67.248 42.8648 67.248 41.9952C67.248 41.3408 67.3586 40.7222 67.5798 40.1365C67.8009 39.5508 68.1176 39.0397 68.533 38.5975C68.9484 38.1582 69.4474 37.8086 70.0361 37.5486C70.6248 37.2916 71.2912 37.1631 72.0323 37.1631ZM72.0891 39.1802C71.5363 39.1802 71.103 39.3386 70.7892 39.6553C70.4784 39.9721 70.2722 40.4293 70.1706 41.03H73.7865C73.7865 40.7969 73.7566 40.5698 73.6968 40.3516C73.6371 40.1305 73.5414 39.9362 73.407 39.7629C73.2725 39.5896 73.0962 39.4491 72.878 39.3446C72.6659 39.234 72.3999 39.1802 72.0891 39.1802Z" fill="white"/>
<path d="M78.0723 47.0973V37.3106H79.8653C80.0446 37.3106 80.197 37.3524 80.3195 37.4331C80.442 37.5138 80.5257 37.6363 80.5765 37.8007L80.7438 38.3655C80.9291 38.1892 81.1233 38.0248 81.3236 37.8754C81.5238 37.726 81.7359 37.5975 81.9631 37.4929C82.1902 37.3883 82.4352 37.3076 82.7012 37.2479C82.9641 37.1881 83.254 37.1582 83.5648 37.1582C84.0937 37.1582 84.5629 37.2508 84.9693 37.4361C85.3757 37.6214 85.7224 37.8784 86.0033 38.2101C86.2842 38.5418 86.4963 38.9333 86.6398 39.3905C86.7832 39.8477 86.8549 40.3408 86.8549 40.8787V47.0973H83.9593V40.8787C83.9593 40.4005 83.8517 40.027 83.6335 39.761C83.4154 39.4951 83.0956 39.3606 82.6713 39.3606C82.3545 39.3606 82.0557 39.4293 81.7748 39.5668C81.4939 39.7042 81.2279 39.8925 80.9709 40.1226V47.0973H78.0723V47.0973Z" fill="white"/>
<path d="M91.5979 37.3145V43.5242C91.5979 44.0083 91.7085 44.3818 91.9236 44.6478C92.1418 44.9108 92.4615 45.0452 92.8859 45.0452C93.2026 45.0452 93.5014 44.9795 93.7794 44.848C94.0573 44.7165 94.3262 44.5312 94.5892 44.2922V37.3145H97.4849V47.1012H95.6919C95.3303 47.1012 95.0942 46.9368 94.9807 46.6111L94.8014 46.0433C94.6161 46.2256 94.4219 46.393 94.2216 46.5394C94.0214 46.6858 93.8092 46.8143 93.5821 46.9159C93.355 47.0205 93.11 47.1012 92.85 47.161C92.59 47.2207 92.3031 47.2506 91.9894 47.2506C91.4604 47.2506 90.9913 47.158 90.5848 46.9727C90.1784 46.7874 89.8348 46.5274 89.5509 46.1957C89.27 45.861 89.0578 45.4696 88.9144 45.0153C88.7709 44.5611 88.6992 44.0651 88.6992 43.5242V37.3145H91.5979Z" fill="white"/>
<path d="M103.877 37.1631C104.52 37.1631 105.105 37.2647 105.637 37.4649C106.169 37.6651 106.626 37.958 107.012 38.3435C107.394 38.729 107.693 39.1981 107.908 39.754C108.123 40.3098 108.231 40.9403 108.231 41.6456C108.231 41.8667 108.222 42.046 108.201 42.1835C108.183 42.3209 108.147 42.4315 108.1 42.5152C108.049 42.5958 107.983 42.6526 107.899 42.6855C107.816 42.7184 107.708 42.7333 107.577 42.7333H101.988C102.081 43.5521 102.329 44.1438 102.727 44.5114C103.124 44.8789 103.638 45.0642 104.268 45.0642C104.603 45.0642 104.893 45.0224 105.138 44.9417C105.38 44.861 105.598 44.7684 105.787 44.6668C105.975 44.5651 106.151 44.4755 106.31 44.3918C106.468 44.3111 106.635 44.2693 106.809 44.2693C107.039 44.2693 107.212 44.356 107.332 44.5233L108.171 45.5722C107.872 45.9189 107.55 46.1998 107.206 46.4179C106.859 46.6361 106.507 46.8064 106.142 46.9289C105.778 47.0514 105.413 47.1351 105.048 47.1829C104.684 47.2307 104.337 47.2546 104.008 47.2546C103.33 47.2546 102.694 47.1411 102.099 46.9199C101.504 46.6958 100.984 46.3641 100.539 45.9248C100.094 45.4855 99.7412 44.9387 99.4842 44.2813C99.2272 43.6268 99.0957 42.8648 99.0957 41.9952C99.0957 41.3408 99.2063 40.7222 99.4274 40.1365C99.6485 39.5508 99.9653 39.0397 100.381 38.5975C100.796 38.1582 101.295 37.8086 101.884 37.5486C102.473 37.2916 103.136 37.1631 103.877 37.1631ZM103.934 39.1802C103.381 39.1802 102.948 39.3386 102.634 39.6553C102.323 39.9721 102.117 40.4293 102.018 41.03H105.634C105.634 40.7969 105.604 40.5698 105.544 40.3516C105.485 40.1305 105.389 39.9362 105.255 39.7629C105.12 39.5896 104.944 39.4491 104.726 39.3446C104.511 39.234 104.245 39.1802 103.934 39.1802Z" fill="white"/>
<path d="M43.8832 41.0505H43.8593C44.1312 40.9161 44.3912 40.7666 44.6153 40.5903C44.9679 40.3184 45.2638 40.0076 45.5058 39.658C45.7479 39.3083 45.9272 38.9318 46.0497 38.5224C46.1722 38.113 46.232 37.6767 46.232 37.2165C46.232 36.6129 46.1304 36.0511 45.9242 35.5401C45.718 35.0261 45.3863 34.5808 44.9351 34.2043C44.4808 33.8278 43.8951 33.5319 43.1779 33.3197C42.4607 33.1046 41.5941 33 40.5781 33H36V47.2124H39.2632V41.956H40.094C40.2882 41.956 40.4377 41.9859 40.5632 42.0337L43.5604 47.2154H47.508L43.8832 41.0505ZM42.915 38.3312C42.8253 38.6001 42.6789 38.8362 42.4817 39.0394C42.2814 39.2396 42.0274 39.398 41.7167 39.5115C41.4029 39.6251 41.0264 39.6819 40.5811 39.6819H39.2662V35.4684H40.5811C41.4238 35.4684 42.0484 35.6447 42.4488 35.9943C42.8492 36.3439 43.0524 36.834 43.0524 37.4586C43.0494 37.7694 43.0046 38.0622 42.915 38.3312Z" fill="white"/>
<path d="M111.518 47.6453C112.617 47.6453 113.508 46.7458 113.508 45.6342C113.508 44.5255 112.617 43.623 111.518 43.623C110.418 43.623 109.527 44.5225 109.527 45.6342C109.527 46.7458 110.418 47.6453 111.518 47.6453Z" fill="white"/>
</svg>
