<svg width="86" height="25" viewBox="0 0 86 25" fill="none" xmlns="http://www.w3.org/2000/svg">
<g clip-path="url(#clip0_3871_618)">
<path d="M67.0918 0.644531H70.1271V10.9332H74.6866L82.1237 0.644531H85.6715L77.3934 12.1143L86 24.2535H82.2814L74.8574 13.7548H70.1271V24.2535H67.0918V0.644531Z" fill="white"/>
<path d="M62.6374 0.644531H45.2666V3.50542H62.6374V0.644531Z" fill="white"/>
<path d="M62.6374 21.3906H45.2666V24.2515H62.6374V21.3906Z" fill="white"/>
<path d="M58.2881 10.9336H45.2666V13.7945H58.2881V10.9336Z" fill="white"/>
<path d="M40.4314 0.644531H23.0605V3.50542H40.4314V0.644531Z" fill="white"/>
<path d="M40.4314 21.3906H23.0605V24.2515H40.4314V21.3906Z" fill="white"/>
<path d="M36.0821 10.9336H23.0605V13.7945H36.0821V10.9336Z" fill="white"/>
<path d="M3.03529 17.5604C3.27169 18.4011 3.6887 19.1804 4.2573 19.8438C4.94292 20.6211 5.79857 21.2302 6.75789 21.6239C7.71722 22.0176 8.75444 22.1854 9.78915 22.1142C13.8362 22.1142 15.7021 20.2506 15.7021 18.059C15.7021 16.3136 14.2435 15.4344 10.4461 14.2139C4.83545 12.4029 1.01176 11.4711 1.01176 6.70733C1.01176 3.16403 4.21788 0.00129646 9.46066 0.00129646C10.9045 -0.0969634 12.3509 0.153449 13.6774 0.731361C15.0039 1.30927 16.1716 2.19769 17.0817 3.32151C17.7957 4.28788 18.3013 5.3916 18.5665 6.56298H15.5312C15.3037 5.88639 14.9367 5.26497 14.4538 4.73883C13.7941 4.10334 13.0101 3.61093 12.1508 3.2925C11.2916 2.97407 10.3757 2.8365 9.46066 2.88844C5.91291 2.88844 4.04706 4.73883 4.04706 6.82544C4.04706 9.45011 7.24003 10.0275 11.182 11.3792C16.9635 13.374 18.7374 14.3058 18.7374 18.2165C18.7374 21.9173 15.5312 25.0407 9.78915 25.0407C7.52212 25.2039 5.27383 24.5315 3.46983 23.1505C1.66584 21.7696 0.431337 19.776 0 17.5472L3.03529 17.5604Z" fill="white"/>
</g>
<defs>
<clipPath id="clip0_3871_618">
<rect width="86" height="25" fill="white"/>
</clipPath>
</defs>
</svg>
