<svg width="150" height="80" viewBox="0 0 150 80" fill="none" xmlns="http://www.w3.org/2000/svg">
<g clip-path="url(#clip0_4451_3207)">
<path d="M91.248 32.4116H93.2951V38.9964H96.3701L101.386 32.4116H103.779L98.1956 39.7523L104 47.5213H101.492L96.4853 40.8022H93.2951V47.5213H91.248V32.4116Z" fill="white"/>
<path d="M88.2445 32.4116H76.5293V34.2426H88.2445V32.4116Z" fill="white"/>
<path d="M88.2445 45.6904H76.5293V47.5214H88.2445V45.6904Z" fill="white"/>
<path d="M85.3113 38.9961H76.5293V40.8271H85.3113V38.9961Z" fill="white"/>
<path d="M73.2679 32.4116H61.5527V34.2426H73.2679V32.4116Z" fill="white"/>
<path d="M73.2679 45.6904H61.5527V47.5214H73.2679V45.6904Z" fill="white"/>
<path d="M70.3347 38.9961H61.5527V40.8271H70.3347V38.9961Z" fill="white"/>
<path d="M48.0471 43.2379C48.2065 43.776 48.4877 44.2747 48.8712 44.6994C49.3336 45.1968 49.9107 45.5866 50.5576 45.8386C51.2046 46.0906 51.9042 46.1979 52.602 46.1524C55.3314 46.1524 56.5898 44.9597 56.5898 43.5571C56.5898 42.44 55.6061 41.8773 53.0451 41.0962C49.2611 39.9372 46.6824 39.3408 46.6824 36.292C46.6824 34.0243 48.8446 32.0001 52.3804 32.0001C53.3542 31.9373 54.3297 32.0975 55.2243 32.4674C56.1189 32.8373 56.9064 33.4058 57.5202 34.1251C58.0017 34.7436 58.3427 35.4499 58.5216 36.1996H56.4746C56.3211 35.7666 56.0736 35.3689 55.7479 35.0322C55.303 34.6255 54.7742 34.3103 54.1947 34.1065C53.6152 33.9027 52.9976 33.8147 52.3804 33.8479C49.9878 33.8479 48.7294 35.0322 48.7294 36.3676C48.7294 38.0474 50.8828 38.4169 53.5413 39.282C57.4405 40.5587 58.6368 41.155 58.6368 43.6579C58.6368 46.0264 56.4746 48.0253 52.602 48.0253C51.0731 48.1298 49.5568 47.6994 48.3401 46.8157C47.1235 45.9319 46.2909 44.656 46 43.2295L48.0471 43.2379Z" fill="white"/>
</g>
<defs>
<clipPath id="clip0_4451_3207">
<rect width="58" height="16" fill="white" transform="translate(46 32)"/>
</clipPath>
</defs>
</svg>
