<svg width="150" height="80" viewBox="0 0 150 80" fill="none" xmlns="http://www.w3.org/2000/svg">
<path d="M76.6514 32.3516V47.8255H73.9581V32.3516H51V53.0001H99V32.3516H76.6514ZM61.4002 46.0031C61.2214 46.4053 60.9574 46.763 60.6267 47.0512C60.2612 47.3671 59.8397 47.6105 59.3845 47.7684C58.8416 47.9557 58.2706 48.0463 57.6969 48.0363C57.0164 48.0309 56.3416 47.9112 55.7002 47.6821C55.0139 47.4439 54.3836 47.0657 53.8485 46.571L55.3795 44.7105C55.7388 45.0023 56.1357 45.2436 56.5592 45.4278C56.9343 45.6016 57.3408 45.6958 57.7535 45.7045C58.1598 45.7045 58.4544 45.6415 58.6372 45.5156C58.7248 45.4574 58.7959 45.3774 58.8437 45.2832C58.8915 45.1891 58.9143 45.0841 58.91 44.9784C58.9143 44.8661 58.8816 44.7554 58.8172 44.6637C58.7407 44.5686 58.6478 44.4882 58.5429 44.4266C58.4033 44.3449 58.2578 44.2739 58.1076 44.2143C57.9407 44.1455 57.7477 44.0679 57.5271 43.986L56.2806 43.4531C56.0046 43.3454 55.7421 43.2054 55.4985 43.0359C55.251 42.8647 55.03 42.6575 54.8426 42.4211C54.6511 42.1766 54.5007 41.9022 54.3971 41.6087C54.2847 41.2847 54.2292 40.9434 54.2331 40.6002C54.2279 40.1688 54.3228 39.7422 54.5102 39.3544C54.6993 38.9679 54.9651 38.6246 55.2909 38.3459C55.6446 38.0456 56.0499 37.8134 56.4867 37.6608C56.9761 37.4877 57.4917 37.4021 58.0103 37.4076C58.616 37.4133 59.2159 37.5273 59.7822 37.7443C60.3839 37.9673 60.9291 38.3222 61.3784 38.7836L60.0346 40.486C59.7268 40.2635 59.3942 40.0783 59.0435 39.9341C58.7121 39.8057 58.3596 39.7417 58.0045 39.7453C57.7331 39.7305 57.4628 39.7902 57.2224 39.918C57.1329 39.9707 57.0594 40.0471 57.01 40.139C56.9607 40.2309 56.9372 40.3347 56.9423 40.4391C56.9423 40.6802 57.0749 40.8666 57.3399 40.9983C57.605 41.1301 57.9721 41.2852 58.4413 41.4638L59.6762 41.9513C60.2556 42.1612 60.766 42.529 61.1506 43.014C61.495 43.4648 61.6667 44.0479 61.6657 44.7632C61.6655 45.1909 61.5749 45.6135 61.4002 46.0031ZM71.6886 47.8577H69.0011V43.7913H65.9697V47.8577H63.2822V37.611H65.9697V41.4243H69.0011V37.614H71.6886V47.8577ZM85.5075 39.8726H81.5707V41.8268H85.5075V44.0972H81.5707V47.8446H78.8832V37.5979H85.5075V39.8726ZM95.5202 39.8726H92.8255V47.8446H90.138V39.8726H87.4506V37.5979H95.513L95.5202 39.8726Z" fill="white"/>
<path d="M76.6508 27H73.8574V29.8178H76.6508V27Z" fill="white"/>
</svg>
