<svg width="100" height="37" viewBox="0 0 100 37" fill="none" xmlns="http://www.w3.org/2000/svg">
<g clip-path="url(#clip0_3871_650)">
<path d="M73.1434 14.5225H69.6684V25.9031C69.6682 26.0069 69.625 26.1063 69.5482 26.1795C69.4716 26.2529 69.3676 26.2942 69.259 26.2944H66.5792C66.4706 26.2942 66.3666 26.2529 66.29 26.1795C66.2132 26.1063 66.17 26.0069 66.1698 25.9031V14.5225H62.6745C62.6219 14.5246 62.5693 14.5165 62.5201 14.4988C62.4708 14.4811 62.4256 14.4542 62.3876 14.4195C62.3493 14.3848 62.3188 14.3432 62.2977 14.297C62.2767 14.2508 62.2656 14.2011 62.2651 14.1508V12.1378C62.2656 12.0875 62.2767 12.0377 62.2977 11.9916C62.3188 11.9454 62.3493 11.9038 62.3876 11.8691C62.4256 11.8344 62.4708 11.8075 62.5201 11.7898C62.5693 11.772 62.6219 11.764 62.6745 11.7661H73.1424C73.2509 11.7612 73.3571 11.7976 73.4376 11.8672C73.518 11.9369 73.5664 12.0342 73.5722 12.1378V14.1516C73.5663 14.255 73.5179 14.3519 73.4376 14.4214C73.3572 14.4908 73.2514 14.5272 73.1434 14.5225Z" fill="white"/>
<path d="M84.2987 26.2117C83.5828 26.3091 82.3782 26.4658 80.1689 26.4658C77.5299 26.4658 75.1982 25.8204 75.1982 22.2629V15.7694C75.1982 12.2117 77.5511 11.5859 80.1894 11.5859C82.3978 11.5859 83.5828 11.7426 84.2987 11.84C84.585 11.879 84.7081 11.9772 84.7081 12.2312V14.0518C84.7079 14.1555 84.6647 14.2549 84.5879 14.3282C84.5113 14.4016 84.4073 14.4428 84.2987 14.4431H79.9855C79.024 14.4431 78.6766 14.7556 78.6766 15.7726V17.5519H84.1357C84.2442 17.552 84.3481 17.5933 84.4249 17.6666C84.5016 17.7399 84.5449 17.8394 84.545 17.943V19.8002C84.5449 19.9038 84.5016 20.0033 84.4249 20.0767C84.3481 20.1499 84.2442 20.1912 84.1357 20.1914H78.6766V22.2637C78.6766 23.2799 79.024 23.5932 79.9855 23.5932H84.2987C84.4073 23.5933 84.5113 23.6347 84.5879 23.708C84.6647 23.7813 84.7079 23.8807 84.7081 23.9845V25.8026C84.7081 26.0551 84.585 26.1727 84.2987 26.2117Z" fill="white"/>
<path d="M99.7349 26.288H96.4825C96.2167 26.288 96.0935 26.2067 95.9509 25.9949L93.1309 21.7165L90.5759 25.9007C90.4323 26.1353 90.2896 26.292 90.0662 26.292H87.0389C86.8343 26.292 86.7323 26.1743 86.7323 26.0379C86.7364 25.9901 86.7502 25.9434 86.7731 25.9007L91.2044 18.8391L86.7273 12.1338C86.7046 12.098 86.6907 12.0577 86.6865 12.0161C86.6938 11.9442 86.7297 11.8778 86.7868 11.8306C86.8438 11.7833 86.9176 11.7588 86.9931 11.762H90.2862C90.5114 11.762 90.6752 11.9576 90.7959 12.1338L93.4128 16.0826L95.9457 12.1338C96.0477 11.9576 96.232 11.762 96.4554 11.762H99.4826C99.558 11.7588 99.6318 11.7833 99.6889 11.8306C99.746 11.8778 99.7818 11.9442 99.7893 12.0161C99.7851 12.0577 99.7712 12.098 99.7485 12.1338L95.2935 18.8804L99.9396 25.9007C99.9759 25.9604 99.9968 26.0274 100.001 26.0963C100.002 26.21 99.8988 26.288 99.7349 26.288Z" fill="white"/>
<path d="M57.3653 11.8032C57.2922 11.8034 57.2216 11.8277 57.1651 11.8721C57.1088 11.9165 57.0703 11.9782 57.0561 12.0467L54.0867 22.5491C54.0459 22.7642 53.9848 22.8421 53.8004 22.8421C53.6161 22.8421 53.5549 22.761 53.5141 22.5491L50.5412 12.0443C50.5272 11.9758 50.4887 11.9141 50.4322 11.8697C50.3759 11.8253 50.3051 11.801 50.232 11.8008H47.3093C47.2619 11.8008 47.2149 11.8111 47.172 11.8309C47.1293 11.8507 47.0917 11.8794 47.0622 11.915C47.0327 11.9506 47.0119 11.992 47.0014 12.0363C46.9909 12.0807 46.9911 12.1267 47.0019 12.1709C47.0019 12.1709 50.6288 24.2155 50.6687 24.3339C51.1528 25.7691 52.3275 26.455 53.8225 26.455C55.2461 26.455 56.4887 25.7365 56.9746 24.3381C57.0324 24.1758 60.5785 12.1701 60.5785 12.1701C60.5891 12.1259 60.5891 12.08 60.5787 12.0358C60.5682 11.9916 60.5474 11.9502 60.5178 11.9147C60.4883 11.8793 60.4507 11.8506 60.408 11.8309C60.3653 11.8111 60.3185 11.8008 60.2711 11.8008L57.3653 11.8032Z" fill="white"/>
<path d="M39.356 1.23828H7.58868C5.12544 1.23828 3.54811 3.74071 4.70074 5.82105L7.87832 11.571H2.11774C1.75292 11.5711 1.39433 11.6613 1.07667 11.8327C0.759019 12.0041 0.493077 12.251 0.304605 12.5495C0.116133 12.848 0.0115195 13.1879 0.000898203 13.5364C-0.00972313 13.8849 0.0740066 14.2301 0.243979 14.5385L10.4647 33.0247C10.6449 33.3497 10.9144 33.6218 11.2442 33.8115C11.5741 34.0013 11.9518 34.1015 12.3368 34.1015C12.7218 34.1015 13.0995 34.0013 13.4293 33.8115C13.7592 33.6218 14.0287 33.3497 14.2088 33.0247L16.9847 28.0311L20.4671 34.3314C21.6929 36.5472 25.0131 36.5514 26.2431 34.3379L42.1658 5.70498C43.2911 3.67983 41.7555 1.23828 39.356 1.23828ZM25.0861 13.472L18.2205 25.8209C18.1005 26.0371 17.9211 26.2181 17.7018 26.3442C17.4823 26.4703 17.231 26.537 16.9748 26.537C16.7187 26.537 16.4676 26.4703 16.2481 26.3442C16.0286 26.2181 15.8492 26.0371 15.7292 25.8209L8.92987 13.5239C8.81623 13.3189 8.7599 13.0893 8.76637 12.8574C8.77282 12.6254 8.84186 12.399 8.96676 12.2001C9.09166 12.0011 9.26821 11.8364 9.47931 11.7217C9.69039 11.6071 9.92889 11.5465 10.1717 11.5458H23.875C24.1116 11.5459 24.3444 11.6044 24.5503 11.7158C24.7565 11.8272 24.9287 11.9876 25.0506 12.1815C25.1726 12.3754 25.24 12.5961 25.2461 12.8223C25.2524 13.0484 25.1973 13.2722 25.0861 13.472Z" fill="white"/>
</g>
<defs>
<clipPath id="clip0_3871_650">
<rect width="100" height="37" fill="white"/>
</clipPath>
</defs>
</svg>
