<svg width="150" height="80" viewBox="0 0 150 80" fill="none" xmlns="http://www.w3.org/2000/svg">
<path d="M90.7214 37.1722H88.3116V45.0305C88.3115 45.1021 88.2815 45.1708 88.2282 45.2214C88.1751 45.272 88.103 45.3006 88.0277 45.3007H86.1693C86.0941 45.3006 86.0219 45.272 85.9688 45.2214C85.9156 45.1708 85.8856 45.1021 85.8855 45.0305V37.1722H83.4616C83.4251 37.1736 83.3887 37.1681 83.3546 37.1558C83.3203 37.1436 83.289 37.125 83.2626 37.101C83.2361 37.0771 83.215 37.0483 83.2003 37.0165C83.1858 36.9846 83.1781 36.9503 83.1777 36.9155V35.5255C83.1781 35.4908 83.1858 35.4565 83.2003 35.4246C83.215 35.3927 83.2361 35.364 83.2626 35.34C83.289 35.3161 83.3203 35.2974 83.3546 35.2852C83.3887 35.273 83.4251 35.2674 83.4616 35.2689H90.7207C90.796 35.2655 90.8696 35.2906 90.9254 35.3387C90.9812 35.3868 91.0147 35.454 91.0188 35.5255V36.9161C91.0146 36.9874 90.9811 37.0544 90.9254 37.1023C90.8697 37.1503 90.7963 37.1754 90.7214 37.1722Z" fill="white"/>
<path d="M98.4593 45.2441C97.9628 45.3114 97.1275 45.4196 95.5954 45.4196C93.7653 45.4196 92.1484 44.974 92.1484 42.5175V38.0337C92.1484 35.5771 93.7801 35.145 95.6096 35.145C97.141 35.145 97.9628 35.2532 98.4593 35.3204C98.6578 35.3474 98.7431 35.4152 98.7431 35.5906V36.8477C98.743 36.9193 98.713 36.988 98.6598 37.0386C98.6067 37.0892 98.5345 37.1177 98.4593 37.1179H95.4682C94.8015 37.1179 94.5606 37.3336 94.5606 38.0359V39.2645H98.3462C98.4215 39.2646 98.4935 39.2931 98.5467 39.3437C98.6 39.3944 98.6299 39.463 98.6301 39.5346V40.817C98.6299 40.8885 98.6 40.9572 98.5467 41.0079C98.4935 41.0584 98.4215 41.087 98.3462 41.0871H94.5606V42.518C94.5606 43.2197 94.8015 43.436 95.4682 43.436H98.4593C98.5345 43.4361 98.6067 43.4647 98.6598 43.5154C98.713 43.5659 98.743 43.6346 98.7431 43.7062V44.9616C98.7431 45.136 98.6578 45.2172 98.4593 45.2441Z" fill="white"/>
<path d="M109.164 45.2985H106.908C106.724 45.2985 106.639 45.2424 106.54 45.0961L104.584 42.1418L102.812 45.031C102.713 45.1931 102.614 45.3012 102.459 45.3012H100.36C100.218 45.3012 100.147 45.22 100.147 45.1258C100.15 45.0928 100.159 45.0605 100.175 45.031L103.248 40.155L100.144 35.525C100.128 35.5002 100.118 35.4725 100.115 35.4437C100.12 35.3941 100.145 35.3483 100.185 35.3156C100.224 35.283 100.276 35.266 100.328 35.2683H102.611C102.768 35.2683 102.881 35.4033 102.965 35.525L104.78 38.2516L106.536 35.525C106.607 35.4033 106.735 35.2683 106.89 35.2683H108.989C109.041 35.266 109.092 35.283 109.132 35.3156C109.171 35.3483 109.196 35.3941 109.201 35.4437C109.199 35.4725 109.189 35.5002 109.173 35.525L106.084 40.1835L109.306 45.031C109.331 45.0722 109.345 45.1185 109.348 45.1661C109.349 45.2446 109.277 45.2985 109.164 45.2985Z" fill="white"/>
<path d="M79.7821 35.2961C79.7315 35.2962 79.6825 35.3131 79.6433 35.3437C79.6043 35.3744 79.5776 35.417 79.5677 35.4642L77.5086 42.7162C77.4803 42.8647 77.4379 42.9184 77.3101 42.9184C77.1822 42.9184 77.1398 42.8625 77.1115 42.7162L75.05 35.4626C75.0402 35.4153 75.0135 35.3727 74.9743 35.342C74.9353 35.3114 74.8862 35.2946 74.8355 35.2944H72.8087C72.7758 35.2945 72.7433 35.3016 72.7135 35.3152C72.6839 35.3289 72.6578 35.3487 72.6374 35.3733C72.6169 35.3979 72.6025 35.4265 72.5952 35.4571C72.5879 35.4877 72.5881 35.5195 72.5955 35.55C72.5955 35.55 75.1107 43.8668 75.1383 43.9486C75.4741 44.9396 76.2887 45.4132 77.3254 45.4132C78.3126 45.4132 79.1743 44.9171 79.5113 43.9515C79.5513 43.8394 82.0104 35.5494 82.0104 35.5494C82.0178 35.5189 82.0178 35.4872 82.0105 35.4567C82.0032 35.4262 81.9888 35.3976 81.9683 35.3731C81.9479 35.3486 81.9218 35.3288 81.8922 35.3152C81.8625 35.3016 81.8301 35.2945 81.7972 35.2944L79.7821 35.2961Z" fill="white"/>
<path d="M67.2918 28H45.2624C43.5543 28 42.4605 29.7279 43.2598 31.1644L45.4633 35.1348H41.4686C41.2156 35.1348 40.9669 35.1971 40.7466 35.3154C40.5263 35.4338 40.3419 35.6043 40.2112 35.8104C40.0805 36.0165 40.008 36.2513 40.0006 36.4919C39.9933 36.7325 40.0513 36.9708 40.1692 37.1838L47.2569 49.9485C47.3818 50.1729 47.5687 50.3608 47.7974 50.4919C48.0262 50.6229 48.2881 50.6921 48.5551 50.6921C48.822 50.6921 49.084 50.6229 49.3127 50.4919C49.5414 50.3608 49.7283 50.1729 49.8533 49.9485L51.7782 46.5004L54.1931 50.8508C55.0432 52.3809 57.3456 52.3837 58.1985 50.8553L69.2403 31.0843C70.0207 29.6859 68.9558 28 67.2918 28ZM57.3962 36.4474L52.6352 44.9743C52.552 45.1236 52.4276 45.2486 52.2755 45.3356C52.1233 45.4227 51.949 45.4688 51.7714 45.4688C51.5938 45.4688 51.4196 45.4227 51.2674 45.3356C51.1152 45.2486 50.9908 45.1236 50.9076 44.9743L46.1925 36.4832C46.1137 36.3417 46.0746 36.1831 46.0791 36.023C46.0836 35.8628 46.1315 35.7065 46.2181 35.5691C46.3047 35.4318 46.4271 35.318 46.5735 35.2388C46.7199 35.1597 46.8853 35.1179 47.0537 35.1174H56.5564C56.7204 35.1174 56.8818 35.1578 57.0247 35.2347C57.1676 35.3116 57.2871 35.4224 57.3716 35.5563C57.4562 35.6902 57.5029 35.8426 57.5072 35.9988C57.5116 36.1549 57.4733 36.3095 57.3962 36.4474Z" fill="white"/>
</svg>
