<svg width="150" height="80" viewBox="0 0 150 80" fill="none" xmlns="http://www.w3.org/2000/svg">
<path d="M51.1191 40.1867L49.0112 47.599H46.6977L43.4902 35.5112H45.3112L47.7674 45.0044H48.2301L50.3413 37.4498H52.3927L54.4724 45.0044H54.9351L57.4228 35.5112H59.1559L55.9766 47.599H53.6349L51.5552 40.1867H51.1191Z" fill="white"/>
<path d="M66.7673 35.1123C70.6414 35.1123 73.5304 37.9064 73.5304 41.5562C73.5304 45.2059 70.6398 48 66.7673 48C62.8949 48 60.0059 45.2059 60.0059 41.5562C60.0059 37.9064 62.8965 35.1123 66.7673 35.1123ZM66.7673 36.8218C63.9364 36.8218 61.9711 38.8749 61.9711 41.5562C61.9711 44.2374 63.9364 46.2889 66.7673 46.2889C69.5983 46.2889 71.5668 44.2374 71.5668 41.5562C71.5668 38.8749 69.6016 36.8218 66.7673 36.8218Z" fill="white"/>
<path d="M100.534 47.599H98.625V30.1226H100.534V37.3647H101.055C101.98 36.11 103.569 35.1121 105.39 35.1121C108.338 35.1121 110.189 36.8789 110.189 40.0738V47.6007H108.252V40.4157C108.252 38.307 107.415 36.8527 105.159 36.8527C103.08 36.8527 101.516 38.6211 100.536 40.3879V47.6007L100.534 47.599Z" fill="white"/>
<path d="M119.265 46.0025H122.166V47.5992H112.986V46.0025H116.32L116.927 45.4054V37.7068L116.32 37.108H112.986V35.5114H118.658V45.4038L119.265 46.0009V46.0025ZM115.451 31.9107C115.451 30.8278 116.288 30 117.328 30C118.428 30 119.237 30.8278 119.237 31.9107C119.237 32.9365 118.428 33.7348 117.328 33.7348C116.288 33.7348 115.451 32.9365 115.451 31.9107Z" fill="white"/>
<path d="M90.7593 37.6874L91.3447 37.1377H96.1509V35.5132H90.7659V31.2353H90.7593V30.1523H88.8289V35.5116H85.2168V37.1361H88.2534L88.8305 37.7037V42.5428C88.8305 45.3156 91.1175 47.5716 93.9302 47.5716H96.1525V45.6706H93.9302C92.2469 45.6706 90.9003 44.3603 90.7974 42.7276C90.7775 42.5526 90.7676 42.3677 90.7593 42.1779V37.6874Z" fill="white"/>
<path d="M127.134 37.6874L127.72 37.1377H132.526V35.5132H127.141V31.2353H127.134V30.1523H125.204V35.5116H121.592V37.1361H124.628L125.206 37.7037V42.5428C125.206 45.3156 127.493 47.5716 130.305 47.5716H132.528V45.6706H130.305C128.622 45.6706 127.275 44.3603 127.172 42.7276C127.153 42.5526 127.143 42.3677 127.134 42.1779V37.6874Z" fill="white"/>
<path d="M77.6865 45.4036V37.7066L78.2951 37.1079H83.2953V35.5112H75.9551V45.4036V47.599H77.6865V45.4036Z" fill="white"/>
<path d="M122.166 46.0029H112.986V47.5996H122.166V46.0029Z" fill="white"/>
<path d="M18 35.1221V47.5992C24.5293 47.5992 29.901 42.7193 30.5759 36.4553V47.5992H35.2295V35.1221H18Z" fill="white"/>
</svg>
