<svg width="163" height="63" viewBox="0 0 163 63" fill="none" xmlns="http://www.w3.org/2000/svg">
<path d="M51.4775 32.248L48.8878 41.3545H46.0455L42.105 26.5039H44.3422L47.3597 38.1669H47.9282L50.5219 28.8856H53.0423L55.5973 38.1669H56.1658L59.222 26.5039H61.3512L57.4453 41.3545H54.5684L52.0133 32.248H51.4775Z" fill="white"/>
<path d="M70.6995 26.0156C75.4591 26.0156 79.0084 29.4484 79.0084 33.9323C79.0084 38.4163 75.457 41.849 70.6995 41.849C65.9419 41.849 62.3926 38.4163 62.3926 33.9323C62.3926 29.4484 65.9439 26.0156 70.6995 26.0156ZM70.6995 28.1159C67.2215 28.1159 64.807 30.6382 64.807 33.9323C64.807 37.2264 67.2215 39.7468 70.6995 39.7468C74.1775 39.7468 76.596 37.2264 76.596 33.9323C76.596 30.6382 74.1816 28.1159 70.6995 28.1159Z" fill="white"/>
<path d="M112.183 41.3577H109.837V19.8867H112.183V28.7842H112.822C113.959 27.2427 115.911 26.0167 118.148 26.0167C121.771 26.0167 124.045 28.1873 124.045 32.1125V41.3597H121.665V32.5325C121.665 29.9419 120.636 28.1551 117.865 28.1551C115.31 28.1551 113.389 30.3278 112.185 32.4984V41.3597L112.183 41.3577Z" fill="white"/>
<path d="M135.2 39.3945H138.764V41.3561H127.486V39.3945H131.582L132.327 38.6609V29.2027L131.582 28.4671H127.486V26.5055H134.455V38.6589L135.2 39.3925V39.3945ZM130.514 22.0819C130.514 20.7513 131.543 19.7344 132.821 19.7344C134.171 19.7344 135.166 20.7513 135.166 22.0819C135.166 23.342 134.171 24.3228 132.821 24.3228C131.543 24.3228 130.514 23.342 130.514 22.0819Z" fill="white"/>
<path d="M100.178 29.1791L100.897 28.5038H106.802V26.5081H100.186V21.2524H100.178V19.9219H97.8063V26.5061H93.3687V28.5018H97.0993L97.8084 29.1992V35.1443C97.8084 38.551 100.618 41.3225 104.074 41.3225H106.804V38.9871H104.074C102.006 38.9871 100.351 37.3772 100.225 35.3714C100.2 35.1564 100.188 34.9292 100.178 34.6961V29.1791Z" fill="white"/>
<path d="M144.866 29.1791L145.586 28.5038H151.49V26.5081H144.875V21.2524H144.866V19.9219H142.495V26.5061H138.057V28.5018H141.788L142.497 29.1992V35.1443C142.497 38.551 145.307 41.3225 148.762 41.3225H151.492V38.9871H148.762C146.694 38.9871 145.04 37.3772 144.913 35.3714C144.889 35.1564 144.877 34.9292 144.866 34.6961V29.1791Z" fill="white"/>
<path d="M84.1164 38.6573V29.2011L84.8642 28.4655H91.0072V26.5039H81.9893V38.6573V41.3545H84.1164V38.6573Z" fill="white"/>
<path d="M138.764 39.3945H127.486V41.3561H138.764V39.3945Z" fill="white"/>
<path d="M10.7866 26.0273V41.3563C18.8083 41.3563 25.4077 35.361 26.237 27.6654V41.3563H31.9542V26.0273H10.7866Z" fill="white"/>
</svg>
