<svg width="459" height="464" viewBox="0 0 459 464" fill="none" xmlns="http://www.w3.org/2000/svg">
<g filter="url(#filter0_n_4497_14165)">
<path d="M456 461H15C237.55 374.535 340.415 304.718 456 114V461Z" fill="#27273F"/>
<path d="M456 461H15C237.55 374.535 340.415 304.718 456 114V461Z" stroke="#27273F" stroke-width="3"/>
</g>
<g filter="url(#filter1_n_4497_14165)">
<path d="M102.826 462H15.0391L102.826 424V462Z" fill="#27273F"/>
</g>
<line x1="102.324" y1="461" x2="102.324" y2="339" stroke="#3F3F50" stroke-dasharray="5 5"/>
<rect x="0.5" y="318.5" width="101.253" height="44" rx="11.5" stroke="#3F3F50"/>
<path d="M10.92 335V327.9H12.14L15.65 334.14V327.9H16.51V335H15.23L11.78 328.88V335H10.92ZM18.0363 335V329.7H18.8763V335H18.0363ZM18.0163 328.87V327.89H18.8963V328.87H18.0163ZM21.7301 335L19.8001 329.7H20.7201L22.2601 334.14L23.8001 329.7H24.7201L22.7901 335H21.7301ZM27.5477 335.12C27.0477 335.12 26.6144 335.007 26.2477 334.78C25.8877 334.553 25.6077 334.233 25.4077 333.82C25.2144 333.4 25.1177 332.91 25.1177 332.35C25.1177 331.79 25.2144 331.303 25.4077 330.89C25.6077 330.477 25.8844 330.157 26.2377 329.93C26.5977 329.697 27.0211 329.58 27.5077 329.58C27.9677 329.58 28.3744 329.69 28.7277 329.91C29.0811 330.123 29.3544 330.437 29.5477 330.85C29.7477 331.263 29.8477 331.767 29.8477 332.36V332.61H25.9977C26.0311 333.177 26.1811 333.603 26.4477 333.89C26.7211 334.177 27.0877 334.32 27.5477 334.32C27.8944 334.32 28.1777 334.24 28.3977 334.08C28.6244 333.913 28.7811 333.697 28.8677 333.43L29.7677 333.5C29.6277 333.973 29.3611 334.363 28.9677 334.67C28.5811 334.97 28.1077 335.12 27.5477 335.12ZM25.9977 331.87H28.9277C28.8877 331.357 28.7377 330.98 28.4777 330.74C28.2244 330.5 27.9011 330.38 27.5077 330.38C27.1011 330.38 26.7644 330.507 26.4977 330.76C26.2377 331.007 26.0711 331.377 25.9977 331.87ZM32.0744 335C31.7677 335 31.5177 334.92 31.3244 334.76C31.131 334.6 31.0344 334.347 31.0344 334V327.9H31.8744V333.93C31.8744 334.037 31.901 334.12 31.9544 334.18C32.0144 334.233 32.0977 334.26 32.2044 334.26H32.6644V335H32.0744ZM37.2804 335V329.74H35.8004V329H36.4004C36.6604 329 36.8671 328.967 37.0204 328.9C37.1804 328.833 37.2937 328.72 37.3604 328.56C37.4271 328.4 37.4604 328.18 37.4604 327.9H38.1404V335H37.2804Z" fill="#3F3F50"/>
<path d="M15.625 353.24C14.655 353.24 13.79 353.02 13.03 352.58C12.28 352.14 11.69 351.505 11.26 350.675C10.84 349.845 10.63 348.85 10.63 347.69C10.63 346.56 10.835 345.58 11.245 344.75C11.655 343.91 12.24 343.26 13 342.8C13.76 342.34 14.65 342.11 15.67 342.11C17.06 342.11 18.14 342.455 18.91 343.145C19.69 343.825 20.19 344.8 20.41 346.07L18.04 346.16C17.92 345.49 17.66 344.97 17.26 344.6C16.86 344.22 16.33 344.03 15.67 344.03C15.1 344.03 14.615 344.18 14.215 344.48C13.815 344.78 13.51 345.205 13.3 345.755C13.09 346.305 12.985 346.95 12.985 347.69C12.985 348.44 13.09 349.09 13.3 349.64C13.52 350.18 13.83 350.595 14.23 350.885C14.63 351.175 15.105 351.32 15.655 351.32C16.375 351.32 16.93 351.12 17.32 350.72C17.72 350.31 17.97 349.745 18.07 349.025L20.455 349.115C20.315 349.985 20.04 350.725 19.63 351.335C19.22 351.945 18.68 352.415 18.01 352.745C17.35 353.075 16.555 353.24 15.625 353.24ZM26.8356 353.24C25.7556 353.24 24.8256 353.015 24.0456 352.565C23.2756 352.115 22.6806 351.475 22.2606 350.645C21.8506 349.815 21.6456 348.83 21.6456 347.69C21.6456 346.55 21.8506 345.565 22.2606 344.735C22.6806 343.895 23.2756 343.25 24.0456 342.8C24.8256 342.34 25.7556 342.11 26.8356 342.11C27.9156 342.11 28.8406 342.34 29.6106 342.8C30.3906 343.25 30.9856 343.895 31.3956 344.735C31.8156 345.565 32.0256 346.55 32.0256 347.69C32.0256 348.83 31.8156 349.815 31.3956 350.645C30.9856 351.475 30.3906 352.115 29.6106 352.565C28.8406 353.015 27.9156 353.24 26.8356 353.24ZM26.8206 351.32C27.4206 351.32 27.9306 351.18 28.3506 350.9C28.7806 350.61 29.1056 350.195 29.3256 349.655C29.5556 349.115 29.6706 348.46 29.6706 347.69C29.6706 346.92 29.5556 346.265 29.3256 345.725C29.1056 345.175 28.7806 344.755 28.3506 344.465C27.9306 344.175 27.4206 344.03 26.8206 344.03C26.2306 344.03 25.7256 344.175 25.3056 344.465C24.8856 344.755 24.5606 345.175 24.3306 345.725C24.1106 346.265 24.0006 346.92 24.0006 347.69C24.0006 348.46 24.1106 349.115 24.3306 349.655C24.5606 350.195 24.8856 350.61 25.3056 350.9C25.7356 351.18 26.2406 351.32 26.8206 351.32ZM33.5368 353V342.35H36.0568L40.2868 349.7V342.35H42.5668V353H40.0168L35.8168 345.905V353H33.5368ZM44.5817 353V342.35H51.9317V344.27H45.6017L46.8617 342.965V347.84L45.6017 346.85H51.6617V348.74H45.6017L46.8617 347.75V353H44.5817ZM57.8044 353.24C56.9044 353.24 56.1244 353.075 55.4644 352.745C54.8144 352.415 54.3094 351.945 53.9494 351.335C53.5894 350.715 53.4094 349.99 53.4094 349.16V342.335H55.6894V349.16C55.6894 349.85 55.8694 350.385 56.2294 350.765C56.5994 351.135 57.1244 351.32 57.8044 351.32C58.4844 351.32 59.0044 351.135 59.3644 350.765C59.7244 350.385 59.9044 349.85 59.9044 349.16V342.335H62.1844V349.16C62.1844 349.99 62.0044 350.715 61.6444 351.335C61.2944 351.945 60.7894 352.415 60.1294 352.745C59.4694 353.075 58.6944 353.24 57.8044 353.24ZM68.3963 353.24C67.4763 353.24 66.6863 353.085 66.0263 352.775C65.3663 352.465 64.8513 352.03 64.4813 351.47C64.1113 350.91 63.9013 350.25 63.8513 349.49L66.1463 349.385C66.2063 349.805 66.3263 350.165 66.5063 350.465C66.6963 350.755 66.9463 350.975 67.2563 351.125C67.5763 351.275 67.9663 351.35 68.4263 351.35C68.8063 351.35 69.1263 351.305 69.3863 351.215C69.6563 351.125 69.8613 350.99 70.0013 350.81C70.1413 350.62 70.2113 350.39 70.2113 350.12C70.2113 349.87 70.1513 349.655 70.0313 349.475C69.9113 349.285 69.6813 349.115 69.3413 348.965C69.0013 348.805 68.5013 348.65 67.8413 348.5C66.9313 348.29 66.1963 348.055 65.6363 347.795C65.0863 347.535 64.6863 347.21 64.4363 346.82C64.1863 346.42 64.0613 345.92 64.0613 345.32C64.0613 344.68 64.2163 344.12 64.5263 343.64C64.8463 343.16 65.3063 342.785 65.9063 342.515C66.5063 342.245 67.2213 342.11 68.0513 342.11C68.9313 342.11 69.6763 342.265 70.2863 342.575C70.8963 342.885 71.3713 343.31 71.7113 343.85C72.0613 344.39 72.2713 345.01 72.3413 345.71L70.0613 345.83C70.0313 345.46 69.9313 345.14 69.7613 344.87C69.5913 344.59 69.3613 344.375 69.0713 344.225C68.7813 344.075 68.4313 344 68.0213 344C67.5013 344 67.0913 344.115 66.7913 344.345C66.5013 344.575 66.3563 344.875 66.3563 345.245C66.3563 345.505 66.4213 345.725 66.5513 345.905C66.6913 346.075 66.9163 346.225 67.2263 346.355C67.5463 346.485 67.9963 346.61 68.5763 346.73C69.5663 346.93 70.3463 347.185 70.9163 347.495C71.4963 347.795 71.9063 348.155 72.1463 348.575C72.3863 348.995 72.5063 349.475 72.5063 350.015C72.5063 350.675 72.3363 351.25 71.9963 351.74C71.6663 352.22 71.1913 352.59 70.5713 352.85C69.9613 353.11 69.2363 353.24 68.3963 353.24ZM79.1013 353.24C78.0213 353.24 77.0913 353.015 76.3113 352.565C75.5413 352.115 74.9463 351.475 74.5263 350.645C74.1163 349.815 73.9113 348.83 73.9113 347.69C73.9113 346.55 74.1163 345.565 74.5263 344.735C74.9463 343.895 75.5413 343.25 76.3113 342.8C77.0913 342.34 78.0213 342.11 79.1013 342.11C80.1813 342.11 81.1063 342.34 81.8763 342.8C82.6563 343.25 83.2513 343.895 83.6613 344.735C84.0813 345.565 84.2913 346.55 84.2913 347.69C84.2913 348.83 84.0813 349.815 83.6613 350.645C83.2513 351.475 82.6563 352.115 81.8763 352.565C81.1063 353.015 80.1813 353.24 79.1013 353.24ZM79.0863 351.32C79.6863 351.32 80.1963 351.18 80.6163 350.9C81.0463 350.61 81.3713 350.195 81.5913 349.655C81.8213 349.115 81.9363 348.46 81.9363 347.69C81.9363 346.92 81.8213 346.265 81.5913 345.725C81.3713 345.175 81.0463 344.755 80.6163 344.465C80.1963 344.175 79.6863 344.03 79.0863 344.03C78.4963 344.03 77.9913 344.175 77.5713 344.465C77.1513 344.755 76.8263 345.175 76.5963 345.725C76.3763 346.265 76.2663 346.92 76.2663 347.69C76.2663 348.46 76.3763 349.115 76.5963 349.655C76.8263 350.195 77.1513 350.61 77.5713 350.9C78.0013 351.18 78.5063 351.32 79.0863 351.32Z" fill="#3F3F50"/>
<rect x="55.6367" y="226.5" width="140.35" height="44" rx="11.5" stroke="#3F3F50"/>
<path d="M66.0802 244V236.9H67.3002L70.8102 243.14V236.9H71.6702V244H70.3902L66.9402 237.88V244H66.0802ZM73.1965 244V238.7H74.0365V244H73.1965ZM73.1765 237.87V236.89H74.0565V237.87H73.1765ZM76.8902 244L74.9602 238.7H75.8802L77.4202 243.14L78.9602 238.7H79.8802L77.9502 244H76.8902ZM82.7079 244.12C82.2079 244.12 81.7746 244.007 81.4079 243.78C81.0479 243.553 80.7679 243.233 80.5679 242.82C80.3746 242.4 80.2779 241.91 80.2779 241.35C80.2779 240.79 80.3746 240.303 80.5679 239.89C80.7679 239.477 81.0446 239.157 81.3979 238.93C81.7579 238.697 82.1812 238.58 82.6679 238.58C83.1279 238.58 83.5346 238.69 83.8879 238.91C84.2412 239.123 84.5146 239.437 84.7079 239.85C84.9079 240.263 85.0079 240.767 85.0079 241.36V241.61H81.1579C81.1912 242.177 81.3412 242.603 81.6079 242.89C81.8812 243.177 82.2479 243.32 82.7079 243.32C83.0546 243.32 83.3379 243.24 83.5579 243.08C83.7846 242.913 83.9412 242.697 84.0279 242.43L84.9279 242.5C84.7879 242.973 84.5212 243.363 84.1279 243.67C83.7412 243.97 83.2679 244.12 82.7079 244.12ZM81.1579 240.87H84.0879C84.0479 240.357 83.8979 239.98 83.6379 239.74C83.3846 239.5 83.0612 239.38 82.6679 239.38C82.2612 239.38 81.9246 239.507 81.6579 239.76C81.3979 240.007 81.2312 240.377 81.1579 240.87ZM87.2345 244C86.9279 244 86.6779 243.92 86.4845 243.76C86.2912 243.6 86.1945 243.347 86.1945 243V236.9H87.0345V242.93C87.0345 243.037 87.0612 243.12 87.1145 243.18C87.1745 243.233 87.2579 243.26 87.3645 243.26H87.8245V244H87.2345ZM91.1605 244C91.1605 243.5 91.2372 243.05 91.3905 242.65C91.5505 242.243 91.8272 241.857 92.2205 241.49C92.6205 241.123 93.1739 240.753 93.8805 240.38C94.2072 240.207 94.4705 240.047 94.6705 239.9C94.8705 239.753 95.0172 239.597 95.1105 239.43C95.2039 239.263 95.2505 239.06 95.2505 238.82C95.2505 238.573 95.1972 238.36 95.0905 238.18C94.9839 237.993 94.8239 237.847 94.6105 237.74C94.4039 237.633 94.1439 237.58 93.8305 237.58C93.3305 237.58 92.9339 237.71 92.6405 237.97C92.3539 238.23 92.1739 238.6 92.1005 239.08L91.2005 239.02C91.2805 238.327 91.5472 237.773 92.0005 237.36C92.4539 236.947 93.0639 236.74 93.8305 236.74C94.3172 236.74 94.7339 236.827 95.0805 237C95.4272 237.173 95.6905 237.417 95.8705 237.73C96.0572 238.037 96.1505 238.393 96.1505 238.8C96.1505 239.16 96.0905 239.473 95.9705 239.74C95.8505 240 95.6472 240.243 95.3605 240.47C95.0805 240.697 94.6939 240.94 94.2005 241.2C93.5605 241.54 93.0739 241.883 92.7405 242.23C92.4139 242.577 92.2405 242.887 92.2205 243.16H96.1505V244H91.1605Z" fill="#3F3F50"/>
<path d="M70.7852 262.24C69.8152 262.24 68.9502 262.02 68.1902 261.58C67.4402 261.14 66.8502 260.505 66.4202 259.675C66.0002 258.845 65.7902 257.85 65.7902 256.69C65.7902 255.56 65.9952 254.58 66.4052 253.75C66.8152 252.91 67.4002 252.26 68.1602 251.8C68.9202 251.34 69.8102 251.11 70.8302 251.11C72.2202 251.11 73.3002 251.455 74.0702 252.145C74.8502 252.825 75.3502 253.8 75.5702 255.07L73.2002 255.16C73.0802 254.49 72.8202 253.97 72.4202 253.6C72.0202 253.22 71.4902 253.03 70.8302 253.03C70.2602 253.03 69.7752 253.18 69.3752 253.48C68.9752 253.78 68.6702 254.205 68.4602 254.755C68.2502 255.305 68.1452 255.95 68.1452 256.69C68.1452 257.44 68.2502 258.09 68.4602 258.64C68.6802 259.18 68.9902 259.595 69.3902 259.885C69.7902 260.175 70.2652 260.32 70.8152 260.32C71.5352 260.32 72.0902 260.12 72.4802 259.72C72.8802 259.31 73.1302 258.745 73.2302 258.025L75.6152 258.115C75.4752 258.985 75.2002 259.725 74.7902 260.335C74.3802 260.945 73.8402 261.415 73.1702 261.745C72.5102 262.075 71.7152 262.24 70.7852 262.24ZM81.9958 262.24C80.9158 262.24 79.9858 262.015 79.2058 261.565C78.4358 261.115 77.8408 260.475 77.4208 259.645C77.0108 258.815 76.8058 257.83 76.8058 256.69C76.8058 255.55 77.0108 254.565 77.4208 253.735C77.8408 252.895 78.4358 252.25 79.2058 251.8C79.9858 251.34 80.9158 251.11 81.9958 251.11C83.0758 251.11 84.0008 251.34 84.7708 251.8C85.5508 252.25 86.1458 252.895 86.5558 253.735C86.9758 254.565 87.1858 255.55 87.1858 256.69C87.1858 257.83 86.9758 258.815 86.5558 259.645C86.1458 260.475 85.5508 261.115 84.7708 261.565C84.0008 262.015 83.0758 262.24 81.9958 262.24ZM81.9808 260.32C82.5808 260.32 83.0908 260.18 83.5108 259.9C83.9408 259.61 84.2658 259.195 84.4858 258.655C84.7158 258.115 84.8308 257.46 84.8308 256.69C84.8308 255.92 84.7158 255.265 84.4858 254.725C84.2658 254.175 83.9408 253.755 83.5108 253.465C83.0908 253.175 82.5808 253.03 81.9808 253.03C81.3908 253.03 80.8858 253.175 80.4658 253.465C80.0458 253.755 79.7208 254.175 79.4908 254.725C79.2708 255.265 79.1608 255.92 79.1608 256.69C79.1608 257.46 79.2708 258.115 79.4908 258.655C79.7208 259.195 80.0458 259.61 80.4658 259.9C80.8958 260.18 81.4008 260.32 81.9808 260.32ZM88.6969 262V251.35H91.7419L94.4569 259.105L97.1569 251.35H100.202V262H97.9219V255.1L95.4169 261.97H93.4669L90.9769 255.1V262H88.6969ZM102.217 262V251.35H106.477C107.757 251.35 108.757 251.66 109.477 252.28C110.207 252.9 110.572 253.75 110.572 254.83C110.572 255.54 110.407 256.16 110.077 256.69C109.757 257.21 109.287 257.615 108.667 257.905C108.057 258.185 107.327 258.325 106.477 258.325H104.497V262H102.217ZM104.497 256.405H106.342C106.942 256.405 107.407 256.275 107.737 256.015C108.067 255.745 108.232 255.35 108.232 254.83C108.232 254.32 108.067 253.935 107.737 253.675C107.417 253.405 106.952 253.27 106.342 253.27H104.497V256.405ZM112.003 262V251.35H116.668C117.448 251.35 118.123 251.48 118.693 251.74C119.273 252 119.718 252.37 120.028 252.85C120.338 253.32 120.493 253.88 120.493 254.53C120.493 255.02 120.388 255.455 120.178 255.835C119.978 256.215 119.698 256.525 119.338 256.765C118.988 257.005 118.583 257.155 118.123 257.215L118.078 257.08C118.788 257.08 119.328 257.235 119.698 257.545C120.068 257.845 120.278 258.31 120.328 258.94L120.598 262H118.273L118.078 259.3C118.048 258.89 117.918 258.59 117.688 258.4C117.468 258.2 117.088 258.1 116.548 258.1H114.283V262H112.003ZM114.283 256.195H116.413C116.963 256.195 117.388 256.07 117.688 255.82C117.998 255.56 118.153 255.195 118.153 254.725C118.153 254.245 117.998 253.885 117.688 253.645C117.378 253.395 116.928 253.27 116.338 253.27H114.283V256.195ZM122.462 262V251.35H129.872V253.27H124.742V255.715H129.692V257.605H124.742V260.08H129.992V262H122.462ZM131.705 262V251.35H134.225L138.455 258.7V251.35H140.735V262H138.185L133.985 254.905V262H131.705ZM146.935 262.24C146.015 262.24 145.225 262.085 144.565 261.775C143.905 261.465 143.39 261.03 143.02 260.47C142.65 259.91 142.44 259.25 142.39 258.49L144.685 258.385C144.745 258.805 144.865 259.165 145.045 259.465C145.235 259.755 145.485 259.975 145.795 260.125C146.115 260.275 146.505 260.35 146.965 260.35C147.345 260.35 147.665 260.305 147.925 260.215C148.195 260.125 148.4 259.99 148.54 259.81C148.68 259.62 148.75 259.39 148.75 259.12C148.75 258.87 148.69 258.655 148.57 258.475C148.45 258.285 148.22 258.115 147.88 257.965C147.54 257.805 147.04 257.65 146.38 257.5C145.47 257.29 144.735 257.055 144.175 256.795C143.625 256.535 143.225 256.21 142.975 255.82C142.725 255.42 142.6 254.92 142.6 254.32C142.6 253.68 142.755 253.12 143.065 252.64C143.385 252.16 143.845 251.785 144.445 251.515C145.045 251.245 145.76 251.11 146.59 251.11C147.47 251.11 148.215 251.265 148.825 251.575C149.435 251.885 149.91 252.31 150.25 252.85C150.6 253.39 150.81 254.01 150.88 254.71L148.6 254.83C148.57 254.46 148.47 254.14 148.3 253.87C148.13 253.59 147.9 253.375 147.61 253.225C147.32 253.075 146.97 253 146.56 253C146.04 253 145.63 253.115 145.33 253.345C145.04 253.575 144.895 253.875 144.895 254.245C144.895 254.505 144.96 254.725 145.09 254.905C145.23 255.075 145.455 255.225 145.765 255.355C146.085 255.485 146.535 255.61 147.115 255.73C148.105 255.93 148.885 256.185 149.455 256.495C150.035 256.795 150.445 257.155 150.685 257.575C150.925 257.995 151.045 258.475 151.045 259.015C151.045 259.675 150.875 260.25 150.535 260.74C150.205 261.22 149.73 261.59 149.11 261.85C148.5 262.11 147.775 262.24 146.935 262.24ZM152.696 262V251.35H154.976V262H152.696ZM156.988 262V251.35H161.128C162.448 251.35 163.458 251.585 164.158 252.055C164.858 252.515 165.208 253.245 165.208 254.245C165.208 254.685 165.118 255.07 164.938 255.4C164.758 255.72 164.493 255.975 164.143 256.165C163.803 256.355 163.388 256.47 162.898 256.51V256.48C163.788 256.54 164.468 256.8 164.938 257.26C165.418 257.71 165.658 258.31 165.658 259.06C165.658 260.05 165.308 260.79 164.608 261.28C163.918 261.76 162.928 262 161.638 262H156.988ZM159.268 260.14H161.533C162.083 260.14 162.523 260.03 162.853 259.81C163.193 259.58 163.363 259.24 163.363 258.79C163.363 258.34 163.193 258 162.853 257.77C162.523 257.53 162.083 257.41 161.533 257.41H159.268V260.14ZM159.268 255.76H161.068C161.628 255.76 162.073 255.65 162.403 255.43C162.743 255.21 162.913 254.895 162.913 254.485C162.913 254.045 162.748 253.725 162.418 253.525C162.098 253.315 161.648 253.21 161.068 253.21H159.268V255.76ZM167.535 262V251.35H169.815V261.385L168.555 260.08H174.72V262H167.535ZM175.884 262V251.35H183.294V253.27H178.164V255.715H183.114V257.605H178.164V260.08H183.414V262H175.884Z" fill="#3F3F50"/>
<rect x="153.379" y="156" width="126.07" height="45" rx="12" fill="#9364FF"/>
<path d="M166.631 173V165.9H167.851L171.361 172.14V165.9H172.221V173H170.941L167.491 166.88V173H166.631ZM173.747 173V167.7H174.587V173H173.747ZM173.727 166.87V165.89H174.607V166.87H173.727ZM177.441 173L175.511 167.7H176.431L177.971 172.14L179.511 167.7H180.431L178.501 173H177.441ZM183.259 173.12C182.759 173.12 182.325 173.007 181.959 172.78C181.599 172.553 181.319 172.233 181.119 171.82C180.925 171.4 180.829 170.91 180.829 170.35C180.829 169.79 180.925 169.303 181.119 168.89C181.319 168.477 181.595 168.157 181.949 167.93C182.309 167.697 182.732 167.58 183.219 167.58C183.679 167.58 184.085 167.69 184.439 167.91C184.792 168.123 185.065 168.437 185.259 168.85C185.459 169.263 185.559 169.767 185.559 170.36V170.61H181.709C181.742 171.177 181.892 171.603 182.159 171.89C182.432 172.177 182.799 172.32 183.259 172.32C183.605 172.32 183.889 172.24 184.109 172.08C184.335 171.913 184.492 171.697 184.579 171.43L185.479 171.5C185.339 171.973 185.072 172.363 184.679 172.67C184.292 172.97 183.819 173.12 183.259 173.12ZM181.709 169.87H184.639C184.599 169.357 184.449 168.98 184.189 168.74C183.935 168.5 183.612 168.38 183.219 168.38C182.812 168.38 182.475 168.507 182.209 168.76C181.949 169.007 181.782 169.377 181.709 169.87ZM187.785 173C187.479 173 187.229 172.92 187.035 172.76C186.842 172.6 186.745 172.347 186.745 172V165.9H187.585V171.93C187.585 172.037 187.612 172.12 187.665 172.18C187.725 172.233 187.809 172.26 187.915 172.26H188.375V173H187.785ZM194.121 173.16C193.335 173.16 192.728 172.977 192.301 172.61C191.875 172.237 191.645 171.757 191.611 171.17L192.501 171.11C192.541 171.543 192.708 171.853 193.001 172.04C193.301 172.227 193.675 172.32 194.121 172.32C194.428 172.32 194.711 172.28 194.971 172.2C195.231 172.113 195.441 171.977 195.601 171.79C195.761 171.597 195.841 171.34 195.841 171.02C195.841 170.547 195.685 170.2 195.371 169.98C195.058 169.76 194.645 169.65 194.131 169.65H193.571V168.81H194.131C194.551 168.81 194.898 168.727 195.171 168.56C195.451 168.393 195.591 168.107 195.591 167.7C195.591 167.333 195.471 167.057 195.231 166.87C194.998 166.677 194.645 166.58 194.171 166.58C193.705 166.58 193.351 166.67 193.111 166.85C192.878 167.03 192.738 167.277 192.691 167.59L191.791 167.53C191.858 166.997 192.095 166.567 192.501 166.24C192.908 165.907 193.465 165.74 194.171 165.74C194.651 165.74 195.065 165.82 195.411 165.98C195.758 166.133 196.025 166.353 196.211 166.64C196.398 166.927 196.491 167.267 196.491 167.66C196.491 168.1 196.351 168.457 196.071 168.73C195.798 168.997 195.391 169.18 194.851 169.28V169.1C195.431 169.167 195.891 169.373 196.231 169.72C196.571 170.067 196.741 170.5 196.741 171.02C196.741 171.473 196.628 171.86 196.401 172.18C196.181 172.5 195.875 172.743 195.481 172.91C195.088 173.077 194.635 173.16 194.121 173.16Z" fill="#FFFFEE"/>
<path d="M171.336 191.24C170.366 191.24 169.501 191.02 168.741 190.58C167.991 190.14 167.401 189.505 166.971 188.675C166.551 187.845 166.341 186.85 166.341 185.69C166.341 184.56 166.546 183.58 166.956 182.75C167.366 181.91 167.951 181.26 168.711 180.8C169.471 180.34 170.361 180.11 171.381 180.11C172.771 180.11 173.851 180.455 174.621 181.145C175.401 181.825 175.901 182.8 176.121 184.07L173.751 184.16C173.631 183.49 173.371 182.97 172.971 182.6C172.571 182.22 172.041 182.03 171.381 182.03C170.811 182.03 170.326 182.18 169.926 182.48C169.526 182.78 169.221 183.205 169.011 183.755C168.801 184.305 168.696 184.95 168.696 185.69C168.696 186.44 168.801 187.09 169.011 187.64C169.231 188.18 169.541 188.595 169.941 188.885C170.341 189.175 170.816 189.32 171.366 189.32C172.086 189.32 172.641 189.12 173.031 188.72C173.431 188.31 173.681 187.745 173.781 187.025L176.166 187.115C176.026 187.985 175.751 188.725 175.341 189.335C174.931 189.945 174.391 190.415 173.721 190.745C173.061 191.075 172.266 191.24 171.336 191.24ZM177.749 191V180.35H180.029V190.385L178.769 189.08H184.934V191H177.749ZM185.464 191L189.304 180.35H192.004L195.844 191H193.474L192.694 188.735H188.599L187.819 191H185.464ZM189.244 186.86H192.064L190.654 182.75L189.244 186.86ZM196.865 191V180.35H201.53C202.31 180.35 202.985 180.48 203.555 180.74C204.135 181 204.58 181.37 204.89 181.85C205.2 182.32 205.355 182.88 205.355 183.53C205.355 184.02 205.25 184.455 205.04 184.835C204.84 185.215 204.56 185.525 204.2 185.765C203.85 186.005 203.445 186.155 202.985 186.215L202.94 186.08C203.65 186.08 204.19 186.235 204.56 186.545C204.93 186.845 205.14 187.31 205.19 187.94L205.46 191H203.135L202.94 188.3C202.91 187.89 202.78 187.59 202.55 187.4C202.33 187.2 201.95 187.1 201.41 187.1H199.145V191H196.865ZM199.145 185.195H201.275C201.825 185.195 202.25 185.07 202.55 184.82C202.86 184.56 203.015 184.195 203.015 183.725C203.015 183.245 202.86 182.885 202.55 182.645C202.24 182.395 201.79 182.27 201.2 182.27H199.145V185.195ZM211.814 191.24C210.734 191.24 209.804 191.015 209.024 190.565C208.254 190.115 207.659 189.475 207.239 188.645C206.829 187.815 206.624 186.83 206.624 185.69C206.624 184.55 206.829 183.565 207.239 182.735C207.659 181.895 208.254 181.25 209.024 180.8C209.804 180.34 210.734 180.11 211.814 180.11C212.894 180.11 213.819 180.34 214.589 180.8C215.369 181.25 215.964 181.895 216.374 182.735C216.794 183.565 217.004 184.55 217.004 185.69C217.004 186.83 216.794 187.815 216.374 188.645C215.964 189.475 215.369 190.115 214.589 190.565C213.819 191.015 212.894 191.24 211.814 191.24ZM211.799 189.32C212.399 189.32 212.909 189.18 213.329 188.9C213.759 188.61 214.084 188.195 214.304 187.655C214.534 187.115 214.649 186.46 214.649 185.69C214.649 184.92 214.534 184.265 214.304 183.725C214.084 183.175 213.759 182.755 213.329 182.465C212.909 182.175 212.399 182.03 211.799 182.03C211.209 182.03 210.704 182.175 210.284 182.465C209.864 182.755 209.539 183.175 209.309 183.725C209.089 184.265 208.979 184.92 208.979 185.69C208.979 186.46 209.089 187.115 209.309 187.655C209.539 188.195 209.864 188.61 210.284 188.9C210.714 189.18 211.219 189.32 211.799 189.32Z" fill="#FFFFEE"/>
<rect x="237.59" y="84" width="129.68" height="45" rx="12" fill="#877BFF"/>
<path d="M251.197 101V93.9H252.417L255.927 100.14V93.9H256.787V101H255.507L252.057 94.88V101H251.197ZM258.314 101V95.7H259.154V101H258.314ZM258.294 94.87V93.89H259.174V94.87H258.294ZM262.007 101L260.077 95.7H260.997L262.537 100.14L264.077 95.7H264.997L263.067 101H262.007ZM267.825 101.12C267.325 101.12 266.892 101.007 266.525 100.78C266.165 100.553 265.885 100.233 265.685 99.82C265.492 99.4 265.395 98.91 265.395 98.35C265.395 97.79 265.492 97.3033 265.685 96.89C265.885 96.4767 266.162 96.1567 266.515 95.93C266.875 95.6967 267.298 95.58 267.785 95.58C268.245 95.58 268.652 95.69 269.005 95.91C269.358 96.1233 269.632 96.4367 269.825 96.85C270.025 97.2633 270.125 97.7667 270.125 98.36V98.61H266.275C266.308 99.1767 266.458 99.6033 266.725 99.89C266.998 100.177 267.365 100.32 267.825 100.32C268.172 100.32 268.455 100.24 268.675 100.08C268.902 99.9133 269.058 99.6967 269.145 99.43L270.045 99.5C269.905 99.9733 269.638 100.363 269.245 100.67C268.858 100.97 268.385 101.12 267.825 101.12ZM266.275 97.87H269.205C269.165 97.3567 269.015 96.98 268.755 96.74C268.502 96.5 268.178 96.38 267.785 96.38C267.378 96.38 267.042 96.5067 266.775 96.76C266.515 97.0067 266.348 97.3767 266.275 97.87ZM272.352 101C272.045 101 271.795 100.92 271.602 100.76C271.408 100.6 271.312 100.347 271.312 100V93.9H272.152V99.93C272.152 100.037 272.178 100.12 272.232 100.18C272.292 100.233 272.375 100.26 272.482 100.26H272.942V101H272.352ZM279.588 101V99.46H275.978V98.68L279.528 93.9H280.448V98.62H281.328V99.46H280.448V101H279.588ZM277.018 98.62H279.588V95.22L277.018 98.62Z" fill="#FFFFEE"/>
<path d="M251.387 119V108.35H256.052C256.832 108.35 257.507 108.48 258.077 108.74C258.657 109 259.102 109.37 259.412 109.85C259.722 110.32 259.877 110.88 259.877 111.53C259.877 112.02 259.772 112.455 259.562 112.835C259.362 113.215 259.082 113.525 258.722 113.765C258.372 114.005 257.967 114.155 257.507 114.215L257.462 114.08C258.172 114.08 258.712 114.235 259.082 114.545C259.452 114.845 259.662 115.31 259.712 115.94L259.982 119H257.657L257.462 116.3C257.432 115.89 257.302 115.59 257.072 115.4C256.852 115.2 256.472 115.1 255.932 115.1H253.667V119H251.387ZM253.667 113.195H255.797C256.347 113.195 256.772 113.07 257.072 112.82C257.382 112.56 257.537 112.195 257.537 111.725C257.537 111.245 257.382 110.885 257.072 110.645C256.762 110.395 256.312 110.27 255.722 110.27H253.667V113.195ZM261.846 119V108.35H269.256V110.27H264.126V112.715H269.076V114.605H264.126V117.08H269.376V119H261.846ZM271.177 119V108.35H273.457V118.385L272.197 117.08H278.362V119H271.177ZM279.527 119V108.35H286.937V110.27H281.807V112.715H286.757V114.605H281.807V117.08H287.057V119H279.527ZM291.99 119L288.15 108.35H290.505L293.34 116.435L296.175 108.35H298.53L294.675 119H291.99ZM297.379 119L301.219 108.35H303.919L307.759 119H305.389L304.609 116.735H300.514L299.734 119H297.379ZM301.159 114.86H303.979L302.569 110.75L301.159 114.86ZM308.78 119V108.35H311.3L315.53 115.7V108.35H317.81V119H315.26L311.06 111.905V119H308.78ZM321.84 119V110.27H318.66V108.35H327.33V110.27H324.135V119H321.84ZM328.306 119V108.35H335.716V110.27H330.586V112.715H335.536V114.605H330.586V117.08H335.836V119H328.306Z" fill="#FFFFEE"/>
<line y1="-0.5" x2="199.001" y2="-0.5" transform="matrix(0.000972833 -0.999999 0.999979 0.00648889 196.422 461)" stroke="#3F3F50" stroke-dasharray="5 5"/>
<g filter="url(#filter2_n_4497_14165)">
<path d="M286 462V315.865C320.954 288.967 339.046 270.537 371.5 232L372 462H286Z" fill="#877BFF"/>
</g>
<g filter="url(#filter3_n_4497_14165)">
<path d="M286.21 316C250.121 344.5 230.572 357.5 196.719 377V462H285.728L286.21 316Z" fill="#9364FF"/>
</g>
<g filter="url(#filter4_n_4497_14165)">
<path d="M457.5 109C423.031 165.778 403 195.122 372 231.674V462H458L457.5 109Z" fill="#6F31FF"/>
</g>
<line y1="-0.5" x2="275" y2="-0.5" transform="matrix(0.000703973 -1 0.999989 0.00469561 286.25 461)" stroke="#A0A0A0" stroke-dasharray="5 5"/>
<line x1="371.125" y1="461" x2="371.125" y2="109" stroke="#BF9FFF" stroke-dasharray="5 5"/>
<line x1="457.5" y1="464" x2="457.5" y2="22" stroke="#BF9FFF" stroke-dasharray="5 5"/>
<rect x="323.797" width="134.332" height="45" rx="12" fill="#6F31FF"/>
<path d="M337.861 17V9.9H339.081L342.591 16.14V9.9H343.451V17H342.171L338.721 10.88V17H337.861ZM344.978 17V11.7H345.818V17H344.978ZM344.958 10.87V9.89H345.838V10.87H344.958ZM348.671 17L346.741 11.7H347.661L349.201 16.14L350.741 11.7H351.661L349.731 17H348.671ZM354.489 17.12C353.989 17.12 353.556 17.0067 353.189 16.78C352.829 16.5533 352.549 16.2333 352.349 15.82C352.156 15.4 352.059 14.91 352.059 14.35C352.059 13.79 352.156 13.3033 352.349 12.89C352.549 12.4767 352.826 12.1567 353.179 11.93C353.539 11.6967 353.962 11.58 354.449 11.58C354.909 11.58 355.316 11.69 355.669 11.91C356.022 12.1233 356.296 12.4367 356.489 12.85C356.689 13.2633 356.789 13.7667 356.789 14.36V14.61H352.939C352.972 15.1767 353.122 15.6033 353.389 15.89C353.662 16.1767 354.029 16.32 354.489 16.32C354.836 16.32 355.119 16.24 355.339 16.08C355.566 15.9133 355.722 15.6967 355.809 15.43L356.709 15.5C356.569 15.9733 356.302 16.3633 355.909 16.67C355.522 16.97 355.049 17.12 354.489 17.12ZM352.939 13.87H355.869C355.829 13.3567 355.679 12.98 355.419 12.74C355.166 12.5 354.842 12.38 354.449 12.38C354.042 12.38 353.706 12.5067 353.439 12.76C353.179 13.0067 353.012 13.3767 352.939 13.87ZM359.016 17C358.709 17 358.459 16.92 358.266 16.76C358.072 16.6 357.976 16.3467 357.976 16V9.9H358.816V15.93C358.816 16.0367 358.842 16.12 358.896 16.18C358.956 16.2333 359.039 16.26 359.146 16.26H359.606V17H359.016ZM365.462 17.16C364.962 17.16 364.528 17.0767 364.162 16.91C363.802 16.7433 363.515 16.51 363.302 16.21C363.095 15.91 362.975 15.5633 362.942 15.17L363.842 15.11C363.895 15.51 364.065 15.8133 364.352 16.02C364.645 16.22 365.015 16.32 365.462 16.32C365.962 16.32 366.358 16.18 366.652 15.9C366.945 15.6133 367.092 15.22 367.092 14.72C367.092 14.3867 367.025 14.1 366.892 13.86C366.765 13.6133 366.578 13.4233 366.332 13.29C366.085 13.1567 365.788 13.09 365.442 13.09C365.115 13.09 364.818 13.16 364.552 13.3C364.285 13.44 364.095 13.6367 363.982 13.89H363.062L363.532 9.9H367.512V10.74H364.322L364.002 13.36L363.842 13.2C363.948 12.9933 364.088 12.8233 364.262 12.69C364.442 12.55 364.645 12.4467 364.872 12.38C365.105 12.3067 365.348 12.27 365.602 12.27C366.075 12.27 366.492 12.3767 366.852 12.59C367.212 12.7967 367.492 13.0867 367.692 13.46C367.892 13.8267 367.992 14.2467 367.992 14.72C367.992 15.1933 367.885 15.6167 367.672 15.99C367.458 16.3567 367.162 16.6433 366.782 16.85C366.402 17.0567 365.962 17.16 365.462 17.16Z" fill="#FFFFEE"/>
<path d="M338.051 35V24.35H341.726C343.456 24.35 344.786 24.815 345.716 25.745C346.646 26.665 347.111 27.98 347.111 29.69C347.111 31.39 346.651 32.7 345.731 33.62C344.821 34.54 343.516 35 341.816 35H338.051ZM340.331 33.08H341.726C342.756 33.08 343.516 32.805 344.006 32.255C344.506 31.695 344.756 30.835 344.756 29.675C344.756 28.515 344.506 27.66 344.006 27.11C343.516 26.55 342.756 26.27 341.726 26.27H340.331V33.08ZM348.613 35V24.35H350.893V35H348.613ZM352.905 35V24.35H360.255V26.27H353.925L355.185 24.965V29.84L353.925 28.85H359.985V30.74H353.925L355.185 29.75V35H352.905ZM361.753 35V24.35H369.163V26.27H364.033V28.715H368.983V30.605H364.033V33.08H369.283V35H361.753ZM371.04 35V24.35H375.705C376.485 24.35 377.16 24.48 377.73 24.74C378.31 25 378.755 25.37 379.065 25.85C379.375 26.32 379.53 26.88 379.53 27.53C379.53 28.02 379.425 28.455 379.215 28.835C379.015 29.215 378.735 29.525 378.375 29.765C378.025 30.005 377.62 30.155 377.16 30.215L377.115 30.08C377.825 30.08 378.365 30.235 378.735 30.545C379.105 30.845 379.315 31.31 379.365 31.94L379.635 35H377.31L377.115 32.3C377.085 31.89 376.955 31.59 376.725 31.4C376.505 31.2 376.125 31.1 375.585 31.1H373.32V35H371.04ZM373.32 29.195H375.45C376 29.195 376.425 29.07 376.725 28.82C377.035 28.56 377.19 28.195 377.19 27.725C377.19 27.245 377.035 26.885 376.725 26.645C376.415 26.395 375.965 26.27 375.375 26.27H373.32V29.195ZM381.499 35V24.35H388.909V26.27H383.779V28.715H388.729V30.605H383.779V33.08H389.029V35H381.499ZM390.742 35V24.35H393.262L397.492 31.7V24.35H399.772V35H397.222L393.022 27.905V35H390.742ZM406.272 35.24C405.302 35.24 404.437 35.02 403.677 34.58C402.927 34.14 402.337 33.505 401.907 32.675C401.487 31.845 401.277 30.85 401.277 29.69C401.277 28.56 401.482 27.58 401.892 26.75C402.302 25.91 402.887 25.26 403.647 24.8C404.407 24.34 405.297 24.11 406.317 24.11C407.707 24.11 408.787 24.455 409.557 25.145C410.337 25.825 410.837 26.8 411.057 28.07L408.687 28.16C408.567 27.49 408.307 26.97 407.907 26.6C407.507 26.22 406.977 26.03 406.317 26.03C405.747 26.03 405.262 26.18 404.862 26.48C404.462 26.78 404.157 27.205 403.947 27.755C403.737 28.305 403.632 28.95 403.632 29.69C403.632 30.44 403.737 31.09 403.947 31.64C404.167 32.18 404.477 32.595 404.877 32.885C405.277 33.175 405.752 33.32 406.302 33.32C407.022 33.32 407.577 33.12 407.967 32.72C408.367 32.31 408.617 31.745 408.717 31.025L411.102 31.115C410.962 31.985 410.687 32.725 410.277 33.335C409.867 33.945 409.327 34.415 408.657 34.745C407.997 35.075 407.202 35.24 406.272 35.24ZM412.597 35V24.35H414.877V35H412.597ZM416.123 35L419.963 24.35H422.663L426.503 35H424.133L423.353 32.735H419.258L418.478 35H416.123ZM419.903 30.86H422.723L421.313 26.75L419.903 30.86ZM427.524 35V24.35H431.199C432.929 24.35 434.259 24.815 435.189 25.745C436.119 26.665 436.584 27.98 436.584 29.69C436.584 31.39 436.124 32.7 435.204 33.62C434.294 34.54 432.989 35 431.289 35H427.524ZM429.804 33.08H431.199C432.229 33.08 432.989 32.805 433.479 32.255C433.979 31.695 434.229 30.835 434.229 29.675C434.229 28.515 433.979 27.66 433.479 27.11C432.989 26.55 432.229 26.27 431.199 26.27H429.804V33.08ZM443.03 35.24C441.95 35.24 441.02 35.015 440.24 34.565C439.47 34.115 438.875 33.475 438.455 32.645C438.045 31.815 437.84 30.83 437.84 29.69C437.84 28.55 438.045 27.565 438.455 26.735C438.875 25.895 439.47 25.25 440.24 24.8C441.02 24.34 441.95 24.11 443.03 24.11C444.11 24.11 445.035 24.34 445.805 24.8C446.585 25.25 447.18 25.895 447.59 26.735C448.01 27.565 448.22 28.55 448.22 29.69C448.22 30.83 448.01 31.815 447.59 32.645C447.18 33.475 446.585 34.115 445.805 34.565C445.035 35.015 444.11 35.24 443.03 35.24ZM443.015 33.32C443.615 33.32 444.125 33.18 444.545 32.9C444.975 32.61 445.3 32.195 445.52 31.655C445.75 31.115 445.865 30.46 445.865 29.69C445.865 28.92 445.75 28.265 445.52 27.725C445.3 27.175 444.975 26.755 444.545 26.465C444.125 26.175 443.615 26.03 443.015 26.03C442.425 26.03 441.92 26.175 441.5 26.465C441.08 26.755 440.755 27.175 440.525 27.725C440.305 28.265 440.195 28.92 440.195 29.69C440.195 30.46 440.305 31.115 440.525 31.655C440.755 32.195 441.08 32.61 441.5 32.9C441.93 33.18 442.435 33.32 443.015 33.32Z" fill="#FFFFEE"/>
<defs>
<filter id="filter0_n_4497_14165" x="14.457" y="108.631" width="443.043" height="353.869" filterUnits="userSpaceOnUse" color-interpolation-filters="sRGB">
<feFlood flood-opacity="0" result="BackgroundImageFix"/>
<feBlend mode="normal" in="SourceGraphic" in2="BackgroundImageFix" result="shape"/>
<feTurbulence type="fractalNoise" baseFrequency="5 5" stitchTiles="stitch" numOctaves="3" result="noise" seed="8092" />
<feColorMatrix in="noise" type="luminanceToAlpha" result="alphaNoise" />
<feComponentTransfer in="alphaNoise" result="coloredNoise1">
<feFuncA type="discrete" tableValues="1 1 1 1 1 1 1 1 1 1 1 1 1 1 1 1 1 1 1 1 1 1 1 1 1 1 1 1 1 1 1 1 1 1 1 1 1 1 1 1 1 1 1 1 1 1 1 1 1 1 1 0 0 0 0 0 0 0 0 0 0 0 0 0 0 0 0 0 0 0 0 0 0 0 0 0 0 0 0 0 0 0 0 0 0 0 0 0 0 0 0 0 0 0 0 0 0 0 0 0 "/>
</feComponentTransfer>
<feComposite operator="in" in2="shape" in="coloredNoise1" result="noise1Clipped" />
<feFlood flood-color="rgba(0, 0, 0, 0.25)" result="color1Flood" />
<feComposite operator="in" in2="noise1Clipped" in="color1Flood" result="color1" />
<feMerge result="effect1_noise_4497_14165">
<feMergeNode in="shape" />
<feMergeNode in="color1" />
</feMerge>
</filter>
<filter id="filter1_n_4497_14165" x="15.0391" y="424" width="87.7891" height="38" filterUnits="userSpaceOnUse" color-interpolation-filters="sRGB">
<feFlood flood-opacity="0" result="BackgroundImageFix"/>
<feBlend mode="normal" in="SourceGraphic" in2="BackgroundImageFix" result="shape"/>
<feTurbulence type="fractalNoise" baseFrequency="2 2" stitchTiles="stitch" numOctaves="3" result="noise" seed="4536" />
<feColorMatrix in="noise" type="luminanceToAlpha" result="alphaNoise" />
<feComponentTransfer in="alphaNoise" result="coloredNoise1">
<feFuncA type="discrete" tableValues="1 1 1 1 1 1 1 1 1 1 1 1 1 1 1 1 1 1 1 1 1 1 1 1 1 1 1 1 1 1 1 1 1 1 1 1 1 1 1 1 1 1 1 1 1 1 1 1 1 1 1 0 0 0 0 0 0 0 0 0 0 0 0 0 0 0 0 0 0 0 0 0 0 0 0 0 0 0 0 0 0 0 0 0 0 0 0 0 0 0 0 0 0 0 0 0 0 0 0 0 "/>
</feComponentTransfer>
<feComposite operator="in" in2="shape" in="coloredNoise1" result="noise1Clipped" />
<feFlood flood-color="rgba(0, 0, 0, 0.25)" result="color1Flood" />
<feComposite operator="in" in2="noise1Clipped" in="color1Flood" result="color1" />
<feMerge result="effect1_noise_4497_14165">
<feMergeNode in="shape" />
<feMergeNode in="color1" />
</feMerge>
</filter>
<filter id="filter2_n_4497_14165" x="286" y="232" width="86" height="230" filterUnits="userSpaceOnUse" color-interpolation-filters="sRGB">
<feFlood flood-opacity="0" result="BackgroundImageFix"/>
<feBlend mode="normal" in="SourceGraphic" in2="BackgroundImageFix" result="shape"/>
<feTurbulence type="fractalNoise" baseFrequency="5 5" stitchTiles="stitch" numOctaves="3" result="noise" seed="9973" />
<feColorMatrix in="noise" type="luminanceToAlpha" result="alphaNoise" />
<feComponentTransfer in="alphaNoise" result="coloredNoise1">
<feFuncA type="discrete" tableValues="1 1 1 1 1 1 1 1 1 1 1 1 1 1 1 1 1 1 1 1 1 1 1 1 1 1 1 1 1 1 1 1 1 1 1 1 1 1 1 1 1 1 1 1 1 1 1 1 1 1 1 0 0 0 0 0 0 0 0 0 0 0 0 0 0 0 0 0 0 0 0 0 0 0 0 0 0 0 0 0 0 0 0 0 0 0 0 0 0 0 0 0 0 0 0 0 0 0 0 0 "/>
</feComponentTransfer>
<feComposite operator="in" in2="shape" in="coloredNoise1" result="noise1Clipped" />
<feFlood flood-color="rgba(0, 0, 0, 0.25)" result="color1Flood" />
<feComposite operator="in" in2="noise1Clipped" in="color1Flood" result="color1" />
<feMerge result="effect1_noise_4497_14165">
<feMergeNode in="shape" />
<feMergeNode in="color1" />
</feMerge>
</filter>
<filter id="filter3_n_4497_14165" x="196.719" y="316" width="89.4922" height="146" filterUnits="userSpaceOnUse" color-interpolation-filters="sRGB">
<feFlood flood-opacity="0" result="BackgroundImageFix"/>
<feBlend mode="normal" in="SourceGraphic" in2="BackgroundImageFix" result="shape"/>
<feTurbulence type="fractalNoise" baseFrequency="5 5" stitchTiles="stitch" numOctaves="3" result="noise" seed="6733" />
<feColorMatrix in="noise" type="luminanceToAlpha" result="alphaNoise" />
<feComponentTransfer in="alphaNoise" result="coloredNoise1">
<feFuncA type="discrete" tableValues="1 1 1 1 1 1 1 1 1 1 1 1 1 1 1 1 1 1 1 1 1 1 1 1 1 1 1 1 1 1 1 1 1 1 1 1 1 1 1 1 1 1 1 1 1 1 1 1 1 1 1 0 0 0 0 0 0 0 0 0 0 0 0 0 0 0 0 0 0 0 0 0 0 0 0 0 0 0 0 0 0 0 0 0 0 0 0 0 0 0 0 0 0 0 0 0 0 0 0 0 "/>
</feComponentTransfer>
<feComposite operator="in" in2="shape" in="coloredNoise1" result="noise1Clipped" />
<feFlood flood-color="rgba(0, 0, 0, 0.25)" result="color1Flood" />
<feComposite operator="in" in2="noise1Clipped" in="color1Flood" result="color1" />
<feMerge result="effect1_noise_4497_14165">
<feMergeNode in="shape" />
<feMergeNode in="color1" />
</feMerge>
</filter>
<filter id="filter4_n_4497_14165" x="372" y="109" width="86" height="353" filterUnits="userSpaceOnUse" color-interpolation-filters="sRGB">
<feFlood flood-opacity="0" result="BackgroundImageFix"/>
<feBlend mode="normal" in="SourceGraphic" in2="BackgroundImageFix" result="shape"/>
<feTurbulence type="fractalNoise" baseFrequency="5 5" stitchTiles="stitch" numOctaves="3" result="noise" seed="8093" />
<feColorMatrix in="noise" type="luminanceToAlpha" result="alphaNoise" />
<feComponentTransfer in="alphaNoise" result="coloredNoise1">
<feFuncA type="discrete" tableValues="1 1 1 1 1 1 1 1 1 1 1 1 1 1 1 1 1 1 1 1 1 1 1 1 1 1 1 1 1 1 1 1 1 1 1 1 1 1 1 1 1 1 1 1 1 1 1 1 1 1 1 0 0 0 0 0 0 0 0 0 0 0 0 0 0 0 0 0 0 0 0 0 0 0 0 0 0 0 0 0 0 0 0 0 0 0 0 0 0 0 0 0 0 0 0 0 0 0 0 0 "/>
</feComponentTransfer>
<feComposite operator="in" in2="shape" in="coloredNoise1" result="noise1Clipped" />
<feFlood flood-color="rgba(0, 0, 0, 0.25)" result="color1Flood" />
<feComposite operator="in" in2="noise1Clipped" in="color1Flood" result="color1" />
<feMerge result="effect1_noise_4497_14165">
<feMergeNode in="shape" />
<feMergeNode in="color1" />
</feMerge>
</filter>
</defs>
</svg>
