<svg width="1270" height="521" viewBox="0 0 1270 521" fill="none" xmlns="http://www.w3.org/2000/svg">
<g filter="url(#filter0_n_4487_11556)">
<path d="M1265.06 519H0.5C638.661 432.535 933.625 362.718 1265.06 172V519Z" fill="#27273F"/>
<path d="M1265.06 519H0.5C638.661 432.535 933.625 362.718 1265.06 172V519Z" stroke="#27273F" stroke-width="3"/>
</g>
<rect x="806.324" y="92.5" width="215.307" height="74" rx="11.5" fill="#877BFF" stroke="#877BFF"/>
<path d="M833.737 121H831.961L825.945 111.688V121H824.457V109.512H826.361L832.265 118.632V109.512H833.737V121ZM835.754 111.032V109.432H837.21V111.032H835.754ZM837.21 112.536V121H835.754V112.536H837.21ZM844.743 112.536H846.215L842.999 121H841.543L838.327 112.536H839.879L842.311 119.176L844.743 112.536ZM850.619 121.16C848.219 121.16 846.619 119.384 846.619 116.712C846.619 114.232 848.299 112.376 850.571 112.376C851.803 112.376 852.811 112.872 853.515 113.72C854.203 114.568 854.459 115.592 854.459 116.552C854.459 116.744 854.443 116.936 854.427 117.128H848.075C848.107 117.64 848.203 118.072 848.379 118.44C848.779 119.336 849.563 119.864 850.667 119.864C851.963 119.864 852.827 119.208 853.083 118.04H854.443C854.043 120.04 852.603 121.16 850.619 121.16ZM848.091 116.12H852.971C852.907 114.632 851.995 113.56 850.571 113.56C849.547 113.56 848.811 114.12 848.379 115.016C848.235 115.32 848.139 115.688 848.091 116.12ZM857.506 108.84V121H856.05V108.84H857.506ZM870.304 117.208V118.472H868.832V121H867.472V118.472H862.24V117.464L867.824 109.464H868.832V117.208H870.304ZM867.472 111.928L863.904 117.208H867.472V111.928Z" fill="#FFFFEE"/>
<path d="M830.784 142.16H828.304V147H825.644V132.56H830.784C834.124 132.56 836.284 134.34 836.284 137.34C836.284 139.4 835.324 140.82 833.704 141.6C833.624 141.62 833.544 141.66 833.484 141.68L836.964 147H833.884L830.824 142.16H830.784ZM830.964 134.92H828.304V139.72H830.964C832.464 139.72 833.604 138.84 833.604 137.24C833.604 135.74 832.544 134.92 830.964 134.92ZM841.351 144.52H848.851V147H838.711V132.64H848.851V135.12H841.351L841.331 138.58H848.851V141.06H841.331L841.351 144.52ZM859.663 144.52V147H850.663V132.64H853.323V144.52H859.663ZM863.871 144.52H871.371V147H861.231V132.64H871.371V135.12H863.871L863.851 138.58H871.371V141.06H863.851L863.871 144.52ZM883.143 132.64H885.843L880.603 147H877.743L872.523 132.64H875.403L879.243 143.72L883.143 132.64ZM886.946 147H884.086L889.526 132.64H892.406L897.806 147H894.786L893.726 144.08H888.006L886.946 147ZM890.886 136.18L888.866 141.7H892.886L890.886 136.18ZM911.181 147H908.041L901.721 136.54V147H899.101V132.64H902.481L908.541 142.7V132.64H911.181V147ZM919.705 135.12V147H917.045V135.12H912.485V132.64H924.325V135.12H919.705ZM928.324 144.52H935.824V147H925.684V132.64H935.824V135.12H928.324L928.304 138.58H935.824V141.06H928.304L928.324 144.52Z" fill="#FFFFEE"/>
<rect x="560.5" y="183" width="216.307" height="75" rx="12" fill="#9364FF"/>
<path d="M588.413 212H586.637L580.621 202.688V212H579.133V200.512H581.037L586.941 209.632V200.512H588.413V212ZM590.43 202.032V200.432H591.886V202.032H590.43ZM591.886 203.536V212H590.43V203.536H591.886ZM599.419 203.536H600.891L597.675 212H596.219L593.003 203.536H594.555L596.987 210.176L599.419 203.536ZM605.294 212.16C602.894 212.16 601.294 210.384 601.294 207.712C601.294 205.232 602.974 203.376 605.246 203.376C606.478 203.376 607.486 203.872 608.19 204.72C608.878 205.568 609.134 206.592 609.134 207.552C609.134 207.744 609.118 207.936 609.102 208.128H602.75C602.782 208.64 602.878 209.072 603.054 209.44C603.454 210.336 604.238 210.864 605.342 210.864C606.638 210.864 607.502 210.208 607.758 209.04H609.118C608.718 211.04 607.278 212.16 605.294 212.16ZM602.766 207.12H607.646C607.582 205.632 606.67 204.56 605.246 204.56C604.222 204.56 603.486 205.12 603.054 206.016C602.91 206.32 602.814 206.688 602.766 207.12ZM612.182 199.84V212H610.726V199.84H612.182ZM621.044 212.144C618.836 212.144 617.332 210.816 617.3 208.8H618.628C618.692 210.144 619.636 210.976 621.044 210.976C622.516 210.976 623.396 210.096 623.396 208.48C623.396 206.992 622.404 206.096 620.804 206.096H619.716V204.928L622.932 201.84V201.792H617.3V200.512L624.372 200.48V202.048L621.252 205.056C622.58 205.088 623.508 205.44 624.036 206.096C624.548 206.752 624.804 207.536 624.804 208.448C624.804 209.92 624.148 211.152 623.012 211.712C622.452 212 621.796 212.144 621.044 212.144Z" fill="#FFFFEE"/>
<path d="M587.219 238.3C583.219 238.3 580.059 235 580.059 230.8C580.059 226.62 583.219 223.34 587.219 223.34C590.879 223.34 593.859 225.8 594.339 229.4H591.499C591.159 227.36 589.379 225.88 587.239 225.88C584.659 225.88 582.839 227.92 582.839 230.8C582.839 233.72 584.619 235.76 587.239 235.76C589.439 235.76 591.099 234.32 591.499 232.22H594.339C593.819 235.82 590.899 238.3 587.219 238.3ZM605.003 235.52V238H596.003V223.64H598.663V235.52H605.003ZM608.731 238H605.871L611.311 223.64H614.191L619.591 238H616.571L615.511 235.08H609.791L608.731 238ZM612.671 227.18L610.651 232.7H614.671L612.671 227.18ZM626.026 233.16H623.546V238H620.886V223.56H626.026C629.366 223.56 631.526 225.34 631.526 228.34C631.526 230.4 630.566 231.82 628.946 232.6C628.866 232.62 628.786 232.66 628.726 232.68L632.206 238H629.126L626.066 233.16H626.026ZM626.206 225.92H623.546V230.72H626.206C627.706 230.72 628.846 229.84 628.846 228.24C628.846 226.74 627.786 225.92 626.206 225.92ZM640.894 238.3C636.754 238.3 633.574 235.06 633.574 230.8C633.574 226.54 636.754 223.34 640.894 223.34C645.054 223.34 648.234 226.54 648.234 230.8C648.234 235.06 645.054 238.3 640.894 238.3ZM640.894 235.8C643.734 235.8 645.534 233.58 645.534 230.8C645.534 228.04 643.734 225.84 640.894 225.84C638.074 225.84 636.274 228.04 636.274 230.8C636.274 233.58 638.074 235.8 640.894 235.8Z" fill="#FFFFEE"/>
<rect x="1053.7" y="2.5" width="215.307" height="74" rx="11.5" fill="#6F31FF" stroke="#1A0B33"/>
<path d="M1081.11 31H1079.33L1073.32 21.688V31H1071.83V19.512H1073.73L1079.64 28.632V19.512H1081.11V31ZM1083.13 21.032V19.432H1084.58V21.032H1083.13ZM1084.58 22.536V31H1083.13V22.536H1084.58ZM1092.11 22.536H1093.59L1090.37 31H1088.91L1085.7 22.536H1087.25L1089.68 29.176L1092.11 22.536ZM1097.99 31.16C1095.59 31.16 1093.99 29.384 1093.99 26.712C1093.99 24.232 1095.67 22.376 1097.94 22.376C1099.17 22.376 1100.18 22.872 1100.89 23.72C1101.57 24.568 1101.83 25.592 1101.83 26.552C1101.83 26.744 1101.81 26.936 1101.8 27.128H1095.45C1095.48 27.64 1095.57 28.072 1095.75 28.44C1096.15 29.336 1096.93 29.864 1098.04 29.864C1099.33 29.864 1100.2 29.208 1100.45 28.04H1101.81C1101.41 30.04 1099.97 31.16 1097.99 31.16ZM1095.46 26.12H1100.34C1100.28 24.632 1099.37 23.56 1097.94 23.56C1096.92 23.56 1096.18 24.12 1095.75 25.016C1095.61 25.32 1095.51 25.688 1095.46 26.12ZM1104.88 18.84V31H1103.42V18.84H1104.88ZM1113.55 31.16C1111.5 31.16 1109.93 29.704 1109.87 27.704H1111.23C1111.34 29.032 1112.25 29.848 1113.53 29.848C1115.12 29.848 1115.95 28.776 1115.95 27.352C1115.95 26.04 1115.05 24.92 1113.55 24.92C1112.54 24.92 1111.77 25.416 1111.34 26.136L1110.08 26.088L1111.04 19.512H1116.73V20.824H1112.03L1111.48 24.488C1112.11 23.912 1112.96 23.656 1113.74 23.656C1116.04 23.656 1117.36 25.352 1117.36 27.336C1117.36 29.432 1115.93 31.16 1113.55 31.16Z" fill="#FFFFEE"/>
<path d="M1077.89 57H1073.07V42.64H1077.89C1082.47 42.64 1085.17 45.54 1085.17 49.76C1085.17 53.9 1082.35 57 1077.89 57ZM1077.77 45.18H1075.71V54.46H1077.77C1080.85 54.46 1082.47 52.62 1082.47 49.76C1082.47 46.92 1080.85 45.18 1077.77 45.18ZM1089.56 42.64V57H1086.9V42.64H1089.56ZM1094.21 51.06V57H1091.59V42.64H1101.55V45.12H1094.21V48.58H1101.55V51.06H1094.21ZM1105.81 54.52H1113.31V57H1103.17V42.64H1113.31V45.12H1105.81L1105.79 48.58H1113.31V51.06H1105.79L1105.81 54.52ZM1120.26 52.16H1117.78V57H1115.12V42.56H1120.26C1123.6 42.56 1125.76 44.34 1125.76 47.34C1125.76 49.4 1124.8 50.82 1123.18 51.6C1123.1 51.62 1123.02 51.66 1122.96 51.68L1126.44 57H1123.36L1120.3 52.16H1120.26ZM1120.44 44.92H1117.78V49.72H1120.44C1121.94 49.72 1123.08 48.84 1123.08 47.24C1123.08 45.74 1122.02 44.92 1120.44 44.92ZM1130.83 54.52H1138.33V57H1128.19V42.64H1138.33V45.12H1130.83L1130.81 48.58H1138.33V51.06H1130.81L1130.83 54.52ZM1152.22 57H1149.08L1142.76 46.54V57H1140.14V42.64H1143.52L1149.58 52.7V42.64H1152.22V57ZM1161.03 57.3C1157.03 57.3 1153.87 54 1153.87 49.8C1153.87 45.62 1157.03 42.34 1161.03 42.34C1164.69 42.34 1167.67 44.8 1168.15 48.4H1165.31C1164.97 46.36 1163.19 44.88 1161.05 44.88C1158.47 44.88 1156.65 46.92 1156.65 49.8C1156.65 52.72 1158.43 54.76 1161.05 54.76C1163.25 54.76 1164.91 53.32 1165.31 51.22H1168.15C1167.63 54.82 1164.71 57.3 1161.03 57.3ZM1172.53 42.64V57H1169.87V42.64H1172.53ZM1176.72 57H1173.86L1179.3 42.64H1182.18L1187.58 57H1184.56L1183.5 54.08H1177.78L1176.72 57ZM1180.66 46.18L1178.64 51.7H1182.66L1180.66 46.18ZM1193.75 57H1188.93V42.64H1193.75C1198.33 42.64 1201.03 45.54 1201.03 49.76C1201.03 53.9 1198.21 57 1193.75 57ZM1193.63 45.18H1191.57V54.46H1193.63C1196.71 54.46 1198.33 52.62 1198.33 49.76C1198.33 46.92 1196.71 45.18 1193.63 45.18ZM1209.7 57.3C1205.56 57.3 1202.38 54.06 1202.38 49.8C1202.38 45.54 1205.56 42.34 1209.7 42.34C1213.86 42.34 1217.04 45.54 1217.04 49.8C1217.04 54.06 1213.86 57.3 1209.7 57.3ZM1209.7 54.8C1212.54 54.8 1214.34 52.58 1214.34 49.8C1214.34 47.04 1212.54 44.84 1209.7 44.84C1206.88 44.84 1205.08 47.04 1205.08 49.8C1205.08 52.58 1206.88 54.8 1209.7 54.8Z" fill="#FFFFEE"/>
<path d="M331.241 293H329.465L323.449 283.688V293H321.961V281.512H323.865L329.769 290.632V281.512H331.241V293ZM333.258 283.032V281.432H334.714V283.032H333.258ZM334.714 284.536V293H333.258V284.536H334.714ZM342.247 284.536H343.719L340.503 293H339.047L335.831 284.536H337.383L339.815 291.176L342.247 284.536ZM348.123 293.16C345.723 293.16 344.123 291.384 344.123 288.712C344.123 286.232 345.803 284.376 348.075 284.376C349.307 284.376 350.315 284.872 351.019 285.72C351.707 286.568 351.963 287.592 351.963 288.552C351.963 288.744 351.947 288.936 351.931 289.128H345.579C345.611 289.64 345.707 290.072 345.883 290.44C346.283 291.336 347.067 291.864 348.171 291.864C349.467 291.864 350.331 291.208 350.587 290.04H351.947C351.547 292.04 350.107 293.16 348.123 293.16ZM345.595 288.12H350.475C350.411 286.632 349.499 285.56 348.075 285.56C347.051 285.56 346.315 286.12 345.883 287.016C345.739 287.32 345.643 287.688 345.595 288.12ZM355.01 280.84V293H353.554V280.84H355.01ZM362.336 291.752H366.944V293H360.176V292.216L363.6 287.976C364.432 286.952 364.864 286.424 365.168 285.736C365.312 285.4 365.392 285.064 365.392 284.728C365.392 283.464 364.576 282.68 363.376 282.68C362.112 282.68 361.264 283.528 361.264 284.792H359.92C359.92 282.856 361.376 281.448 363.424 281.448C365.376 281.448 366.816 282.776 366.816 284.616C366.816 286.056 366.336 286.584 364.656 288.696L362.336 291.752Z" fill="#A0A0A0"/>
<path d="M330.051 319.3C326.051 319.3 322.891 316 322.891 311.8C322.891 307.62 326.051 304.34 330.051 304.34C333.711 304.34 336.691 306.8 337.171 310.4H334.331C333.991 308.36 332.211 306.88 330.071 306.88C327.491 306.88 325.671 308.92 325.671 311.8C325.671 314.72 327.451 316.76 330.071 316.76C332.271 316.76 333.931 315.32 334.331 313.22H337.171C336.651 316.82 333.731 319.3 330.051 319.3ZM345.835 319.3C341.695 319.3 338.515 316.06 338.515 311.8C338.515 307.54 341.695 304.34 345.835 304.34C349.995 304.34 353.175 307.54 353.175 311.8C353.175 316.06 349.995 319.3 345.835 319.3ZM345.835 316.8C348.675 316.8 350.475 314.58 350.475 311.8C350.475 309.04 348.675 306.84 345.835 306.84C343.015 306.84 341.215 309.04 341.215 311.8C341.215 314.58 343.015 316.8 345.835 316.8ZM363.533 319H361.313L357.393 309.06V319H354.773V304.64H358.313L362.433 314.82L366.573 304.64H370.093V319H367.473V309.02L363.533 319ZM377.159 314.16H374.679V319H372.019V304.56H377.159C380.499 304.56 382.659 306.34 382.659 309.34C382.659 312.4 380.499 314.16 377.159 314.16ZM377.339 306.92H374.679V311.72H377.339C378.839 311.72 379.979 310.84 379.979 309.24C379.979 307.74 378.919 306.92 377.339 306.92ZM389.366 314.16H386.886V319H384.226V304.56H389.366C392.706 304.56 394.866 306.34 394.866 309.34C394.866 311.4 393.906 312.82 392.286 313.6C392.206 313.62 392.126 313.66 392.066 313.68L395.546 319H392.466L389.406 314.16H389.366ZM389.546 306.92H386.886V311.72H389.546C391.046 311.72 392.186 310.84 392.186 309.24C392.186 307.74 391.126 306.92 389.546 306.92ZM399.933 316.52H407.433V319H397.293V304.64H407.433V307.12H399.933L399.913 310.58H407.433V313.06H399.913L399.933 316.52ZM421.325 319H418.185L411.865 308.54V319H409.245V304.64H412.625L418.685 314.7V304.64H421.325V319ZM434.43 314.66C434.43 317.28 432.31 319.2 428.77 319.2C426.43 319.2 424.63 318.38 423.69 316.94C423.23 316.24 422.97 315.46 422.93 314.6H425.61C425.71 316.12 426.79 316.84 428.73 316.84C430.57 316.84 431.73 316.2 431.73 314.92C431.73 313.88 431.01 313.42 429.55 313.12L427.27 312.7C425.99 312.46 425.07 312.08 424.37 311.44C423.65 310.82 423.21 309.94 423.21 308.74C423.21 307.08 424.15 305.72 425.77 305C426.57 304.64 427.47 304.46 428.45 304.46H428.55C431.13 304.46 432.59 305.28 433.47 306.64C433.91 307.34 434.15 308.12 434.21 308.98H431.49C431.41 307.58 430.43 306.74 428.55 306.74C426.79 306.74 425.79 307.5 425.79 308.64C425.79 309.86 426.77 310.18 428.13 310.46L430.51 310.92C432.99 311.4 434.43 312.52 434.43 314.66ZM438.938 304.64V319H436.278V304.64H438.938ZM451.425 314.82C451.425 317.46 449.465 319 446.405 319H440.965V304.64H446.165C449.125 304.64 450.905 306 450.905 308.42C450.905 309.76 450.145 310.86 448.805 311.5C450.505 312.04 451.425 313.22 451.425 314.82ZM445.965 306.92H443.525V310.5H445.965C447.405 310.5 448.285 309.88 448.285 308.76C448.285 307.54 447.405 306.92 445.965 306.92ZM446.225 312.72H443.525V316.64H446.225C447.805 316.64 448.805 315.88 448.805 314.66C448.805 313.44 447.805 312.72 446.225 312.72ZM462.308 316.52V319H453.308V304.64H455.968V316.52H462.308ZM466.515 316.52H474.015V319H463.875V304.64H474.015V307.12H466.515L466.495 310.58H474.015V313.06H466.495L466.515 316.52Z" fill="#A0A0A0"/>
<rect x="303.832" y="264.5" width="215.307" height="74" rx="11.5" stroke="#3F3F50"/>
<g filter="url(#filter1_n_4487_11556)">
<path d="M251.5 520H0L251.5 482V520Z" fill="#27273F"/>
</g>
<line x1="251" y1="519" x2="251" y2="364" stroke="#3F3F50" stroke-dasharray="5 5"/>
<path d="M62.8033 361H61.0273L55.0113 351.688V361H53.5233V349.512H55.4273L61.3313 358.632V349.512H62.8033V361ZM64.8205 351.032V349.432H66.2765V351.032H64.8205ZM66.2765 352.536V361H64.8205V352.536H66.2765ZM73.8093 352.536H75.2812L72.0653 361H70.6093L67.3933 352.536H68.9453L71.3773 359.176L73.8093 352.536ZM79.685 361.16C77.285 361.16 75.685 359.384 75.685 356.712C75.685 354.232 77.365 352.376 79.637 352.376C80.869 352.376 81.877 352.872 82.581 353.72C83.269 354.568 83.525 355.592 83.525 356.552C83.525 356.744 83.509 356.936 83.493 357.128H77.141C77.173 357.64 77.269 358.072 77.445 358.44C77.845 359.336 78.629 359.864 79.733 359.864C81.029 359.864 81.893 359.208 82.149 358.04H83.509C83.109 360.04 81.669 361.16 79.685 361.16ZM77.157 356.12H82.037C81.973 354.632 81.061 353.56 79.637 353.56C78.613 353.56 77.877 354.12 77.445 355.016C77.301 355.32 77.205 355.688 77.157 356.12ZM86.5726 348.84V361H85.1166V348.84H86.5726ZM94.6666 349.512V361H93.2906V350.696H91.1786V349.512H94.6666Z" fill="#A0A0A0"/>
<path d="M61.6061 387.3C57.6061 387.3 54.4461 384 54.4461 379.8C54.4461 375.62 57.6061 372.34 61.6061 372.34C65.2661 372.34 68.2461 374.8 68.7261 378.4H65.8861C65.5461 376.36 63.7661 374.88 61.6261 374.88C59.0461 374.88 57.2261 376.92 57.2261 379.8C57.2261 382.72 59.0061 384.76 61.6261 384.76C63.8261 384.76 65.4861 383.32 65.8861 381.22H68.7261C68.2061 384.82 65.2861 387.3 61.6061 387.3ZM77.3897 387.3C73.2497 387.3 70.0697 384.06 70.0697 379.8C70.0697 375.54 73.2497 372.34 77.3897 372.34C81.5497 372.34 84.7297 375.54 84.7297 379.8C84.7297 384.06 81.5497 387.3 77.3897 387.3ZM77.3897 384.8C80.2297 384.8 82.0297 382.58 82.0297 379.8C82.0297 377.04 80.2297 374.84 77.3897 374.84C74.5697 374.84 72.7697 377.04 72.7697 379.8C72.7697 382.58 74.5697 384.8 77.3897 384.8ZM98.4072 387H95.2672L88.9472 376.54V387H86.3272V372.64H89.7072L95.7672 382.7V372.64H98.4072V387ZM102.992 381.06V387H100.372V372.64H110.332V375.12H102.992V378.58H110.332V381.06H102.992ZM120.674 372.64H123.334V381.68C123.334 385.02 121.214 387.3 117.614 387.3C113.994 387.3 111.874 385.02 111.874 381.68V372.64H114.534V381.82C114.534 383.6 115.574 384.8 117.614 384.8C119.674 384.8 120.674 383.6 120.674 381.82V372.64ZM136.433 382.66C136.433 385.28 134.313 387.2 130.773 387.2C128.433 387.2 126.633 386.38 125.693 384.94C125.233 384.24 124.973 383.46 124.933 382.6H127.613C127.713 384.12 128.793 384.84 130.733 384.84C132.573 384.84 133.733 384.2 133.733 382.92C133.733 381.88 133.013 381.42 131.553 381.12L129.273 380.7C127.993 380.46 127.073 380.08 126.373 379.44C125.653 378.82 125.213 377.94 125.213 376.74C125.213 375.08 126.153 373.72 127.773 373C128.573 372.64 129.473 372.46 130.453 372.46H130.553C133.133 372.46 134.593 373.28 135.473 374.64C135.913 375.34 136.153 376.12 136.213 376.98H133.493C133.413 375.58 132.433 374.74 130.553 374.74C128.793 374.74 127.793 375.5 127.793 376.64C127.793 377.86 128.773 378.18 130.133 378.46L132.513 378.92C134.993 379.4 136.433 380.52 136.433 382.66ZM144.831 387.3C140.691 387.3 137.511 384.06 137.511 379.8C137.511 375.54 140.691 372.34 144.831 372.34C148.991 372.34 152.171 375.54 152.171 379.8C152.171 384.06 148.991 387.3 144.831 387.3ZM144.831 384.8C147.671 384.8 149.471 382.58 149.471 379.8C149.471 377.04 147.671 374.84 144.831 374.84C142.011 374.84 140.211 377.04 140.211 379.8C140.211 382.58 142.011 384.8 144.831 384.8Z" fill="#A0A0A0"/>
<rect x="35.3906" y="332.5" width="215.307" height="74" rx="11.5" stroke="#3F3F50"/>
<line y1="-0.5" x2="199.001" y2="-0.5" transform="matrix(0.00278704 -0.999996 0.999997 0.00226502 519.637 519)" stroke="#3F3F50" stroke-dasharray="5 5"/>
<line y1="-0.5" x2="275" y2="-0.5" transform="matrix(0.00201679 -0.999998 0.999999 0.00163904 776.984 519)" stroke="#A0A0A0" stroke-dasharray="5 5"/>
<line x1="1021.08" y1="519" x2="1021.08" y2="167" stroke="#BF9FFF" stroke-dasharray="5 5"/>
<line x1="1265.67" y1="519" x2="1265.67" y2="77" stroke="#BF9FFF" stroke-dasharray="5 5"/>
<g filter="url(#filter2_n_4487_11556)">
<path d="M777.5 519V373.5C875.858 346.719 928.175 328.369 1019.5 290V519H777.5Z" fill="#877BFF"/>
</g>
<g filter="url(#filter3_n_4487_11556)">
<path d="M775.5 373C677.442 403.079 621.824 416.513 520.5 434.629V520H775.5V373Z" fill="#9364FF"/>
</g>
<g filter="url(#filter4_n_4487_11556)">
<path d="M1264.5 169C1167.51 225.697 1114.41 252.222 1022.5 289V519H1264.5V169Z" fill="#6F31FF"/>
</g>
<defs>
<filter id="filter0_n_4487_11556" x="0.296875" y="169.406" width="1266.27" height="351.094" filterUnits="userSpaceOnUse" color-interpolation-filters="sRGB">
<feFlood flood-opacity="0" result="BackgroundImageFix"/>
<feBlend mode="normal" in="SourceGraphic" in2="BackgroundImageFix" result="shape"/>
<feTurbulence type="fractalNoise" baseFrequency="2 2" stitchTiles="stitch" numOctaves="3" result="noise" seed="8092" />
<feColorMatrix in="noise" type="luminanceToAlpha" result="alphaNoise" />
<feComponentTransfer in="alphaNoise" result="coloredNoise1">
<feFuncA type="discrete" tableValues="1 1 1 1 1 1 1 1 1 1 1 1 1 1 1 1 1 1 1 1 1 1 1 1 1 1 1 1 1 1 1 1 1 1 1 1 1 1 1 1 1 1 1 1 1 1 1 1 1 1 1 0 0 0 0 0 0 0 0 0 0 0 0 0 0 0 0 0 0 0 0 0 0 0 0 0 0 0 0 0 0 0 0 0 0 0 0 0 0 0 0 0 0 0 0 0 0 0 0 0 "/>
</feComponentTransfer>
<feComposite operator="in" in2="shape" in="coloredNoise1" result="noise1Clipped" />
<feFlood flood-color="rgba(0, 0, 0, 0.25)" result="color1Flood" />
<feComposite operator="in" in2="noise1Clipped" in="color1Flood" result="color1" />
<feMerge result="effect1_noise_4487_11556">
<feMergeNode in="shape" />
<feMergeNode in="color1" />
</feMerge>
</filter>
<filter id="filter1_n_4487_11556" x="0" y="482" width="251.5" height="38" filterUnits="userSpaceOnUse" color-interpolation-filters="sRGB">
<feFlood flood-opacity="0" result="BackgroundImageFix"/>
<feBlend mode="normal" in="SourceGraphic" in2="BackgroundImageFix" result="shape"/>
<feTurbulence type="fractalNoise" baseFrequency="2 2" stitchTiles="stitch" numOctaves="3" result="noise" seed="4536" />
<feColorMatrix in="noise" type="luminanceToAlpha" result="alphaNoise" />
<feComponentTransfer in="alphaNoise" result="coloredNoise1">
<feFuncA type="discrete" tableValues="1 1 1 1 1 1 1 1 1 1 1 1 1 1 1 1 1 1 1 1 1 1 1 1 1 1 1 1 1 1 1 1 1 1 1 1 1 1 1 1 1 1 1 1 1 1 1 1 1 1 1 0 0 0 0 0 0 0 0 0 0 0 0 0 0 0 0 0 0 0 0 0 0 0 0 0 0 0 0 0 0 0 0 0 0 0 0 0 0 0 0 0 0 0 0 0 0 0 0 0 "/>
</feComponentTransfer>
<feComposite operator="in" in2="shape" in="coloredNoise1" result="noise1Clipped" />
<feFlood flood-color="rgba(0, 0, 0, 0.25)" result="color1Flood" />
<feComposite operator="in" in2="noise1Clipped" in="color1Flood" result="color1" />
<feMerge result="effect1_noise_4487_11556">
<feMergeNode in="shape" />
<feMergeNode in="color1" />
</feMerge>
</filter>
<filter id="filter2_n_4487_11556" x="777.5" y="290" width="242" height="229" filterUnits="userSpaceOnUse" color-interpolation-filters="sRGB">
<feFlood flood-opacity="0" result="BackgroundImageFix"/>
<feBlend mode="normal" in="SourceGraphic" in2="BackgroundImageFix" result="shape"/>
<feTurbulence type="fractalNoise" baseFrequency="1 1" stitchTiles="stitch" numOctaves="3" result="noise" seed="9973" />
<feColorMatrix in="noise" type="luminanceToAlpha" result="alphaNoise" />
<feComponentTransfer in="alphaNoise" result="coloredNoise1">
<feFuncA type="discrete" tableValues="1 1 1 1 1 1 1 1 1 1 1 1 1 1 1 1 1 1 1 1 1 1 1 1 1 1 1 1 1 1 1 1 1 1 1 1 1 1 1 1 1 1 1 1 1 1 1 1 1 1 1 0 0 0 0 0 0 0 0 0 0 0 0 0 0 0 0 0 0 0 0 0 0 0 0 0 0 0 0 0 0 0 0 0 0 0 0 0 0 0 0 0 0 0 0 0 0 0 0 0 "/>
</feComponentTransfer>
<feComposite operator="in" in2="shape" in="coloredNoise1" result="noise1Clipped" />
<feFlood flood-color="rgba(0, 0, 0, 0.25)" result="color1Flood" />
<feComposite operator="in" in2="noise1Clipped" in="color1Flood" result="color1" />
<feMerge result="effect1_noise_4487_11556">
<feMergeNode in="shape" />
<feMergeNode in="color1" />
</feMerge>
</filter>
<filter id="filter3_n_4487_11556" x="520.5" y="373" width="255" height="147" filterUnits="userSpaceOnUse" color-interpolation-filters="sRGB">
<feFlood flood-opacity="0" result="BackgroundImageFix"/>
<feBlend mode="normal" in="SourceGraphic" in2="BackgroundImageFix" result="shape"/>
<feTurbulence type="fractalNoise" baseFrequency="1 1" stitchTiles="stitch" numOctaves="3" result="noise" seed="6733" />
<feColorMatrix in="noise" type="luminanceToAlpha" result="alphaNoise" />
<feComponentTransfer in="alphaNoise" result="coloredNoise1">
<feFuncA type="discrete" tableValues="1 1 1 1 1 1 1 1 1 1 1 1 1 1 1 1 1 1 1 1 1 1 1 1 1 1 1 1 1 1 1 1 1 1 1 1 1 1 1 1 1 1 1 1 1 1 1 1 1 1 1 0 0 0 0 0 0 0 0 0 0 0 0 0 0 0 0 0 0 0 0 0 0 0 0 0 0 0 0 0 0 0 0 0 0 0 0 0 0 0 0 0 0 0 0 0 0 0 0 0 "/>
</feComponentTransfer>
<feComposite operator="in" in2="shape" in="coloredNoise1" result="noise1Clipped" />
<feFlood flood-color="rgba(0, 0, 0, 0.25)" result="color1Flood" />
<feComposite operator="in" in2="noise1Clipped" in="color1Flood" result="color1" />
<feMerge result="effect1_noise_4487_11556">
<feMergeNode in="shape" />
<feMergeNode in="color1" />
</feMerge>
</filter>
<filter id="filter4_n_4487_11556" x="1022.5" y="169" width="242" height="350" filterUnits="userSpaceOnUse" color-interpolation-filters="sRGB">
<feFlood flood-opacity="0" result="BackgroundImageFix"/>
<feBlend mode="normal" in="SourceGraphic" in2="BackgroundImageFix" result="shape"/>
<feTurbulence type="fractalNoise" baseFrequency="1 1" stitchTiles="stitch" numOctaves="3" result="noise" seed="8093" />
<feColorMatrix in="noise" type="luminanceToAlpha" result="alphaNoise" />
<feComponentTransfer in="alphaNoise" result="coloredNoise1">
<feFuncA type="discrete" tableValues="1 1 1 1 1 1 1 1 1 1 1 1 1 1 1 1 1 1 1 1 1 1 1 1 1 1 1 1 1 1 1 1 1 1 1 1 1 1 1 1 1 1 1 1 1 1 1 1 1 1 1 0 0 0 0 0 0 0 0 0 0 0 0 0 0 0 0 0 0 0 0 0 0 0 0 0 0 0 0 0 0 0 0 0 0 0 0 0 0 0 0 0 0 0 0 0 0 0 0 0 "/>
</feComponentTransfer>
<feComposite operator="in" in2="shape" in="coloredNoise1" result="noise1Clipped" />
<feFlood flood-color="rgba(0, 0, 0, 0.25)" result="color1Flood" />
<feComposite operator="in" in2="noise1Clipped" in="color1Flood" result="color1" />
<feMerge result="effect1_noise_4487_11556">
<feMergeNode in="shape" />
<feMergeNode in="color1" />
</feMerge>
</filter>
</defs>
</svg>
