<svg width="472" height="476" viewBox="0 0 472 476" fill="none" xmlns="http://www.w3.org/2000/svg">
<g filter="url(#filter0_n_4752_7452)">
<path d="M470 473H29C251.55 386.535 354.415 316.718 470 126V473Z" fill="#27273F"/>
<path d="M470 473H29C251.55 386.535 354.415 316.718 470 126V473Z" stroke="#27273F" stroke-width="3"/>
</g>
<g filter="url(#filter1_n_4752_7452)">
<path d="M116.826 474H29.0391L116.826 436V474Z" fill="#27273F"/>
</g>
<line x1="116.324" y1="473" x2="116.324" y2="351" stroke="#3F3F50" stroke-dasharray="5 5"/>
<rect x="0.5" y="330.5" width="115.253" height="44" rx="11.5" stroke="#3F3F50"/>
<path d="M12.2911 347V339.9H13.1511V346.6L12.7211 346.16H16.7011V347H12.2911ZM19.6513 347.12C19.1513 347.12 18.7179 347.007 18.3513 346.78C17.9913 346.553 17.7113 346.233 17.5113 345.82C17.3179 345.4 17.2213 344.91 17.2213 344.35C17.2213 343.79 17.3179 343.303 17.5113 342.89C17.7113 342.477 17.9879 342.157 18.3413 341.93C18.7013 341.697 19.1246 341.58 19.6113 341.58C20.0713 341.58 20.4779 341.69 20.8313 341.91C21.1846 342.123 21.4579 342.437 21.6513 342.85C21.8513 343.263 21.9513 343.767 21.9513 344.36V344.61H18.1012C18.1346 345.177 18.2846 345.603 18.5513 345.89C18.8246 346.177 19.1913 346.32 19.6513 346.32C19.9979 346.32 20.2813 346.24 20.5013 346.08C20.7279 345.913 20.8846 345.697 20.9713 345.43L21.8713 345.5C21.7313 345.973 21.4646 346.363 21.0713 346.67C20.6846 346.97 20.2113 347.12 19.6513 347.12ZM18.1012 343.87H21.0313C20.9913 343.357 20.8413 342.98 20.5813 342.74C20.3279 342.5 20.0046 342.38 19.6113 342.38C19.2046 342.38 18.8679 342.507 18.6013 342.76C18.3413 343.007 18.1746 343.377 18.1012 343.87ZM24.2828 347L22.3528 341.7H23.2728L24.8128 346.14L26.3528 341.7H27.2728L25.3428 347H24.2828ZM30.1005 347.12C29.6005 347.12 29.1671 347.007 28.8005 346.78C28.4405 346.553 28.1605 346.233 27.9605 345.82C27.7671 345.4 27.6705 344.91 27.6705 344.35C27.6705 343.79 27.7671 343.303 27.9605 342.89C28.1605 342.477 28.4371 342.157 28.7905 341.93C29.1505 341.697 29.5738 341.58 30.0605 341.58C30.5205 341.58 30.9271 341.69 31.2805 341.91C31.6338 342.123 31.9071 342.437 32.1005 342.85C32.3005 343.263 32.4005 343.767 32.4005 344.36V344.61H28.5505C28.5838 345.177 28.7338 345.603 29.0005 345.89C29.2738 346.177 29.6405 346.32 30.1005 346.32C30.4471 346.32 30.7305 346.24 30.9505 346.08C31.1771 345.913 31.3338 345.697 31.4205 345.43L32.3205 345.5C32.1805 345.973 31.9138 346.363 31.5205 346.67C31.1338 346.97 30.6605 347.12 30.1005 347.12ZM28.5505 343.87H31.4805C31.4405 343.357 31.2905 342.98 31.0305 342.74C30.7771 342.5 30.4538 342.38 30.0605 342.38C29.6538 342.38 29.3171 342.507 29.0505 342.76C28.7905 343.007 28.6238 343.377 28.5505 343.87ZM34.6271 347C34.3204 347 34.0704 346.92 33.8771 346.76C33.6838 346.6 33.5871 346.347 33.5871 346V339.9H34.4271V345.93C34.4271 346.037 34.4538 346.12 34.5071 346.18C34.5671 346.233 34.6504 346.26 34.7571 346.26H35.2171V347H34.6271ZM39.8331 347V341.74H38.3531V341H38.9531C39.2131 341 39.4198 340.967 39.5731 340.9C39.7331 340.833 39.8465 340.72 39.9131 340.56C39.9798 340.4 40.0131 340.18 40.0131 339.9H40.6931V347H39.8331Z" fill="#3F3F50"/>
<path d="M16.9961 365.24C16.0261 365.24 15.1611 365.02 14.4011 364.58C13.6511 364.14 13.0611 363.505 12.6311 362.675C12.2111 361.845 12.0011 360.85 12.0011 359.69C12.0011 358.56 12.2061 357.58 12.6161 356.75C13.0261 355.91 13.6111 355.26 14.3711 354.8C15.1311 354.34 16.0211 354.11 17.0411 354.11C18.4311 354.11 19.5111 354.455 20.2811 355.145C21.0611 355.825 21.5611 356.8 21.7811 358.07L19.4111 358.16C19.2911 357.49 19.0311 356.97 18.6311 356.6C18.2311 356.22 17.7011 356.03 17.0411 356.03C16.4711 356.03 15.9861 356.18 15.5861 356.48C15.1861 356.78 14.8811 357.205 14.6711 357.755C14.4611 358.305 14.3561 358.95 14.3561 359.69C14.3561 360.44 14.4611 361.09 14.6711 361.64C14.8911 362.18 15.2011 362.595 15.6011 362.885C16.0011 363.175 16.4761 363.32 17.0261 363.32C17.7461 363.32 18.3011 363.12 18.6911 362.72C19.0911 362.31 19.3411 361.745 19.4411 361.025L21.8261 361.115C21.6861 361.985 21.4111 362.725 21.0011 363.335C20.5911 363.945 20.0511 364.415 19.3811 364.745C18.7211 365.075 17.9261 365.24 16.9961 365.24ZM28.2067 365.24C27.1267 365.24 26.1967 365.015 25.4167 364.565C24.6467 364.115 24.0517 363.475 23.6317 362.645C23.2217 361.815 23.0167 360.83 23.0167 359.69C23.0167 358.55 23.2217 357.565 23.6317 356.735C24.0517 355.895 24.6467 355.25 25.4167 354.8C26.1967 354.34 27.1267 354.11 28.2067 354.11C29.2867 354.11 30.2117 354.34 30.9817 354.8C31.7617 355.25 32.3567 355.895 32.7667 356.735C33.1867 357.565 33.3967 358.55 33.3967 359.69C33.3967 360.83 33.1867 361.815 32.7667 362.645C32.3567 363.475 31.7617 364.115 30.9817 364.565C30.2117 365.015 29.2867 365.24 28.2067 365.24ZM28.1917 363.32C28.7917 363.32 29.3017 363.18 29.7217 362.9C30.1517 362.61 30.4767 362.195 30.6967 361.655C30.9267 361.115 31.0417 360.46 31.0417 359.69C31.0417 358.92 30.9267 358.265 30.6967 357.725C30.4767 357.175 30.1517 356.755 29.7217 356.465C29.3017 356.175 28.7917 356.03 28.1917 356.03C27.6017 356.03 27.0967 356.175 26.6767 356.465C26.2567 356.755 25.9317 357.175 25.7017 357.725C25.4817 358.265 25.3717 358.92 25.3717 359.69C25.3717 360.46 25.4817 361.115 25.7017 361.655C25.9317 362.195 26.2567 362.61 26.6767 362.9C27.1067 363.18 27.6117 363.32 28.1917 363.32ZM34.9079 365V354.35H37.4279L41.6579 361.7V354.35H43.9379V365H41.3879L37.1879 357.905V365H34.9079ZM45.9528 365V354.35H53.3028V356.27H46.9728L48.2328 354.965V359.84L46.9728 358.85H53.0328V360.74H46.9728L48.2328 359.75V365H45.9528ZM59.1755 365.24C58.2755 365.24 57.4955 365.075 56.8355 364.745C56.1855 364.415 55.6805 363.945 55.3205 363.335C54.9605 362.715 54.7805 361.99 54.7805 361.16V354.335H57.0605V361.16C57.0605 361.85 57.2405 362.385 57.6005 362.765C57.9705 363.135 58.4955 363.32 59.1755 363.32C59.8555 363.32 60.3755 363.135 60.7355 362.765C61.0955 362.385 61.2755 361.85 61.2755 361.16V354.335H63.5555V361.16C63.5555 361.99 63.3755 362.715 63.0155 363.335C62.6655 363.945 62.1605 364.415 61.5005 364.745C60.8405 365.075 60.0655 365.24 59.1755 365.24ZM69.7674 365.24C68.8474 365.24 68.0574 365.085 67.3974 364.775C66.7374 364.465 66.2224 364.03 65.8524 363.47C65.4824 362.91 65.2724 362.25 65.2224 361.49L67.5174 361.385C67.5774 361.805 67.6974 362.165 67.8774 362.465C68.0674 362.755 68.3174 362.975 68.6274 363.125C68.9474 363.275 69.3374 363.35 69.7974 363.35C70.1774 363.35 70.4974 363.305 70.7574 363.215C71.0274 363.125 71.2324 362.99 71.3724 362.81C71.5124 362.62 71.5824 362.39 71.5824 362.12C71.5824 361.87 71.5224 361.655 71.4024 361.475C71.2824 361.285 71.0524 361.115 70.7124 360.965C70.3724 360.805 69.8724 360.65 69.2124 360.5C68.3024 360.29 67.5674 360.055 67.0074 359.795C66.4574 359.535 66.0574 359.21 65.8074 358.82C65.5574 358.42 65.4324 357.92 65.4324 357.32C65.4324 356.68 65.5874 356.12 65.8974 355.64C66.2174 355.16 66.6774 354.785 67.2774 354.515C67.8774 354.245 68.5924 354.11 69.4224 354.11C70.3024 354.11 71.0474 354.265 71.6574 354.575C72.2674 354.885 72.7424 355.31 73.0824 355.85C73.4324 356.39 73.6424 357.01 73.7124 357.71L71.4324 357.83C71.4024 357.46 71.3024 357.14 71.1324 356.87C70.9624 356.59 70.7324 356.375 70.4424 356.225C70.1524 356.075 69.8024 356 69.3924 356C68.8724 356 68.4624 356.115 68.1624 356.345C67.8724 356.575 67.7274 356.875 67.7274 357.245C67.7274 357.505 67.7924 357.725 67.9224 357.905C68.0624 358.075 68.2874 358.225 68.5974 358.355C68.9174 358.485 69.3674 358.61 69.9474 358.73C70.9374 358.93 71.7174 359.185 72.2874 359.495C72.8674 359.795 73.2774 360.155 73.5174 360.575C73.7574 360.995 73.8774 361.475 73.8774 362.015C73.8774 362.675 73.7074 363.25 73.3674 363.74C73.0374 364.22 72.5624 364.59 71.9424 364.85C71.3324 365.11 70.6074 365.24 69.7674 365.24ZM75.528 365V354.35H77.808V365H75.528ZM79.82 365V354.35H82.34L86.57 361.7V354.35H88.85V365H86.3L82.1 357.905V365H79.82ZM95.2756 365.24C94.2456 365.24 93.3656 365.005 92.6356 364.535C91.9056 364.065 91.3406 363.415 90.9406 362.585C90.5506 361.745 90.3556 360.78 90.3556 359.69C90.3556 358.62 90.5556 357.665 90.9556 356.825C91.3556 355.985 91.9306 355.325 92.6806 354.845C93.4406 354.355 94.3506 354.11 95.4106 354.11C96.3306 354.11 97.1056 354.265 97.7356 354.575C98.3756 354.875 98.8856 355.305 99.2656 355.865C99.6456 356.425 99.9106 357.085 100.061 357.845L97.7056 357.95C97.5956 357.36 97.3606 356.895 97.0006 356.555C96.6506 356.205 96.1256 356.03 95.4256 356.03C94.8156 356.03 94.3056 356.19 93.8956 356.51C93.4956 356.83 93.1956 357.265 92.9956 357.815C92.8056 358.365 92.7106 358.99 92.7106 359.69C92.7106 360.4 92.8056 361.03 92.9956 361.58C93.1956 362.12 93.4956 362.545 93.8956 362.855C94.3056 363.165 94.8306 363.32 95.4706 363.32C95.9406 363.32 96.3456 363.225 96.6856 363.035C97.0356 362.845 97.3056 362.585 97.4956 362.255C97.6956 361.925 97.8156 361.55 97.8556 361.13H95.4256V359.465H100.091V365H98.6806L98.5606 362.72L98.8306 362.84C98.7306 363.31 98.5106 363.725 98.1706 364.085C97.8306 364.445 97.4106 364.73 96.9106 364.94C96.4206 365.14 95.8756 365.24 95.2756 365.24Z" fill="#3F3F50"/>
<rect x="49.5" y="239.5" width="160" height="44" rx="11.5" stroke="#3F3F50"/>
<path d="M60.5411 257V249.9H61.4011V256.6L60.9711 256.16H64.9511V257H60.5411ZM67.9013 257.12C67.4013 257.12 66.9679 257.007 66.6013 256.78C66.2413 256.553 65.9613 256.233 65.7613 255.82C65.5679 255.4 65.4713 254.91 65.4713 254.35C65.4713 253.79 65.5679 253.303 65.7613 252.89C65.9613 252.477 66.2379 252.157 66.5913 251.93C66.9513 251.697 67.3746 251.58 67.8613 251.58C68.3213 251.58 68.7279 251.69 69.0813 251.91C69.4346 252.123 69.7079 252.437 69.9013 252.85C70.1013 253.263 70.2013 253.767 70.2013 254.36V254.61H66.3512C66.3846 255.177 66.5346 255.603 66.8013 255.89C67.0746 256.177 67.4413 256.32 67.9013 256.32C68.2479 256.32 68.5313 256.24 68.7513 256.08C68.9779 255.913 69.1346 255.697 69.2213 255.43L70.1213 255.5C69.9813 255.973 69.7146 256.363 69.3213 256.67C68.9346 256.97 68.4613 257.12 67.9013 257.12ZM66.3512 253.87H69.2813C69.2413 253.357 69.0913 252.98 68.8313 252.74C68.5779 252.5 68.2546 252.38 67.8613 252.38C67.4546 252.38 67.1179 252.507 66.8513 252.76C66.5913 253.007 66.4246 253.377 66.3512 253.87ZM72.5328 257L70.6028 251.7H71.5228L73.0628 256.14L74.6028 251.7H75.5228L73.5928 257H72.5328ZM78.3505 257.12C77.8505 257.12 77.4171 257.007 77.0505 256.78C76.6905 256.553 76.4105 256.233 76.2105 255.82C76.0171 255.4 75.9205 254.91 75.9205 254.35C75.9205 253.79 76.0171 253.303 76.2105 252.89C76.4105 252.477 76.6871 252.157 77.0405 251.93C77.4005 251.697 77.8238 251.58 78.3105 251.58C78.7705 251.58 79.1771 251.69 79.5305 251.91C79.8838 252.123 80.1571 252.437 80.3505 252.85C80.5505 253.263 80.6505 253.767 80.6505 254.36V254.61H76.8005C76.8338 255.177 76.9838 255.603 77.2505 255.89C77.5238 256.177 77.8905 256.32 78.3505 256.32C78.6971 256.32 78.9805 256.24 79.2005 256.08C79.4271 255.913 79.5838 255.697 79.6705 255.43L80.5705 255.5C80.4305 255.973 80.1638 256.363 79.7705 256.67C79.3838 256.97 78.9105 257.12 78.3505 257.12ZM76.8005 253.87H79.7305C79.6905 253.357 79.5405 252.98 79.2805 252.74C79.0271 252.5 78.7038 252.38 78.3105 252.38C77.9038 252.38 77.5671 252.507 77.3005 252.76C77.0405 253.007 76.8738 253.377 76.8005 253.87ZM82.8771 257C82.5704 257 82.3204 256.92 82.1271 256.76C81.9338 256.6 81.8371 256.347 81.8371 256V249.9H82.6771V255.93C82.6771 256.037 82.7038 256.12 82.7571 256.18C82.8171 256.233 82.9004 256.26 83.0071 256.26H83.4671V257H82.8771ZM86.8031 257C86.8031 256.5 86.8798 256.05 87.0331 255.65C87.1931 255.243 87.4698 254.857 87.8631 254.49C88.2631 254.123 88.8165 253.753 89.5231 253.38C89.8498 253.207 90.1131 253.047 90.3131 252.9C90.5131 252.753 90.6598 252.597 90.7531 252.43C90.8465 252.263 90.8931 252.06 90.8931 251.82C90.8931 251.573 90.8398 251.36 90.7331 251.18C90.6265 250.993 90.4665 250.847 90.2531 250.74C90.0465 250.633 89.7865 250.58 89.4731 250.58C88.9731 250.58 88.5765 250.71 88.2831 250.97C87.9965 251.23 87.8165 251.6 87.7431 252.08L86.8431 252.02C86.9231 251.327 87.1898 250.773 87.6431 250.36C88.0965 249.947 88.7065 249.74 89.4731 249.74C89.9598 249.74 90.3765 249.827 90.7231 250C91.0698 250.173 91.3331 250.417 91.5131 250.73C91.6998 251.037 91.7931 251.393 91.7931 251.8C91.7931 252.16 91.7331 252.473 91.6131 252.74C91.4931 253 91.2898 253.243 91.0031 253.47C90.7231 253.697 90.3365 253.94 89.8431 254.2C89.2031 254.54 88.7165 254.883 88.3831 255.23C88.0565 255.577 87.8831 255.887 87.8631 256.16H91.7931V257H86.8031Z" fill="#3F3F50"/>
<path d="M64.7331 275.24C63.8331 275.24 63.0531 275.075 62.3931 274.745C61.7431 274.415 61.2381 273.945 60.8781 273.335C60.5181 272.715 60.3381 271.99 60.3381 271.16V264.335H62.6181V271.16C62.6181 271.85 62.7981 272.385 63.1581 272.765C63.5281 273.135 64.0531 273.32 64.7331 273.32C65.4131 273.32 65.9331 273.135 66.2931 272.765C66.6531 272.385 66.8331 271.85 66.8331 271.16V264.335H69.1131V271.16C69.1131 271.99 68.9331 272.715 68.5731 273.335C68.2231 273.945 67.7181 274.415 67.0581 274.745C66.3981 275.075 65.6231 275.24 64.7331 275.24ZM71.3297 275V264.35H73.8497L78.0797 271.7V264.35H80.3597V275H77.8097L73.6097 267.905V275H71.3297ZM82.3746 275V264.35H86.0496C87.7796 264.35 89.1096 264.815 90.0396 265.745C90.9696 266.665 91.4346 267.98 91.4346 269.69C91.4346 271.39 90.9746 272.7 90.0546 273.62C89.1446 274.54 87.8396 275 86.1396 275H82.3746ZM84.6546 273.08H86.0496C87.0796 273.08 87.8396 272.805 88.3296 272.255C88.8296 271.695 89.0796 270.835 89.0796 269.675C89.0796 268.515 88.8296 267.66 88.3296 267.11C87.8396 266.55 87.0796 266.27 86.0496 266.27H84.6546V273.08ZM92.9362 275V264.35H100.346V266.27H95.2162V268.715H100.166V270.605H95.2162V273.08H100.466V275H92.9362ZM102.223 275V264.35H106.888C107.668 264.35 108.343 264.48 108.913 264.74C109.493 265 109.938 265.37 110.248 265.85C110.558 266.32 110.713 266.88 110.713 267.53C110.713 268.02 110.608 268.455 110.398 268.835C110.198 269.215 109.918 269.525 109.558 269.765C109.208 270.005 108.803 270.155 108.343 270.215L108.298 270.08C109.008 270.08 109.548 270.235 109.918 270.545C110.288 270.845 110.498 271.31 110.548 271.94L110.818 275H108.493L108.298 272.3C108.268 271.89 108.138 271.59 107.908 271.4C107.688 271.2 107.308 271.1 106.768 271.1H104.503V275H102.223ZM104.503 269.195H106.633C107.183 269.195 107.608 269.07 107.908 268.82C108.218 268.56 108.373 268.195 108.373 267.725C108.373 267.245 108.218 266.885 107.908 266.645C107.598 266.395 107.148 266.27 106.558 266.27H104.503V269.195ZM116.678 275.24C115.758 275.24 114.968 275.085 114.308 274.775C113.648 274.465 113.133 274.03 112.763 273.47C112.393 272.91 112.183 272.25 112.133 271.49L114.428 271.385C114.488 271.805 114.608 272.165 114.788 272.465C114.978 272.755 115.228 272.975 115.538 273.125C115.858 273.275 116.248 273.35 116.708 273.35C117.088 273.35 117.408 273.305 117.668 273.215C117.938 273.125 118.143 272.99 118.283 272.81C118.423 272.62 118.493 272.39 118.493 272.12C118.493 271.87 118.433 271.655 118.313 271.475C118.193 271.285 117.963 271.115 117.623 270.965C117.283 270.805 116.783 270.65 116.123 270.5C115.213 270.29 114.478 270.055 113.918 269.795C113.368 269.535 112.968 269.21 112.718 268.82C112.468 268.42 112.343 267.92 112.343 267.32C112.343 266.68 112.498 266.12 112.808 265.64C113.128 265.16 113.588 264.785 114.188 264.515C114.788 264.245 115.503 264.11 116.333 264.11C117.213 264.11 117.958 264.265 118.568 264.575C119.178 264.885 119.653 265.31 119.993 265.85C120.343 266.39 120.553 267.01 120.623 267.71L118.343 267.83C118.313 267.46 118.213 267.14 118.043 266.87C117.873 266.59 117.643 266.375 117.353 266.225C117.063 266.075 116.713 266 116.303 266C115.783 266 115.373 266.115 115.073 266.345C114.783 266.575 114.638 266.875 114.638 267.245C114.638 267.505 114.703 267.725 114.833 267.905C114.973 268.075 115.198 268.225 115.508 268.355C115.828 268.485 116.278 268.61 116.858 268.73C117.848 268.93 118.628 269.185 119.198 269.495C119.778 269.795 120.188 270.155 120.428 270.575C120.668 270.995 120.788 271.475 120.788 272.015C120.788 272.675 120.618 273.25 120.278 273.74C119.948 274.22 119.473 274.59 118.853 274.85C118.243 275.11 117.518 275.24 116.678 275.24ZM124.307 275V266.27H121.127V264.35H129.797V266.27H126.602V275H124.307ZM128.732 275L132.572 264.35H135.272L139.112 275H136.742L135.962 272.735H131.867L131.087 275H128.732ZM132.512 270.86H135.332L133.922 266.75L132.512 270.86ZM140.133 275V264.35H142.653L146.883 271.7V264.35H149.163V275H146.613L142.413 267.905V275H140.133ZM151.178 275V264.35H154.853C156.583 264.35 157.913 264.815 158.843 265.745C159.773 266.665 160.238 267.98 160.238 269.69C160.238 271.39 159.778 272.7 158.858 273.62C157.948 274.54 156.643 275 154.943 275H151.178ZM153.458 273.08H154.853C155.883 273.08 156.643 272.805 157.133 272.255C157.633 271.695 157.883 270.835 157.883 269.675C157.883 268.515 157.633 267.66 157.133 267.11C156.643 266.55 155.883 266.27 154.853 266.27H153.458V273.08ZM160.519 275L164.359 264.35H167.059L170.899 275H168.529L167.749 272.735H163.654L162.874 275H160.519ZM164.299 270.86H167.119L165.709 266.75L164.299 270.86ZM171.921 275V264.35H176.061C177.381 264.35 178.391 264.585 179.091 265.055C179.791 265.515 180.141 266.245 180.141 267.245C180.141 267.685 180.051 268.07 179.871 268.4C179.691 268.72 179.426 268.975 179.076 269.165C178.736 269.355 178.321 269.47 177.831 269.51V269.48C178.721 269.54 179.401 269.8 179.871 270.26C180.351 270.71 180.591 271.31 180.591 272.06C180.591 273.05 180.241 273.79 179.541 274.28C178.851 274.76 177.861 275 176.571 275H171.921ZM174.201 273.14H176.466C177.016 273.14 177.456 273.03 177.786 272.81C178.126 272.58 178.296 272.24 178.296 271.79C178.296 271.34 178.126 271 177.786 270.77C177.456 270.53 177.016 270.41 176.466 270.41H174.201V273.14ZM174.201 268.76H176.001C176.561 268.76 177.006 268.65 177.336 268.43C177.676 268.21 177.846 267.895 177.846 267.485C177.846 267.045 177.681 266.725 177.351 266.525C177.031 266.315 176.581 266.21 176.001 266.21H174.201V268.76ZM182.467 275V264.35H184.747V274.385L183.487 273.08H189.652V275H182.467ZM190.817 275V264.35H198.227V266.27H193.097V268.715H198.047V270.605H193.097V273.08H198.347V275H190.817Z" fill="#3F3F50"/>
<rect x="174" y="167" width="126.07" height="45" rx="12" fill="#9364FF"/>
<path d="M187.252 184V176.9H188.112V183.6L187.682 183.16H191.662V184H187.252ZM194.612 184.12C194.112 184.12 193.679 184.007 193.312 183.78C192.952 183.553 192.672 183.233 192.472 182.82C192.279 182.4 192.182 181.91 192.182 181.35C192.182 180.79 192.279 180.303 192.472 179.89C192.672 179.477 192.949 179.157 193.302 178.93C193.662 178.697 194.086 178.58 194.572 178.58C195.032 178.58 195.439 178.69 195.792 178.91C196.146 179.123 196.419 179.437 196.612 179.85C196.812 180.263 196.912 180.767 196.912 181.36V181.61H193.062C193.096 182.177 193.246 182.603 193.512 182.89C193.786 183.177 194.152 183.32 194.612 183.32C194.959 183.32 195.242 183.24 195.462 183.08C195.689 182.913 195.846 182.697 195.932 182.43L196.832 182.5C196.692 182.973 196.426 183.363 196.032 183.67C195.646 183.97 195.172 184.12 194.612 184.12ZM193.062 180.87H195.992C195.952 180.357 195.802 179.98 195.542 179.74C195.289 179.5 194.966 179.38 194.572 179.38C194.166 179.38 193.829 179.507 193.562 179.76C193.302 180.007 193.136 180.377 193.062 180.87ZM199.244 184L197.314 178.7H198.234L199.774 183.14L201.314 178.7H202.234L200.304 184H199.244ZM205.061 184.12C204.561 184.12 204.128 184.007 203.761 183.78C203.401 183.553 203.121 183.233 202.921 182.82C202.728 182.4 202.631 181.91 202.631 181.35C202.631 180.79 202.728 180.303 202.921 179.89C203.121 179.477 203.398 179.157 203.751 178.93C204.111 178.697 204.535 178.58 205.021 178.58C205.481 178.58 205.888 178.69 206.241 178.91C206.595 179.123 206.868 179.437 207.061 179.85C207.261 180.263 207.361 180.767 207.361 181.36V181.61H203.511C203.545 182.177 203.695 182.603 203.961 182.89C204.235 183.177 204.601 183.32 205.061 183.32C205.408 183.32 205.691 183.24 205.911 183.08C206.138 182.913 206.295 182.697 206.381 182.43L207.281 182.5C207.141 182.973 206.875 183.363 206.481 183.67C206.095 183.97 205.621 184.12 205.061 184.12ZM203.511 180.87H206.441C206.401 180.357 206.251 179.98 205.991 179.74C205.738 179.5 205.415 179.38 205.021 179.38C204.615 179.38 204.278 179.507 204.011 179.76C203.751 180.007 203.585 180.377 203.511 180.87ZM209.588 184C209.281 184 209.031 183.92 208.838 183.76C208.645 183.6 208.548 183.347 208.548 183V176.9H209.388V182.93C209.388 183.037 209.415 183.12 209.468 183.18C209.528 183.233 209.611 183.26 209.718 183.26H210.178V184H209.588ZM215.924 184.16C215.137 184.16 214.531 183.977 214.104 183.61C213.677 183.237 213.447 182.757 213.414 182.17L214.304 182.11C214.344 182.543 214.511 182.853 214.804 183.04C215.104 183.227 215.477 183.32 215.924 183.32C216.231 183.32 216.514 183.28 216.774 183.2C217.034 183.113 217.244 182.977 217.404 182.79C217.564 182.597 217.644 182.34 217.644 182.02C217.644 181.547 217.487 181.2 217.174 180.98C216.861 180.76 216.447 180.65 215.934 180.65H215.374V179.81H215.934C216.354 179.81 216.701 179.727 216.974 179.56C217.254 179.393 217.394 179.107 217.394 178.7C217.394 178.333 217.274 178.057 217.034 177.87C216.801 177.677 216.447 177.58 215.974 177.58C215.507 177.58 215.154 177.67 214.914 177.85C214.681 178.03 214.541 178.277 214.494 178.59L213.594 178.53C213.661 177.997 213.897 177.567 214.304 177.24C214.711 176.907 215.267 176.74 215.974 176.74C216.454 176.74 216.867 176.82 217.214 176.98C217.561 177.133 217.827 177.353 218.014 177.64C218.201 177.927 218.294 178.267 218.294 178.66C218.294 179.1 218.154 179.457 217.874 179.73C217.601 179.997 217.194 180.18 216.654 180.28V180.1C217.234 180.167 217.694 180.373 218.034 180.72C218.374 181.067 218.544 181.5 218.544 182.02C218.544 182.473 218.431 182.86 218.204 183.18C217.984 183.5 217.677 183.743 217.284 183.91C216.891 184.077 216.437 184.16 215.924 184.16Z" fill="#FFFFEE"/>
<path d="M191.957 202.24C190.987 202.24 190.122 202.02 189.362 201.58C188.612 201.14 188.022 200.505 187.592 199.675C187.172 198.845 186.962 197.85 186.962 196.69C186.962 195.56 187.167 194.58 187.577 193.75C187.987 192.91 188.572 192.26 189.332 191.8C190.092 191.34 190.982 191.11 192.002 191.11C193.392 191.11 194.472 191.455 195.242 192.145C196.022 192.825 196.522 193.8 196.742 195.07L194.372 195.16C194.252 194.49 193.992 193.97 193.592 193.6C193.192 193.22 192.662 193.03 192.002 193.03C191.432 193.03 190.947 193.18 190.547 193.48C190.147 193.78 189.842 194.205 189.632 194.755C189.422 195.305 189.317 195.95 189.317 196.69C189.317 197.44 189.422 198.09 189.632 198.64C189.852 199.18 190.162 199.595 190.562 199.885C190.962 200.175 191.437 200.32 191.987 200.32C192.707 200.32 193.262 200.12 193.652 199.72C194.052 199.31 194.302 198.745 194.402 198.025L196.787 198.115C196.647 198.985 196.372 199.725 195.962 200.335C195.552 200.945 195.012 201.415 194.342 201.745C193.682 202.075 192.887 202.24 191.957 202.24ZM198.37 202V191.35H200.65V201.385L199.39 200.08H205.555V202H198.37ZM206.719 202V191.35H214.129V193.27H208.999V195.715H213.949V197.605H208.999V200.08H214.249V202H206.719ZM215.225 202L219.065 191.35H221.765L225.605 202H223.235L222.455 199.735H218.36L217.58 202H215.225ZM219.005 197.86H221.825L220.415 193.75L219.005 197.86ZM226.627 202V191.35H231.292C232.072 191.35 232.747 191.48 233.317 191.74C233.897 192 234.342 192.37 234.652 192.85C234.962 193.32 235.117 193.88 235.117 194.53C235.117 195.02 235.012 195.455 234.802 195.835C234.602 196.215 234.322 196.525 233.962 196.765C233.612 197.005 233.207 197.155 232.747 197.215L232.702 197.08C233.412 197.08 233.952 197.235 234.322 197.545C234.692 197.845 234.902 198.31 234.952 198.94L235.222 202H232.897L232.702 199.3C232.672 198.89 232.542 198.59 232.312 198.4C232.092 198.2 231.712 198.1 231.172 198.1H228.907V202H226.627ZM228.907 196.195H231.037C231.587 196.195 232.012 196.07 232.312 195.82C232.622 195.56 232.777 195.195 232.777 194.725C232.777 194.245 232.622 193.885 232.312 193.645C232.002 193.395 231.552 193.27 230.962 193.27H228.907V196.195Z" fill="#FFFFEE"/>
<rect x="255" y="96" width="129.68" height="45" rx="12" fill="#877BFF"/>
<path d="M268.608 113V105.9H269.468V112.6L269.038 112.16H273.018V113H268.608ZM275.968 113.12C275.468 113.12 275.034 113.007 274.668 112.78C274.308 112.553 274.028 112.233 273.828 111.82C273.634 111.4 273.538 110.91 273.538 110.35C273.538 109.79 273.634 109.303 273.828 108.89C274.028 108.477 274.304 108.157 274.658 107.93C275.018 107.697 275.441 107.58 275.928 107.58C276.388 107.58 276.794 107.69 277.148 107.91C277.501 108.123 277.774 108.437 277.968 108.85C278.168 109.263 278.268 109.767 278.268 110.36V110.61H274.418C274.451 111.177 274.601 111.603 274.868 111.89C275.141 112.177 275.508 112.32 275.968 112.32C276.314 112.32 276.598 112.24 276.818 112.08C277.044 111.913 277.201 111.697 277.288 111.43L278.188 111.5C278.048 111.973 277.781 112.363 277.388 112.67C277.001 112.97 276.528 113.12 275.968 113.12ZM274.418 109.87H277.348C277.308 109.357 277.158 108.98 276.898 108.74C276.644 108.5 276.321 108.38 275.928 108.38C275.521 108.38 275.184 108.507 274.918 108.76C274.658 109.007 274.491 109.377 274.418 109.87ZM280.599 113L278.669 107.7H279.589L281.129 112.14L282.669 107.7H283.589L281.659 113H280.599ZM286.417 113.12C285.917 113.12 285.484 113.007 285.117 112.78C284.757 112.553 284.477 112.233 284.277 111.82C284.084 111.4 283.987 110.91 283.987 110.35C283.987 109.79 284.084 109.303 284.277 108.89C284.477 108.477 284.754 108.157 285.107 107.93C285.467 107.697 285.89 107.58 286.377 107.58C286.837 107.58 287.244 107.69 287.597 107.91C287.95 108.123 288.224 108.437 288.417 108.85C288.617 109.263 288.717 109.767 288.717 110.36V110.61H284.867C284.9 111.177 285.05 111.603 285.317 111.89C285.59 112.177 285.957 112.32 286.417 112.32C286.764 112.32 287.047 112.24 287.267 112.08C287.494 111.913 287.65 111.697 287.737 111.43L288.637 111.5C288.497 111.973 288.23 112.363 287.837 112.67C287.45 112.97 286.977 113.12 286.417 113.12ZM284.867 109.87H287.797C287.757 109.357 287.607 108.98 287.347 108.74C287.094 108.5 286.77 108.38 286.377 108.38C285.97 108.38 285.634 108.507 285.367 108.76C285.107 109.007 284.94 109.377 284.867 109.87ZM290.944 113C290.637 113 290.387 112.92 290.194 112.76C290 112.6 289.904 112.347 289.904 112V105.9H290.744V111.93C290.744 112.037 290.77 112.12 290.824 112.18C290.884 112.233 290.967 112.26 291.074 112.26H291.534V113H290.944ZM298.18 113V111.46H294.57V110.68L298.12 105.9H299.04V110.62H299.92V111.46H299.04V113H298.18ZM295.61 110.62H298.18V107.22L295.61 110.62Z" fill="#FFFFEE"/>
<path d="M268.798 131V120.35H273.463C274.243 120.35 274.918 120.48 275.488 120.74C276.068 121 276.513 121.37 276.823 121.85C277.133 122.32 277.288 122.88 277.288 123.53C277.288 124.02 277.183 124.455 276.973 124.835C276.773 125.215 276.493 125.525 276.133 125.765C275.783 126.005 275.378 126.155 274.918 126.215L274.873 126.08C275.583 126.08 276.123 126.235 276.493 126.545C276.863 126.845 277.073 127.31 277.123 127.94L277.393 131H275.068L274.873 128.3C274.843 127.89 274.713 127.59 274.483 127.4C274.263 127.2 273.883 127.1 273.343 127.1H271.078V131H268.798ZM271.078 125.195H273.208C273.758 125.195 274.183 125.07 274.483 124.82C274.793 124.56 274.948 124.195 274.948 123.725C274.948 123.245 274.793 122.885 274.483 122.645C274.173 122.395 273.723 122.27 273.133 122.27H271.078V125.195ZM279.256 131V120.35H286.666V122.27H281.536V124.715H286.486V126.605H281.536V129.08H286.786V131H279.256ZM288.588 131V120.35H290.868V130.385L289.608 129.08H295.773V131H288.588ZM296.937 131V120.35H304.347V122.27H299.217V124.715H304.167V126.605H299.217V129.08H304.467V131H296.937ZM309.4 131L305.56 120.35H307.915L310.75 128.435L313.585 120.35H315.94L312.085 131H309.4ZM314.789 131L318.629 120.35H321.329L325.169 131H322.799L322.019 128.735H317.924L317.144 131H314.789ZM318.569 126.86H321.389L319.979 122.75L318.569 126.86ZM326.19 131V120.35H328.71L332.94 127.7V120.35H335.22V131H332.67L328.47 123.905V131H326.19ZM339.25 131V122.27H336.07V120.35H344.74V122.27H341.545V131H339.25Z" fill="#FFFFEE"/>
<line y1="-0.5" x2="199.001" y2="-0.5" transform="matrix(0.000972833 -0.999999 0.999979 0.00648889 210.422 473)" stroke="#3F3F50" stroke-dasharray="5 5"/>
<g filter="url(#filter2_n_4752_7452)">
<path d="M300 474V327.865C334.954 300.967 353.046 282.537 385.5 244L386 474H300Z" fill="#877BFF"/>
</g>
<g filter="url(#filter3_n_4752_7452)">
<path d="M300.21 328C264.121 356.5 244.572 369.5 210.719 389V474H299.728L300.21 328Z" fill="#9364FF"/>
</g>
<g filter="url(#filter4_n_4752_7452)">
<path d="M471.5 121C437.031 177.778 417 207.122 386 243.674V474H472L471.5 121Z" fill="#6F31FF"/>
</g>
<line y1="-0.5" x2="275" y2="-0.5" transform="matrix(0.000703973 -1 0.999989 0.00469561 300.25 473)" stroke="#A0A0A0" stroke-dasharray="5 5"/>
<line x1="385.125" y1="473" x2="385.125" y2="121" stroke="#BF9FFF" stroke-dasharray="5 5"/>
<line x1="471.5" y1="476" x2="471.5" y2="34" stroke="#BF9FFF" stroke-dasharray="5 5"/>
<rect x="329" y="12" width="143" height="45" rx="12" fill="#6F31FF"/>
<path d="M337.861 29V21.9H338.721V28.6L338.291 28.16H342.271V29H337.861ZM345.222 29.12C344.722 29.12 344.288 29.0067 343.922 28.78C343.562 28.5533 343.282 28.2333 343.082 27.82C342.888 27.4 342.792 26.91 342.792 26.35C342.792 25.79 342.888 25.3033 343.082 24.89C343.282 24.4767 343.558 24.1567 343.912 23.93C344.272 23.6967 344.695 23.58 345.182 23.58C345.642 23.58 346.048 23.69 346.402 23.91C346.755 24.1233 347.028 24.4367 347.222 24.85C347.422 25.2633 347.522 25.7667 347.522 26.36V26.61H343.672C343.705 27.1767 343.855 27.6033 344.122 27.89C344.395 28.1767 344.762 28.32 345.222 28.32C345.568 28.32 345.852 28.24 346.072 28.08C346.298 27.9133 346.455 27.6967 346.542 27.43L347.442 27.5C347.302 27.9733 347.035 28.3633 346.642 28.67C346.255 28.97 345.782 29.12 345.222 29.12ZM343.672 25.87H346.602C346.562 25.3567 346.412 24.98 346.152 24.74C345.898 24.5 345.575 24.38 345.182 24.38C344.775 24.38 344.438 24.5067 344.172 24.76C343.912 25.0067 343.745 25.3767 343.672 25.87ZM349.853 29L347.923 23.7H348.843L350.383 28.14L351.923 23.7H352.843L350.913 29H349.853ZM355.671 29.12C355.171 29.12 354.737 29.0067 354.371 28.78C354.011 28.5533 353.731 28.2333 353.531 27.82C353.337 27.4 353.241 26.91 353.241 26.35C353.241 25.79 353.337 25.3033 353.531 24.89C353.731 24.4767 354.007 24.1567 354.361 23.93C354.721 23.6967 355.144 23.58 355.631 23.58C356.091 23.58 356.497 23.69 356.851 23.91C357.204 24.1233 357.477 24.4367 357.671 24.85C357.871 25.2633 357.971 25.7667 357.971 26.36V26.61H354.121C354.154 27.1767 354.304 27.6033 354.571 27.89C354.844 28.1767 355.211 28.32 355.671 28.32C356.017 28.32 356.301 28.24 356.521 28.08C356.747 27.9133 356.904 27.6967 356.991 27.43L357.891 27.5C357.751 27.9733 357.484 28.3633 357.091 28.67C356.704 28.97 356.231 29.12 355.671 29.12ZM354.121 25.87H357.051C357.011 25.3567 356.861 24.98 356.601 24.74C356.347 24.5 356.024 24.38 355.631 24.38C355.224 24.38 354.887 24.5067 354.621 24.76C354.361 25.0067 354.194 25.3767 354.121 25.87ZM360.197 29C359.891 29 359.641 28.92 359.447 28.76C359.254 28.6 359.157 28.3467 359.157 28V21.9H359.997V27.93C359.997 28.0367 360.024 28.12 360.077 28.18C360.137 28.2333 360.221 28.26 360.327 28.26H360.787V29H360.197ZM366.643 29.16C366.143 29.16 365.71 29.0767 365.343 28.91C364.983 28.7433 364.697 28.51 364.483 28.21C364.277 27.91 364.157 27.5633 364.123 27.17L365.023 27.11C365.077 27.51 365.247 27.8133 365.533 28.02C365.827 28.22 366.197 28.32 366.643 28.32C367.143 28.32 367.54 28.18 367.833 27.9C368.127 27.6133 368.273 27.22 368.273 26.72C368.273 26.3867 368.207 26.1 368.073 25.86C367.947 25.6133 367.76 25.4233 367.513 25.29C367.267 25.1567 366.97 25.09 366.623 25.09C366.297 25.09 366 25.16 365.733 25.3C365.467 25.44 365.277 25.6367 365.163 25.89H364.243L364.713 21.9H368.693V22.74H365.503L365.183 25.36L365.023 25.2C365.13 24.9933 365.27 24.8233 365.443 24.69C365.623 24.55 365.827 24.4467 366.053 24.38C366.287 24.3067 366.53 24.27 366.783 24.27C367.257 24.27 367.673 24.3767 368.033 24.59C368.393 24.7967 368.673 25.0867 368.873 25.46C369.073 25.8267 369.173 26.2467 369.173 26.72C369.173 27.1933 369.067 27.6167 368.853 27.99C368.64 28.3567 368.343 28.6433 367.963 28.85C367.583 29.0567 367.143 29.16 366.643 29.16Z" fill="#FFFFEE"/>
<path d="M338.11 46V35.35H341.785C343.515 35.35 344.845 35.815 345.775 36.745C346.705 37.665 347.17 38.98 347.17 40.69C347.17 42.39 346.71 43.7 345.79 44.62C344.88 45.54 343.575 46 341.875 46H338.11ZM340.39 44.08H341.785C342.815 44.08 343.575 43.805 344.065 43.255C344.565 42.695 344.815 41.835 344.815 40.675C344.815 39.515 344.565 38.66 344.065 38.11C343.575 37.55 342.815 37.27 341.785 37.27H340.39V44.08ZM348.672 46V35.35H350.952V46H348.672ZM352.964 46V35.35H360.314V37.27H353.984L355.244 35.965V40.84L353.984 39.85H360.044V41.74H353.984L355.244 40.75V46H352.964ZM361.811 46V35.35H369.161V37.27H362.831L364.091 35.965V40.84L362.831 39.85H368.891V41.74H362.831L364.091 40.75V46H361.811ZM370.659 46V35.35H378.069V37.27H372.939V39.715H377.889V41.605H372.939V44.08H378.189V46H370.659ZM379.946 46V35.35H384.611C385.391 35.35 386.066 35.48 386.636 35.74C387.216 36 387.661 36.37 387.971 36.85C388.281 37.32 388.436 37.88 388.436 38.53C388.436 39.02 388.331 39.455 388.121 39.835C387.921 40.215 387.641 40.525 387.281 40.765C386.931 41.005 386.526 41.155 386.066 41.215L386.021 41.08C386.731 41.08 387.271 41.235 387.641 41.545C388.011 41.845 388.221 42.31 388.271 42.94L388.541 46H386.216L386.021 43.3C385.991 42.89 385.861 42.59 385.631 42.4C385.411 42.2 385.031 42.1 384.491 42.1H382.226V46H379.946ZM382.226 40.195H384.356C384.906 40.195 385.331 40.07 385.631 39.82C385.941 39.56 386.096 39.195 386.096 38.725C386.096 38.245 385.941 37.885 385.631 37.645C385.321 37.395 384.871 37.27 384.281 37.27H382.226V40.195ZM390.405 46V35.35H397.815V37.27H392.685V39.715H397.635V41.605H392.685V44.08H397.935V46H390.405ZM399.648 46V35.35H402.168L406.398 42.7V35.35H408.678V46H406.128L401.928 38.905V46H399.648ZM412.708 46V37.27H409.528V35.35H418.198V37.27H415.003V46H412.708ZM419.174 46V35.35H421.454V46H419.174ZM422.7 46L426.54 35.35H429.24L433.08 46H430.71L429.93 43.735H425.835L425.055 46H422.7ZM426.48 41.86H429.3L427.89 37.75L426.48 41.86ZM435.223 46V37.27H432.043V35.35H440.713V37.27H437.518V46H435.223ZM441.689 46V35.35H449.099V37.27H443.969V39.715H448.919V41.605H443.969V44.08H449.219V46H441.689ZM450.976 46V35.35H454.651C456.381 35.35 457.711 35.815 458.641 36.745C459.571 37.665 460.036 38.98 460.036 40.69C460.036 42.39 459.576 43.7 458.656 44.62C457.746 45.54 456.441 46 454.741 46H450.976ZM453.256 44.08H454.651C455.681 44.08 456.441 43.805 456.931 43.255C457.431 42.695 457.681 41.835 457.681 40.675C457.681 39.515 457.431 38.66 456.931 38.11C456.441 37.55 455.681 37.27 454.651 37.27H453.256V44.08Z" fill="#FFFFEE"/>
<defs>
<filter id="filter0_n_4752_7452" x="28.457" y="120.631" width="443.043" height="353.869" filterUnits="userSpaceOnUse" color-interpolation-filters="sRGB">
<feFlood flood-opacity="0" result="BackgroundImageFix"/>
<feBlend mode="normal" in="SourceGraphic" in2="BackgroundImageFix" result="shape"/>
<feTurbulence type="fractalNoise" baseFrequency="5 5" stitchTiles="stitch" numOctaves="3" result="noise" seed="8092" />
<feColorMatrix in="noise" type="luminanceToAlpha" result="alphaNoise" />
<feComponentTransfer in="alphaNoise" result="coloredNoise1">
<feFuncA type="discrete" tableValues="1 1 1 1 1 1 1 1 1 1 1 1 1 1 1 1 1 1 1 1 1 1 1 1 1 1 1 1 1 1 1 1 1 1 1 1 1 1 1 1 1 1 1 1 1 1 1 1 1 1 1 0 0 0 0 0 0 0 0 0 0 0 0 0 0 0 0 0 0 0 0 0 0 0 0 0 0 0 0 0 0 0 0 0 0 0 0 0 0 0 0 0 0 0 0 0 0 0 0 0 "/>
</feComponentTransfer>
<feComposite operator="in" in2="shape" in="coloredNoise1" result="noise1Clipped" />
<feFlood flood-color="rgba(0, 0, 0, 0.25)" result="color1Flood" />
<feComposite operator="in" in2="noise1Clipped" in="color1Flood" result="color1" />
<feMerge result="effect1_noise_4752_7452">
<feMergeNode in="shape" />
<feMergeNode in="color1" />
</feMerge>
</filter>
<filter id="filter1_n_4752_7452" x="29.0391" y="436" width="87.7891" height="38" filterUnits="userSpaceOnUse" color-interpolation-filters="sRGB">
<feFlood flood-opacity="0" result="BackgroundImageFix"/>
<feBlend mode="normal" in="SourceGraphic" in2="BackgroundImageFix" result="shape"/>
<feTurbulence type="fractalNoise" baseFrequency="2 2" stitchTiles="stitch" numOctaves="3" result="noise" seed="4536" />
<feColorMatrix in="noise" type="luminanceToAlpha" result="alphaNoise" />
<feComponentTransfer in="alphaNoise" result="coloredNoise1">
<feFuncA type="discrete" tableValues="1 1 1 1 1 1 1 1 1 1 1 1 1 1 1 1 1 1 1 1 1 1 1 1 1 1 1 1 1 1 1 1 1 1 1 1 1 1 1 1 1 1 1 1 1 1 1 1 1 1 1 0 0 0 0 0 0 0 0 0 0 0 0 0 0 0 0 0 0 0 0 0 0 0 0 0 0 0 0 0 0 0 0 0 0 0 0 0 0 0 0 0 0 0 0 0 0 0 0 0 "/>
</feComponentTransfer>
<feComposite operator="in" in2="shape" in="coloredNoise1" result="noise1Clipped" />
<feFlood flood-color="rgba(0, 0, 0, 0.25)" result="color1Flood" />
<feComposite operator="in" in2="noise1Clipped" in="color1Flood" result="color1" />
<feMerge result="effect1_noise_4752_7452">
<feMergeNode in="shape" />
<feMergeNode in="color1" />
</feMerge>
</filter>
<filter id="filter2_n_4752_7452" x="300" y="244" width="86" height="230" filterUnits="userSpaceOnUse" color-interpolation-filters="sRGB">
<feFlood flood-opacity="0" result="BackgroundImageFix"/>
<feBlend mode="normal" in="SourceGraphic" in2="BackgroundImageFix" result="shape"/>
<feTurbulence type="fractalNoise" baseFrequency="5 5" stitchTiles="stitch" numOctaves="3" result="noise" seed="9973" />
<feColorMatrix in="noise" type="luminanceToAlpha" result="alphaNoise" />
<feComponentTransfer in="alphaNoise" result="coloredNoise1">
<feFuncA type="discrete" tableValues="1 1 1 1 1 1 1 1 1 1 1 1 1 1 1 1 1 1 1 1 1 1 1 1 1 1 1 1 1 1 1 1 1 1 1 1 1 1 1 1 1 1 1 1 1 1 1 1 1 1 1 0 0 0 0 0 0 0 0 0 0 0 0 0 0 0 0 0 0 0 0 0 0 0 0 0 0 0 0 0 0 0 0 0 0 0 0 0 0 0 0 0 0 0 0 0 0 0 0 0 "/>
</feComponentTransfer>
<feComposite operator="in" in2="shape" in="coloredNoise1" result="noise1Clipped" />
<feFlood flood-color="rgba(0, 0, 0, 0.25)" result="color1Flood" />
<feComposite operator="in" in2="noise1Clipped" in="color1Flood" result="color1" />
<feMerge result="effect1_noise_4752_7452">
<feMergeNode in="shape" />
<feMergeNode in="color1" />
</feMerge>
</filter>
<filter id="filter3_n_4752_7452" x="210.719" y="328" width="89.4922" height="146" filterUnits="userSpaceOnUse" color-interpolation-filters="sRGB">
<feFlood flood-opacity="0" result="BackgroundImageFix"/>
<feBlend mode="normal" in="SourceGraphic" in2="BackgroundImageFix" result="shape"/>
<feTurbulence type="fractalNoise" baseFrequency="5 5" stitchTiles="stitch" numOctaves="3" result="noise" seed="6733" />
<feColorMatrix in="noise" type="luminanceToAlpha" result="alphaNoise" />
<feComponentTransfer in="alphaNoise" result="coloredNoise1">
<feFuncA type="discrete" tableValues="1 1 1 1 1 1 1 1 1 1 1 1 1 1 1 1 1 1 1 1 1 1 1 1 1 1 1 1 1 1 1 1 1 1 1 1 1 1 1 1 1 1 1 1 1 1 1 1 1 1 1 0 0 0 0 0 0 0 0 0 0 0 0 0 0 0 0 0 0 0 0 0 0 0 0 0 0 0 0 0 0 0 0 0 0 0 0 0 0 0 0 0 0 0 0 0 0 0 0 0 "/>
</feComponentTransfer>
<feComposite operator="in" in2="shape" in="coloredNoise1" result="noise1Clipped" />
<feFlood flood-color="rgba(0, 0, 0, 0.25)" result="color1Flood" />
<feComposite operator="in" in2="noise1Clipped" in="color1Flood" result="color1" />
<feMerge result="effect1_noise_4752_7452">
<feMergeNode in="shape" />
<feMergeNode in="color1" />
</feMerge>
</filter>
<filter id="filter4_n_4752_7452" x="386" y="121" width="86" height="353" filterUnits="userSpaceOnUse" color-interpolation-filters="sRGB">
<feFlood flood-opacity="0" result="BackgroundImageFix"/>
<feBlend mode="normal" in="SourceGraphic" in2="BackgroundImageFix" result="shape"/>
<feTurbulence type="fractalNoise" baseFrequency="5 5" stitchTiles="stitch" numOctaves="3" result="noise" seed="8093" />
<feColorMatrix in="noise" type="luminanceToAlpha" result="alphaNoise" />
<feComponentTransfer in="alphaNoise" result="coloredNoise1">
<feFuncA type="discrete" tableValues="1 1 1 1 1 1 1 1 1 1 1 1 1 1 1 1 1 1 1 1 1 1 1 1 1 1 1 1 1 1 1 1 1 1 1 1 1 1 1 1 1 1 1 1 1 1 1 1 1 1 1 0 0 0 0 0 0 0 0 0 0 0 0 0 0 0 0 0 0 0 0 0 0 0 0 0 0 0 0 0 0 0 0 0 0 0 0 0 0 0 0 0 0 0 0 0 0 0 0 0 "/>
</feComponentTransfer>
<feComposite operator="in" in2="shape" in="coloredNoise1" result="noise1Clipped" />
<feFlood flood-color="rgba(0, 0, 0, 0.25)" result="color1Flood" />
<feComposite operator="in" in2="noise1Clipped" in="color1Flood" result="color1" />
<feMerge result="effect1_noise_4752_7452">
<feMergeNode in="shape" />
<feMergeNode in="color1" />
</feMerge>
</filter>
</defs>
</svg>
