<svg width="1270" height="521" viewBox="0 0 1270 521" fill="none" xmlns="http://www.w3.org/2000/svg">
<g filter="url(#filter0_n_4752_7419)">
<path d="M1265.06 519H0.5C638.661 432.535 933.625 362.718 1265.06 172V519Z" fill="#27273F"/>
<path d="M1265.06 519H0.5C638.661 432.535 933.625 362.718 1265.06 172V519Z" stroke="#27273F" stroke-width="3"/>
</g>
<rect x="806.324" y="92.5" width="215.307" height="74" rx="11.5" fill="#877BFF" stroke="#877BFF"/>
<path d="M831.225 119.624V121H824.473V109.512H825.961V119.624H831.225ZM835.994 121.16C833.594 121.16 831.994 119.384 831.994 116.712C831.994 114.232 833.674 112.376 835.946 112.376C837.178 112.376 838.186 112.872 838.89 113.72C839.578 114.568 839.834 115.592 839.834 116.552C839.834 116.744 839.818 116.936 839.802 117.128H833.45C833.482 117.64 833.578 118.072 833.754 118.44C834.154 119.336 834.938 119.864 836.042 119.864C837.338 119.864 838.202 119.208 838.458 118.04H839.818C839.418 120.04 837.978 121.16 835.994 121.16ZM833.466 116.12H838.346C838.282 114.632 837.37 113.56 835.946 113.56C834.922 113.56 834.186 114.12 833.754 115.016C833.61 115.32 833.514 115.688 833.466 116.12ZM846.712 112.536H848.184L844.968 121H843.512L840.296 112.536H841.848L844.28 119.176L846.712 112.536ZM852.587 121.16C850.187 121.16 848.587 119.384 848.587 116.712C848.587 114.232 850.267 112.376 852.539 112.376C853.771 112.376 854.779 112.872 855.483 113.72C856.171 114.568 856.427 115.592 856.427 116.552C856.427 116.744 856.411 116.936 856.395 117.128H850.043C850.075 117.64 850.171 118.072 850.347 118.44C850.747 119.336 851.531 119.864 852.635 119.864C853.931 119.864 854.795 119.208 855.051 118.04H856.411C856.011 120.04 854.571 121.16 852.587 121.16ZM850.059 116.12H854.939C854.875 114.632 853.963 113.56 852.539 113.56C851.515 113.56 850.779 114.12 850.347 115.016C850.203 115.32 850.107 115.688 850.059 116.12ZM859.475 108.84V121H858.019V108.84H859.475ZM872.273 117.208V118.472H870.801V121H869.441V118.472H864.209V117.464L869.793 109.464H870.801V117.208H872.273ZM869.441 111.928L865.873 117.208H869.441V111.928Z" fill="#FFFFEE"/>
<path d="M830.784 142.16H828.304V147H825.644V132.56H830.784C834.124 132.56 836.284 134.34 836.284 137.34C836.284 139.4 835.324 140.82 833.704 141.6C833.624 141.62 833.544 141.66 833.484 141.68L836.964 147H833.884L830.824 142.16H830.784ZM830.964 134.92H828.304V139.72H830.964C832.464 139.72 833.604 138.84 833.604 137.24C833.604 135.74 832.544 134.92 830.964 134.92ZM841.351 144.52H848.851V147H838.711V132.64H848.851V135.12H841.351L841.331 138.58H848.851V141.06H841.331L841.351 144.52ZM859.663 144.52V147H850.663V132.64H853.323V144.52H859.663ZM863.871 144.52H871.371V147H861.231V132.64H871.371V135.12H863.871L863.851 138.58H871.371V141.06H863.851L863.871 144.52ZM883.143 132.64H885.843L880.603 147H877.743L872.523 132.64H875.403L879.243 143.72L883.143 132.64ZM886.946 147H884.086L889.526 132.64H892.406L897.806 147H894.786L893.726 144.08H888.006L886.946 147ZM890.886 136.18L888.866 141.7H892.886L890.886 136.18ZM911.181 147H908.041L901.721 136.54V147H899.101V132.64H902.481L908.541 142.7V132.64H911.181V147ZM919.705 135.12V147H917.045V135.12H912.485V132.64H924.325V135.12H919.705Z" fill="#FFFFEE"/>
<rect x="560.5" y="183" width="216.307" height="75" rx="12" fill="#9364FF"/>
<path d="M585.901 210.624V212H579.149V200.512H580.637V210.624H585.901ZM590.669 212.16C588.269 212.16 586.669 210.384 586.669 207.712C586.669 205.232 588.349 203.376 590.621 203.376C591.853 203.376 592.861 203.872 593.565 204.72C594.253 205.568 594.509 206.592 594.509 207.552C594.509 207.744 594.493 207.936 594.477 208.128H588.125C588.157 208.64 588.253 209.072 588.429 209.44C588.829 210.336 589.613 210.864 590.717 210.864C592.013 210.864 592.877 210.208 593.133 209.04H594.493C594.093 211.04 592.653 212.16 590.669 212.16ZM588.141 207.12H593.021C592.957 205.632 592.045 204.56 590.621 204.56C589.597 204.56 588.861 205.12 588.429 206.016C588.285 206.32 588.189 206.688 588.141 207.12ZM601.387 203.536H602.859L599.643 212H598.187L594.971 203.536H596.523L598.955 210.176L601.387 203.536ZM607.263 212.16C604.863 212.16 603.263 210.384 603.263 207.712C603.263 205.232 604.943 203.376 607.215 203.376C608.447 203.376 609.455 203.872 610.159 204.72C610.847 205.568 611.103 206.592 611.103 207.552C611.103 207.744 611.087 207.936 611.071 208.128H604.719C604.751 208.64 604.847 209.072 605.023 209.44C605.423 210.336 606.207 210.864 607.311 210.864C608.607 210.864 609.471 210.208 609.727 209.04H611.087C610.687 211.04 609.247 212.16 607.263 212.16ZM604.735 207.12H609.615C609.551 205.632 608.639 204.56 607.215 204.56C606.191 204.56 605.455 205.12 605.023 206.016C604.879 206.32 604.783 206.688 604.735 207.12ZM614.151 199.84V212H612.695V199.84H614.151ZM623.013 212.144C620.805 212.144 619.301 210.816 619.269 208.8H620.597C620.661 210.144 621.605 210.976 623.013 210.976C624.485 210.976 625.365 210.096 625.365 208.48C625.365 206.992 624.373 206.096 622.773 206.096H621.685V204.928L624.901 201.84V201.792H619.269V200.512L626.341 200.48V202.048L623.221 205.056C624.549 205.088 625.477 205.44 626.005 206.096C626.517 206.752 626.773 207.536 626.773 208.448C626.773 209.92 626.117 211.152 624.981 211.712C624.421 212 623.765 212.144 623.013 212.144Z" fill="#FFFFEE"/>
<path d="M587.219 238.3C583.219 238.3 580.059 235 580.059 230.8C580.059 226.62 583.219 223.34 587.219 223.34C590.879 223.34 593.859 225.8 594.339 229.4H591.499C591.159 227.36 589.379 225.88 587.239 225.88C584.659 225.88 582.839 227.92 582.839 230.8C582.839 233.72 584.619 235.76 587.239 235.76C589.439 235.76 591.099 234.32 591.499 232.22H594.339C593.819 235.82 590.899 238.3 587.219 238.3ZM605.003 235.52V238H596.003V223.64H598.663V235.52H605.003ZM609.211 235.52H616.711V238H606.571V223.64H616.711V226.12H609.211L609.191 229.58H616.711V232.06H609.191L609.211 235.52ZM620.743 238H617.883L623.323 223.64H626.203L631.603 238H628.582L627.523 235.08H621.803L620.743 238ZM624.683 227.18L622.663 232.7H626.683L624.683 227.18ZM638.038 233.16H635.558V238H632.898V223.56H638.038C641.378 223.56 643.538 225.34 643.538 228.34C643.538 230.4 642.578 231.82 640.958 232.6C640.878 232.62 640.798 232.66 640.738 232.68L644.218 238H641.138L638.078 233.16H638.038ZM638.218 225.92H635.558V230.72H638.218C639.718 230.72 640.858 229.84 640.858 228.24C640.858 226.74 639.798 225.92 638.218 225.92Z" fill="#FFFFEE"/>
<rect x="1053.7" y="2.5" width="215.307" height="74" rx="11.5" fill="#6F31FF" stroke="#1A0B33"/>
<path d="M1078.6 29.624V31H1071.84V19.512H1073.33V29.624H1078.6ZM1083.36 31.16C1080.96 31.16 1079.36 29.384 1079.36 26.712C1079.36 24.232 1081.04 22.376 1083.32 22.376C1084.55 22.376 1085.56 22.872 1086.26 23.72C1086.95 24.568 1087.2 25.592 1087.2 26.552C1087.2 26.744 1087.19 26.936 1087.17 27.128H1080.82C1080.85 27.64 1080.95 28.072 1081.12 28.44C1081.52 29.336 1082.31 29.864 1083.41 29.864C1084.71 29.864 1085.57 29.208 1085.83 28.04H1087.19C1086.79 30.04 1085.35 31.16 1083.36 31.16ZM1080.84 26.12H1085.72C1085.65 24.632 1084.74 23.56 1083.32 23.56C1082.29 23.56 1081.56 24.12 1081.12 25.016C1080.98 25.32 1080.88 25.688 1080.84 26.12ZM1094.08 22.536H1095.55L1092.34 31H1090.88L1087.67 22.536H1089.22L1091.65 29.176L1094.08 22.536ZM1099.96 31.16C1097.56 31.16 1095.96 29.384 1095.96 26.712C1095.96 24.232 1097.64 22.376 1099.91 22.376C1101.14 22.376 1102.15 22.872 1102.85 23.72C1103.54 24.568 1103.8 25.592 1103.8 26.552C1103.8 26.744 1103.78 26.936 1103.77 27.128H1097.41C1097.45 27.64 1097.54 28.072 1097.72 28.44C1098.12 29.336 1098.9 29.864 1100.01 29.864C1101.3 29.864 1102.17 29.208 1102.42 28.04H1103.78C1103.38 30.04 1101.94 31.16 1099.96 31.16ZM1097.43 26.12H1102.31C1102.25 24.632 1101.33 23.56 1099.91 23.56C1098.89 23.56 1098.15 24.12 1097.72 25.016C1097.57 25.32 1097.48 25.688 1097.43 26.12ZM1106.85 18.84V31H1105.39V18.84H1106.85ZM1115.52 31.16C1113.47 31.16 1111.9 29.704 1111.84 27.704H1113.2C1113.31 29.032 1114.22 29.848 1115.5 29.848C1117.08 29.848 1117.92 28.776 1117.92 27.352C1117.92 26.04 1117.02 24.92 1115.52 24.92C1114.51 24.92 1113.74 25.416 1113.31 26.136L1112.04 26.088L1113 19.512H1118.7V20.824H1114L1113.45 24.488C1114.08 23.912 1114.92 23.656 1115.71 23.656C1118.01 23.656 1119.32 25.352 1119.32 27.336C1119.32 29.432 1117.9 31.16 1115.52 31.16Z" fill="#FFFFEE"/>
<path d="M1077.89 57H1073.07V42.64H1077.89C1082.47 42.64 1085.17 45.54 1085.17 49.76C1085.17 53.9 1082.35 57 1077.89 57ZM1077.77 45.18H1075.71V54.46H1077.77C1080.85 54.46 1082.47 52.62 1082.47 49.76C1082.47 46.92 1080.85 45.18 1077.77 45.18ZM1089.56 42.64V57H1086.9V42.64H1089.56ZM1094.21 51.06V57H1091.59V42.64H1101.55V45.12H1094.21V48.58H1101.55V51.06H1094.21ZM1105.79 51.06V57H1103.17V42.64H1113.13V45.12H1105.79V48.58H1113.13V51.06H1105.79ZM1117.39 54.52H1124.89V57H1114.75V42.64H1124.89V45.12H1117.39L1117.37 48.58H1124.89V51.06H1117.37L1117.39 54.52ZM1131.85 52.16H1129.37V57H1126.71V42.56H1131.85C1135.19 42.56 1137.35 44.34 1137.35 47.34C1137.35 49.4 1136.39 50.82 1134.77 51.6C1134.69 51.62 1134.61 51.66 1134.55 51.68L1138.03 57H1134.95L1131.89 52.16H1131.85ZM1132.03 44.92H1129.37V49.72H1132.03C1133.53 49.72 1134.67 48.84 1134.67 47.24C1134.67 45.74 1133.61 44.92 1132.03 44.92ZM1142.41 54.52H1149.91V57H1139.77V42.64H1149.91V45.12H1142.41L1142.39 48.58H1149.91V51.06H1142.39L1142.41 54.52ZM1163.81 57H1160.67L1154.35 46.54V57H1151.73V42.64H1155.11L1161.17 52.7V42.64H1163.81V57ZM1172.33 45.12V57H1169.67V45.12H1165.11V42.64H1176.95V45.12H1172.33ZM1180.97 42.64V57H1178.31V42.64H1180.97ZM1185.16 57H1182.3L1187.74 42.64H1190.62L1196.02 57H1193L1191.94 54.08H1186.22L1185.16 57ZM1189.1 46.18L1187.08 51.7H1191.1L1189.1 46.18ZM1202.64 45.12V57H1199.98V45.12H1195.42V42.64H1207.26V45.12H1202.64ZM1211.26 54.52H1218.76V57H1208.62V42.64H1218.76V45.12H1211.26L1211.24 48.58H1218.76V51.06H1211.24L1211.26 54.52ZM1225.45 57H1220.63V42.64H1225.45C1230.03 42.64 1232.73 45.54 1232.73 49.76C1232.73 53.9 1229.91 57 1225.45 57ZM1225.33 45.18H1223.27V54.46H1225.33C1228.41 54.46 1230.03 52.62 1230.03 49.76C1230.03 46.92 1228.41 45.18 1225.33 45.18Z" fill="#FFFFEE"/>
<path d="M328.729 291.624V293H321.977V281.512H323.465V291.624H328.729ZM333.498 293.16C331.098 293.16 329.498 291.384 329.498 288.712C329.498 286.232 331.178 284.376 333.45 284.376C334.682 284.376 335.69 284.872 336.394 285.72C337.082 286.568 337.338 287.592 337.338 288.552C337.338 288.744 337.322 288.936 337.306 289.128H330.954C330.986 289.64 331.082 290.072 331.258 290.44C331.658 291.336 332.442 291.864 333.546 291.864C334.842 291.864 335.706 291.208 335.962 290.04H337.322C336.922 292.04 335.482 293.16 333.498 293.16ZM330.97 288.12H335.85C335.786 286.632 334.874 285.56 333.45 285.56C332.426 285.56 331.69 286.12 331.258 287.016C331.114 287.32 331.018 287.688 330.97 288.12ZM344.216 284.536H345.688L342.472 293H341.016L337.8 284.536H339.352L341.784 291.176L344.216 284.536ZM350.091 293.16C347.691 293.16 346.091 291.384 346.091 288.712C346.091 286.232 347.771 284.376 350.043 284.376C351.275 284.376 352.283 284.872 352.987 285.72C353.675 286.568 353.931 287.592 353.931 288.552C353.931 288.744 353.915 288.936 353.899 289.128H347.547C347.579 289.64 347.675 290.072 347.851 290.44C348.251 291.336 349.035 291.864 350.139 291.864C351.435 291.864 352.299 291.208 352.555 290.04H353.915C353.515 292.04 352.075 293.16 350.091 293.16ZM347.563 288.12H352.443C352.379 286.632 351.467 285.56 350.043 285.56C349.019 285.56 348.283 286.12 347.851 287.016C347.707 287.32 347.611 287.688 347.563 288.12ZM356.979 280.84V293H355.523V280.84H356.979ZM364.305 291.752H368.913V293H362.145V292.216L365.569 287.976C366.401 286.952 366.833 286.424 367.137 285.736C367.281 285.4 367.361 285.064 367.361 284.728C367.361 283.464 366.545 282.68 365.345 282.68C364.081 282.68 363.233 283.528 363.233 284.792H361.889C361.889 282.856 363.345 281.448 365.393 281.448C367.345 281.448 368.785 282.776 368.785 284.616C368.785 286.056 368.305 286.584 366.625 288.696L364.305 291.752Z" fill="#A0A0A0"/>
<path d="M331.931 304.64H334.591V313.68C334.591 317.02 332.471 319.3 328.871 319.3C325.251 319.3 323.131 317.02 323.131 313.68V304.64H325.791V313.82C325.791 315.6 326.831 316.8 328.871 316.8C330.931 316.8 331.931 315.6 331.931 313.82V304.64ZM348.571 319H345.431L339.111 308.54V319H336.491V304.64H339.871L345.931 314.7V304.64H348.571V319ZM355.356 319H350.536V304.64H355.356C359.936 304.64 362.636 307.54 362.636 311.76C362.636 315.9 359.816 319 355.356 319ZM355.236 307.18H353.176V316.46H355.236C358.316 316.46 359.936 314.62 359.936 311.76C359.936 308.92 358.316 307.18 355.236 307.18ZM367.004 316.52H374.504V319H364.364V304.64H374.504V307.12H367.004L366.984 310.58H374.504V313.06H366.984L367.004 316.52ZM381.455 314.16H378.975V319H376.315V304.56H381.455C384.795 304.56 386.955 306.34 386.955 309.34C386.955 311.4 385.995 312.82 384.375 313.6C384.295 313.62 384.215 313.66 384.155 313.68L387.635 319H384.555L381.495 314.16H381.455ZM381.635 306.92H378.975V311.72H381.635C383.135 311.72 384.275 310.84 384.275 309.24C384.275 307.74 383.215 306.92 381.635 306.92ZM400.523 314.66C400.523 317.28 398.403 319.2 394.863 319.2C392.523 319.2 390.723 318.38 389.783 316.94C389.323 316.24 389.063 315.46 389.023 314.6H391.703C391.803 316.12 392.883 316.84 394.823 316.84C396.663 316.84 397.823 316.2 397.823 314.92C397.823 313.88 397.103 313.42 395.643 313.12L393.363 312.7C392.083 312.46 391.163 312.08 390.463 311.44C389.743 310.82 389.303 309.94 389.303 308.74C389.303 307.08 390.243 305.72 391.863 305C392.663 304.64 393.563 304.46 394.543 304.46H394.643C397.223 304.46 398.683 305.28 399.563 306.64C400.003 307.34 400.243 308.12 400.303 308.98H397.583C397.503 307.58 396.523 306.74 394.643 306.74C392.883 306.74 391.883 307.5 391.883 308.64C391.883 309.86 392.863 310.18 394.223 310.46L396.603 310.92C399.083 311.4 400.523 312.52 400.523 314.66ZM408.443 307.12V319H405.783V307.12H401.223V304.64H413.063V307.12H408.443ZM415.293 319H412.433L417.873 304.64H420.753L426.153 319H423.133L422.073 316.08H416.353L415.293 319ZM419.233 308.18L417.213 313.7H421.233L419.233 308.18ZM439.528 319H436.388L430.068 308.54V319H427.448V304.64H430.828L436.888 314.7V304.64H439.528V319ZM446.313 319H441.493V304.64H446.313C450.893 304.64 453.593 307.54 453.593 311.76C453.593 315.9 450.773 319 446.313 319ZM446.193 307.18H444.133V316.46H446.193C449.273 316.46 450.893 314.62 450.893 311.76C450.893 308.92 449.273 307.18 446.193 307.18ZM456.133 319H453.273L458.713 304.64H461.593L466.993 319H463.973L462.913 316.08H457.193L456.133 319ZM460.073 308.18L458.053 313.7H462.073L460.073 308.18ZM478.808 314.82C478.808 317.46 476.848 319 473.788 319H468.348V304.64H473.548C476.508 304.64 478.288 306 478.288 308.42C478.288 309.76 477.528 310.86 476.188 311.5C477.888 312.04 478.808 313.22 478.808 314.82ZM473.348 306.92H470.908V310.5H473.348C474.788 310.5 475.668 309.88 475.668 308.76C475.668 307.54 474.788 306.92 473.348 306.92ZM473.608 312.72H470.908V316.64H473.608C475.188 316.64 476.188 315.88 476.188 314.66C476.188 313.44 475.188 312.72 473.608 312.72ZM489.69 316.52V319H480.69V304.64H483.35V316.52H489.69ZM493.898 316.52H501.398V319H491.258V304.64H501.398V307.12H493.898L493.878 310.58H501.398V313.06H493.878L493.898 316.52Z" fill="#A0A0A0"/>
<rect x="303.832" y="264.5" width="215.307" height="74" rx="11.5" stroke="#3F3F50"/>
<g filter="url(#filter1_n_4752_7419)">
<path d="M251.5 520H0L251.5 482V520Z" fill="#27273F"/>
</g>
<line x1="251" y1="519" x2="251" y2="364" stroke="#3F3F50" stroke-dasharray="5 5"/>
<path d="M60.2913 359.624V361H53.5393V349.512H55.0273V359.624H60.2913ZM65.06 361.16C62.66 361.16 61.06 359.384 61.06 356.712C61.06 354.232 62.74 352.376 65.012 352.376C66.244 352.376 67.252 352.872 67.956 353.72C68.644 354.568 68.9 355.592 68.9 356.552C68.9 356.744 68.884 356.936 68.868 357.128H62.516C62.548 357.64 62.644 358.072 62.82 358.44C63.22 359.336 64.004 359.864 65.108 359.864C66.404 359.864 67.268 359.208 67.524 358.04H68.884C68.484 360.04 67.044 361.16 65.06 361.16ZM62.532 356.12H67.412C67.348 354.632 66.436 353.56 65.012 353.56C63.988 353.56 63.252 354.12 62.82 355.016C62.676 355.32 62.58 355.688 62.532 356.12ZM75.778 352.536H77.25L74.034 361H72.578L69.362 352.536H70.914L73.346 359.176L75.778 352.536ZM81.6538 361.16C79.2538 361.16 77.6538 359.384 77.6538 356.712C77.6538 354.232 79.3338 352.376 81.6058 352.376C82.8378 352.376 83.8458 352.872 84.5498 353.72C85.2378 354.568 85.4938 355.592 85.4938 356.552C85.4938 356.744 85.4778 356.936 85.4618 357.128H79.1098C79.1418 357.64 79.2378 358.072 79.4138 358.44C79.8138 359.336 80.5978 359.864 81.7018 359.864C82.9978 359.864 83.8618 359.208 84.1178 358.04H85.4778C85.0778 360.04 83.6378 361.16 81.6538 361.16ZM79.1258 356.12H84.0058C83.9418 354.632 83.0298 353.56 81.6058 353.56C80.5818 353.56 79.8458 354.12 79.4138 355.016C79.2698 355.32 79.1738 355.688 79.1258 356.12ZM88.5414 348.84V361H87.0854V348.84H88.5414ZM96.6354 349.512V361H95.2594V350.696H93.1474V349.512H96.6354Z" fill="#A0A0A0"/>
<path d="M61.6061 387.3C57.6061 387.3 54.4461 384 54.4461 379.8C54.4461 375.62 57.6061 372.34 61.6061 372.34C65.2661 372.34 68.2461 374.8 68.7261 378.4H65.8861C65.5461 376.36 63.7661 374.88 61.6261 374.88C59.0461 374.88 57.2261 376.92 57.2261 379.8C57.2261 382.72 59.0061 384.76 61.6261 384.76C63.8261 384.76 65.4861 383.32 65.8861 381.22H68.7261C68.2061 384.82 65.2861 387.3 61.6061 387.3ZM77.3897 387.3C73.2497 387.3 70.0697 384.06 70.0697 379.8C70.0697 375.54 73.2497 372.34 77.3897 372.34C81.5497 372.34 84.7297 375.54 84.7297 379.8C84.7297 384.06 81.5497 387.3 77.3897 387.3ZM77.3897 384.8C80.2297 384.8 82.0297 382.58 82.0297 379.8C82.0297 377.04 80.2297 374.84 77.3897 374.84C74.5697 374.84 72.7697 377.04 72.7697 379.8C72.7697 382.58 74.5697 384.8 77.3897 384.8ZM98.4072 387H95.2672L88.9472 376.54V387H86.3272V372.64H89.7072L95.7672 382.7V372.64H98.4072V387ZM102.992 381.06V387H100.372V372.64H110.332V375.12H102.992V378.58H110.332V381.06H102.992ZM120.674 372.64H123.334V381.68C123.334 385.02 121.214 387.3 117.614 387.3C113.994 387.3 111.874 385.02 111.874 381.68V372.64H114.534V381.82C114.534 383.6 115.574 384.8 117.614 384.8C119.674 384.8 120.674 383.6 120.674 381.82V372.64ZM136.433 382.66C136.433 385.28 134.313 387.2 130.773 387.2C128.433 387.2 126.633 386.38 125.693 384.94C125.233 384.24 124.973 383.46 124.933 382.6H127.613C127.713 384.12 128.793 384.84 130.733 384.84C132.573 384.84 133.733 384.2 133.733 382.92C133.733 381.88 133.013 381.42 131.553 381.12L129.273 380.7C127.993 380.46 127.073 380.08 126.373 379.44C125.653 378.82 125.213 377.94 125.213 376.74C125.213 375.08 126.153 373.72 127.773 373C128.573 372.64 129.473 372.46 130.453 372.46H130.553C133.133 372.46 134.593 373.28 135.473 374.64C135.913 375.34 136.153 376.12 136.213 376.98H133.493C133.413 375.58 132.433 374.74 130.553 374.74C128.793 374.74 127.793 375.5 127.793 376.64C127.793 377.86 128.773 378.18 130.133 378.46L132.513 378.92C134.993 379.4 136.433 380.52 136.433 382.66ZM140.942 372.64V387H138.282V372.64H140.942ZM154.989 387H151.849L145.529 376.54V387H142.909V372.64H146.289L152.349 382.7V372.64H154.989V387ZM163.934 387.3C159.794 387.3 156.574 384.16 156.574 379.78C156.574 375.54 159.614 372.34 163.834 372.34C166.254 372.34 168.194 373.34 169.334 374.78C169.914 375.52 170.314 376.46 170.554 377.6H167.834C167.454 376.32 166.834 375.66 165.794 375.18C165.274 374.96 164.594 374.84 163.754 374.84C161.214 374.84 159.214 376.64 159.214 379.84C159.214 382.84 161.134 384.8 164.054 384.8C166.754 384.8 168.194 383.34 168.194 381.08V380.98H163.934V378.9H170.834C170.794 380.8 170.654 382.16 170.394 382.98C170.134 383.8 169.734 384.54 169.174 385.18C168.054 386.48 166.174 387.3 163.934 387.3Z" fill="#A0A0A0"/>
<rect x="35.3906" y="332.5" width="215.307" height="74" rx="11.5" stroke="#3F3F50"/>
<line y1="-0.5" x2="199.001" y2="-0.5" transform="matrix(0.00278704 -0.999996 0.999997 0.00226502 519.637 519)" stroke="#3F3F50" stroke-dasharray="5 5"/>
<line y1="-0.5" x2="275" y2="-0.5" transform="matrix(0.00201679 -0.999998 0.999999 0.00163904 776.984 519)" stroke="#A0A0A0" stroke-dasharray="5 5"/>
<line x1="1021.08" y1="519" x2="1021.08" y2="167" stroke="#BF9FFF" stroke-dasharray="5 5"/>
<line x1="1265.67" y1="519" x2="1265.67" y2="77" stroke="#BF9FFF" stroke-dasharray="5 5"/>
<g filter="url(#filter2_n_4752_7419)">
<path d="M777.5 519V373.5C875.858 346.719 928.175 328.369 1019.5 290V519H777.5Z" fill="#877BFF"/>
</g>
<g filter="url(#filter3_n_4752_7419)">
<path d="M775.5 373C677.442 403.079 621.824 416.513 520.5 434.629V520H775.5V373Z" fill="#9364FF"/>
</g>
<g filter="url(#filter4_n_4752_7419)">
<path d="M1264.5 169C1167.51 225.697 1114.41 252.222 1022.5 289V519H1264.5V169Z" fill="#6F31FF"/>
</g>
<defs>
<filter id="filter0_n_4752_7419" x="0.296875" y="169.406" width="1266.27" height="351.094" filterUnits="userSpaceOnUse" color-interpolation-filters="sRGB">
<feFlood flood-opacity="0" result="BackgroundImageFix"/>
<feBlend mode="normal" in="SourceGraphic" in2="BackgroundImageFix" result="shape"/>
<feTurbulence type="fractalNoise" baseFrequency="2 2" stitchTiles="stitch" numOctaves="3" result="noise" seed="8092" />
<feColorMatrix in="noise" type="luminanceToAlpha" result="alphaNoise" />
<feComponentTransfer in="alphaNoise" result="coloredNoise1">
<feFuncA type="discrete" tableValues="1 1 1 1 1 1 1 1 1 1 1 1 1 1 1 1 1 1 1 1 1 1 1 1 1 1 1 1 1 1 1 1 1 1 1 1 1 1 1 1 1 1 1 1 1 1 1 1 1 1 1 0 0 0 0 0 0 0 0 0 0 0 0 0 0 0 0 0 0 0 0 0 0 0 0 0 0 0 0 0 0 0 0 0 0 0 0 0 0 0 0 0 0 0 0 0 0 0 0 0 "/>
</feComponentTransfer>
<feComposite operator="in" in2="shape" in="coloredNoise1" result="noise1Clipped" />
<feFlood flood-color="rgba(0, 0, 0, 0.25)" result="color1Flood" />
<feComposite operator="in" in2="noise1Clipped" in="color1Flood" result="color1" />
<feMerge result="effect1_noise_4752_7419">
<feMergeNode in="shape" />
<feMergeNode in="color1" />
</feMerge>
</filter>
<filter id="filter1_n_4752_7419" x="0" y="482" width="251.5" height="38" filterUnits="userSpaceOnUse" color-interpolation-filters="sRGB">
<feFlood flood-opacity="0" result="BackgroundImageFix"/>
<feBlend mode="normal" in="SourceGraphic" in2="BackgroundImageFix" result="shape"/>
<feTurbulence type="fractalNoise" baseFrequency="2 2" stitchTiles="stitch" numOctaves="3" result="noise" seed="4536" />
<feColorMatrix in="noise" type="luminanceToAlpha" result="alphaNoise" />
<feComponentTransfer in="alphaNoise" result="coloredNoise1">
<feFuncA type="discrete" tableValues="1 1 1 1 1 1 1 1 1 1 1 1 1 1 1 1 1 1 1 1 1 1 1 1 1 1 1 1 1 1 1 1 1 1 1 1 1 1 1 1 1 1 1 1 1 1 1 1 1 1 1 0 0 0 0 0 0 0 0 0 0 0 0 0 0 0 0 0 0 0 0 0 0 0 0 0 0 0 0 0 0 0 0 0 0 0 0 0 0 0 0 0 0 0 0 0 0 0 0 0 "/>
</feComponentTransfer>
<feComposite operator="in" in2="shape" in="coloredNoise1" result="noise1Clipped" />
<feFlood flood-color="rgba(0, 0, 0, 0.25)" result="color1Flood" />
<feComposite operator="in" in2="noise1Clipped" in="color1Flood" result="color1" />
<feMerge result="effect1_noise_4752_7419">
<feMergeNode in="shape" />
<feMergeNode in="color1" />
</feMerge>
</filter>
<filter id="filter2_n_4752_7419" x="777.5" y="290" width="242" height="229" filterUnits="userSpaceOnUse" color-interpolation-filters="sRGB">
<feFlood flood-opacity="0" result="BackgroundImageFix"/>
<feBlend mode="normal" in="SourceGraphic" in2="BackgroundImageFix" result="shape"/>
<feTurbulence type="fractalNoise" baseFrequency="1 1" stitchTiles="stitch" numOctaves="3" result="noise" seed="9973" />
<feColorMatrix in="noise" type="luminanceToAlpha" result="alphaNoise" />
<feComponentTransfer in="alphaNoise" result="coloredNoise1">
<feFuncA type="discrete" tableValues="1 1 1 1 1 1 1 1 1 1 1 1 1 1 1 1 1 1 1 1 1 1 1 1 1 1 1 1 1 1 1 1 1 1 1 1 1 1 1 1 1 1 1 1 1 1 1 1 1 1 1 0 0 0 0 0 0 0 0 0 0 0 0 0 0 0 0 0 0 0 0 0 0 0 0 0 0 0 0 0 0 0 0 0 0 0 0 0 0 0 0 0 0 0 0 0 0 0 0 0 "/>
</feComponentTransfer>
<feComposite operator="in" in2="shape" in="coloredNoise1" result="noise1Clipped" />
<feFlood flood-color="rgba(0, 0, 0, 0.25)" result="color1Flood" />
<feComposite operator="in" in2="noise1Clipped" in="color1Flood" result="color1" />
<feMerge result="effect1_noise_4752_7419">
<feMergeNode in="shape" />
<feMergeNode in="color1" />
</feMerge>
</filter>
<filter id="filter3_n_4752_7419" x="520.5" y="373" width="255" height="147" filterUnits="userSpaceOnUse" color-interpolation-filters="sRGB">
<feFlood flood-opacity="0" result="BackgroundImageFix"/>
<feBlend mode="normal" in="SourceGraphic" in2="BackgroundImageFix" result="shape"/>
<feTurbulence type="fractalNoise" baseFrequency="1 1" stitchTiles="stitch" numOctaves="3" result="noise" seed="6733" />
<feColorMatrix in="noise" type="luminanceToAlpha" result="alphaNoise" />
<feComponentTransfer in="alphaNoise" result="coloredNoise1">
<feFuncA type="discrete" tableValues="1 1 1 1 1 1 1 1 1 1 1 1 1 1 1 1 1 1 1 1 1 1 1 1 1 1 1 1 1 1 1 1 1 1 1 1 1 1 1 1 1 1 1 1 1 1 1 1 1 1 1 0 0 0 0 0 0 0 0 0 0 0 0 0 0 0 0 0 0 0 0 0 0 0 0 0 0 0 0 0 0 0 0 0 0 0 0 0 0 0 0 0 0 0 0 0 0 0 0 0 "/>
</feComponentTransfer>
<feComposite operator="in" in2="shape" in="coloredNoise1" result="noise1Clipped" />
<feFlood flood-color="rgba(0, 0, 0, 0.25)" result="color1Flood" />
<feComposite operator="in" in2="noise1Clipped" in="color1Flood" result="color1" />
<feMerge result="effect1_noise_4752_7419">
<feMergeNode in="shape" />
<feMergeNode in="color1" />
</feMerge>
</filter>
<filter id="filter4_n_4752_7419" x="1022.5" y="169" width="242" height="350" filterUnits="userSpaceOnUse" color-interpolation-filters="sRGB">
<feFlood flood-opacity="0" result="BackgroundImageFix"/>
<feBlend mode="normal" in="SourceGraphic" in2="BackgroundImageFix" result="shape"/>
<feTurbulence type="fractalNoise" baseFrequency="1 1" stitchTiles="stitch" numOctaves="3" result="noise" seed="8093" />
<feColorMatrix in="noise" type="luminanceToAlpha" result="alphaNoise" />
<feComponentTransfer in="alphaNoise" result="coloredNoise1">
<feFuncA type="discrete" tableValues="1 1 1 1 1 1 1 1 1 1 1 1 1 1 1 1 1 1 1 1 1 1 1 1 1 1 1 1 1 1 1 1 1 1 1 1 1 1 1 1 1 1 1 1 1 1 1 1 1 1 1 0 0 0 0 0 0 0 0 0 0 0 0 0 0 0 0 0 0 0 0 0 0 0 0 0 0 0 0 0 0 0 0 0 0 0 0 0 0 0 0 0 0 0 0 0 0 0 0 0 "/>
</feComponentTransfer>
<feComposite operator="in" in2="shape" in="coloredNoise1" result="noise1Clipped" />
<feFlood flood-color="rgba(0, 0, 0, 0.25)" result="color1Flood" />
<feComposite operator="in" in2="noise1Clipped" in="color1Flood" result="color1" />
<feMerge result="effect1_noise_4752_7419">
<feMergeNode in="shape" />
<feMergeNode in="color1" />
</feMerge>
</filter>
</defs>
</svg>
