<svg width="644" height="616" viewBox="0 0 644 616" fill="none" xmlns="http://www.w3.org/2000/svg">
<g clip-path="url(#clip0_4488_2947)">
<rect x="426.637" y="245.578" width="123" height="184" rx="5" fill="#27273F"/>
<rect x="440.637" y="257.578" width="40.3999" height="9.96894" rx="4" fill="#A0A0A0" fill-opacity="0.1"/>
<rect x="440.637" y="270.868" width="82.6362" height="9.13819" rx="4" fill="#A0A0A0" fill-opacity="0.1"/>
<rect x="440.637" y="283.335" width="82.6362" height="9.96894" rx="4" fill="#A0A0A0" fill-opacity="0.1"/>
<rect x="440.637" y="319.574" width="40.3999" height="9.7973" rx="4" fill="#A0A0A0" fill-opacity="0.1"/>
<rect x="440.637" y="332.64" width="82.6362" height="8.98086" rx="4" fill="#A0A0A0" fill-opacity="0.1"/>
<rect x="440.637" y="344.882" width="82.6362" height="9.7973" rx="4" fill="#A0A0A0" fill-opacity="0.1"/>
<rect x="440.637" y="380.574" width="40.3999" height="9.7973" rx="4" fill="#A0A0A0" fill-opacity="0.1"/>
<rect x="440.637" y="393.64" width="82.6362" height="8.98086" rx="4" fill="#A0A0A0" fill-opacity="0.1"/>
</g>
<g clip-path="url(#clip1_4488_2947)">
<rect x="311" y="246" width="123" height="184" rx="5" fill="#27273F"/>
<rect x="324.637" y="257.578" width="40.3999" height="9.96894" rx="4" fill="#A0A0A0" fill-opacity="0.1"/>
<rect x="324.637" y="270.868" width="82.6362" height="9.13819" rx="4" fill="#A0A0A0" fill-opacity="0.1"/>
<rect x="324.637" y="283.335" width="82.6362" height="9.96894" rx="4" fill="#A0A0A0" fill-opacity="0.1"/>
<rect x="324.637" y="319.574" width="40.3999" height="9.7973" rx="4" fill="#A0A0A0" fill-opacity="0.1"/>
<rect x="324.637" y="332.64" width="82.6362" height="8.98086" rx="4" fill="#A0A0A0" fill-opacity="0.1"/>
<rect x="324.637" y="344.882" width="82.6362" height="9.7973" rx="4" fill="#A0A0A0" fill-opacity="0.1"/>
<rect x="324.637" y="380.574" width="40.3999" height="9.7973" rx="4" fill="#A0A0A0" fill-opacity="0.1"/>
<rect x="324.637" y="393.64" width="82.6362" height="8.98086" rx="4" fill="#A0A0A0" fill-opacity="0.1"/>
</g>
<g clip-path="url(#clip2_4488_2947)">
<rect x="194" y="246" width="123" height="184" rx="5" fill="#27273F"/>
<rect x="207.637" y="257.578" width="40.3999" height="9.96894" rx="4" fill="#A0A0A0" fill-opacity="0.1"/>
<rect x="207.637" y="270.868" width="82.6362" height="9.13819" rx="4" fill="#A0A0A0" fill-opacity="0.1"/>
<rect x="207.637" y="283.335" width="82.6362" height="9.96894" rx="4" fill="#A0A0A0" fill-opacity="0.1"/>
<rect x="207.637" y="319.574" width="40.3999" height="9.7973" rx="4" fill="#A0A0A0" fill-opacity="0.1"/>
<rect x="207.637" y="332.64" width="82.6362" height="8.98086" rx="4" fill="#A0A0A0" fill-opacity="0.1"/>
<rect x="207.637" y="344.882" width="82.6362" height="9.7973" rx="4" fill="#A0A0A0" fill-opacity="0.1"/>
<rect x="207.637" y="380.574" width="40.3999" height="9.7973" rx="4" fill="#A0A0A0" fill-opacity="0.1"/>
<rect x="207.637" y="393.64" width="82.6362" height="8.98086" rx="4" fill="#A0A0A0" fill-opacity="0.1"/>
</g>
<rect x="79" y="246" width="108" height="45" rx="5" fill="#27273F"/>
<rect x="88" y="255" width="90" height="25" rx="3" fill="#A0A0A0" fill-opacity="0.1"/>
<rect x="79" y="298" width="108" height="45" rx="5" fill="#27273F"/>
<rect x="88" y="307" width="90" height="25" rx="3" fill="#A0A0A0" fill-opacity="0.1"/>
<rect x="79.3477" y="194" width="107.653" height="45" rx="5" fill="#C3BDFF"/>
<path d="M96.5341 222.573C95.6288 222.573 94.8308 222.368 94.1401 221.957C93.4494 221.537 92.9081 220.944 92.5161 220.179C92.1241 219.404 91.9281 218.476 91.9281 217.393C91.9281 216.329 92.1194 215.41 92.5021 214.635C92.8848 213.851 93.4214 213.249 94.1121 212.829C94.8028 212.4 95.6148 212.185 96.5481 212.185C97.8174 212.185 98.8021 212.502 99.5021 213.137C100.202 213.762 100.659 214.64 100.874 215.769L98.9701 215.867C98.8488 215.214 98.5874 214.7 98.1861 214.327C97.7848 213.954 97.2388 213.767 96.5481 213.767C95.9881 213.767 95.5028 213.916 95.0921 214.215C94.6814 214.514 94.3641 214.934 94.1401 215.475C93.9161 216.016 93.8041 216.656 93.8041 217.393C93.8041 218.14 93.9161 218.784 94.1401 219.325C94.3734 219.857 94.6954 220.268 95.1061 220.557C95.5168 220.846 95.9928 220.991 96.5341 220.991C97.2714 220.991 97.8408 220.79 98.2421 220.389C98.6528 219.978 98.9141 219.418 99.0261 218.709L100.93 218.807C100.799 219.582 100.547 220.254 100.174 220.823C99.8008 221.383 99.3061 221.817 98.6901 222.125C98.0834 222.424 97.3648 222.573 96.5341 222.573ZM105.562 222.517C104.825 222.517 104.176 222.358 103.616 222.041C103.065 221.714 102.636 221.257 102.328 220.669C102.029 220.081 101.88 219.395 101.88 218.611C101.88 217.818 102.029 217.132 102.328 216.553C102.636 215.965 103.065 215.512 103.616 215.195C104.176 214.868 104.825 214.705 105.562 214.705C106.299 214.705 106.943 214.868 107.494 215.195C108.045 215.512 108.469 215.965 108.768 216.553C109.076 217.132 109.23 217.818 109.23 218.611C109.23 219.395 109.076 220.081 108.768 220.669C108.469 221.257 108.045 221.714 107.494 222.041C106.943 222.358 106.299 222.517 105.562 222.517ZM105.562 221.061C106.141 221.061 106.584 220.846 106.892 220.417C107.209 219.988 107.368 219.386 107.368 218.611C107.368 217.846 107.209 217.248 106.892 216.819C106.584 216.38 106.141 216.161 105.562 216.161C104.983 216.161 104.535 216.38 104.218 216.819C103.901 217.248 103.742 217.846 103.742 218.611C103.742 219.386 103.901 219.988 104.218 220.417C104.535 220.846 104.983 221.061 105.562 221.061ZM110.613 222.349V214.873H112.237L112.293 216.707L112.125 216.623C112.209 216.222 112.353 215.881 112.559 215.601C112.773 215.312 113.03 215.092 113.329 214.943C113.637 214.784 113.973 214.705 114.337 214.705C114.971 214.705 115.485 214.887 115.877 215.251C116.269 215.606 116.516 216.096 116.619 216.721H116.381C116.465 216.282 116.609 215.918 116.815 215.629C117.02 215.33 117.277 215.102 117.585 214.943C117.902 214.784 118.257 214.705 118.649 214.705C119.162 214.705 119.605 214.817 119.979 215.041C120.352 215.256 120.637 215.573 120.833 215.993C121.038 216.413 121.141 216.931 121.141 217.547V222.349H119.349V218.009C119.349 217.393 119.241 216.931 119.027 216.623C118.821 216.315 118.504 216.161 118.075 216.161C117.785 216.161 117.538 216.236 117.333 216.385C117.127 216.534 116.969 216.754 116.857 217.043C116.754 217.323 116.703 217.664 116.703 218.065V222.349H115.037V218.065C115.037 217.449 114.943 216.978 114.757 216.651C114.57 216.324 114.248 216.161 113.791 216.161C113.501 216.161 113.254 216.236 113.049 216.385C112.853 216.534 112.694 216.754 112.573 217.043C112.461 217.323 112.405 217.664 112.405 218.065V222.349H110.613ZM122.863 224.449V214.873H124.585L124.627 216.469L124.445 216.385C124.631 215.834 124.935 215.419 125.355 215.139C125.784 214.85 126.283 214.705 126.853 214.705C127.562 214.705 128.15 214.882 128.617 215.237C129.093 215.592 129.447 216.063 129.681 216.651C129.914 217.239 130.031 217.892 130.031 218.611C130.031 219.33 129.909 219.983 129.667 220.571C129.433 221.159 129.079 221.63 128.603 221.985C128.136 222.34 127.548 222.517 126.839 222.517C126.465 222.517 126.115 222.452 125.789 222.321C125.471 222.19 125.196 222.004 124.963 221.761C124.739 221.518 124.58 221.234 124.487 220.907L124.655 220.767V224.449H122.863ZM126.419 221.061C126.96 221.061 127.385 220.846 127.693 220.417C128.01 219.978 128.169 219.376 128.169 218.611C128.169 217.846 128.01 217.248 127.693 216.819C127.385 216.38 126.96 216.161 126.419 216.161C126.055 216.161 125.742 216.254 125.481 216.441C125.219 216.618 125.014 216.889 124.865 217.253C124.725 217.617 124.655 218.07 124.655 218.611C124.655 219.152 124.725 219.605 124.865 219.969C125.005 220.333 125.205 220.608 125.467 220.795C125.737 220.972 126.055 221.061 126.419 221.061ZM134.655 222.517C133.909 222.517 133.26 222.358 132.709 222.041C132.159 221.714 131.734 221.257 131.435 220.669C131.137 220.081 130.987 219.395 130.987 218.611C130.987 217.827 131.137 217.146 131.435 216.567C131.734 215.979 132.154 215.522 132.695 215.195C133.246 214.868 133.885 214.705 134.613 214.705C135.323 214.705 135.943 214.864 136.475 215.181C137.017 215.498 137.432 215.956 137.721 216.553C138.011 217.15 138.155 217.869 138.155 218.709V219.115H132.849C132.887 219.768 133.064 220.263 133.381 220.599C133.708 220.926 134.137 221.089 134.669 221.089C135.071 221.089 135.402 221 135.663 220.823C135.934 220.636 136.121 220.38 136.223 220.053L138.057 220.165C137.852 220.893 137.446 221.467 136.839 221.887C136.242 222.307 135.514 222.517 134.655 222.517ZM132.849 217.911H136.307C136.27 217.304 136.097 216.856 135.789 216.567C135.481 216.268 135.089 216.119 134.613 216.119C134.137 216.119 133.741 216.273 133.423 216.581C133.115 216.889 132.924 217.332 132.849 217.911ZM142.292 222.349C141.546 222.349 140.995 222.176 140.64 221.831C140.295 221.486 140.122 220.944 140.122 220.207V213.123H141.914V220.039C141.914 220.384 141.989 220.627 142.138 220.767C142.288 220.898 142.521 220.963 142.838 220.963H143.888V222.349H142.292ZM138.946 216.259V214.873H143.888V216.259H138.946ZM145.203 222.349V214.873H146.995V222.349H145.203ZM145.175 213.879V212.283H147.037V213.879H145.175ZM151.493 222.349C150.747 222.349 150.196 222.176 149.841 221.831C149.496 221.486 149.323 220.944 149.323 220.207V213.123H151.115V220.039C151.115 220.384 151.19 220.627 151.339 220.767C151.489 220.898 151.722 220.963 152.039 220.963H153.089V222.349H151.493ZM148.147 216.259V214.873H153.089V216.259H148.147ZM157.529 222.517C156.791 222.517 156.143 222.358 155.583 222.041C155.032 221.714 154.603 221.257 154.295 220.669C153.996 220.081 153.847 219.395 153.847 218.611C153.847 217.818 153.996 217.132 154.295 216.553C154.603 215.965 155.032 215.512 155.583 215.195C156.143 214.868 156.791 214.705 157.529 214.705C158.266 214.705 158.91 214.868 159.461 215.195C160.011 215.512 160.436 215.965 160.735 216.553C161.043 217.132 161.197 217.818 161.197 218.611C161.197 219.395 161.043 220.081 160.735 220.669C160.436 221.257 160.011 221.714 159.461 222.041C158.91 222.358 158.266 222.517 157.529 222.517ZM157.529 221.061C158.107 221.061 158.551 220.846 158.859 220.417C159.176 219.988 159.335 219.386 159.335 218.611C159.335 217.846 159.176 217.248 158.859 216.819C158.551 216.38 158.107 216.161 157.529 216.161C156.95 216.161 156.502 216.38 156.185 216.819C155.867 217.248 155.709 217.846 155.709 218.611C155.709 219.386 155.867 219.988 156.185 220.417C156.502 220.846 156.95 221.061 157.529 221.061ZM162.58 222.349V214.873H164.26L164.33 216.945L164.176 216.917C164.288 216.198 164.498 215.68 164.806 215.363C165.123 215.036 165.552 214.873 166.094 214.873H166.78V216.413H166.08C165.697 216.413 165.38 216.469 165.128 216.581C164.876 216.693 164.684 216.87 164.554 217.113C164.432 217.346 164.372 217.654 164.372 218.037V222.349H162.58ZM170.785 222.517C170.048 222.517 169.427 222.41 168.923 222.195C168.429 221.98 168.046 221.682 167.775 221.299C167.505 220.916 167.351 220.482 167.313 219.997L169.147 219.913C169.213 220.305 169.376 220.608 169.637 220.823C169.899 221.038 170.286 221.145 170.799 221.145C171.219 221.145 171.546 221.08 171.779 220.949C172.022 220.809 172.143 220.594 172.143 220.305C172.143 220.137 172.101 219.997 172.017 219.885C171.933 219.773 171.775 219.675 171.541 219.591C171.308 219.507 170.963 219.423 170.505 219.339C169.74 219.208 169.138 219.05 168.699 218.863C168.261 218.667 167.948 218.424 167.761 218.135C167.584 217.846 167.495 217.486 167.495 217.057C167.495 216.357 167.761 215.792 168.293 215.363C168.835 214.924 169.623 214.705 170.659 214.705C171.331 214.705 171.896 214.817 172.353 215.041C172.811 215.256 173.165 215.554 173.417 215.937C173.679 216.31 173.842 216.74 173.907 217.225L172.101 217.309C172.055 217.057 171.971 216.838 171.849 216.651C171.728 216.464 171.565 216.324 171.359 216.231C171.154 216.128 170.911 216.077 170.631 216.077C170.211 216.077 169.894 216.161 169.679 216.329C169.465 216.497 169.357 216.721 169.357 217.001C169.357 217.197 169.404 217.36 169.497 217.491C169.6 217.622 169.763 217.729 169.987 217.813C170.211 217.888 170.51 217.958 170.883 218.023C171.667 218.144 172.283 218.303 172.731 218.499C173.189 218.686 173.511 218.928 173.697 219.227C173.893 219.516 173.991 219.866 173.991 220.277C173.991 220.753 173.856 221.159 173.585 221.495C173.324 221.831 172.951 222.088 172.465 222.265C171.989 222.433 171.429 222.517 170.785 222.517Z" fill="#17171A"/>
<rect x="195" y="194" width="108" height="45" rx="5" fill="#C3BDFF"/>
<path d="M222.871 222.573C221.966 222.573 221.168 222.368 220.477 221.957C219.786 221.537 219.245 220.944 218.853 220.179C218.461 219.404 218.265 218.476 218.265 217.393C218.265 216.329 218.456 215.41 218.839 214.635C219.222 213.851 219.758 213.249 220.449 212.829C221.14 212.4 221.952 212.185 222.885 212.185C224.154 212.185 225.139 212.502 225.839 213.137C226.539 213.762 226.996 214.64 227.211 215.769L225.307 215.867C225.186 215.214 224.924 214.7 224.523 214.327C224.122 213.954 223.576 213.767 222.885 213.767C222.325 213.767 221.84 213.916 221.429 214.215C221.018 214.514 220.701 214.934 220.477 215.475C220.253 216.016 220.141 216.656 220.141 217.393C220.141 218.14 220.253 218.784 220.477 219.325C220.71 219.857 221.032 220.268 221.443 220.557C221.854 220.846 222.33 220.991 222.871 220.991C223.608 220.991 224.178 220.79 224.579 220.389C224.99 219.978 225.251 219.418 225.363 218.709L227.267 218.807C227.136 219.582 226.884 220.254 226.511 220.823C226.138 221.383 225.643 221.817 225.027 222.125C224.42 222.424 223.702 222.573 222.871 222.573ZM230.848 222.517C230.064 222.517 229.434 222.34 228.958 221.985C228.482 221.621 228.244 221.117 228.244 220.473C228.244 219.829 228.445 219.325 228.846 218.961C229.248 218.597 229.859 218.336 230.68 218.177L233.158 217.687C233.158 217.155 233.037 216.758 232.794 216.497C232.552 216.226 232.192 216.091 231.716 216.091C231.287 216.091 230.946 216.194 230.694 216.399C230.452 216.595 230.284 216.88 230.19 217.253L228.37 217.169C228.52 216.376 228.884 215.769 229.462 215.349C230.041 214.92 230.792 214.705 231.716 214.705C232.78 214.705 233.583 214.976 234.124 215.517C234.675 216.049 234.95 216.814 234.95 217.813V220.529C234.95 220.725 234.983 220.86 235.048 220.935C235.123 221.01 235.23 221.047 235.37 221.047H235.608V222.349C235.552 222.368 235.459 222.382 235.328 222.391C235.207 222.4 235.081 222.405 234.95 222.405C234.642 222.405 234.367 222.358 234.124 222.265C233.882 222.162 233.695 221.99 233.564 221.747C233.434 221.495 233.368 221.154 233.368 220.725L233.522 220.837C233.448 221.164 233.284 221.458 233.032 221.719C232.79 221.971 232.482 222.167 232.108 222.307C231.735 222.447 231.315 222.517 230.848 222.517ZM231.212 221.215C231.614 221.215 231.959 221.136 232.248 220.977C232.538 220.818 232.762 220.599 232.92 220.319C233.079 220.039 233.158 219.708 233.158 219.325V218.905L231.226 219.297C230.825 219.381 230.536 219.507 230.358 219.675C230.19 219.834 230.106 220.044 230.106 220.305C230.106 220.594 230.2 220.818 230.386 220.977C230.582 221.136 230.858 221.215 231.212 221.215ZM239.385 222.349C238.639 222.349 238.088 222.176 237.733 221.831C237.388 221.486 237.215 220.944 237.215 220.207V213.123H239.007V220.039C239.007 220.384 239.082 220.627 239.231 220.767C239.381 220.898 239.614 220.963 239.931 220.963H240.981V222.349H239.385ZM236.039 216.259V214.873H240.981V216.259H236.039ZM245.406 222.517C244.66 222.517 244.011 222.358 243.46 222.041C242.91 221.714 242.485 221.257 242.186 220.669C241.888 220.081 241.738 219.395 241.738 218.611C241.738 217.827 241.888 217.146 242.186 216.567C242.485 215.979 242.905 215.522 243.446 215.195C243.997 214.868 244.636 214.705 245.364 214.705C246.074 214.705 246.694 214.864 247.226 215.181C247.768 215.498 248.183 215.956 248.472 216.553C248.762 217.15 248.906 217.869 248.906 218.709V219.115H243.6C243.638 219.768 243.815 220.263 244.132 220.599C244.459 220.926 244.888 221.089 245.42 221.089C245.822 221.089 246.153 221 246.414 220.823C246.685 220.636 246.872 220.38 246.974 220.053L248.808 220.165C248.603 220.893 248.197 221.467 247.59 221.887C246.993 222.307 246.265 222.517 245.406 222.517ZM243.6 217.911H247.058C247.021 217.304 246.848 216.856 246.54 216.567C246.232 216.268 245.84 216.119 245.364 216.119C244.888 216.119 244.492 216.273 244.174 216.581C243.866 216.889 243.675 217.332 243.6 217.911ZM253.499 224.617C252.846 224.617 252.286 224.528 251.819 224.351C251.353 224.174 250.975 223.922 250.685 223.595C250.405 223.278 250.209 222.909 250.097 222.489L251.945 222.363C252.039 222.643 252.197 222.862 252.421 223.021C252.655 223.18 253.014 223.259 253.499 223.259C254.05 223.259 254.475 223.133 254.773 222.881C255.072 222.638 255.221 222.256 255.221 221.733V220.781C255.044 221.145 254.759 221.439 254.367 221.663C253.975 221.878 253.537 221.985 253.051 221.985C252.435 221.985 251.885 221.836 251.399 221.537C250.923 221.229 250.55 220.804 250.279 220.263C250.009 219.712 249.873 219.078 249.873 218.359C249.873 217.64 250.004 217.01 250.265 216.469C250.536 215.918 250.909 215.489 251.385 215.181C251.861 214.864 252.407 214.705 253.023 214.705C253.565 214.705 254.031 214.826 254.423 215.069C254.815 215.312 255.1 215.634 255.277 216.035V214.873H257.027V221.691C257.027 222.326 256.878 222.862 256.579 223.301C256.29 223.74 255.879 224.066 255.347 224.281C254.825 224.505 254.209 224.617 253.499 224.617ZM253.471 220.585C254.003 220.585 254.428 220.389 254.745 219.997C255.063 219.596 255.226 219.045 255.235 218.345C255.245 217.878 255.175 217.482 255.025 217.155C254.885 216.819 254.68 216.562 254.409 216.385C254.148 216.198 253.835 216.105 253.471 216.105C252.921 216.105 252.491 216.31 252.183 216.721C251.885 217.122 251.735 217.664 251.735 218.345C251.735 219.026 251.889 219.572 252.197 219.983C252.515 220.384 252.939 220.585 253.471 220.585ZM262.1 222.517C261.363 222.517 260.714 222.358 260.154 222.041C259.603 221.714 259.174 221.257 258.866 220.669C258.567 220.081 258.418 219.395 258.418 218.611C258.418 217.818 258.567 217.132 258.866 216.553C259.174 215.965 259.603 215.512 260.154 215.195C260.714 214.868 261.363 214.705 262.1 214.705C262.837 214.705 263.481 214.868 264.032 215.195C264.583 215.512 265.007 215.965 265.306 216.553C265.614 217.132 265.768 217.818 265.768 218.611C265.768 219.395 265.614 220.081 265.306 220.669C265.007 221.257 264.583 221.714 264.032 222.041C263.481 222.358 262.837 222.517 262.1 222.517ZM262.1 221.061C262.679 221.061 263.122 220.846 263.43 220.417C263.747 219.988 263.906 219.386 263.906 218.611C263.906 217.846 263.747 217.248 263.43 216.819C263.122 216.38 262.679 216.161 262.1 216.161C261.521 216.161 261.073 216.38 260.756 216.819C260.439 217.248 260.28 217.846 260.28 218.611C260.28 219.386 260.439 219.988 260.756 220.417C261.073 220.846 261.521 221.061 262.1 221.061ZM267.151 222.349V214.873H268.831L268.901 216.945L268.747 216.917C268.859 216.198 269.069 215.68 269.377 215.363C269.694 215.036 270.124 214.873 270.665 214.873H271.351V216.413H270.651C270.268 216.413 269.951 216.469 269.699 216.581C269.447 216.693 269.256 216.87 269.125 217.113C269.004 217.346 268.943 217.654 268.943 218.037V222.349H267.151ZM273.083 224.449V223.063H274.035C274.278 223.063 274.455 223.026 274.567 222.951C274.689 222.876 274.782 222.75 274.847 222.573L275.057 222.055H274.539L271.865 214.873H273.727L275.603 220.375L277.395 214.873H279.257L276.331 223.133C276.163 223.6 275.925 223.936 275.617 224.141C275.319 224.346 274.899 224.449 274.357 224.449H273.083Z" fill="#17171A"/>
<rect x="79" y="350" width="108" height="45" rx="5" fill="#C3BDFF"/>
<path d="M96.4298 368.979L92.8318 375.251V379.031H90.9838V375.251L87.3998 368.979H89.4718L91.9078 373.305L94.3858 368.979H96.4298ZM99.3064 379.171C97.1784 379.171 95.5964 377.491 95.5964 375.307C95.5964 373.109 97.1784 371.443 99.3064 371.443C101.434 371.443 103.03 373.109 103.03 375.307C103.03 377.491 101.434 379.171 99.3064 379.171ZM99.3064 377.603C100.384 377.603 101.224 376.749 101.224 375.307C101.224 373.865 100.384 373.011 99.3064 373.011C98.2564 373.011 97.3884 373.865 97.3884 375.307C97.3884 376.749 98.2564 377.603 99.3064 377.603ZM108.699 375.811V371.583H110.491V379.031H108.699V378.065L108.489 378.359C108.069 378.905 107.439 379.171 106.599 379.171C104.765 379.171 104.079 378.079 104.079 375.853V371.583H105.871V375.811C105.871 377.085 106.375 377.603 107.285 377.603C108.167 377.603 108.699 377.085 108.699 375.811ZM113.527 379.031H111.735V371.583H113.527V372.759C113.877 371.849 114.521 371.583 115.151 371.583C115.319 371.583 116.005 371.583 116.005 371.583V373.445C115.641 373.445 115.053 373.445 114.689 373.445C114.031 373.445 113.527 373.823 113.527 374.621V379.031ZM123.188 379.171C121.088 379.171 119.646 377.575 119.646 375.307C119.646 373.067 121.13 371.443 123.188 371.443C125.064 371.443 126.492 372.717 126.716 374.677H124.938C124.812 373.655 124.154 373.109 123.202 373.109C122.124 373.109 121.438 373.907 121.438 375.307C121.438 376.721 122.096 377.491 123.202 377.491C124.168 377.491 124.812 376.973 124.938 375.923H126.716C126.492 377.939 125.12 379.171 123.188 379.171ZM131.258 379.171C129.13 379.171 127.548 377.491 127.548 375.307C127.548 373.109 129.13 371.443 131.258 371.443C133.386 371.443 134.982 373.109 134.982 375.307C134.982 377.491 133.386 379.171 131.258 379.171ZM131.258 377.603C132.336 377.603 133.176 376.749 133.176 375.307C133.176 373.865 132.336 373.011 131.258 373.011C130.208 373.011 129.34 373.865 129.34 375.307C129.34 376.749 130.208 377.603 131.258 377.603ZM136.03 379.031V371.499H137.822V372.955C137.934 372.675 138.074 372.437 138.242 372.255C138.718 371.709 139.292 371.443 139.95 371.443C141.336 371.443 141.924 372.115 142.218 373.011C142.54 372.115 143.17 371.443 144.5 371.443C146.236 371.443 147.09 372.815 147.09 374.789V379.031H145.298V374.845C145.298 373.711 144.808 373.039 143.912 373.039C142.96 373.039 142.456 373.837 142.456 374.887V379.031H140.664V374.887C140.664 373.725 140.104 373.039 139.278 373.039C138.452 373.039 137.822 373.599 137.822 374.929V379.031H136.03ZM155.628 375.307C155.628 377.533 154.312 379.171 152.324 379.171C151.848 379.171 151.428 379.059 151.078 378.849C150.728 378.639 150.42 378.317 150.154 377.911V381.635H148.362V371.583H150.154V372.745C150.224 372.619 150.308 372.507 150.378 372.395C150.882 371.765 151.526 371.443 152.324 371.443C153.738 371.443 154.662 372.129 155.222 373.305C155.488 373.907 155.628 374.565 155.628 375.307ZM153.808 375.363C153.808 373.963 153.066 373.137 151.96 373.137C151.246 373.137 150.756 373.459 150.406 374.089C150.252 374.383 150.168 374.761 150.154 375.223V375.433C150.168 375.895 150.238 376.287 150.392 376.581C150.714 377.239 151.274 377.603 151.96 377.603C153.066 377.603 153.808 376.861 153.808 375.363ZM158.367 374.257H156.729C156.813 372.507 158.017 371.471 159.795 371.471C161.699 371.471 162.805 372.549 162.805 374.775V374.831V377.071C162.805 377.281 162.945 377.421 163.113 377.421H163.561V379.031H162.147C161.615 379.031 161.307 378.611 161.307 378.121V377.673C161.209 377.939 161.097 378.135 160.957 378.261C160.467 378.863 159.823 379.171 159.025 379.171H158.983C157.485 379.171 156.547 378.373 156.547 376.931C156.547 375.419 157.723 374.663 159.907 374.663C160.425 374.663 160.747 374.621 160.873 374.551C160.985 374.481 161.041 374.355 161.041 374.173V374.103C161.041 373.361 160.579 372.913 159.795 372.913C159.025 372.913 158.423 373.319 158.367 374.257ZM158.297 376.847C158.297 377.477 158.787 377.771 159.501 377.771C160.383 377.771 161.041 377.127 161.041 375.937V375.643C161.041 375.769 160.761 375.867 159.851 375.867C158.843 375.867 158.297 376.119 158.297 376.847ZM166.178 374.803V379.031H164.386V371.583H166.178V372.549C166.248 372.437 166.304 372.339 166.374 372.241C166.808 371.709 167.438 371.443 168.278 371.443C170.112 371.443 170.798 372.521 170.798 374.747V379.031H169.006V374.803C169.006 373.529 168.502 373.011 167.592 373.011C166.71 373.011 166.178 373.529 166.178 374.803ZM176.849 371.583H178.613L175.883 378.989V380.543C175.883 381.551 175.393 381.999 174.539 381.999L172.187 381.985V380.431H173.741C174.035 380.431 174.203 380.249 174.203 379.969V378.989L171.235 371.583H173.139L175.071 376.735L176.849 371.583Z" fill="#17171A"/>
<rect x="427" y="194" width="107.78" height="45" rx="5" fill="#C3BDFF"/>
<path d="M445.438 222.104V212.164H447.888L450.632 219.864L453.376 212.164H455.826V222.104H454.006V215.244L451.5 222.09H449.764L447.258 215.244V222.104H445.438ZM461.028 222.272C460.282 222.272 459.633 222.114 459.082 221.796C458.532 221.47 458.107 221.012 457.808 220.424C457.51 219.836 457.36 219.15 457.36 218.366C457.36 217.582 457.51 216.901 457.808 216.322C458.107 215.734 458.527 215.277 459.068 214.95C459.619 214.624 460.258 214.46 460.986 214.46C461.696 214.46 462.316 214.619 462.848 214.936C463.39 215.254 463.805 215.711 464.094 216.308C464.384 216.906 464.528 217.624 464.528 218.464V218.87H459.222C459.26 219.524 459.437 220.018 459.754 220.354C460.081 220.681 460.51 220.844 461.042 220.844C461.444 220.844 461.775 220.756 462.036 220.578C462.307 220.392 462.494 220.135 462.596 219.808L464.43 219.92C464.225 220.648 463.819 221.222 463.212 221.642C462.615 222.062 461.887 222.272 461.028 222.272ZM459.222 217.666H462.68C462.643 217.06 462.47 216.612 462.162 216.322C461.854 216.024 461.462 215.874 460.986 215.874C460.51 215.874 460.114 216.028 459.796 216.336C459.488 216.644 459.297 217.088 459.222 217.666ZM468.967 222.272C468.23 222.272 467.609 222.165 467.105 221.95C466.611 221.736 466.228 221.437 465.957 221.054C465.687 220.672 465.533 220.238 465.495 219.752L467.329 219.668C467.395 220.06 467.558 220.364 467.819 220.578C468.081 220.793 468.468 220.9 468.981 220.9C469.401 220.9 469.728 220.835 469.961 220.704C470.204 220.564 470.325 220.35 470.325 220.06C470.325 219.892 470.283 219.752 470.199 219.64C470.115 219.528 469.957 219.43 469.723 219.346C469.49 219.262 469.145 219.178 468.687 219.094C467.922 218.964 467.32 218.805 466.881 218.618C466.443 218.422 466.13 218.18 465.943 217.89C465.766 217.601 465.677 217.242 465.677 216.812C465.677 216.112 465.943 215.548 466.475 215.118C467.017 214.68 467.805 214.46 468.841 214.46C469.513 214.46 470.078 214.572 470.535 214.796C470.993 215.011 471.347 215.31 471.599 215.692C471.861 216.066 472.024 216.495 472.089 216.98L470.283 217.064C470.237 216.812 470.153 216.593 470.031 216.406C469.91 216.22 469.747 216.08 469.541 215.986C469.336 215.884 469.093 215.832 468.813 215.832C468.393 215.832 468.076 215.916 467.861 216.084C467.647 216.252 467.539 216.476 467.539 216.756C467.539 216.952 467.586 217.116 467.679 217.246C467.782 217.377 467.945 217.484 468.169 217.568C468.393 217.643 468.692 217.713 469.065 217.778C469.849 217.9 470.465 218.058 470.913 218.254C471.371 218.441 471.693 218.684 471.879 218.982C472.075 219.272 472.173 219.622 472.173 220.032C472.173 220.508 472.038 220.914 471.767 221.25C471.506 221.586 471.133 221.843 470.647 222.02C470.171 222.188 469.611 222.272 468.967 222.272ZM476.61 222.272C475.872 222.272 475.252 222.165 474.748 221.95C474.253 221.736 473.87 221.437 473.6 221.054C473.329 220.672 473.175 220.238 473.138 219.752L474.972 219.668C475.037 220.06 475.2 220.364 475.462 220.578C475.723 220.793 476.11 220.9 476.624 220.9C477.044 220.9 477.37 220.835 477.604 220.704C477.846 220.564 477.968 220.35 477.968 220.06C477.968 219.892 477.926 219.752 477.842 219.64C477.758 219.528 477.599 219.43 477.366 219.346C477.132 219.262 476.787 219.178 476.33 219.094C475.564 218.964 474.962 218.805 474.524 218.618C474.085 218.422 473.772 218.18 473.586 217.89C473.408 217.601 473.32 217.242 473.32 216.812C473.32 216.112 473.586 215.548 474.118 215.118C474.659 214.68 475.448 214.46 476.484 214.46C477.156 214.46 477.72 214.572 478.178 214.796C478.635 215.011 478.99 215.31 479.242 215.692C479.503 216.066 479.666 216.495 479.732 216.98L477.926 217.064C477.879 216.812 477.795 216.593 477.674 216.406C477.552 216.22 477.389 216.08 477.184 215.986C476.978 215.884 476.736 215.832 476.456 215.832C476.036 215.832 475.718 215.916 475.504 216.084C475.289 216.252 475.182 216.476 475.182 216.756C475.182 216.952 475.228 217.116 475.322 217.246C475.424 217.377 475.588 217.484 475.812 217.568C476.036 217.643 476.334 217.713 476.708 217.778C477.492 217.9 478.108 218.058 478.556 218.254C479.013 218.441 479.335 218.684 479.522 218.982C479.718 219.272 479.816 219.622 479.816 220.032C479.816 220.508 479.68 220.914 479.41 221.25C479.148 221.586 478.775 221.843 478.29 222.02C477.814 222.188 477.254 222.272 476.61 222.272ZM483.494 222.272C482.71 222.272 482.08 222.095 481.604 221.74C481.128 221.376 480.89 220.872 480.89 220.228C480.89 219.584 481.09 219.08 481.492 218.716C481.893 218.352 482.504 218.091 483.326 217.932L485.804 217.442C485.804 216.91 485.682 216.514 485.44 216.252C485.197 215.982 484.838 215.846 484.362 215.846C483.932 215.846 483.592 215.949 483.34 216.154C483.097 216.35 482.929 216.635 482.836 217.008L481.016 216.924C481.165 216.131 481.529 215.524 482.108 215.104C482.686 214.675 483.438 214.46 484.362 214.46C485.426 214.46 486.228 214.731 486.77 215.272C487.32 215.804 487.596 216.57 487.596 217.568V220.284C487.596 220.48 487.628 220.616 487.694 220.69C487.768 220.765 487.876 220.802 488.016 220.802H488.254V222.104C488.198 222.123 488.104 222.137 487.974 222.146C487.852 222.156 487.726 222.16 487.596 222.16C487.288 222.16 487.012 222.114 486.77 222.02C486.527 221.918 486.34 221.745 486.21 221.502C486.079 221.25 486.014 220.91 486.014 220.48L486.168 220.592C486.093 220.919 485.93 221.213 485.678 221.474C485.435 221.726 485.127 221.922 484.754 222.062C484.38 222.202 483.96 222.272 483.494 222.272ZM483.858 220.97C484.259 220.97 484.604 220.891 484.894 220.732C485.183 220.574 485.407 220.354 485.566 220.074C485.724 219.794 485.804 219.463 485.804 219.08V218.66L483.872 219.052C483.47 219.136 483.181 219.262 483.004 219.43C482.836 219.589 482.752 219.799 482.752 220.06C482.752 220.35 482.845 220.574 483.032 220.732C483.228 220.891 483.503 220.97 483.858 220.97ZM492.527 224.372C491.874 224.372 491.314 224.284 490.847 224.106C490.381 223.929 490.003 223.677 489.713 223.35C489.433 223.033 489.237 222.664 489.125 222.244L490.973 222.118C491.067 222.398 491.225 222.618 491.449 222.776C491.683 222.935 492.042 223.014 492.527 223.014C493.078 223.014 493.503 222.888 493.801 222.636C494.1 222.394 494.249 222.011 494.249 221.488V220.536C494.072 220.9 493.787 221.194 493.395 221.418C493.003 221.633 492.565 221.74 492.079 221.74C491.463 221.74 490.913 221.591 490.427 221.292C489.951 220.984 489.578 220.56 489.307 220.018C489.037 219.468 488.901 218.833 488.901 218.114C488.901 217.396 489.032 216.766 489.293 216.224C489.564 215.674 489.937 215.244 490.413 214.936C490.889 214.619 491.435 214.46 492.051 214.46C492.593 214.46 493.059 214.582 493.451 214.824C493.843 215.067 494.128 215.389 494.305 215.79V214.628H496.055V221.446C496.055 222.081 495.906 222.618 495.607 223.056C495.318 223.495 494.907 223.822 494.375 224.036C493.853 224.26 493.237 224.372 492.527 224.372ZM492.499 220.34C493.031 220.34 493.456 220.144 493.773 219.752C494.091 219.351 494.254 218.8 494.263 218.1C494.273 217.634 494.203 217.237 494.053 216.91C493.913 216.574 493.708 216.318 493.437 216.14C493.176 215.954 492.863 215.86 492.499 215.86C491.949 215.86 491.519 216.066 491.211 216.476C490.913 216.878 490.763 217.419 490.763 218.1C490.763 218.782 490.917 219.328 491.225 219.738C491.543 220.14 491.967 220.34 492.499 220.34ZM497.88 222.104V214.628H499.672V222.104H497.88ZM497.852 213.634V212.038H499.714V213.634H497.852ZM501.75 222.104V214.628H503.374L503.444 216.728L503.234 216.644C503.308 216.122 503.462 215.702 503.696 215.384C503.929 215.067 504.214 214.834 504.55 214.684C504.886 214.535 505.254 214.46 505.656 214.46C506.206 214.46 506.668 214.582 507.042 214.824C507.424 215.067 507.714 215.403 507.91 215.832C508.106 216.252 508.204 216.742 508.204 217.302V222.104H506.412V217.876C506.412 217.456 506.37 217.102 506.286 216.812C506.202 216.523 506.062 216.304 505.866 216.154C505.679 215.996 505.427 215.916 505.11 215.916C504.634 215.916 504.251 216.084 503.962 216.42C503.682 216.756 503.542 217.242 503.542 217.876V222.104H501.75ZM513.172 224.372C512.519 224.372 511.959 224.284 511.492 224.106C511.025 223.929 510.647 223.677 510.358 223.35C510.078 223.033 509.882 222.664 509.77 222.244L511.618 222.118C511.711 222.398 511.87 222.618 512.094 222.776C512.327 222.935 512.687 223.014 513.172 223.014C513.723 223.014 514.147 222.888 514.446 222.636C514.745 222.394 514.894 222.011 514.894 221.488V220.536C514.717 220.9 514.432 221.194 514.04 221.418C513.648 221.633 513.209 221.74 512.724 221.74C512.108 221.74 511.557 221.591 511.072 221.292C510.596 220.984 510.223 220.56 509.952 220.018C509.681 219.468 509.546 218.833 509.546 218.114C509.546 217.396 509.677 216.766 509.938 216.224C510.209 215.674 510.582 215.244 511.058 214.936C511.534 214.619 512.08 214.46 512.696 214.46C513.237 214.46 513.704 214.582 514.096 214.824C514.488 215.067 514.773 215.389 514.95 215.79V214.628H516.7V221.446C516.7 222.081 516.551 222.618 516.252 223.056C515.963 223.495 515.552 223.822 515.02 224.036C514.497 224.26 513.881 224.372 513.172 224.372ZM513.144 220.34C513.676 220.34 514.101 220.144 514.418 219.752C514.735 219.351 514.899 218.8 514.908 218.1C514.917 217.634 514.847 217.237 514.698 216.91C514.558 216.574 514.353 216.318 514.082 216.14C513.821 215.954 513.508 215.86 513.144 215.86C512.593 215.86 512.164 216.066 511.856 216.476C511.557 216.878 511.408 217.419 511.408 218.1C511.408 218.782 511.562 219.328 511.87 219.738C512.187 220.14 512.612 220.34 513.144 220.34Z" fill="#17171A"/>
<rect x="311" y="194" width="108" height="45" rx="5" fill="#C3BDFF"/>
<path d="M344.291 213.224C343.489 213.224 342.784 213.07 342.177 212.762C341.58 212.454 341.118 212.02 340.791 211.46C340.474 210.891 340.315 210.219 340.315 209.444V203.046H342.135V209.444C342.135 210.144 342.322 210.685 342.695 211.068C343.069 211.451 343.601 211.642 344.291 211.642C344.982 211.642 345.514 211.451 345.887 211.068C346.27 210.685 346.461 210.144 346.461 209.444V203.046H348.281V209.444C348.281 210.219 348.118 210.891 347.791 211.46C347.465 212.02 347.003 212.454 346.405 212.762C345.817 213.07 345.113 213.224 344.291 213.224ZM350.174 213V205.524H351.798L351.868 207.624L351.658 207.54C351.733 207.017 351.887 206.597 352.12 206.28C352.354 205.963 352.638 205.729 352.974 205.58C353.31 205.431 353.679 205.356 354.08 205.356C354.631 205.356 355.093 205.477 355.466 205.72C355.849 205.963 356.138 206.299 356.334 206.728C356.53 207.148 356.628 207.638 356.628 208.198V213H354.836V208.772C354.836 208.352 354.794 207.997 354.71 207.708C354.626 207.419 354.486 207.199 354.29 207.05C354.104 206.891 353.852 206.812 353.534 206.812C353.058 206.812 352.676 206.98 352.386 207.316C352.106 207.652 351.966 208.137 351.966 208.772V213H350.174ZM358.459 213V205.524H360.251V213H358.459ZM358.431 204.53V202.934H360.293V204.53H358.431ZM368.817 215.1H367.025V211.418L367.193 211.558C367.099 211.885 366.936 212.169 366.703 212.412C366.479 212.655 366.203 212.841 365.877 212.972C365.559 213.103 365.214 213.168 364.841 213.168C364.131 213.168 363.539 212.991 363.063 212.636C362.596 212.281 362.241 211.81 361.999 211.222C361.765 210.634 361.649 209.981 361.649 209.262C361.649 208.543 361.765 207.89 361.999 207.302C362.232 206.714 362.582 206.243 363.049 205.888C363.525 205.533 364.117 205.356 364.827 205.356C365.396 205.356 365.895 205.501 366.325 205.79C366.754 206.07 367.057 206.485 367.235 207.036L367.053 207.12L367.095 205.524H368.817V215.1ZM365.261 211.712C365.634 211.712 365.951 211.623 366.213 211.446C366.474 211.259 366.675 210.984 366.815 210.62C366.955 210.256 367.025 209.803 367.025 209.262C367.025 208.721 366.95 208.268 366.801 207.904C366.661 207.54 366.46 207.269 366.199 207.092C365.937 206.905 365.625 206.812 365.261 206.812C364.719 206.812 364.29 207.031 363.973 207.47C363.665 207.899 363.511 208.497 363.511 209.262C363.511 210.027 363.665 210.629 363.973 211.068C364.29 211.497 364.719 211.712 365.261 211.712ZM373.242 213.168C372.486 213.168 371.884 212.921 371.436 212.426C370.997 211.922 370.778 211.227 370.778 210.34V205.524H372.57V209.892C372.57 210.517 372.673 210.979 372.878 211.278C373.093 211.567 373.415 211.712 373.844 211.712C374.329 211.712 374.703 211.553 374.964 211.236C375.235 210.909 375.37 210.438 375.37 209.822V205.524H377.162V213H375.524L375.482 210.942L375.706 211.012C375.594 211.721 375.328 212.258 374.908 212.622C374.488 212.986 373.933 213.168 373.242 213.168ZM382.229 213.168C381.482 213.168 380.833 213.009 380.283 212.692C379.732 212.365 379.307 211.908 379.009 211.32C378.71 210.732 378.561 210.046 378.561 209.262C378.561 208.478 378.71 207.797 379.009 207.218C379.307 206.63 379.727 206.173 380.269 205.846C380.819 205.519 381.459 205.356 382.187 205.356C382.896 205.356 383.517 205.515 384.049 205.832C384.59 206.149 385.005 206.607 385.295 207.204C385.584 207.801 385.729 208.52 385.729 209.36V209.766H380.423C380.46 210.419 380.637 210.914 380.955 211.25C381.281 211.577 381.711 211.74 382.243 211.74C382.644 211.74 382.975 211.651 383.237 211.474C383.507 211.287 383.694 211.031 383.797 210.704L385.631 210.816C385.425 211.544 385.019 212.118 384.413 212.538C383.815 212.958 383.087 213.168 382.229 213.168ZM380.423 208.562H383.881C383.843 207.955 383.671 207.507 383.363 207.218C383.055 206.919 382.663 206.77 382.187 206.77C381.711 206.77 381.314 206.924 380.997 207.232C380.689 207.54 380.497 207.983 380.423 208.562ZM337.182 229.168C336.398 229.168 335.768 228.991 335.292 228.636C334.816 228.272 334.578 227.768 334.578 227.124C334.578 226.48 334.779 225.976 335.18 225.612C335.582 225.248 336.193 224.987 337.014 224.828L339.492 224.338C339.492 223.806 339.371 223.409 339.128 223.148C338.886 222.877 338.526 222.742 338.05 222.742C337.621 222.742 337.28 222.845 337.028 223.05C336.786 223.246 336.618 223.531 336.524 223.904L334.704 223.82C334.854 223.027 335.218 222.42 335.796 222C336.375 221.571 337.126 221.356 338.05 221.356C339.114 221.356 339.917 221.627 340.458 222.168C341.009 222.7 341.284 223.465 341.284 224.464V227.18C341.284 227.376 341.317 227.511 341.382 227.586C341.457 227.661 341.564 227.698 341.704 227.698H341.942V229C341.886 229.019 341.793 229.033 341.662 229.042C341.541 229.051 341.415 229.056 341.284 229.056C340.976 229.056 340.701 229.009 340.458 228.916C340.216 228.813 340.029 228.641 339.898 228.398C339.768 228.146 339.702 227.805 339.702 227.376L339.856 227.488C339.782 227.815 339.618 228.109 339.366 228.37C339.124 228.622 338.816 228.818 338.442 228.958C338.069 229.098 337.649 229.168 337.182 229.168ZM337.546 227.866C337.948 227.866 338.293 227.787 338.582 227.628C338.872 227.469 339.096 227.25 339.254 226.97C339.413 226.69 339.492 226.359 339.492 225.976V225.556L337.56 225.948C337.159 226.032 336.87 226.158 336.692 226.326C336.524 226.485 336.44 226.695 336.44 226.956C336.44 227.245 336.534 227.469 336.72 227.628C336.916 227.787 337.192 227.866 337.546 227.866ZM345.719 229C344.972 229 344.422 228.827 344.067 228.482C343.722 228.137 343.549 227.595 343.549 226.858V219.774H345.341V226.69C345.341 227.035 345.416 227.278 345.565 227.418C345.714 227.549 345.948 227.614 346.265 227.614H347.315V229H345.719ZM342.373 222.91V221.524H347.315V222.91H342.373ZM348.766 229V221.524H350.446L350.516 223.596L350.362 223.568C350.474 222.849 350.684 222.331 350.992 222.014C351.309 221.687 351.739 221.524 352.28 221.524H352.966V223.064H352.266C351.883 223.064 351.566 223.12 351.314 223.232C351.062 223.344 350.871 223.521 350.74 223.764C350.619 223.997 350.558 224.305 350.558 224.688V229H348.766ZM354.126 229V221.524H355.918V229H354.126ZM354.098 220.53V218.934H355.96V220.53H354.098ZM361.685 229.168C361.162 229.168 360.705 229.056 360.313 228.832C359.93 228.608 359.631 228.295 359.417 227.894L359.375 229H357.667V219.06H359.459V222.588C359.664 222.243 359.958 221.953 360.341 221.72C360.723 221.477 361.171 221.356 361.685 221.356C362.329 221.356 362.884 221.519 363.351 221.846C363.827 222.163 364.191 222.616 364.443 223.204C364.704 223.783 364.835 224.469 364.835 225.262C364.835 226.055 364.704 226.746 364.443 227.334C364.191 227.913 363.827 228.365 363.351 228.692C362.884 229.009 362.329 229.168 361.685 229.168ZM361.279 227.712C361.792 227.712 362.203 227.497 362.511 227.068C362.819 226.629 362.973 226.027 362.973 225.262C362.973 224.487 362.819 223.885 362.511 223.456C362.212 223.027 361.806 222.812 361.293 222.812C360.91 222.812 360.579 222.91 360.299 223.106C360.028 223.293 359.818 223.568 359.669 223.932C359.529 224.296 359.459 224.739 359.459 225.262C359.459 225.766 359.529 226.205 359.669 226.578C359.818 226.942 360.028 227.222 360.299 227.418C360.569 227.614 360.896 227.712 361.279 227.712ZM368.689 229.168C367.933 229.168 367.331 228.921 366.883 228.426C366.444 227.922 366.225 227.227 366.225 226.34V221.524H368.017V225.892C368.017 226.517 368.12 226.979 368.325 227.278C368.54 227.567 368.862 227.712 369.291 227.712C369.776 227.712 370.15 227.553 370.411 227.236C370.682 226.909 370.817 226.438 370.817 225.822V221.524H372.609V229H370.971L370.929 226.942L371.153 227.012C371.041 227.721 370.775 228.258 370.355 228.622C369.935 228.986 369.38 229.168 368.689 229.168ZM377.247 229C376.5 229 375.949 228.827 375.595 228.482C375.249 228.137 375.077 227.595 375.077 226.858V219.774H376.869V226.69C376.869 227.035 376.943 227.278 377.093 227.418C377.242 227.549 377.475 227.614 377.793 227.614H378.843V229H377.247ZM373.901 222.91V221.524H378.843V222.91H373.901ZM383.268 229.168C382.521 229.168 381.872 229.009 381.322 228.692C380.771 228.365 380.346 227.908 380.048 227.32C379.749 226.732 379.6 226.046 379.6 225.262C379.6 224.478 379.749 223.797 380.048 223.218C380.346 222.63 380.766 222.173 381.308 221.846C381.858 221.519 382.498 221.356 383.226 221.356C383.935 221.356 384.556 221.515 385.088 221.832C385.629 222.149 386.044 222.607 386.334 223.204C386.623 223.801 386.768 224.52 386.768 225.36V225.766H381.462C381.499 226.419 381.676 226.914 381.994 227.25C382.32 227.577 382.75 227.74 383.282 227.74C383.683 227.74 384.014 227.651 384.276 227.474C384.546 227.287 384.733 227.031 384.836 226.704L386.67 226.816C386.464 227.544 386.058 228.118 385.452 228.538C384.854 228.958 384.126 229.168 383.268 229.168ZM381.462 224.562H384.92C384.882 223.955 384.71 223.507 384.402 223.218C384.094 222.919 383.702 222.77 383.226 222.77C382.75 222.77 382.353 222.924 382.036 223.232C381.728 223.54 381.536 223.983 381.462 224.562ZM391.206 229.168C390.469 229.168 389.848 229.061 389.344 228.846C388.85 228.631 388.467 228.333 388.196 227.95C387.926 227.567 387.772 227.133 387.734 226.648L389.568 226.564C389.634 226.956 389.797 227.259 390.058 227.474C390.32 227.689 390.707 227.796 391.22 227.796C391.64 227.796 391.967 227.731 392.2 227.6C392.443 227.46 392.564 227.245 392.564 226.956C392.564 226.788 392.522 226.648 392.438 226.536C392.354 226.424 392.196 226.326 391.962 226.242C391.729 226.158 391.384 226.074 390.926 225.99C390.161 225.859 389.559 225.701 389.12 225.514C388.682 225.318 388.369 225.075 388.182 224.786C388.005 224.497 387.916 224.137 387.916 223.708C387.916 223.008 388.182 222.443 388.714 222.014C389.256 221.575 390.044 221.356 391.08 221.356C391.752 221.356 392.317 221.468 392.774 221.692C393.232 221.907 393.586 222.205 393.838 222.588C394.1 222.961 394.263 223.391 394.328 223.876L392.522 223.96C392.476 223.708 392.392 223.489 392.27 223.302C392.149 223.115 391.986 222.975 391.78 222.882C391.575 222.779 391.332 222.728 391.052 222.728C390.632 222.728 390.315 222.812 390.1 222.98C389.886 223.148 389.778 223.372 389.778 223.652C389.778 223.848 389.825 224.011 389.918 224.142C390.021 224.273 390.184 224.38 390.408 224.464C390.632 224.539 390.931 224.609 391.304 224.674C392.088 224.795 392.704 224.954 393.152 225.15C393.61 225.337 393.932 225.579 394.118 225.878C394.314 226.167 394.412 226.517 394.412 226.928C394.412 227.404 394.277 227.81 394.006 228.146C393.745 228.482 393.372 228.739 392.886 228.916C392.41 229.084 391.85 229.168 391.206 229.168Z" fill="#17171A"/>
<rect x="195" y="141" width="340" height="45.5654" rx="5" fill="#6F31FF"/>
<path d="M335.817 167.998H333.801V172.21H331.047V159.196H335.817C338.949 159.196 340.911 160.816 340.911 163.57C340.911 166.396 338.949 167.998 335.817 167.998ZM336.015 161.626H333.801V165.46H336.015C337.185 165.46 338.157 164.758 338.157 163.462C338.157 162.292 337.293 161.626 336.015 161.626ZM344.802 172.21H342.156V162.598H344.802V164.254C345.27 162.976 346.134 162.598 346.926 162.598C347.142 162.598 348.042 162.598 348.042 162.598V165.37C347.52 165.37 346.71 165.37 346.206 165.37C345.414 165.37 344.802 165.892 344.802 166.738V172.21ZM353.391 172.39C350.601 172.39 348.513 170.194 348.513 167.404C348.513 164.596 350.601 162.418 353.391 162.418C356.181 162.418 358.269 164.596 358.269 167.404C358.269 170.194 356.181 172.39 353.391 172.39ZM353.391 170.068C354.615 170.068 355.605 169.114 355.605 167.404C355.605 165.676 354.615 164.74 353.391 164.74C352.203 164.74 351.159 165.676 351.159 167.404C351.159 169.114 352.203 170.068 353.391 170.068ZM359.255 167.404C359.255 164.542 360.947 162.418 363.521 162.418C364.061 162.418 364.565 162.544 365.051 162.814C365.501 163.084 365.879 163.462 366.167 163.984V159.286H368.831V172.21H366.167V170.86C366.113 170.986 366.041 171.094 365.987 171.184C365.483 171.994 364.655 172.39 363.503 172.39C360.983 172.39 359.255 170.248 359.255 167.404ZM361.955 167.314C361.955 168.916 362.837 169.852 364.079 169.852C364.889 169.852 365.465 169.528 365.879 168.808C366.041 168.502 366.149 168.124 366.167 167.674V167.062C366.149 166.594 366.059 166.198 365.897 165.892C365.537 165.154 364.889 164.722 364.079 164.722C362.837 164.722 361.955 165.568 361.955 167.314ZM375.902 167.926V162.598H378.548V172.21H375.902V171.004C375.83 171.13 375.758 171.238 375.686 171.328C375.164 172.03 374.354 172.39 373.256 172.39C370.862 172.39 370.07 170.968 370.07 167.962V162.598H372.716V167.926C372.716 169.456 373.274 170.068 374.3 170.068C375.29 170.068 375.902 169.456 375.902 167.926ZM384.342 172.39C381.606 172.39 379.68 170.338 379.68 167.404C379.68 164.542 381.696 162.418 384.342 162.418C386.844 162.418 388.734 164.11 389.022 166.684H386.376C386.25 165.514 385.494 164.902 384.36 164.902C383.118 164.902 382.326 165.766 382.326 167.404C382.326 169.042 383.082 169.906 384.36 169.906C385.512 169.906 386.25 169.33 386.394 168.106H389.022C388.734 170.752 386.916 172.39 384.342 172.39ZM391.456 159.25H394.102V162.598H396.622V164.956H394.102V169.204C394.102 169.708 394.282 169.834 394.696 169.834H396.622V172.192L393.22 172.21C392.068 172.21 391.456 171.598 391.456 170.464V164.956H389.728V162.598H391.456V159.25Z" fill="#FFFFEE"/>
<path d="M284.749 111.288C283.585 111.288 282.559 111.024 281.671 110.496C280.783 109.956 280.087 109.194 279.583 108.21C279.079 107.214 278.827 106.02 278.827 104.628C278.827 103.26 279.073 102.078 279.565 101.082C280.057 100.074 280.747 99.3 281.635 98.76C282.523 98.208 283.567 97.932 284.767 97.932C286.399 97.932 287.665 98.34 288.565 99.156C289.465 99.96 290.053 101.088 290.329 102.54L287.881 102.666C287.725 101.826 287.389 101.166 286.873 100.686C286.357 100.206 285.655 99.966 284.767 99.966C284.047 99.966 283.423 100.158 282.895 100.542C282.367 100.926 281.959 101.466 281.671 102.162C281.383 102.858 281.239 103.68 281.239 104.628C281.239 105.588 281.383 106.416 281.671 107.112C281.971 107.796 282.385 108.324 282.913 108.696C283.441 109.068 284.053 109.254 284.749 109.254C285.697 109.254 286.429 108.996 286.945 108.48C287.473 107.952 287.809 107.232 287.953 106.32L290.401 106.446C290.233 107.442 289.909 108.306 289.429 109.038C288.949 109.758 288.313 110.316 287.521 110.712C286.741 111.096 285.817 111.288 284.749 111.288ZM296.356 111.216C295.408 111.216 294.574 111.012 293.854 110.604C293.146 110.184 292.594 109.596 292.198 108.84C291.814 108.084 291.622 107.202 291.622 106.194C291.622 105.174 291.814 104.292 292.198 103.548C292.594 102.792 293.146 102.21 293.854 101.802C294.574 101.382 295.408 101.172 296.356 101.172C297.304 101.172 298.132 101.382 298.84 101.802C299.548 102.21 300.094 102.792 300.478 103.548C300.874 104.292 301.072 105.174 301.072 106.194C301.072 107.202 300.874 108.084 300.478 108.84C300.094 109.596 299.548 110.184 298.84 110.604C298.132 111.012 297.304 111.216 296.356 111.216ZM296.356 109.344C297.1 109.344 297.67 109.068 298.066 108.516C298.474 107.964 298.678 107.19 298.678 106.194C298.678 105.21 298.474 104.442 298.066 103.89C297.67 103.326 297.1 103.044 296.356 103.044C295.612 103.044 295.036 103.326 294.628 103.89C294.22 104.442 294.016 105.21 294.016 106.194C294.016 107.19 294.22 107.964 294.628 108.516C295.036 109.068 295.612 109.344 296.356 109.344ZM302.85 111V101.388H304.938L305.01 103.746L304.794 103.638C304.902 103.122 305.088 102.684 305.352 102.324C305.628 101.952 305.958 101.67 306.342 101.478C306.738 101.274 307.17 101.172 307.638 101.172C308.454 101.172 309.114 101.406 309.618 101.874C310.122 102.33 310.44 102.96 310.572 103.764H310.266C310.374 103.2 310.56 102.732 310.824 102.36C311.088 101.976 311.418 101.682 311.814 101.478C312.222 101.274 312.678 101.172 313.182 101.172C313.842 101.172 314.412 101.316 314.892 101.604C315.372 101.88 315.738 102.288 315.99 102.828C316.254 103.368 316.386 104.034 316.386 104.826V111H314.082V105.42C314.082 104.628 313.944 104.034 313.668 103.638C313.404 103.242 312.996 103.044 312.444 103.044C312.072 103.044 311.754 103.14 311.49 103.332C311.226 103.524 311.022 103.806 310.878 104.178C310.746 104.538 310.68 104.976 310.68 105.492V111H308.538V105.492C308.538 104.7 308.418 104.094 308.178 103.674C307.938 103.254 307.524 103.044 306.936 103.044C306.564 103.044 306.246 103.14 305.982 103.332C305.73 103.524 305.526 103.806 305.37 104.178C305.226 104.538 305.154 104.976 305.154 105.492V111H302.85ZM318.6 113.7V101.388H320.814L320.868 103.44L320.634 103.332C320.874 102.624 321.264 102.09 321.804 101.73C322.356 101.358 322.998 101.172 323.73 101.172C324.642 101.172 325.398 101.4 325.998 101.856C326.61 102.312 327.066 102.918 327.366 103.674C327.666 104.43 327.816 105.27 327.816 106.194C327.816 107.118 327.66 107.958 327.348 108.714C327.048 109.47 326.592 110.076 325.98 110.532C325.38 110.988 324.624 111.216 323.712 111.216C323.232 111.216 322.782 111.132 322.362 110.964C321.954 110.796 321.6 110.556 321.3 110.244C321.012 109.932 320.808 109.566 320.688 109.146L320.904 108.966V113.7H318.6ZM323.172 109.344C323.868 109.344 324.414 109.068 324.81 108.516C325.218 107.952 325.422 107.178 325.422 106.194C325.422 105.21 325.218 104.442 324.81 103.89C324.414 103.326 323.868 103.044 323.172 103.044C322.704 103.044 322.302 103.164 321.966 103.404C321.63 103.632 321.366 103.98 321.174 104.448C320.994 104.916 320.904 105.498 320.904 106.194C320.904 106.89 320.994 107.472 321.174 107.94C321.354 108.408 321.612 108.762 321.948 109.002C322.296 109.23 322.704 109.344 323.172 109.344ZM333.762 111.216C332.802 111.216 331.968 111.012 331.26 110.604C330.552 110.184 330.006 109.596 329.622 108.84C329.238 108.084 329.046 107.202 329.046 106.194C329.046 105.186 329.238 104.31 329.622 103.566C330.006 102.81 330.546 102.222 331.242 101.802C331.95 101.382 332.772 101.172 333.708 101.172C334.62 101.172 335.418 101.376 336.102 101.784C336.798 102.192 337.332 102.78 337.704 103.548C338.076 104.316 338.262 105.24 338.262 106.32V106.842H331.44C331.488 107.682 331.716 108.318 332.124 108.75C332.544 109.17 333.096 109.38 333.78 109.38C334.296 109.38 334.722 109.266 335.058 109.038C335.406 108.798 335.646 108.468 335.778 108.048L338.136 108.192C337.872 109.128 337.35 109.866 336.57 110.406C335.802 110.946 334.866 111.216 333.762 111.216ZM331.44 105.294H335.886C335.838 104.514 335.616 103.938 335.22 103.566C334.824 103.182 334.32 102.99 333.708 102.99C333.096 102.99 332.586 103.188 332.178 103.584C331.782 103.98 331.536 104.55 331.44 105.294ZM343.581 111C342.621 111 341.913 110.778 341.457 110.334C341.013 109.89 340.791 109.194 340.791 108.246V99.138H343.095V108.03C343.095 108.474 343.191 108.786 343.383 108.966C343.575 109.134 343.875 109.218 344.283 109.218H345.633V111H343.581ZM339.279 103.17V101.388H345.633V103.17H339.279ZM347.323 111V101.388H349.627V111H347.323ZM347.287 100.11V98.058H349.681V100.11H347.287ZM355.411 111C354.451 111 353.743 110.778 353.287 110.334C352.843 109.89 352.621 109.194 352.621 108.246V99.138H354.925V108.03C354.925 108.474 355.021 108.786 355.213 108.966C355.405 109.134 355.705 109.218 356.113 109.218H357.463V111H355.411ZM351.109 103.17V101.388H357.463V103.17H351.109ZM359.153 111V101.388H361.457V111H359.153ZM359.117 100.11V98.058H361.511V100.11H359.117ZM366.439 111L362.929 101.388H365.359L367.807 108.678L370.255 101.388H372.685L369.175 111H366.439ZM377.971 111.216C377.011 111.216 376.177 111.012 375.469 110.604C374.761 110.184 374.215 109.596 373.831 108.84C373.447 108.084 373.255 107.202 373.255 106.194C373.255 105.186 373.447 104.31 373.831 103.566C374.215 102.81 374.755 102.222 375.451 101.802C376.159 101.382 376.981 101.172 377.917 101.172C378.829 101.172 379.627 101.376 380.311 101.784C381.007 102.192 381.541 102.78 381.913 103.548C382.285 104.316 382.471 105.24 382.471 106.32V106.842H375.649C375.697 107.682 375.925 108.318 376.333 108.75C376.753 109.17 377.305 109.38 377.989 109.38C378.505 109.38 378.931 109.266 379.267 109.038C379.615 108.798 379.855 108.468 379.987 108.048L382.345 108.192C382.081 109.128 381.559 109.866 380.779 110.406C380.011 110.946 379.075 111.216 377.971 111.216ZM375.649 105.294H380.095C380.047 104.514 379.825 103.938 379.429 103.566C379.033 103.182 378.529 102.99 377.917 102.99C377.305 102.99 376.795 103.188 376.387 103.584C375.991 103.98 375.745 104.55 375.649 105.294ZM388.881 111V98.22H393.669C395.229 98.22 396.411 98.496 397.215 99.048C398.031 99.6 398.439 100.476 398.439 101.676C398.439 102.216 398.325 102.69 398.097 103.098C397.881 103.494 397.557 103.806 397.125 104.034C396.705 104.262 396.195 104.388 395.595 104.412L395.577 104.376C396.669 104.412 397.509 104.712 398.097 105.276C398.685 105.828 398.979 106.566 398.979 107.49C398.979 108.666 398.571 109.548 397.755 110.136C396.951 110.712 395.805 111 394.317 111H388.881ZM391.221 109.02H394.209C394.941 109.02 395.517 108.87 395.937 108.57C396.369 108.27 396.585 107.826 396.585 107.238C396.585 106.65 396.375 106.2 395.955 105.888C395.535 105.576 394.953 105.42 394.209 105.42H391.221V109.02ZM391.221 103.584H393.597C394.365 103.584 394.965 103.44 395.397 103.152C395.829 102.864 396.045 102.444 396.045 101.892C396.045 101.316 395.835 100.89 395.415 100.614C394.995 100.338 394.389 100.2 393.597 100.2H391.221V103.584ZM405.287 111.216C404.327 111.216 403.493 111.012 402.785 110.604C402.077 110.184 401.531 109.596 401.147 108.84C400.763 108.084 400.571 107.202 400.571 106.194C400.571 105.186 400.763 104.31 401.147 103.566C401.531 102.81 402.071 102.222 402.767 101.802C403.475 101.382 404.297 101.172 405.233 101.172C406.145 101.172 406.943 101.376 407.627 101.784C408.323 102.192 408.857 102.78 409.229 103.548C409.601 104.316 409.787 105.24 409.787 106.32V106.842H402.965C403.013 107.682 403.241 108.318 403.649 108.75C404.069 109.17 404.621 109.38 405.305 109.38C405.821 109.38 406.247 109.266 406.583 109.038C406.931 108.798 407.171 108.468 407.303 108.048L409.661 108.192C409.397 109.128 408.875 109.866 408.095 110.406C407.327 110.946 406.391 111.216 405.287 111.216ZM402.965 105.294H407.411C407.363 104.514 407.141 103.938 406.745 103.566C406.349 103.182 405.845 102.99 405.233 102.99C404.621 102.99 404.111 103.188 403.703 103.584C403.307 103.98 403.061 104.55 402.965 105.294ZM411.588 111V101.388H413.676L413.766 104.088L413.496 103.98C413.592 103.308 413.79 102.768 414.09 102.36C414.39 101.952 414.756 101.652 415.188 101.46C415.62 101.268 416.094 101.172 416.61 101.172C417.318 101.172 417.912 101.328 418.392 101.64C418.884 101.952 419.256 102.384 419.508 102.936C419.76 103.476 419.886 104.106 419.886 104.826V111H417.582V105.564C417.582 105.024 417.528 104.568 417.42 104.196C417.312 103.824 417.132 103.542 416.88 103.35C416.64 103.146 416.316 103.044 415.908 103.044C415.296 103.044 414.804 103.26 414.432 103.692C414.072 104.124 413.892 104.748 413.892 105.564V111H411.588ZM426.346 111.216C425.386 111.216 424.552 111.012 423.844 110.604C423.136 110.184 422.584 109.596 422.188 108.84C421.804 108.084 421.612 107.202 421.612 106.194C421.612 105.186 421.804 104.31 422.188 103.566C422.584 102.81 423.136 102.222 423.844 101.802C424.552 101.382 425.386 101.172 426.346 101.172C427.162 101.172 427.888 101.316 428.524 101.604C429.16 101.892 429.676 102.306 430.072 102.846C430.48 103.374 430.732 104.022 430.828 104.79L428.452 104.916C428.356 104.304 428.116 103.842 427.732 103.53C427.36 103.206 426.898 103.044 426.346 103.044C425.602 103.044 425.026 103.326 424.618 103.89C424.21 104.442 424.006 105.21 424.006 106.194C424.006 107.19 424.21 107.964 424.618 108.516C425.026 109.068 425.602 109.344 426.346 109.344C426.91 109.344 427.378 109.182 427.75 108.858C428.134 108.534 428.368 108.03 428.452 107.346L430.828 107.454C430.732 108.222 430.486 108.888 430.09 109.452C429.694 110.016 429.178 110.454 428.542 110.766C427.906 111.066 427.174 111.216 426.346 111.216ZM432.436 111V98.22H434.74V103.584H434.452C434.548 103.032 434.74 102.582 435.028 102.234C435.316 101.874 435.67 101.61 436.09 101.442C436.51 101.262 436.972 101.172 437.476 101.172C438.184 101.172 438.778 101.328 439.258 101.64C439.75 101.94 440.116 102.366 440.356 102.918C440.608 103.47 440.734 104.106 440.734 104.826V111H438.43V105.384C438.43 104.604 438.298 104.022 438.034 103.638C437.77 103.242 437.356 103.044 436.792 103.044C436.168 103.044 435.67 103.248 435.298 103.656C434.926 104.064 434.74 104.658 434.74 105.438V111H432.436ZM442.948 111V101.388H445.036L445.108 103.746L444.892 103.638C445 103.122 445.186 102.684 445.45 102.324C445.726 101.952 446.056 101.67 446.439 101.478C446.836 101.274 447.268 101.172 447.736 101.172C448.552 101.172 449.212 101.406 449.716 101.874C450.22 102.33 450.538 102.96 450.67 103.764H450.364C450.472 103.2 450.658 102.732 450.922 102.36C451.186 101.976 451.516 101.682 451.912 101.478C452.32 101.274 452.776 101.172 453.28 101.172C453.94 101.172 454.51 101.316 454.99 101.604C455.47 101.88 455.836 102.288 456.088 102.828C456.352 103.368 456.484 104.034 456.484 104.826V111H454.18V105.42C454.18 104.628 454.042 104.034 453.766 103.638C453.502 103.242 453.094 103.044 452.542 103.044C452.17 103.044 451.852 103.14 451.588 103.332C451.324 103.524 451.12 103.806 450.976 104.178C450.844 104.538 450.777 104.976 450.777 105.492V111H448.636V105.492C448.636 104.7 448.516 104.094 448.276 103.674C448.036 103.254 447.622 103.044 447.034 103.044C446.662 103.044 446.344 103.14 446.08 103.332C445.828 103.524 445.624 103.806 445.468 104.178C445.324 104.538 445.252 104.976 445.252 105.492V111H442.948ZM461.575 111.216C460.567 111.216 459.757 110.988 459.145 110.532C458.533 110.064 458.227 109.416 458.227 108.588C458.227 107.76 458.485 107.112 459.001 106.644C459.517 106.176 460.303 105.84 461.359 105.636L464.545 105.006C464.545 104.322 464.389 103.812 464.077 103.476C463.765 103.128 463.303 102.954 462.691 102.954C462.139 102.954 461.701 103.086 461.377 103.35C461.065 103.602 460.849 103.968 460.729 104.448L458.389 104.34C458.581 103.32 459.049 102.54 459.793 102C460.537 101.448 461.503 101.172 462.691 101.172C464.059 101.172 465.091 101.52 465.787 102.216C466.495 102.9 466.849 103.884 466.849 105.168V108.66C466.849 108.912 466.891 109.086 466.975 109.182C467.071 109.278 467.209 109.326 467.389 109.326H467.695V111C467.623 111.024 467.503 111.042 467.335 111.054C467.179 111.066 467.017 111.072 466.849 111.072C466.453 111.072 466.099 111.012 465.787 110.892C465.475 110.76 465.235 110.538 465.067 110.226C464.899 109.902 464.815 109.464 464.815 108.912L465.013 109.056C464.917 109.476 464.707 109.854 464.383 110.19C464.071 110.514 463.675 110.766 463.195 110.946C462.715 111.126 462.175 111.216 461.575 111.216ZM462.043 109.542C462.559 109.542 463.003 109.44 463.375 109.236C463.747 109.032 464.035 108.75 464.239 108.39C464.443 108.03 464.545 107.604 464.545 107.112V106.572L462.061 107.076C461.545 107.184 461.173 107.346 460.945 107.562C460.729 107.766 460.621 108.036 460.621 108.372C460.621 108.744 460.741 109.032 460.981 109.236C461.233 109.44 461.587 109.542 462.043 109.542ZM469.192 111V101.388H471.352L471.442 104.052L471.244 104.016C471.388 103.092 471.658 102.426 472.054 102.018C472.462 101.598 473.014 101.388 473.71 101.388H474.592V103.368H473.692C473.2 103.368 472.792 103.44 472.468 103.584C472.144 103.728 471.898 103.956 471.73 104.268C471.574 104.568 471.496 104.964 471.496 105.456V111H469.192ZM476.082 111V98.22H478.386V105.726L482.328 101.388H485.172L481.41 105.384L485.298 111H482.706L479.898 106.752L478.386 108.354V111H476.082ZM486.489 111V101.388H488.793V111H486.489ZM486.453 100.11V98.058H488.847V100.11H486.453ZM491.463 111V101.388H493.551L493.641 104.088L493.371 103.98C493.467 103.308 493.665 102.768 493.965 102.36C494.265 101.952 494.631 101.652 495.063 101.46C495.495 101.268 495.969 101.172 496.485 101.172C497.193 101.172 497.787 101.328 498.267 101.64C498.759 101.952 499.131 102.384 499.383 102.936C499.635 103.476 499.761 104.106 499.761 104.826V111H497.457V105.564C497.457 105.024 497.403 104.568 497.295 104.196C497.187 103.824 497.007 103.542 496.755 103.35C496.515 103.146 496.191 103.044 495.783 103.044C495.171 103.044 494.679 103.26 494.307 103.692C493.947 104.124 493.767 104.748 493.767 105.564V111H491.463ZM506.149 113.916C505.309 113.916 504.589 113.802 503.989 113.574C503.389 113.346 502.903 113.022 502.531 112.602C502.171 112.194 501.919 111.72 501.775 111.18L504.151 111.018C504.271 111.378 504.475 111.66 504.763 111.864C505.063 112.068 505.525 112.17 506.149 112.17C506.857 112.17 507.403 112.008 507.787 111.684C508.171 111.372 508.363 110.88 508.363 110.208V108.984C508.135 109.452 507.769 109.83 507.265 110.118C506.761 110.394 506.197 110.532 505.573 110.532C504.781 110.532 504.073 110.34 503.449 109.956C502.837 109.56 502.357 109.014 502.009 108.318C501.661 107.61 501.487 106.794 501.487 105.87C501.487 104.946 501.655 104.136 501.991 103.44C502.339 102.732 502.819 102.18 503.431 101.784C504.043 101.376 504.745 101.172 505.537 101.172C506.233 101.172 506.833 101.328 507.337 101.64C507.841 101.952 508.207 102.366 508.435 102.882V101.388H510.685V110.154C510.685 110.97 510.493 111.66 510.109 112.224C509.737 112.788 509.209 113.208 508.525 113.484C507.853 113.772 507.061 113.916 506.149 113.916ZM506.113 108.732C506.797 108.732 507.343 108.48 507.751 107.976C508.159 107.46 508.369 106.752 508.381 105.852C508.393 105.252 508.303 104.742 508.111 104.322C507.931 103.89 507.667 103.56 507.319 103.332C506.983 103.092 506.581 102.972 506.113 102.972C505.405 102.972 504.853 103.236 504.457 103.764C504.073 104.28 503.881 104.976 503.881 105.852C503.881 106.728 504.079 107.43 504.475 107.958C504.883 108.474 505.429 108.732 506.113 108.732Z" fill="#FFFFEE"/>
<path d="M122 107V106.5H121.5V107H122ZM251.354 107.354C251.549 107.158 251.549 106.842 251.354 106.646L248.172 103.464C247.976 103.269 247.66 103.269 247.464 103.464C247.269 103.66 247.269 103.976 247.464 104.172L250.293 107L247.464 109.828C247.269 110.024 247.269 110.34 247.464 110.536C247.66 110.731 247.976 110.731 248.172 110.536L251.354 107.354ZM122 153H122.5V107H122H121.5V153H122ZM122 107V107.5H251V107V106.5H122V107Z" fill="#FFFFEE"/>
<path d="M274.252 109.251C274.217 109.286 274.176 109.313 274.131 109.332C274.085 109.351 274.036 109.361 273.987 109.361C273.938 109.361 273.889 109.351 273.843 109.332C273.798 109.313 273.756 109.286 273.722 109.251L271.375 106.904C270.558 107.584 269.511 107.923 268.45 107.851C267.39 107.778 266.398 107.3 265.682 106.515C264.965 105.73 264.578 104.699 264.603 103.636C264.627 102.574 265.06 101.561 265.811 100.81C266.563 100.058 267.575 99.6253 268.638 99.6012C269.701 99.577 270.732 99.9635 271.516 100.68C272.301 101.397 272.78 102.388 272.852 103.449C272.925 104.509 272.585 105.557 271.905 106.374L274.252 108.72C274.287 108.755 274.315 108.796 274.334 108.842C274.353 108.887 274.362 108.936 274.362 108.985C274.362 109.035 274.353 109.084 274.334 109.129C274.315 109.175 274.287 109.216 274.252 109.251ZM268.737 107.11C269.404 107.11 270.057 106.913 270.612 106.542C271.167 106.171 271.6 105.644 271.855 105.027C272.11 104.41 272.177 103.732 272.047 103.077C271.917 102.422 271.595 101.821 271.123 101.349C270.651 100.877 270.05 100.556 269.395 100.425C268.741 100.295 268.062 100.362 267.445 100.617C266.829 100.873 266.302 101.305 265.931 101.86C265.56 102.415 265.362 103.068 265.362 103.735C265.363 104.63 265.719 105.488 266.352 106.121C266.984 106.754 267.842 107.109 268.737 107.11Z" fill="#FFFFEE"/>
<rect x="79" y="402" width="456" height="61" rx="5" fill="#27273F"/>
<path d="M263.503 416.158C263.177 416.158 262.897 416.093 262.663 415.962C262.43 415.831 262.248 415.654 262.117 415.43C261.996 415.197 261.935 414.935 261.935 414.646C261.935 414.347 261.996 414.086 262.117 413.862C262.248 413.629 262.43 413.447 262.663 413.316C262.897 413.185 263.177 413.12 263.503 413.12C263.83 413.12 264.11 413.185 264.343 413.316C264.577 413.447 264.754 413.629 264.875 413.862C265.006 414.086 265.071 414.347 265.071 414.646C265.071 414.935 265.006 415.197 264.875 415.43C264.754 415.654 264.577 415.831 264.343 415.962C264.11 416.093 263.83 416.158 263.503 416.158ZM279.166 419.224C278.223 419.224 277.411 419.019 276.73 418.608C276.058 418.188 275.54 417.591 275.176 416.816C274.812 416.041 274.63 415.117 274.63 414.044C274.63 412.971 274.812 412.047 275.176 411.272C275.54 410.488 276.058 409.886 276.73 409.466C277.411 409.046 278.223 408.836 279.166 408.836C280.118 408.836 280.93 409.046 281.602 409.466C282.283 409.886 282.806 410.488 283.17 411.272C283.534 412.047 283.716 412.971 283.716 414.044C283.716 415.117 283.534 416.041 283.17 416.816C282.806 417.591 282.283 418.188 281.602 418.608C280.93 419.019 280.118 419.224 279.166 419.224ZM279.166 418.048C279.857 418.048 280.445 417.889 280.93 417.572C281.425 417.255 281.803 416.797 282.064 416.2C282.325 415.603 282.456 414.884 282.456 414.044C282.456 413.204 282.325 412.485 282.064 411.888C281.803 411.281 281.425 410.819 280.93 410.502C280.445 410.175 279.857 410.012 279.166 410.012C278.485 410.012 277.897 410.175 277.402 410.502C276.917 410.819 276.543 411.281 276.282 411.888C276.021 412.485 275.89 413.204 275.89 414.044C275.89 414.884 276.021 415.603 276.282 416.2C276.543 416.797 276.917 417.255 277.402 417.572C277.897 417.889 278.485 418.048 279.166 418.048ZM285.47 421.1V411.58H286.562L286.59 413.176L286.422 413.092C286.608 412.541 286.916 412.126 287.346 411.846C287.784 411.557 288.288 411.412 288.858 411.412C289.595 411.412 290.197 411.594 290.664 411.958C291.14 412.322 291.49 412.798 291.714 413.386C291.947 413.974 292.064 414.609 292.064 415.29C292.064 415.971 291.947 416.606 291.714 417.194C291.49 417.782 291.14 418.258 290.664 418.622C290.197 418.986 289.595 419.168 288.858 419.168C288.475 419.168 288.116 419.103 287.78 418.972C287.453 418.841 287.173 418.659 286.94 418.426C286.716 418.193 286.562 417.917 286.478 417.6L286.646 417.404V421.1H285.47ZM288.746 418.048C289.39 418.048 289.898 417.805 290.272 417.32C290.645 416.835 290.832 416.158 290.832 415.29C290.832 414.422 290.645 413.745 290.272 413.26C289.898 412.775 289.39 412.532 288.746 412.532C288.316 412.532 287.943 412.635 287.626 412.84C287.318 413.045 287.075 413.353 286.898 413.764C286.73 414.175 286.646 414.683 286.646 415.29C286.646 415.897 286.73 416.405 286.898 416.816C287.066 417.227 287.308 417.535 287.626 417.74C287.943 417.945 288.316 418.048 288.746 418.048ZM296.557 419.168C295.876 419.168 295.278 419.009 294.765 418.692C294.252 418.375 293.855 417.927 293.575 417.348C293.295 416.76 293.155 416.074 293.155 415.29C293.155 414.497 293.295 413.811 293.575 413.232C293.855 412.653 294.252 412.205 294.765 411.888C295.278 411.571 295.876 411.412 296.557 411.412C297.238 411.412 297.831 411.571 298.335 411.888C298.848 412.205 299.245 412.653 299.525 413.232C299.805 413.811 299.945 414.497 299.945 415.29C299.945 416.074 299.805 416.76 299.525 417.348C299.245 417.927 298.848 418.375 298.335 418.692C297.831 419.009 297.238 419.168 296.557 419.168ZM296.557 418.048C297.238 418.048 297.766 417.805 298.139 417.32C298.522 416.825 298.713 416.149 298.713 415.29C298.713 414.431 298.522 413.759 298.139 413.274C297.766 412.779 297.238 412.532 296.557 412.532C295.876 412.532 295.344 412.779 294.961 413.274C294.578 413.759 294.387 414.431 294.387 415.29C294.387 416.149 294.578 416.825 294.961 417.32C295.344 417.805 295.876 418.048 296.557 418.048ZM301.548 419V411.58H302.584L302.64 413.456L302.528 413.414C302.621 412.779 302.822 412.317 303.13 412.028C303.447 411.729 303.867 411.58 304.39 411.58H305.118V412.7H304.404C304.03 412.7 303.718 412.77 303.466 412.91C303.223 413.041 303.036 413.241 302.906 413.512C302.784 413.773 302.724 414.109 302.724 414.52V419H301.548ZM308.871 419C308.199 419 307.7 418.846 307.373 418.538C307.056 418.23 306.897 417.749 306.897 417.096V409.844H308.073V417.068C308.073 417.404 308.148 417.637 308.297 417.768C308.446 417.899 308.675 417.964 308.983 417.964H310.047V419H308.871ZM305.805 412.616V411.58H310.047V412.616H305.805ZM313.992 419.168C313.254 419.168 312.662 418.921 312.214 418.426C311.775 417.922 311.556 417.231 311.556 416.354V411.58H312.732V416.032C312.732 416.751 312.858 417.283 313.11 417.628C313.371 417.964 313.768 418.132 314.3 418.132C314.888 418.132 315.35 417.945 315.686 417.572C316.022 417.189 316.19 416.667 316.19 416.004V411.58H317.366V419H316.246V417.166L316.428 417.264C316.278 417.871 315.994 418.342 315.574 418.678C315.154 419.005 314.626 419.168 313.992 419.168ZM319.608 419V411.58H320.686L320.728 413.47L320.588 413.344C320.682 412.905 320.845 412.546 321.078 412.266C321.312 411.977 321.592 411.762 321.918 411.622C322.254 411.482 322.614 411.412 322.996 411.412C323.566 411.412 324.032 411.538 324.396 411.79C324.77 412.042 325.045 412.383 325.222 412.812C325.409 413.232 325.502 413.703 325.502 414.226V419H324.326V414.562C324.326 414.105 324.27 413.722 324.158 413.414C324.056 413.097 323.888 412.859 323.654 412.7C323.421 412.532 323.118 412.448 322.744 412.448C322.175 412.448 321.704 412.63 321.33 412.994C320.966 413.349 320.784 413.871 320.784 414.562V419H319.608ZM327.606 419V411.58H328.782V419H327.606ZM327.578 410.418V409.046H328.81V410.418H327.578ZM333.18 419C332.508 419 332.008 418.846 331.682 418.538C331.364 418.23 331.206 417.749 331.206 417.096V409.844H332.382V417.068C332.382 417.404 332.456 417.637 332.606 417.768C332.755 417.899 332.984 417.964 333.292 417.964H334.356V419H333.18ZM330.114 412.616V411.58H334.356V412.616H330.114ZM336.131 421.1V420.064H336.985C337.247 420.064 337.438 420.022 337.559 419.938C337.69 419.863 337.788 419.737 337.853 419.56L338.119 418.86H337.713L334.997 411.58H336.285L338.497 417.768L340.611 411.58H341.899L338.889 419.938C338.749 420.339 338.539 420.633 338.259 420.82C337.979 421.007 337.592 421.1 337.097 421.1H336.131ZM348.341 419V411.636H346.269V410.6H347.109C347.473 410.6 347.762 410.553 347.977 410.46C348.201 410.367 348.36 410.208 348.453 409.984C348.546 409.76 348.593 409.452 348.593 409.06H349.545V419H348.341Z" fill="#A0A0A0"/>
<path d="M263.503 433.158C263.177 433.158 262.897 433.093 262.663 432.962C262.43 432.831 262.248 432.654 262.117 432.43C261.996 432.197 261.935 431.935 261.935 431.646C261.935 431.347 261.996 431.086 262.117 430.862C262.248 430.629 262.43 430.447 262.663 430.316C262.897 430.185 263.177 430.12 263.503 430.12C263.83 430.12 264.11 430.185 264.343 430.316C264.577 430.447 264.754 430.629 264.875 430.862C265.006 431.086 265.071 431.347 265.071 431.646C265.071 431.935 265.006 432.197 264.875 432.43C264.754 432.654 264.577 432.831 264.343 432.962C264.11 433.093 263.83 433.158 263.503 433.158ZM279.166 436.224C278.223 436.224 277.411 436.019 276.73 435.608C276.058 435.188 275.54 434.591 275.176 433.816C274.812 433.041 274.63 432.117 274.63 431.044C274.63 429.971 274.812 429.047 275.176 428.272C275.54 427.488 276.058 426.886 276.73 426.466C277.411 426.046 278.223 425.836 279.166 425.836C280.118 425.836 280.93 426.046 281.602 426.466C282.283 426.886 282.806 427.488 283.17 428.272C283.534 429.047 283.716 429.971 283.716 431.044C283.716 432.117 283.534 433.041 283.17 433.816C282.806 434.591 282.283 435.188 281.602 435.608C280.93 436.019 280.118 436.224 279.166 436.224ZM279.166 435.048C279.857 435.048 280.445 434.889 280.93 434.572C281.425 434.255 281.803 433.797 282.064 433.2C282.325 432.603 282.456 431.884 282.456 431.044C282.456 430.204 282.325 429.485 282.064 428.888C281.803 428.281 281.425 427.819 280.93 427.502C280.445 427.175 279.857 427.012 279.166 427.012C278.485 427.012 277.897 427.175 277.402 427.502C276.917 427.819 276.543 428.281 276.282 428.888C276.021 429.485 275.89 430.204 275.89 431.044C275.89 431.884 276.021 432.603 276.282 433.2C276.543 433.797 276.917 434.255 277.402 434.572C277.897 434.889 278.485 435.048 279.166 435.048ZM285.47 438.1V428.58H286.562L286.59 430.176L286.422 430.092C286.608 429.541 286.916 429.126 287.346 428.846C287.784 428.557 288.288 428.412 288.858 428.412C289.595 428.412 290.197 428.594 290.664 428.958C291.14 429.322 291.49 429.798 291.714 430.386C291.947 430.974 292.064 431.609 292.064 432.29C292.064 432.971 291.947 433.606 291.714 434.194C291.49 434.782 291.14 435.258 290.664 435.622C290.197 435.986 289.595 436.168 288.858 436.168C288.475 436.168 288.116 436.103 287.78 435.972C287.453 435.841 287.173 435.659 286.94 435.426C286.716 435.193 286.562 434.917 286.478 434.6L286.646 434.404V438.1H285.47ZM288.746 435.048C289.39 435.048 289.898 434.805 290.272 434.32C290.645 433.835 290.832 433.158 290.832 432.29C290.832 431.422 290.645 430.745 290.272 430.26C289.898 429.775 289.39 429.532 288.746 429.532C288.316 429.532 287.943 429.635 287.626 429.84C287.318 430.045 287.075 430.353 286.898 430.764C286.73 431.175 286.646 431.683 286.646 432.29C286.646 432.897 286.73 433.405 286.898 433.816C287.066 434.227 287.308 434.535 287.626 434.74C287.943 434.945 288.316 435.048 288.746 435.048ZM296.557 436.168C295.876 436.168 295.278 436.009 294.765 435.692C294.252 435.375 293.855 434.927 293.575 434.348C293.295 433.76 293.155 433.074 293.155 432.29C293.155 431.497 293.295 430.811 293.575 430.232C293.855 429.653 294.252 429.205 294.765 428.888C295.278 428.571 295.876 428.412 296.557 428.412C297.238 428.412 297.831 428.571 298.335 428.888C298.848 429.205 299.245 429.653 299.525 430.232C299.805 430.811 299.945 431.497 299.945 432.29C299.945 433.074 299.805 433.76 299.525 434.348C299.245 434.927 298.848 435.375 298.335 435.692C297.831 436.009 297.238 436.168 296.557 436.168ZM296.557 435.048C297.238 435.048 297.766 434.805 298.139 434.32C298.522 433.825 298.713 433.149 298.713 432.29C298.713 431.431 298.522 430.759 298.139 430.274C297.766 429.779 297.238 429.532 296.557 429.532C295.876 429.532 295.344 429.779 294.961 430.274C294.578 430.759 294.387 431.431 294.387 432.29C294.387 433.149 294.578 433.825 294.961 434.32C295.344 434.805 295.876 435.048 296.557 435.048ZM301.548 436V428.58H302.584L302.64 430.456L302.528 430.414C302.621 429.779 302.822 429.317 303.13 429.028C303.447 428.729 303.867 428.58 304.39 428.58H305.118V429.7H304.404C304.03 429.7 303.718 429.77 303.466 429.91C303.223 430.041 303.036 430.241 302.906 430.512C302.784 430.773 302.724 431.109 302.724 431.52V436H301.548ZM308.871 436C308.199 436 307.7 435.846 307.373 435.538C307.056 435.23 306.897 434.749 306.897 434.096V426.844H308.073V434.068C308.073 434.404 308.148 434.637 308.297 434.768C308.446 434.899 308.675 434.964 308.983 434.964H310.047V436H308.871ZM305.805 429.616V428.58H310.047V429.616H305.805ZM313.992 436.168C313.254 436.168 312.662 435.921 312.214 435.426C311.775 434.922 311.556 434.231 311.556 433.354V428.58H312.732V433.032C312.732 433.751 312.858 434.283 313.11 434.628C313.371 434.964 313.768 435.132 314.3 435.132C314.888 435.132 315.35 434.945 315.686 434.572C316.022 434.189 316.19 433.667 316.19 433.004V428.58H317.366V436H316.246V434.166L316.428 434.264C316.278 434.871 315.994 435.342 315.574 435.678C315.154 436.005 314.626 436.168 313.992 436.168ZM319.608 436V428.58H320.686L320.728 430.47L320.588 430.344C320.682 429.905 320.845 429.546 321.078 429.266C321.312 428.977 321.592 428.762 321.918 428.622C322.254 428.482 322.614 428.412 322.996 428.412C323.566 428.412 324.032 428.538 324.396 428.79C324.77 429.042 325.045 429.383 325.222 429.812C325.409 430.232 325.502 430.703 325.502 431.226V436H324.326V431.562C324.326 431.105 324.27 430.722 324.158 430.414C324.056 430.097 323.888 429.859 323.654 429.7C323.421 429.532 323.118 429.448 322.744 429.448C322.175 429.448 321.704 429.63 321.33 429.994C320.966 430.349 320.784 430.871 320.784 431.562V436H319.608ZM327.606 436V428.58H328.782V436H327.606ZM327.578 427.418V426.046H328.81V427.418H327.578ZM333.18 436C332.508 436 332.008 435.846 331.682 435.538C331.364 435.23 331.206 434.749 331.206 434.096V426.844H332.382V434.068C332.382 434.404 332.456 434.637 332.606 434.768C332.755 434.899 332.984 434.964 333.292 434.964H334.356V436H333.18ZM330.114 429.616V428.58H334.356V429.616H330.114ZM336.131 438.1V437.064H336.985C337.247 437.064 337.438 437.022 337.559 436.938C337.69 436.863 337.788 436.737 337.853 436.56L338.119 435.86H337.713L334.997 428.58H336.285L338.497 434.768L340.611 428.58H341.899L338.889 436.938C338.749 437.339 338.539 437.633 338.259 437.82C337.979 438.007 337.592 438.1 337.097 438.1H336.131ZM346.549 436C346.549 435.3 346.656 434.67 346.871 434.11C347.095 433.541 347.482 432.999 348.033 432.486C348.593 431.973 349.368 431.455 350.357 430.932C350.814 430.689 351.183 430.465 351.463 430.26C351.743 430.055 351.948 429.835 352.079 429.602C352.21 429.369 352.275 429.084 352.275 428.748C352.275 428.403 352.2 428.104 352.051 427.852C351.902 427.591 351.678 427.385 351.379 427.236C351.09 427.087 350.726 427.012 350.287 427.012C349.587 427.012 349.032 427.194 348.621 427.558C348.22 427.922 347.968 428.44 347.865 429.112L346.605 429.028C346.717 428.057 347.09 427.283 347.725 426.704C348.36 426.125 349.214 425.836 350.287 425.836C350.968 425.836 351.552 425.957 352.037 426.2C352.522 426.443 352.891 426.783 353.143 427.222C353.404 427.651 353.535 428.151 353.535 428.72C353.535 429.224 353.451 429.663 353.283 430.036C353.115 430.4 352.83 430.741 352.429 431.058C352.037 431.375 351.496 431.716 350.805 432.08C349.909 432.556 349.228 433.037 348.761 433.522C348.304 434.007 348.061 434.441 348.033 434.824H353.535V436H346.549Z" fill="#A0A0A0"/>
<path d="M263.503 450.158C263.177 450.158 262.897 450.093 262.663 449.962C262.43 449.831 262.248 449.654 262.117 449.43C261.996 449.197 261.935 448.935 261.935 448.646C261.935 448.347 261.996 448.086 262.117 447.862C262.248 447.629 262.43 447.447 262.663 447.316C262.897 447.185 263.177 447.12 263.503 447.12C263.83 447.12 264.11 447.185 264.343 447.316C264.577 447.447 264.754 447.629 264.875 447.862C265.006 448.086 265.071 448.347 265.071 448.646C265.071 448.935 265.006 449.197 264.875 449.43C264.754 449.654 264.577 449.831 264.343 449.962C264.11 450.093 263.83 450.158 263.503 450.158ZM279.166 453.224C278.223 453.224 277.411 453.019 276.73 452.608C276.058 452.188 275.54 451.591 275.176 450.816C274.812 450.041 274.63 449.117 274.63 448.044C274.63 446.971 274.812 446.047 275.176 445.272C275.54 444.488 276.058 443.886 276.73 443.466C277.411 443.046 278.223 442.836 279.166 442.836C280.118 442.836 280.93 443.046 281.602 443.466C282.283 443.886 282.806 444.488 283.17 445.272C283.534 446.047 283.716 446.971 283.716 448.044C283.716 449.117 283.534 450.041 283.17 450.816C282.806 451.591 282.283 452.188 281.602 452.608C280.93 453.019 280.118 453.224 279.166 453.224ZM279.166 452.048C279.857 452.048 280.445 451.889 280.93 451.572C281.425 451.255 281.803 450.797 282.064 450.2C282.325 449.603 282.456 448.884 282.456 448.044C282.456 447.204 282.325 446.485 282.064 445.888C281.803 445.281 281.425 444.819 280.93 444.502C280.445 444.175 279.857 444.012 279.166 444.012C278.485 444.012 277.897 444.175 277.402 444.502C276.917 444.819 276.543 445.281 276.282 445.888C276.021 446.485 275.89 447.204 275.89 448.044C275.89 448.884 276.021 449.603 276.282 450.2C276.543 450.797 276.917 451.255 277.402 451.572C277.897 451.889 278.485 452.048 279.166 452.048ZM285.47 455.1V445.58H286.562L286.59 447.176L286.422 447.092C286.608 446.541 286.916 446.126 287.346 445.846C287.784 445.557 288.288 445.412 288.858 445.412C289.595 445.412 290.197 445.594 290.664 445.958C291.14 446.322 291.49 446.798 291.714 447.386C291.947 447.974 292.064 448.609 292.064 449.29C292.064 449.971 291.947 450.606 291.714 451.194C291.49 451.782 291.14 452.258 290.664 452.622C290.197 452.986 289.595 453.168 288.858 453.168C288.475 453.168 288.116 453.103 287.78 452.972C287.453 452.841 287.173 452.659 286.94 452.426C286.716 452.193 286.562 451.917 286.478 451.6L286.646 451.404V455.1H285.47ZM288.746 452.048C289.39 452.048 289.898 451.805 290.272 451.32C290.645 450.835 290.832 450.158 290.832 449.29C290.832 448.422 290.645 447.745 290.272 447.26C289.898 446.775 289.39 446.532 288.746 446.532C288.316 446.532 287.943 446.635 287.626 446.84C287.318 447.045 287.075 447.353 286.898 447.764C286.73 448.175 286.646 448.683 286.646 449.29C286.646 449.897 286.73 450.405 286.898 450.816C287.066 451.227 287.308 451.535 287.626 451.74C287.943 451.945 288.316 452.048 288.746 452.048ZM296.557 453.168C295.876 453.168 295.278 453.009 294.765 452.692C294.252 452.375 293.855 451.927 293.575 451.348C293.295 450.76 293.155 450.074 293.155 449.29C293.155 448.497 293.295 447.811 293.575 447.232C293.855 446.653 294.252 446.205 294.765 445.888C295.278 445.571 295.876 445.412 296.557 445.412C297.238 445.412 297.831 445.571 298.335 445.888C298.848 446.205 299.245 446.653 299.525 447.232C299.805 447.811 299.945 448.497 299.945 449.29C299.945 450.074 299.805 450.76 299.525 451.348C299.245 451.927 298.848 452.375 298.335 452.692C297.831 453.009 297.238 453.168 296.557 453.168ZM296.557 452.048C297.238 452.048 297.766 451.805 298.139 451.32C298.522 450.825 298.713 450.149 298.713 449.29C298.713 448.431 298.522 447.759 298.139 447.274C297.766 446.779 297.238 446.532 296.557 446.532C295.876 446.532 295.344 446.779 294.961 447.274C294.578 447.759 294.387 448.431 294.387 449.29C294.387 450.149 294.578 450.825 294.961 451.32C295.344 451.805 295.876 452.048 296.557 452.048ZM301.548 453V445.58H302.584L302.64 447.456L302.528 447.414C302.621 446.779 302.822 446.317 303.13 446.028C303.447 445.729 303.867 445.58 304.39 445.58H305.118V446.7H304.404C304.03 446.7 303.718 446.77 303.466 446.91C303.223 447.041 303.036 447.241 302.906 447.512C302.784 447.773 302.724 448.109 302.724 448.52V453H301.548ZM308.871 453C308.199 453 307.7 452.846 307.373 452.538C307.056 452.23 306.897 451.749 306.897 451.096V443.844H308.073V451.068C308.073 451.404 308.148 451.637 308.297 451.768C308.446 451.899 308.675 451.964 308.983 451.964H310.047V453H308.871ZM305.805 446.616V445.58H310.047V446.616H305.805ZM313.992 453.168C313.254 453.168 312.662 452.921 312.214 452.426C311.775 451.922 311.556 451.231 311.556 450.354V445.58H312.732V450.032C312.732 450.751 312.858 451.283 313.11 451.628C313.371 451.964 313.768 452.132 314.3 452.132C314.888 452.132 315.35 451.945 315.686 451.572C316.022 451.189 316.19 450.667 316.19 450.004V445.58H317.366V453H316.246V451.166L316.428 451.264C316.278 451.871 315.994 452.342 315.574 452.678C315.154 453.005 314.626 453.168 313.992 453.168ZM319.608 453V445.58H320.686L320.728 447.47L320.588 447.344C320.682 446.905 320.845 446.546 321.078 446.266C321.312 445.977 321.592 445.762 321.918 445.622C322.254 445.482 322.614 445.412 322.996 445.412C323.566 445.412 324.032 445.538 324.396 445.79C324.77 446.042 325.045 446.383 325.222 446.812C325.409 447.232 325.502 447.703 325.502 448.226V453H324.326V448.562C324.326 448.105 324.27 447.722 324.158 447.414C324.056 447.097 323.888 446.859 323.654 446.7C323.421 446.532 323.118 446.448 322.744 446.448C322.175 446.448 321.704 446.63 321.33 446.994C320.966 447.349 320.784 447.871 320.784 448.562V453H319.608ZM327.606 453V445.58H328.782V453H327.606ZM327.578 444.418V443.046H328.81V444.418H327.578ZM333.18 453C332.508 453 332.008 452.846 331.682 452.538C331.364 452.23 331.206 451.749 331.206 451.096V443.844H332.382V451.068C332.382 451.404 332.456 451.637 332.606 451.768C332.755 451.899 332.984 451.964 333.292 451.964H334.356V453H333.18ZM330.114 446.616V445.58H334.356V446.616H330.114ZM336.131 455.1V454.064H336.985C337.247 454.064 337.438 454.022 337.559 453.938C337.69 453.863 337.788 453.737 337.853 453.56L338.119 452.86H337.713L334.997 445.58H336.285L338.497 451.768L340.611 445.58H341.899L338.889 453.938C338.749 454.339 338.539 454.633 338.259 454.82C337.979 455.007 337.592 455.1 337.097 455.1H336.131ZM349.923 453.224C348.822 453.224 347.972 452.967 347.375 452.454C346.778 451.931 346.456 451.259 346.409 450.438L347.655 450.354C347.711 450.961 347.944 451.395 348.355 451.656C348.775 451.917 349.298 452.048 349.923 452.048C350.352 452.048 350.749 451.992 351.113 451.88C351.477 451.759 351.771 451.567 351.995 451.306C352.219 451.035 352.331 450.676 352.331 450.228C352.331 449.565 352.112 449.08 351.673 448.772C351.234 448.464 350.656 448.31 349.937 448.31H349.153V447.134H349.937C350.525 447.134 351.01 447.017 351.393 446.784C351.785 446.551 351.981 446.149 351.981 445.58C351.981 445.067 351.813 444.679 351.477 444.418C351.15 444.147 350.656 444.012 349.993 444.012C349.34 444.012 348.845 444.138 348.509 444.39C348.182 444.642 347.986 444.987 347.921 445.426L346.661 445.342C346.754 444.595 347.086 443.993 347.655 443.536C348.224 443.069 349.004 442.836 349.993 442.836C350.665 442.836 351.244 442.948 351.729 443.172C352.214 443.387 352.588 443.695 352.849 444.096C353.11 444.497 353.241 444.973 353.241 445.524C353.241 446.14 353.045 446.639 352.653 447.022C352.27 447.395 351.701 447.652 350.945 447.792V447.54C351.757 447.633 352.401 447.923 352.877 448.408C353.353 448.893 353.591 449.5 353.591 450.228C353.591 450.863 353.432 451.404 353.115 451.852C352.807 452.3 352.378 452.641 351.827 452.874C351.276 453.107 350.642 453.224 349.923 453.224Z" fill="#A0A0A0"/>
<defs>
<clipPath id="clip0_4488_2947">
<rect x="427" y="246" width="108" height="148" rx="5" fill="white"/>
</clipPath>
<clipPath id="clip1_4488_2947">
<rect x="311" y="246" width="108" height="148" rx="5" fill="white"/>
</clipPath>
<clipPath id="clip2_4488_2947">
<rect x="194" y="246" width="108" height="148" rx="5" fill="white"/>
</clipPath>
</defs>
</svg>
