<svg width="616" height="616" viewBox="0 0 616 616" fill="none" xmlns="http://www.w3.org/2000/svg">
<g clip-path="url(#clip0_4488_2888)">
<rect x="38" y="148" width="174.948" height="55.3633" rx="5" fill="#C3BDFF"/>
<path d="M96.417 180.865C95.4784 180.865 94.6677 180.7 93.985 180.369C93.3024 180.038 92.7637 179.58 92.369 178.993C91.985 178.396 91.761 177.702 91.697 176.913L93.809 176.785C93.873 177.276 94.0117 177.692 94.225 178.033C94.449 178.374 94.7424 178.636 95.105 178.817C95.4784 178.988 95.9264 179.073 96.449 179.073C96.897 179.073 97.2757 179.02 97.585 178.913C97.905 178.796 98.145 178.63 98.305 178.417C98.4757 178.193 98.561 177.921 98.561 177.601C98.561 177.313 98.4917 177.057 98.353 176.833C98.2144 176.598 97.9477 176.39 97.553 176.209C97.1584 176.017 96.5717 175.83 95.793 175.649C94.8544 175.436 94.1024 175.196 93.537 174.929C92.9717 174.652 92.561 174.31 92.305 173.905C92.049 173.489 91.921 172.972 91.921 172.353C91.921 171.692 92.0864 171.11 92.417 170.609C92.7477 170.097 93.217 169.702 93.825 169.425C94.433 169.137 95.1637 168.993 96.017 168.993C96.9237 168.993 97.6917 169.158 98.321 169.489C98.9504 169.809 99.4464 170.252 99.809 170.817C100.172 171.382 100.396 172.033 100.481 172.769L98.385 172.865C98.3317 172.449 98.2037 172.086 98.001 171.777C97.809 171.468 97.5424 171.228 97.201 171.057C96.8704 170.876 96.465 170.785 95.985 170.785C95.3877 170.785 94.913 170.924 94.561 171.201C94.2197 171.468 94.049 171.825 94.049 172.273C94.049 172.582 94.1184 172.838 94.257 173.041C94.4064 173.244 94.6677 173.42 95.041 173.569C95.4144 173.708 95.937 173.857 96.609 174.017C97.6224 174.23 98.4277 174.502 99.025 174.833C99.6224 175.164 100.049 175.548 100.305 175.985C100.561 176.422 100.689 176.924 100.689 177.489C100.689 178.182 100.513 178.785 100.161 179.297C99.809 179.798 99.313 180.188 98.673 180.465C98.033 180.732 97.281 180.865 96.417 180.865ZM106.493 180.801C105.64 180.801 104.899 180.62 104.269 180.257C103.64 179.884 103.155 179.361 102.813 178.689C102.472 178.017 102.301 177.233 102.301 176.337C102.301 175.441 102.472 174.662 102.813 174.001C103.155 173.329 103.635 172.806 104.253 172.433C104.883 172.06 105.613 171.873 106.445 171.873C107.256 171.873 107.965 172.054 108.573 172.417C109.192 172.78 109.667 173.302 109.997 173.985C110.328 174.668 110.493 175.489 110.493 176.449V176.913H104.429C104.472 177.66 104.675 178.225 105.037 178.609C105.411 178.982 105.901 179.169 106.509 179.169C106.968 179.169 107.347 179.068 107.645 178.865C107.955 178.652 108.168 178.358 108.285 177.985L110.381 178.113C110.147 178.945 109.683 179.601 108.989 180.081C108.307 180.561 107.475 180.801 106.493 180.801ZM104.429 175.537H108.381C108.339 174.844 108.141 174.332 107.789 174.001C107.437 173.66 106.989 173.489 106.445 173.489C105.901 173.489 105.448 173.665 105.085 174.017C104.733 174.369 104.515 174.876 104.429 175.537ZM115.742 183.201C114.995 183.201 114.355 183.1 113.822 182.897C113.289 182.694 112.857 182.406 112.526 182.033C112.206 181.67 111.982 181.249 111.854 180.769L113.966 180.625C114.073 180.945 114.254 181.196 114.51 181.377C114.777 181.558 115.187 181.649 115.742 181.649C116.371 181.649 116.857 181.505 117.198 181.217C117.539 180.94 117.71 180.502 117.71 179.905V178.817C117.507 179.233 117.182 179.569 116.734 179.825C116.286 180.07 115.785 180.193 115.23 180.193C114.526 180.193 113.897 180.022 113.342 179.681C112.798 179.329 112.371 178.844 112.062 178.225C111.753 177.596 111.598 176.87 111.598 176.049C111.598 175.228 111.747 174.508 112.046 173.889C112.355 173.26 112.782 172.769 113.326 172.417C113.87 172.054 114.494 171.873 115.198 171.873C115.817 171.873 116.35 172.012 116.798 172.289C117.246 172.566 117.571 172.934 117.774 173.393V172.065H119.774V179.857C119.774 180.582 119.603 181.196 119.262 181.697C118.931 182.198 118.462 182.572 117.854 182.817C117.257 183.073 116.553 183.201 115.742 183.201ZM115.71 178.593C116.318 178.593 116.803 178.369 117.166 177.921C117.529 177.462 117.715 176.833 117.726 176.033C117.737 175.5 117.657 175.046 117.486 174.673C117.326 174.289 117.091 173.996 116.782 173.793C116.483 173.58 116.126 173.473 115.71 173.473C115.081 173.473 114.59 173.708 114.238 174.177C113.897 174.636 113.726 175.254 113.726 176.033C113.726 176.812 113.902 177.436 114.254 177.905C114.617 178.364 115.102 178.593 115.71 178.593ZM122.016 180.609V172.065H123.872L123.936 174.161L123.744 174.065C123.84 173.606 124.005 173.217 124.24 172.897C124.485 172.566 124.779 172.316 125.12 172.145C125.472 171.964 125.856 171.873 126.272 171.873C126.997 171.873 127.584 172.081 128.032 172.497C128.48 172.902 128.763 173.462 128.88 174.177H128.608C128.704 173.676 128.869 173.26 129.104 172.929C129.339 172.588 129.632 172.326 129.984 172.145C130.347 171.964 130.752 171.873 131.2 171.873C131.787 171.873 132.293 172.001 132.72 172.257C133.147 172.502 133.472 172.865 133.696 173.345C133.931 173.825 134.048 174.417 134.048 175.121V180.609H132V175.649C132 174.945 131.877 174.417 131.632 174.065C131.397 173.713 131.035 173.537 130.544 173.537C130.213 173.537 129.931 173.622 129.696 173.793C129.461 173.964 129.28 174.214 129.152 174.545C129.035 174.865 128.976 175.254 128.976 175.713V180.609H127.072V175.713C127.072 175.009 126.965 174.47 126.752 174.097C126.539 173.724 126.171 173.537 125.648 173.537C125.317 173.537 125.035 173.622 124.8 173.793C124.576 173.964 124.395 174.214 124.256 174.545C124.128 174.865 124.064 175.254 124.064 175.713V180.609H122.016ZM139.774 180.801C138.921 180.801 138.18 180.62 137.55 180.257C136.921 179.884 136.436 179.361 136.094 178.689C135.753 178.017 135.582 177.233 135.582 176.337C135.582 175.441 135.753 174.662 136.094 174.001C136.436 173.329 136.916 172.806 137.534 172.433C138.164 172.06 138.894 171.873 139.726 171.873C140.537 171.873 141.246 172.054 141.854 172.417C142.473 172.78 142.948 173.302 143.278 173.985C143.609 174.668 143.774 175.489 143.774 176.449V176.913H137.71C137.753 177.66 137.956 178.225 138.318 178.609C138.692 178.982 139.182 179.169 139.79 179.169C140.249 179.169 140.628 179.068 140.926 178.865C141.236 178.652 141.449 178.358 141.566 177.985L143.662 178.113C143.428 178.945 142.964 179.601 142.27 180.081C141.588 180.561 140.756 180.801 139.774 180.801ZM137.71 175.537H141.662C141.62 174.844 141.422 174.332 141.07 174.001C140.718 173.66 140.27 173.489 139.726 173.489C139.182 173.489 138.729 173.665 138.366 174.017C138.014 174.369 137.796 174.876 137.71 175.537ZM145.375 180.609V172.065H147.231L147.311 174.465L147.071 174.369C147.157 173.772 147.333 173.292 147.599 172.929C147.866 172.566 148.191 172.3 148.575 172.129C148.959 171.958 149.381 171.873 149.839 171.873C150.469 171.873 150.997 172.012 151.423 172.289C151.861 172.566 152.191 172.95 152.415 173.441C152.639 173.921 152.751 174.481 152.751 175.121V180.609H150.703V175.777C150.703 175.297 150.655 174.892 150.559 174.561C150.463 174.23 150.303 173.98 150.079 173.809C149.866 173.628 149.578 173.537 149.215 173.537C148.671 173.537 148.234 173.729 147.903 174.113C147.583 174.497 147.423 175.052 147.423 175.777V180.609H145.375ZM157.815 180.609C156.962 180.609 156.332 180.412 155.927 180.017C155.532 179.622 155.335 179.004 155.335 178.161V170.065H157.383V177.969C157.383 178.364 157.468 178.641 157.639 178.801C157.81 178.95 158.076 179.025 158.439 179.025H159.639V180.609H157.815ZM153.991 173.649V172.065H159.639V173.649H153.991Z" fill="#17171A"/>
<rect x="220.699" y="148" width="174.948" height="55.3633" rx="5" fill="#C3BDFF"/>
<path d="M280.555 180.609V171.057H277.099V169.249H286.075V171.057H282.635V180.609H280.555ZM286.653 180.609V172.065H288.573L288.653 174.433L288.477 174.401C288.605 173.58 288.845 172.988 289.197 172.625C289.559 172.252 290.05 172.065 290.669 172.065H291.453V173.825H290.653C290.215 173.825 289.853 173.889 289.565 174.017C289.277 174.145 289.058 174.348 288.909 174.625C288.77 174.892 288.701 175.244 288.701 175.681V180.609H286.653ZM292.778 180.609V172.065H294.826V180.609H292.778ZM292.746 170.929V169.105H294.874V170.929H292.746ZM300.566 183.201C299.82 183.201 299.18 183.1 298.646 182.897C298.113 182.694 297.681 182.406 297.35 182.033C297.03 181.67 296.806 181.249 296.678 180.769L298.79 180.625C298.897 180.945 299.078 181.196 299.334 181.377C299.601 181.558 300.012 181.649 300.566 181.649C301.196 181.649 301.681 181.505 302.022 181.217C302.364 180.94 302.534 180.502 302.534 179.905V178.817C302.332 179.233 302.006 179.569 301.558 179.825C301.11 180.07 300.609 180.193 300.054 180.193C299.35 180.193 298.721 180.022 298.166 179.681C297.622 179.329 297.196 178.844 296.886 178.225C296.577 177.596 296.422 176.87 296.422 176.049C296.422 175.228 296.572 174.508 296.87 173.889C297.18 173.26 297.606 172.769 298.15 172.417C298.694 172.054 299.318 171.873 300.022 171.873C300.641 171.873 301.174 172.012 301.622 172.289C302.07 172.566 302.396 172.934 302.598 173.393V172.065H304.598V179.857C304.598 180.582 304.428 181.196 304.086 181.697C303.756 182.198 303.286 182.572 302.678 182.817C302.081 183.073 301.377 183.201 300.566 183.201ZM300.534 178.593C301.142 178.593 301.628 178.369 301.99 177.921C302.353 177.462 302.54 176.833 302.55 176.033C302.561 175.5 302.481 175.046 302.31 174.673C302.15 174.289 301.916 173.996 301.606 173.793C301.308 173.58 300.95 173.473 300.534 173.473C299.905 173.473 299.414 173.708 299.062 174.177C298.721 174.636 298.55 175.254 298.55 176.033C298.55 176.812 298.726 177.436 299.078 177.905C299.441 178.364 299.926 178.593 300.534 178.593ZM310.332 183.201C309.585 183.201 308.945 183.1 308.412 182.897C307.879 182.694 307.447 182.406 307.116 182.033C306.796 181.67 306.572 181.249 306.444 180.769L308.556 180.625C308.663 180.945 308.844 181.196 309.1 181.377C309.367 181.558 309.777 181.649 310.332 181.649C310.961 181.649 311.447 181.505 311.788 181.217C312.129 180.94 312.3 180.502 312.3 179.905V178.817C312.097 179.233 311.772 179.569 311.324 179.825C310.876 180.07 310.375 180.193 309.82 180.193C309.116 180.193 308.487 180.022 307.932 179.681C307.388 179.329 306.961 178.844 306.652 178.225C306.343 177.596 306.188 176.87 306.188 176.049C306.188 175.228 306.337 174.508 306.636 173.889C306.945 173.26 307.372 172.769 307.916 172.417C308.46 172.054 309.084 171.873 309.788 171.873C310.407 171.873 310.94 172.012 311.388 172.289C311.836 172.566 312.161 172.934 312.364 173.393V172.065H314.364V179.857C314.364 180.582 314.193 181.196 313.852 181.697C313.521 182.198 313.052 182.572 312.444 182.817C311.847 183.073 311.143 183.201 310.332 183.201ZM310.3 178.593C310.908 178.593 311.393 178.369 311.756 177.921C312.119 177.462 312.305 176.833 312.316 176.033C312.327 175.5 312.247 175.046 312.076 174.673C311.916 174.289 311.681 173.996 311.372 173.793C311.073 173.58 310.716 173.473 310.3 173.473C309.671 173.473 309.18 173.708 308.828 174.177C308.487 174.636 308.316 175.254 308.316 176.033C308.316 176.812 308.492 177.436 308.844 177.905C309.207 178.364 309.692 178.593 310.3 178.593ZM320.146 180.801C319.292 180.801 318.551 180.62 317.922 180.257C317.292 179.884 316.807 179.361 316.466 178.689C316.124 178.017 315.954 177.233 315.954 176.337C315.954 175.441 316.124 174.662 316.466 174.001C316.807 173.329 317.287 172.806 317.906 172.433C318.535 172.06 319.266 171.873 320.098 171.873C320.908 171.873 321.618 172.054 322.226 172.417C322.844 172.78 323.319 173.302 323.65 173.985C323.98 174.668 324.146 175.489 324.146 176.449V176.913H318.082C318.124 177.66 318.327 178.225 318.69 178.609C319.063 178.982 319.554 179.169 320.162 179.169C320.62 179.169 320.999 179.068 321.298 178.865C321.607 178.652 321.82 178.358 321.938 177.985L324.034 178.113C323.799 178.945 323.335 179.601 322.642 180.081C321.959 180.561 321.127 180.801 320.146 180.801ZM318.082 175.537H322.034C321.991 174.844 321.794 174.332 321.442 174.001C321.09 173.66 320.642 173.489 320.098 173.489C319.554 173.489 319.1 173.665 318.738 174.017C318.386 174.369 318.167 174.876 318.082 175.537ZM325.746 180.609V172.065H327.666L327.746 174.433L327.57 174.401C327.698 173.58 327.938 172.988 328.29 172.625C328.653 172.252 329.144 172.065 329.762 172.065H330.546V173.825H329.746C329.309 173.825 328.946 173.889 328.658 174.017C328.37 174.145 328.152 174.348 328.002 174.625C327.864 174.892 327.794 175.244 327.794 175.681V180.609H325.746ZM335.125 180.801C334.282 180.801 333.573 180.678 332.997 180.433C332.431 180.188 331.994 179.846 331.685 179.409C331.375 178.972 331.199 178.476 331.157 177.921L333.253 177.825C333.327 178.273 333.514 178.62 333.813 178.865C334.111 179.11 334.554 179.233 335.141 179.233C335.621 179.233 335.994 179.158 336.261 179.009C336.538 178.849 336.677 178.604 336.677 178.273C336.677 178.081 336.629 177.921 336.533 177.793C336.437 177.665 336.255 177.553 335.989 177.457C335.722 177.361 335.327 177.265 334.805 177.169C333.93 177.02 333.242 176.838 332.741 176.625C332.239 176.401 331.882 176.124 331.669 175.793C331.466 175.462 331.365 175.052 331.365 174.561C331.365 173.761 331.669 173.116 332.277 172.625C332.895 172.124 333.797 171.873 334.981 171.873C335.749 171.873 336.394 172.001 336.917 172.257C337.439 172.502 337.845 172.844 338.133 173.281C338.431 173.708 338.618 174.198 338.693 174.753L336.629 174.849C336.575 174.561 336.479 174.31 336.341 174.097C336.202 173.884 336.015 173.724 335.781 173.617C335.546 173.5 335.269 173.441 334.949 173.441C334.469 173.441 334.106 173.537 333.861 173.729C333.615 173.921 333.493 174.177 333.493 174.497C333.493 174.721 333.546 174.908 333.653 175.057C333.77 175.206 333.957 175.329 334.213 175.425C334.469 175.51 334.81 175.59 335.237 175.665C336.133 175.804 336.837 175.985 337.349 176.209C337.871 176.422 338.239 176.7 338.453 177.041C338.677 177.372 338.789 177.772 338.789 178.241C338.789 178.785 338.634 179.249 338.325 179.633C338.026 180.017 337.599 180.31 337.045 180.513C336.501 180.705 335.861 180.801 335.125 180.801Z" fill="#17171A"/>
<rect x="403.402" y="148" width="174.948" height="55.3633" rx="5" fill="#C3BDFF"/>
<path d="M460.18 180.609V169.249H464.58C465.913 169.249 466.953 169.569 467.7 170.209C468.446 170.849 468.82 171.734 468.82 172.865C468.82 173.622 468.649 174.278 468.308 174.833C467.966 175.377 467.481 175.793 466.852 176.081C466.222 176.369 465.465 176.513 464.58 176.513H462.26V180.609H460.18ZM462.26 174.705H464.484C465.188 174.705 465.726 174.55 466.1 174.241C466.484 173.932 466.676 173.473 466.676 172.865C466.676 172.268 466.484 171.82 466.1 171.521C465.726 171.212 465.188 171.057 464.484 171.057H462.26V174.705ZM470.535 180.609V172.065H472.455L472.535 174.433L472.359 174.401C472.487 173.58 472.727 172.988 473.079 172.625C473.442 172.252 473.933 172.065 474.551 172.065H475.335V173.825H474.535C474.098 173.825 473.735 173.889 473.447 174.017C473.159 174.145 472.941 174.348 472.791 174.625C472.653 174.892 472.583 175.244 472.583 175.681V180.609H470.535ZM480.154 180.801C479.311 180.801 478.57 180.62 477.93 180.257C477.3 179.884 476.81 179.361 476.458 178.689C476.116 178.017 475.946 177.233 475.946 176.337C475.946 175.43 476.116 174.646 476.458 173.985C476.81 173.313 477.3 172.796 477.93 172.433C478.57 172.06 479.311 171.873 480.154 171.873C480.996 171.873 481.732 172.06 482.362 172.433C482.991 172.796 483.476 173.313 483.818 173.985C484.17 174.646 484.346 175.43 484.346 176.337C484.346 177.233 484.17 178.017 483.818 178.689C483.476 179.361 482.991 179.884 482.362 180.257C481.732 180.62 480.996 180.801 480.154 180.801ZM480.154 179.137C480.815 179.137 481.322 178.892 481.674 178.401C482.036 177.91 482.218 177.222 482.218 176.337C482.218 175.462 482.036 174.78 481.674 174.289C481.322 173.788 480.815 173.537 480.154 173.537C479.492 173.537 478.98 173.788 478.618 174.289C478.255 174.78 478.074 175.462 478.074 176.337C478.074 177.222 478.255 177.91 478.618 178.401C478.98 178.892 479.492 179.137 480.154 179.137ZM490.518 180.801C489.921 180.801 489.398 180.673 488.95 180.417C488.513 180.161 488.171 179.804 487.926 179.345L487.878 180.609H485.926V169.249H487.974V173.281C488.209 172.886 488.545 172.556 488.982 172.289C489.419 172.012 489.931 171.873 490.518 171.873C491.254 171.873 491.889 172.06 492.422 172.433C492.966 172.796 493.382 173.313 493.67 173.985C493.969 174.646 494.118 175.43 494.118 176.337C494.118 177.244 493.969 178.033 493.67 178.705C493.382 179.366 492.966 179.884 492.422 180.257C491.889 180.62 491.254 180.801 490.518 180.801ZM490.054 179.137C490.641 179.137 491.11 178.892 491.462 178.401C491.814 177.9 491.99 177.212 491.99 176.337C491.99 175.452 491.814 174.764 491.462 174.273C491.121 173.782 490.657 173.537 490.07 173.537C489.633 173.537 489.254 173.649 488.934 173.873C488.625 174.086 488.385 174.401 488.214 174.817C488.054 175.233 487.974 175.74 487.974 176.337C487.974 176.913 488.054 177.414 488.214 177.841C488.385 178.257 488.625 178.577 488.934 178.801C489.243 179.025 489.617 179.137 490.054 179.137ZM497.833 180.609C497.215 180.609 496.719 180.449 496.345 180.129C495.972 179.809 495.785 179.297 495.785 178.593V169.249H497.833V178.385C497.833 178.598 497.887 178.758 497.993 178.865C498.111 178.972 498.271 179.025 498.473 179.025H499.097V180.609H497.833ZM504.106 180.801C503.253 180.801 502.512 180.62 501.882 180.257C501.253 179.884 500.768 179.361 500.426 178.689C500.085 178.017 499.914 177.233 499.914 176.337C499.914 175.441 500.085 174.662 500.426 174.001C500.768 173.329 501.248 172.806 501.866 172.433C502.496 172.06 503.226 171.873 504.058 171.873C504.869 171.873 505.578 172.054 506.186 172.417C506.805 172.78 507.28 173.302 507.61 173.985C507.941 174.668 508.106 175.489 508.106 176.449V176.913H502.042C502.085 177.66 502.288 178.225 502.65 178.609C503.024 178.982 503.514 179.169 504.122 179.169C504.581 179.169 504.96 179.068 505.258 178.865C505.568 178.652 505.781 178.358 505.898 177.985L507.994 178.113C507.76 178.945 507.296 179.601 506.602 180.081C505.92 180.561 505.088 180.801 504.106 180.801ZM502.042 175.537H505.994C505.952 174.844 505.754 174.332 505.402 174.001C505.05 173.66 504.602 173.489 504.058 173.489C503.514 173.489 503.061 173.665 502.698 174.017C502.346 174.369 502.128 174.876 502.042 175.537ZM509.707 180.609V172.065H511.563L511.627 174.161L511.435 174.065C511.531 173.606 511.697 173.217 511.931 172.897C512.177 172.566 512.47 172.316 512.811 172.145C513.163 171.964 513.547 171.873 513.963 171.873C514.689 171.873 515.275 172.081 515.723 172.497C516.171 172.902 516.454 173.462 516.571 174.177H516.299C516.395 173.676 516.561 173.26 516.795 172.929C517.03 172.588 517.323 172.326 517.675 172.145C518.038 171.964 518.443 171.873 518.891 171.873C519.478 171.873 519.985 172.001 520.411 172.257C520.838 172.502 521.163 172.865 521.387 173.345C521.622 173.825 521.739 174.417 521.739 175.121V180.609H519.691V175.649C519.691 174.945 519.569 174.417 519.323 174.065C519.089 173.713 518.726 173.537 518.235 173.537C517.905 173.537 517.622 173.622 517.387 173.793C517.153 173.964 516.971 174.214 516.843 174.545C516.726 174.865 516.667 175.254 516.667 175.713V180.609H514.763V175.713C514.763 175.009 514.657 174.47 514.443 174.097C514.23 173.724 513.862 173.537 513.339 173.537C513.009 173.537 512.726 173.622 512.491 173.793C512.267 173.964 512.086 174.214 511.947 174.545C511.819 174.865 511.755 175.254 511.755 175.713V180.609H509.707Z" fill="#17171A"/>
<rect x="38" y="211.114" width="174.948" height="55.3633" rx="5" fill="#C3BDFF"/>
<path d="M87.6369 243.723V232.363H89.7169V243.723H87.6369ZM92.2425 243.723V235.179H94.0985L94.1785 237.579L93.9385 237.483C94.0238 236.886 94.1998 236.406 94.4665 236.043C94.7331 235.68 95.0585 235.414 95.4425 235.243C95.8265 235.072 96.2478 234.987 96.7065 234.987C97.3358 234.987 97.8638 235.126 98.2905 235.403C98.7278 235.68 99.0585 236.064 99.2825 236.555C99.5065 237.035 99.6185 237.595 99.6185 238.235V243.723H97.5705V238.891C97.5705 238.411 97.5225 238.006 97.4265 237.675C97.3305 237.344 97.1705 237.094 96.9465 236.923C96.7331 236.742 96.4451 236.651 96.0825 236.651C95.5385 236.651 95.1011 236.843 94.7705 237.227C94.4505 237.611 94.2905 238.166 94.2905 238.891V243.723H92.2425ZM102.31 243.723V234.843C102.31 234.075 102.524 233.472 102.95 233.035C103.388 232.587 104.054 232.363 104.95 232.363H106.614V233.947H105.334C105.004 233.947 104.758 234.032 104.598 234.203C104.449 234.374 104.374 234.624 104.374 234.955V243.723H102.31ZM101.094 236.987V235.403H106.502V236.987H101.094ZM110.07 243.723C109.452 243.723 108.956 243.563 108.582 243.243C108.209 242.923 108.022 242.411 108.022 241.707V232.363H110.07V241.499C110.07 241.712 110.124 241.872 110.23 241.979C110.348 242.086 110.508 242.139 110.71 242.139H111.334V243.723H110.07ZM115.465 243.915C114.601 243.915 113.913 243.632 113.401 243.067C112.899 242.491 112.649 241.696 112.649 240.683V235.179H114.697V240.171C114.697 240.886 114.814 241.414 115.049 241.755C115.294 242.086 115.662 242.251 116.153 242.251C116.707 242.251 117.134 242.07 117.433 241.707C117.742 241.334 117.897 240.795 117.897 240.091V235.179H119.945V243.723H118.073L118.025 241.371L118.281 241.451C118.153 242.262 117.849 242.875 117.369 243.291C116.889 243.707 116.254 243.915 115.465 243.915ZM125.735 243.915C124.882 243.915 124.141 243.734 123.511 243.371C122.882 242.998 122.397 242.475 122.055 241.803C121.714 241.131 121.543 240.347 121.543 239.451C121.543 238.555 121.714 237.776 122.055 237.115C122.397 236.443 122.877 235.92 123.495 235.547C124.125 235.174 124.855 234.987 125.687 234.987C126.498 234.987 127.207 235.168 127.815 235.531C128.434 235.894 128.909 236.416 129.239 237.099C129.57 237.782 129.735 238.603 129.735 239.563V240.027H123.671C123.714 240.774 123.917 241.339 124.279 241.723C124.653 242.096 125.143 242.283 125.751 242.283C126.21 242.283 126.589 242.182 126.887 241.979C127.197 241.766 127.41 241.472 127.527 241.099L129.623 241.227C129.389 242.059 128.925 242.715 128.231 243.195C127.549 243.675 126.717 243.915 125.735 243.915ZM123.671 238.651H127.623C127.581 237.958 127.383 237.446 127.031 237.115C126.679 236.774 126.231 236.603 125.687 236.603C125.143 236.603 124.69 236.779 124.327 237.131C123.975 237.483 123.757 237.99 123.671 238.651ZM131.336 243.723V235.179H133.192L133.272 237.579L133.032 237.483C133.118 236.886 133.294 236.406 133.56 236.043C133.827 235.68 134.152 235.414 134.536 235.243C134.92 235.072 135.342 234.987 135.8 234.987C136.43 234.987 136.958 235.126 137.384 235.403C137.822 235.68 138.152 236.064 138.376 236.555C138.6 237.035 138.712 237.595 138.712 238.235V243.723H136.664V238.891C136.664 238.411 136.616 238.006 136.52 237.675C136.424 237.344 136.264 237.094 136.04 236.923C135.827 236.742 135.539 236.651 135.176 236.651C134.632 236.651 134.195 236.843 133.864 237.227C133.544 237.611 133.384 238.166 133.384 238.891V243.723H131.336ZM144.454 243.915C143.601 243.915 142.86 243.734 142.23 243.371C141.601 242.998 141.11 242.475 140.758 241.803C140.417 241.131 140.246 240.347 140.246 239.451C140.246 238.555 140.417 237.776 140.758 237.115C141.11 236.443 141.601 235.92 142.23 235.547C142.86 235.174 143.601 234.987 144.454 234.987C145.18 234.987 145.825 235.115 146.39 235.371C146.956 235.627 147.414 235.995 147.766 236.475C148.129 236.944 148.353 237.52 148.438 238.203L146.326 238.315C146.241 237.771 146.028 237.36 145.686 237.083C145.356 236.795 144.945 236.651 144.454 236.651C143.793 236.651 143.281 236.902 142.918 237.403C142.556 237.894 142.374 238.576 142.374 239.451C142.374 240.336 142.556 241.024 142.918 241.515C143.281 242.006 143.793 242.251 144.454 242.251C144.956 242.251 145.372 242.107 145.702 241.819C146.044 241.531 146.252 241.083 146.326 240.475L148.438 240.571C148.353 241.254 148.134 241.846 147.782 242.347C147.43 242.848 146.972 243.238 146.406 243.515C145.841 243.782 145.19 243.915 144.454 243.915ZM153.563 243.915C152.71 243.915 151.969 243.734 151.339 243.371C150.71 242.998 150.225 242.475 149.883 241.803C149.542 241.131 149.371 240.347 149.371 239.451C149.371 238.555 149.542 237.776 149.883 237.115C150.225 236.443 150.705 235.92 151.323 235.547C151.953 235.174 152.683 234.987 153.515 234.987C154.326 234.987 155.035 235.168 155.643 235.531C156.262 235.894 156.737 236.416 157.067 237.099C157.398 237.782 157.563 238.603 157.563 239.563V240.027H151.499C151.542 240.774 151.745 241.339 152.107 241.723C152.481 242.096 152.971 242.283 153.579 242.283C154.038 242.283 154.417 242.182 154.715 241.979C155.025 241.766 155.238 241.472 155.355 241.099L157.451 241.227C157.217 242.059 156.753 242.715 156.059 243.195C155.377 243.675 154.545 243.915 153.563 243.915ZM151.499 238.651H155.451C155.409 237.958 155.211 237.446 154.859 237.115C154.507 236.774 154.059 236.603 153.515 236.603C152.971 236.603 152.518 236.779 152.155 237.131C151.803 237.483 151.585 237.99 151.499 238.651ZM159.164 243.723V235.179H161.084L161.164 237.547L160.988 237.515C161.116 236.694 161.356 236.102 161.708 235.739C162.071 235.366 162.562 235.179 163.18 235.179H163.964V236.939H163.164C162.727 236.939 162.364 237.003 162.076 237.131C161.788 237.259 161.57 237.462 161.42 237.739C161.282 238.006 161.212 238.358 161.212 238.795V243.723H159.164Z" fill="#17171A"/>
<rect x="38" y="274.229" width="174.948" height="55.3633" rx="5" fill="#C3BDFF"/>
<path d="M67.6837 306.837V295.477H71.4597C73.2731 295.477 74.6651 295.973 75.6357 296.965C76.6171 297.947 77.1077 299.349 77.1077 301.173C77.1077 302.987 76.6277 304.384 75.6677 305.365C74.7077 306.347 73.3371 306.837 71.5557 306.837H67.6837ZM69.7637 305.029H71.4597C72.6437 305.029 73.5237 304.709 74.0997 304.069C74.6757 303.429 74.9637 302.464 74.9637 301.173C74.9637 299.861 74.6757 298.885 74.0997 298.245C73.5237 297.605 72.6437 297.285 71.4597 297.285H69.7637V305.029ZM82.751 307.029C81.8976 307.029 81.1563 306.848 80.527 306.485C79.8976 306.112 79.4123 305.589 79.071 304.917C78.7296 304.245 78.559 303.461 78.559 302.565C78.559 301.669 78.7296 300.891 79.071 300.229C79.4123 299.557 79.8923 299.035 80.511 298.661C81.1403 298.288 81.871 298.101 82.703 298.101C83.5136 298.101 84.223 298.283 84.831 298.645C85.4496 299.008 85.9243 299.531 86.255 300.213C86.5856 300.896 86.751 301.717 86.751 302.677V303.141H80.687C80.7296 303.888 80.9323 304.453 81.295 304.837C81.6683 305.211 82.159 305.397 82.767 305.397C83.2256 305.397 83.6043 305.296 83.903 305.093C84.2123 304.88 84.4256 304.587 84.543 304.213L86.639 304.341C86.4043 305.173 85.9403 305.829 85.247 306.309C84.5643 306.789 83.7323 307.029 82.751 307.029ZM80.687 301.765H84.639C84.5963 301.072 84.399 300.56 84.047 300.229C83.695 299.888 83.247 299.717 82.703 299.717C82.159 299.717 81.7056 299.893 81.343 300.245C80.991 300.597 80.7723 301.104 80.687 301.765ZM92.0639 307.029C91.2105 307.029 90.4692 306.848 89.8399 306.485C89.2105 306.112 88.7199 305.589 88.3679 304.917C88.0265 304.245 87.8559 303.461 87.8559 302.565C87.8559 301.669 88.0265 300.891 88.3679 300.229C88.7199 299.557 89.2105 299.035 89.8399 298.661C90.4692 298.288 91.2105 298.101 92.0639 298.101C92.7892 298.101 93.4345 298.229 93.9999 298.485C94.5652 298.741 95.0239 299.109 95.3759 299.589C95.7385 300.059 95.9625 300.635 96.0479 301.317L93.9359 301.429C93.8505 300.885 93.6372 300.475 93.2959 300.197C92.9652 299.909 92.5545 299.765 92.0639 299.765C91.4025 299.765 90.8905 300.016 90.5279 300.517C90.1652 301.008 89.9839 301.691 89.9839 302.565C89.9839 303.451 90.1652 304.139 90.5279 304.629C90.8905 305.12 91.4025 305.365 92.0639 305.365C92.5652 305.365 92.9812 305.221 93.3119 304.933C93.6532 304.645 93.8612 304.197 93.9359 303.589L96.0479 303.685C95.9625 304.368 95.7439 304.96 95.3919 305.461C95.0399 305.963 94.5812 306.352 94.0159 306.629C93.4505 306.896 92.7999 307.029 92.0639 307.029ZM97.4769 306.837V298.293H99.5249V306.837H97.4769ZM97.4449 297.157V295.333H99.5729V297.157H97.4449ZM105.089 307.029C104.247 307.029 103.537 306.907 102.961 306.661C102.396 306.416 101.959 306.075 101.649 305.637C101.34 305.2 101.164 304.704 101.121 304.149L103.217 304.053C103.292 304.501 103.479 304.848 103.777 305.093C104.076 305.339 104.519 305.461 105.105 305.461C105.585 305.461 105.959 305.387 106.225 305.237C106.503 305.077 106.641 304.832 106.641 304.501C106.641 304.309 106.593 304.149 106.497 304.021C106.401 303.893 106.22 303.781 105.953 303.685C105.687 303.589 105.292 303.493 104.769 303.397C103.895 303.248 103.207 303.067 102.705 302.853C102.204 302.629 101.847 302.352 101.633 302.021C101.431 301.691 101.329 301.28 101.329 300.789C101.329 299.989 101.633 299.344 102.241 298.853C102.86 298.352 103.761 298.101 104.945 298.101C105.713 298.101 106.359 298.229 106.881 298.485C107.404 298.731 107.809 299.072 108.097 299.509C108.396 299.936 108.583 300.427 108.657 300.981L106.593 301.077C106.54 300.789 106.444 300.539 106.305 300.325C106.167 300.112 105.98 299.952 105.745 299.845C105.511 299.728 105.233 299.669 104.913 299.669C104.433 299.669 104.071 299.765 103.825 299.957C103.58 300.149 103.457 300.405 103.457 300.725C103.457 300.949 103.511 301.136 103.617 301.285C103.735 301.435 103.921 301.557 104.177 301.653C104.433 301.739 104.775 301.819 105.201 301.893C106.097 302.032 106.801 302.213 107.313 302.437C107.836 302.651 108.204 302.928 108.417 303.269C108.641 303.6 108.753 304 108.753 304.469C108.753 305.013 108.599 305.477 108.289 305.861C107.991 306.245 107.564 306.539 107.009 306.741C106.465 306.933 105.825 307.029 105.089 307.029ZM110.352 306.837V298.293H112.4V306.837H110.352ZM110.32 297.157V295.333H112.448V297.157H110.32ZM118.204 307.029C117.362 307.029 116.62 306.848 115.98 306.485C115.351 306.112 114.86 305.589 114.508 304.917C114.167 304.245 113.996 303.461 113.996 302.565C113.996 301.659 114.167 300.875 114.508 300.213C114.86 299.541 115.351 299.024 115.98 298.661C116.62 298.288 117.362 298.101 118.204 298.101C119.047 298.101 119.783 298.288 120.412 298.661C121.042 299.024 121.527 299.541 121.868 300.213C122.22 300.875 122.396 301.659 122.396 302.565C122.396 303.461 122.22 304.245 121.868 304.917C121.527 305.589 121.042 306.112 120.412 306.485C119.783 306.848 119.047 307.029 118.204 307.029ZM118.204 305.365C118.866 305.365 119.372 305.12 119.724 304.629C120.087 304.139 120.268 303.451 120.268 302.565C120.268 301.691 120.087 301.008 119.724 300.517C119.372 300.016 118.866 299.765 118.204 299.765C117.543 299.765 117.031 300.016 116.668 300.517C116.306 301.008 116.124 301.691 116.124 302.565C116.124 303.451 116.306 304.139 116.668 304.629C117.031 305.12 117.543 305.365 118.204 305.365ZM123.977 306.837V298.293H125.833L125.913 300.693L125.673 300.597C125.758 300 125.934 299.52 126.201 299.157C126.468 298.795 126.793 298.528 127.177 298.357C127.561 298.187 127.982 298.101 128.441 298.101C129.07 298.101 129.598 298.24 130.025 298.517C130.462 298.795 130.793 299.179 131.017 299.669C131.241 300.149 131.353 300.709 131.353 301.349V306.837H129.305V302.005C129.305 301.525 129.257 301.12 129.161 300.789C129.065 300.459 128.905 300.208 128.681 300.037C128.468 299.856 128.18 299.765 127.817 299.765C127.273 299.765 126.836 299.957 126.505 300.341C126.185 300.725 126.025 301.28 126.025 302.005V306.837H123.977ZM137.527 306.837V295.477H140.327L143.463 304.277L146.599 295.477H149.399V306.837H147.319V298.997L144.455 306.821H142.471L139.607 298.997V306.837H137.527ZM154.129 307.029C153.233 307.029 152.513 306.827 151.969 306.421C151.425 306.005 151.153 305.429 151.153 304.693C151.153 303.957 151.382 303.381 151.841 302.965C152.299 302.549 152.998 302.251 153.937 302.069L156.769 301.509C156.769 300.901 156.63 300.448 156.353 300.149C156.075 299.84 155.665 299.685 155.121 299.685C154.63 299.685 154.241 299.803 153.953 300.037C153.675 300.261 153.483 300.587 153.377 301.013L151.297 300.917C151.467 300.011 151.883 299.317 152.545 298.837C153.206 298.347 154.065 298.101 155.121 298.101C156.337 298.101 157.254 298.411 157.873 299.029C158.502 299.637 158.817 300.512 158.817 301.653V304.757C158.817 304.981 158.854 305.136 158.929 305.221C159.014 305.307 159.137 305.349 159.297 305.349H159.569V306.837C159.505 306.859 159.398 306.875 159.249 306.885C159.11 306.896 158.966 306.901 158.817 306.901C158.465 306.901 158.15 306.848 157.873 306.741C157.595 306.624 157.382 306.427 157.233 306.149C157.083 305.861 157.009 305.472 157.009 304.981L157.185 305.109C157.099 305.483 156.913 305.819 156.625 306.117C156.347 306.405 155.995 306.629 155.569 306.789C155.142 306.949 154.662 307.029 154.129 307.029ZM154.545 305.541C155.003 305.541 155.398 305.451 155.729 305.269C156.059 305.088 156.315 304.837 156.497 304.517C156.678 304.197 156.769 303.819 156.769 303.381V302.901L154.561 303.349C154.102 303.445 153.771 303.589 153.569 303.781C153.377 303.963 153.281 304.203 153.281 304.501C153.281 304.832 153.387 305.088 153.601 305.269C153.825 305.451 154.139 305.541 154.545 305.541ZM160.805 306.837V295.477H162.853V302.149L166.357 298.293H168.885L165.541 301.845L168.997 306.837H166.693L164.197 303.061L162.853 304.485V306.837H160.805ZM173.517 307.029C172.663 307.029 171.922 306.848 171.293 306.485C170.663 306.112 170.178 305.589 169.837 304.917C169.495 304.245 169.325 303.461 169.325 302.565C169.325 301.669 169.495 300.891 169.837 300.229C170.178 299.557 170.658 299.035 171.277 298.661C171.906 298.288 172.637 298.101 173.469 298.101C174.279 298.101 174.989 298.283 175.597 298.645C176.215 299.008 176.69 299.531 177.021 300.213C177.351 300.896 177.517 301.717 177.517 302.677V303.141H171.453C171.495 303.888 171.698 304.453 172.061 304.837C172.434 305.211 172.925 305.397 173.533 305.397C173.991 305.397 174.37 305.296 174.669 305.093C174.978 304.88 175.191 304.587 175.309 304.213L177.405 304.341C177.17 305.173 176.706 305.829 176.013 306.309C175.33 306.789 174.498 307.029 173.517 307.029ZM171.453 301.765H175.405C175.362 301.072 175.165 300.56 174.813 300.229C174.461 299.888 174.013 299.717 173.469 299.717C172.925 299.717 172.471 299.893 172.109 300.245C171.757 300.597 171.538 301.104 171.453 301.765ZM179.117 306.837V298.293H181.037L181.117 300.661L180.941 300.629C181.069 299.808 181.309 299.216 181.661 298.853C182.024 298.48 182.515 298.293 183.133 298.293H183.917V300.053H183.117C182.68 300.053 182.317 300.117 182.029 300.245C181.741 300.373 181.523 300.576 181.373 300.853C181.235 301.12 181.165 301.472 181.165 301.909V306.837H179.117Z" fill="#17171A"/>
<rect x="38" y="337.343" width="174.948" height="55.3633" rx="5" fill="#C3BDFF"/>
<path d="M113.175 370.208C112.258 370.208 111.453 370.032 110.759 369.68C110.077 369.328 109.549 368.832 109.175 368.192C108.813 367.541 108.631 366.773 108.631 365.888V358.576H110.711V365.888C110.711 366.688 110.925 367.306 111.351 367.744C111.778 368.181 112.386 368.4 113.175 368.4C113.965 368.4 114.573 368.181 114.999 367.744C115.437 367.306 115.655 366.688 115.655 365.888V358.576H117.735V365.888C117.735 366.773 117.549 367.541 117.175 368.192C116.802 368.832 116.274 369.328 115.591 369.68C114.919 370.032 114.114 370.208 113.175 370.208ZM123.371 370.144C122.528 370.144 121.819 370.021 121.243 369.776C120.677 369.53 120.24 369.189 119.931 368.752C119.621 368.314 119.445 367.818 119.403 367.264L121.499 367.168C121.573 367.616 121.76 367.962 122.059 368.208C122.357 368.453 122.8 368.576 123.387 368.576C123.867 368.576 124.24 368.501 124.507 368.352C124.784 368.192 124.923 367.946 124.923 367.616C124.923 367.424 124.875 367.264 124.779 367.136C124.683 367.008 124.501 366.896 124.235 366.8C123.968 366.704 123.573 366.608 123.051 366.512C122.176 366.362 121.488 366.181 120.987 365.968C120.485 365.744 120.128 365.466 119.915 365.136C119.712 364.805 119.611 364.394 119.611 363.904C119.611 363.104 119.915 362.458 120.523 361.968C121.141 361.466 122.043 361.216 123.227 361.216C123.995 361.216 124.64 361.344 125.163 361.6C125.685 361.845 126.091 362.186 126.379 362.624C126.677 363.05 126.864 363.541 126.939 364.096L124.875 364.192C124.821 363.904 124.725 363.653 124.587 363.44C124.448 363.226 124.261 363.066 124.027 362.96C123.792 362.842 123.515 362.784 123.195 362.784C122.715 362.784 122.352 362.88 122.107 363.072C121.861 363.264 121.739 363.52 121.739 363.84C121.739 364.064 121.792 364.25 121.899 364.4C122.016 364.549 122.203 364.672 122.459 364.768C122.715 364.853 123.056 364.933 123.483 365.008C124.379 365.146 125.083 365.328 125.595 365.552C126.117 365.765 126.485 366.042 126.699 366.384C126.923 366.714 127.035 367.114 127.035 367.584C127.035 368.128 126.88 368.592 126.571 368.976C126.272 369.36 125.845 369.653 125.291 369.856C124.747 370.048 124.107 370.144 123.371 370.144ZM132.329 370.144C131.476 370.144 130.734 369.962 130.105 369.6C129.476 369.226 128.99 368.704 128.649 368.032C128.308 367.36 128.137 366.576 128.137 365.68C128.137 364.784 128.308 364.005 128.649 363.344C128.99 362.672 129.47 362.149 130.089 361.776C130.718 361.402 131.449 361.216 132.281 361.216C133.092 361.216 133.801 361.397 134.409 361.76C135.028 362.122 135.502 362.645 135.833 363.328C136.164 364.01 136.329 364.832 136.329 365.792V366.256H130.265C130.308 367.002 130.51 367.568 130.873 367.952C131.246 368.325 131.737 368.512 132.345 368.512C132.804 368.512 133.182 368.41 133.481 368.208C133.79 367.994 134.004 367.701 134.121 367.328L136.217 367.456C135.982 368.288 135.518 368.944 134.825 369.424C134.142 369.904 133.31 370.144 132.329 370.144ZM130.265 364.88H134.217C134.174 364.186 133.977 363.674 133.625 363.344C133.273 363.002 132.825 362.832 132.281 362.832C131.737 362.832 131.284 363.008 130.921 363.36C130.569 363.712 130.35 364.218 130.265 364.88ZM137.93 369.952V361.408H139.85L139.93 363.776L139.754 363.744C139.882 362.922 140.122 362.33 140.474 361.968C140.837 361.594 141.327 361.408 141.946 361.408H142.73V363.168H141.93C141.493 363.168 141.13 363.232 140.842 363.36C140.554 363.488 140.335 363.69 140.186 363.968C140.047 364.234 139.978 364.586 139.978 365.024V369.952H137.93Z" fill="#17171A"/>
<rect x="220.703" y="211.114" width="174.948" height="55.3633" rx="5" fill="#27273F"/>
<rect x="237.312" y="228.646" width="138.408" height="8.28684" rx="4" fill="#A0A0A0" fill-opacity="0.1"/>
<rect x="237.312" y="239.942" width="138.408" height="9.04018" rx="4" fill="#A0A0A0" fill-opacity="0.1"/>
<rect x="403.406" y="211.114" width="174.948" height="55.3633" rx="5" fill="#27273F"/>
<rect x="420.016" y="228.646" width="138.408" height="8.28684" rx="4" fill="#A0A0A0" fill-opacity="0.1"/>
<rect x="420.016" y="239.942" width="138.408" height="9.04018" rx="4" fill="#A0A0A0" fill-opacity="0.1"/>
<rect x="220.703" y="274.229" width="174.948" height="55.3633" rx="5" fill="#27273F"/>
<rect x="237.312" y="291.76" width="138.408" height="8.28684" rx="4" fill="#A0A0A0" fill-opacity="0.1"/>
<rect x="237.312" y="303.056" width="138.408" height="9.04018" rx="4" fill="#A0A0A0" fill-opacity="0.1"/>
<rect x="403.406" y="274.229" width="174.948" height="55.3633" rx="5" fill="#27273F"/>
<rect x="420.016" y="291.76" width="138.408" height="8.28684" rx="4" fill="#A0A0A0" fill-opacity="0.1"/>
<rect x="420.016" y="303.056" width="138.408" height="9.04018" rx="4" fill="#A0A0A0" fill-opacity="0.1"/>
<rect x="220.703" y="337.343" width="174.948" height="55.3633" rx="5" fill="#27273F"/>
<rect x="237.312" y="354.875" width="138.408" height="8.28684" rx="4" fill="#A0A0A0" fill-opacity="0.1"/>
<rect x="237.312" y="366.17" width="138.408" height="9.04018" rx="4" fill="#A0A0A0" fill-opacity="0.1"/>
<rect x="403.406" y="337.343" width="174.948" height="55.3633" rx="5" fill="#27273F"/>
<rect x="420.016" y="354.875" width="138.408" height="8.28684" rx="4" fill="#A0A0A0" fill-opacity="0.1"/>
<rect x="420.016" y="366.17" width="138.408" height="9.04018" rx="4" fill="#A0A0A0" fill-opacity="0.1"/>
<path d="M286.898 460.821C285.842 460.821 284.93 460.635 284.162 460.263C283.394 459.891 282.788 459.375 282.344 458.715C281.912 458.043 281.66 457.263 281.588 456.375L283.964 456.231C284.036 456.783 284.192 457.251 284.432 457.635C284.684 458.019 285.014 458.313 285.422 458.517C285.842 458.709 286.346 458.805 286.934 458.805C287.438 458.805 287.864 458.745 288.212 458.625C288.572 458.493 288.842 458.307 289.022 458.067C289.214 457.815 289.31 457.509 289.31 457.149C289.31 456.825 289.232 456.537 289.076 456.285C288.92 456.021 288.62 455.787 288.176 455.583C287.732 455.367 287.072 455.157 286.196 454.953C285.14 454.713 284.294 454.443 283.658 454.143C283.022 453.831 282.56 453.447 282.272 452.991C281.984 452.523 281.84 451.941 281.84 451.245C281.84 450.501 282.026 449.847 282.398 449.283C282.77 448.707 283.298 448.263 283.982 447.951C284.666 447.627 285.488 447.465 286.448 447.465C287.468 447.465 288.332 447.651 289.04 448.023C289.748 448.383 290.306 448.881 290.714 449.517C291.122 450.153 291.374 450.885 291.47 451.713L289.112 451.821C289.052 451.353 288.908 450.945 288.68 450.597C288.464 450.249 288.164 449.979 287.78 449.787C287.408 449.583 286.952 449.481 286.412 449.481C285.74 449.481 285.206 449.637 284.81 449.949C284.426 450.249 284.234 450.651 284.234 451.155C284.234 451.503 284.312 451.791 284.468 452.019C284.636 452.247 284.93 452.445 285.35 452.613C285.77 452.769 286.358 452.937 287.114 453.117C288.254 453.357 289.16 453.663 289.832 454.035C290.504 454.407 290.984 454.839 291.272 455.331C291.56 455.823 291.704 456.387 291.704 457.023C291.704 457.803 291.506 458.481 291.11 459.057C290.714 459.621 290.156 460.059 289.436 460.371C288.716 460.671 287.87 460.821 286.898 460.821ZM297.366 460.533C296.406 460.533 295.698 460.311 295.242 459.867C294.798 459.423 294.576 458.727 294.576 457.779V448.671H296.88V457.563C296.88 458.007 296.976 458.319 297.168 458.499C297.36 458.667 297.66 458.751 298.068 458.751H299.418V460.533H297.366ZM293.064 452.703V450.921H299.418V452.703H293.064ZM301.283 460.533V450.921H303.443L303.533 453.585L303.335 453.549C303.479 452.625 303.749 451.959 304.145 451.551C304.553 451.131 305.105 450.921 305.801 450.921H306.683V452.901H305.783C305.291 452.901 304.883 452.973 304.559 453.117C304.235 453.261 303.989 453.489 303.821 453.801C303.665 454.101 303.587 454.497 303.587 454.989V460.533H301.283ZM310.788 460.749C309.78 460.749 308.97 460.521 308.358 460.065C307.746 459.597 307.44 458.949 307.44 458.121C307.44 457.293 307.698 456.645 308.214 456.177C308.73 455.709 309.516 455.373 310.572 455.169L313.758 454.539C313.758 453.855 313.602 453.345 313.29 453.009C312.978 452.661 312.516 452.487 311.904 452.487C311.352 452.487 310.914 452.619 310.59 452.883C310.278 453.135 310.062 453.501 309.942 453.981L307.602 453.873C307.794 452.853 308.262 452.073 309.006 451.533C309.75 450.981 310.716 450.705 311.904 450.705C313.272 450.705 314.304 451.053 315 451.749C315.708 452.433 316.062 453.417 316.062 454.701V458.193C316.062 458.445 316.104 458.619 316.188 458.715C316.284 458.811 316.422 458.859 316.602 458.859H316.908V460.533C316.836 460.557 316.716 460.575 316.548 460.587C316.392 460.599 316.23 460.605 316.062 460.605C315.666 460.605 315.312 460.545 315 460.425C314.688 460.293 314.448 460.071 314.28 459.759C314.112 459.435 314.028 458.997 314.028 458.445L314.226 458.589C314.13 459.009 313.92 459.387 313.596 459.723C313.284 460.047 312.888 460.299 312.408 460.479C311.928 460.659 311.388 460.749 310.788 460.749ZM311.256 459.075C311.772 459.075 312.216 458.973 312.588 458.769C312.96 458.565 313.248 458.283 313.452 457.923C313.656 457.563 313.758 457.137 313.758 456.645V456.105L311.274 456.609C310.758 456.717 310.386 456.879 310.158 457.095C309.942 457.299 309.834 457.569 309.834 457.905C309.834 458.277 309.954 458.565 310.194 458.769C310.446 458.973 310.8 459.075 311.256 459.075ZM321.764 460.533C320.804 460.533 320.096 460.311 319.64 459.867C319.196 459.423 318.974 458.727 318.974 457.779V448.671H321.278V457.563C321.278 458.007 321.374 458.319 321.566 458.499C321.758 458.667 322.058 458.751 322.466 458.751H323.816V460.533H321.764ZM317.462 452.703V450.921H323.816V452.703H317.462ZM329.506 460.749C328.546 460.749 327.712 460.545 327.004 460.137C326.296 459.717 325.75 459.129 325.366 458.373C324.982 457.617 324.79 456.735 324.79 455.727C324.79 454.719 324.982 453.843 325.366 453.099C325.75 452.343 326.29 451.755 326.986 451.335C327.694 450.915 328.516 450.705 329.452 450.705C330.364 450.705 331.162 450.909 331.846 451.317C332.542 451.725 333.076 452.313 333.448 453.081C333.82 453.849 334.006 454.773 334.006 455.853V456.375H327.184C327.232 457.215 327.46 457.851 327.868 458.283C328.288 458.703 328.84 458.913 329.524 458.913C330.04 458.913 330.466 458.799 330.802 458.571C331.15 458.331 331.39 458.001 331.522 457.581L333.88 457.725C333.616 458.661 333.094 459.399 332.314 459.939C331.546 460.479 330.61 460.749 329.506 460.749ZM327.184 454.827H331.63C331.582 454.047 331.36 453.471 330.964 453.099C330.568 452.715 330.064 452.523 329.452 452.523C328.84 452.523 328.33 452.721 327.922 453.117C327.526 453.513 327.28 454.083 327.184 454.827ZM339.91 463.449C339.07 463.449 338.35 463.335 337.75 463.107C337.15 462.879 336.664 462.555 336.292 462.135C335.932 461.727 335.68 461.253 335.536 460.713L337.912 460.551C338.032 460.911 338.236 461.193 338.524 461.397C338.824 461.601 339.286 461.703 339.91 461.703C340.618 461.703 341.164 461.541 341.548 461.217C341.932 460.905 342.124 460.413 342.124 459.741V458.517C341.896 458.985 341.53 459.363 341.026 459.651C340.522 459.927 339.958 460.065 339.334 460.065C338.542 460.065 337.834 459.873 337.21 459.489C336.598 459.093 336.118 458.547 335.77 457.851C335.422 457.143 335.248 456.327 335.248 455.403C335.248 454.479 335.416 453.669 335.752 452.973C336.1 452.265 336.58 451.713 337.192 451.317C337.804 450.909 338.506 450.705 339.298 450.705C339.994 450.705 340.594 450.861 341.098 451.173C341.602 451.485 341.968 451.899 342.196 452.415V450.921H344.446V459.687C344.446 460.503 344.254 461.193 343.87 461.757C343.498 462.321 342.97 462.741 342.286 463.017C341.614 463.305 340.822 463.449 339.91 463.449ZM339.874 458.265C340.558 458.265 341.104 458.013 341.512 457.509C341.92 456.993 342.13 456.285 342.142 455.385C342.154 454.785 342.064 454.275 341.872 453.855C341.692 453.423 341.428 453.093 341.08 452.865C340.744 452.625 340.342 452.505 339.874 452.505C339.166 452.505 338.614 452.769 338.218 453.297C337.834 453.813 337.642 454.509 337.642 455.385C337.642 456.261 337.84 456.963 338.236 457.491C338.644 458.007 339.19 458.265 339.874 458.265ZM346.793 460.533V450.921H349.097V460.533H346.793ZM346.757 449.643V447.591H349.151V449.643H346.757ZM355.627 460.749C354.667 460.749 353.833 460.545 353.125 460.137C352.417 459.717 351.865 459.129 351.469 458.373C351.085 457.617 350.893 456.735 350.893 455.727C350.893 454.719 351.085 453.843 351.469 453.099C351.865 452.343 352.417 451.755 353.125 451.335C353.833 450.915 354.667 450.705 355.627 450.705C356.443 450.705 357.169 450.849 357.805 451.137C358.441 451.425 358.957 451.839 359.353 452.379C359.761 452.907 360.013 453.555 360.109 454.323L357.733 454.449C357.637 453.837 357.397 453.375 357.013 453.063C356.641 452.739 356.179 452.577 355.627 452.577C354.883 452.577 354.307 452.859 353.899 453.423C353.491 453.975 353.287 454.743 353.287 455.727C353.287 456.723 353.491 457.497 353.899 458.049C354.307 458.601 354.883 458.877 355.627 458.877C356.191 458.877 356.659 458.715 357.031 458.391C357.415 458.067 357.649 457.563 357.733 456.879L360.109 456.987C360.013 457.755 359.767 458.421 359.371 458.985C358.975 459.549 358.459 459.987 357.823 460.299C357.187 460.599 356.455 460.749 355.627 460.749ZM371.15 460.821C370.094 460.821 369.182 460.635 368.414 460.263C367.646 459.891 367.04 459.375 366.596 458.715C366.164 458.043 365.912 457.263 365.84 456.375L368.216 456.231C368.288 456.783 368.444 457.251 368.684 457.635C368.936 458.019 369.266 458.313 369.674 458.517C370.094 458.709 370.598 458.805 371.186 458.805C371.69 458.805 372.116 458.745 372.464 458.625C372.824 458.493 373.094 458.307 373.274 458.067C373.466 457.815 373.562 457.509 373.562 457.149C373.562 456.825 373.484 456.537 373.328 456.285C373.172 456.021 372.872 455.787 372.428 455.583C371.984 455.367 371.324 455.157 370.448 454.953C369.392 454.713 368.546 454.443 367.91 454.143C367.274 453.831 366.812 453.447 366.524 452.991C366.236 452.523 366.092 451.941 366.092 451.245C366.092 450.501 366.278 449.847 366.65 449.283C367.022 448.707 367.55 448.263 368.234 447.951C368.918 447.627 369.74 447.465 370.7 447.465C371.72 447.465 372.584 447.651 373.292 448.023C374 448.383 374.558 448.881 374.966 449.517C375.374 450.153 375.626 450.885 375.722 451.713L373.364 451.821C373.304 451.353 373.16 450.945 372.932 450.597C372.716 450.249 372.416 449.979 372.032 449.787C371.66 449.583 371.204 449.481 370.664 449.481C369.992 449.481 369.458 449.637 369.062 449.949C368.678 450.249 368.486 450.651 368.486 451.155C368.486 451.503 368.564 451.791 368.72 452.019C368.888 452.247 369.182 452.445 369.602 452.613C370.022 452.769 370.61 452.937 371.366 453.117C372.506 453.357 373.412 453.663 374.084 454.035C374.756 454.407 375.236 454.839 375.524 455.331C375.812 455.823 375.956 456.387 375.956 457.023C375.956 457.803 375.758 458.481 375.362 459.057C374.966 459.621 374.408 460.059 373.688 460.371C372.968 460.671 372.122 460.821 371.15 460.821ZM382.486 460.749C381.526 460.749 380.692 460.545 379.984 460.137C379.276 459.717 378.73 459.129 378.346 458.373C377.962 457.617 377.77 456.735 377.77 455.727C377.77 454.719 377.962 453.843 378.346 453.099C378.73 452.343 379.27 451.755 379.966 451.335C380.674 450.915 381.496 450.705 382.432 450.705C383.344 450.705 384.142 450.909 384.826 451.317C385.522 451.725 386.056 452.313 386.428 453.081C386.8 453.849 386.986 454.773 386.986 455.853V456.375H380.164C380.212 457.215 380.44 457.851 380.848 458.283C381.268 458.703 381.82 458.913 382.504 458.913C383.02 458.913 383.446 458.799 383.782 458.571C384.13 458.331 384.37 458.001 384.502 457.581L386.86 457.725C386.596 458.661 386.074 459.399 385.294 459.939C384.526 460.479 383.59 460.749 382.486 460.749ZM380.164 454.827H384.61C384.562 454.047 384.34 453.471 383.944 453.099C383.548 452.715 383.044 452.523 382.432 452.523C381.82 452.523 381.31 452.721 380.902 453.117C380.506 453.513 380.26 454.083 380.164 454.827ZM392.891 463.449C392.051 463.449 391.331 463.335 390.731 463.107C390.131 462.879 389.645 462.555 389.273 462.135C388.913 461.727 388.661 461.253 388.517 460.713L390.893 460.551C391.013 460.911 391.217 461.193 391.505 461.397C391.805 461.601 392.267 461.703 392.891 461.703C393.599 461.703 394.145 461.541 394.529 461.217C394.913 460.905 395.105 460.413 395.105 459.741V458.517C394.877 458.985 394.511 459.363 394.007 459.651C393.503 459.927 392.939 460.065 392.315 460.065C391.523 460.065 390.815 459.873 390.191 459.489C389.579 459.093 389.099 458.547 388.751 457.851C388.403 457.143 388.229 456.327 388.229 455.403C388.229 454.479 388.397 453.669 388.733 452.973C389.081 452.265 389.561 451.713 390.173 451.317C390.785 450.909 391.487 450.705 392.279 450.705C392.975 450.705 393.575 450.861 394.079 451.173C394.583 451.485 394.949 451.899 395.177 452.415V450.921H397.427V459.687C397.427 460.503 397.235 461.193 396.851 461.757C396.479 462.321 395.951 462.741 395.267 463.017C394.595 463.305 393.803 463.449 392.891 463.449ZM392.855 458.265C393.539 458.265 394.085 458.013 394.493 457.509C394.901 456.993 395.111 456.285 395.123 455.385C395.135 454.785 395.045 454.275 394.853 453.855C394.673 453.423 394.409 453.093 394.061 452.865C393.725 452.625 393.323 452.505 392.855 452.505C392.147 452.505 391.595 452.769 391.199 453.297C390.815 453.813 390.623 454.509 390.623 455.385C390.623 456.261 390.821 456.963 391.217 457.491C391.625 458.007 392.171 458.265 392.855 458.265ZM399.949 460.533V450.921H402.037L402.109 453.279L401.893 453.171C402.001 452.655 402.187 452.217 402.451 451.857C402.727 451.485 403.057 451.203 403.441 451.011C403.837 450.807 404.269 450.705 404.737 450.705C405.553 450.705 406.213 450.939 406.717 451.407C407.221 451.863 407.539 452.493 407.671 453.297H407.365C407.473 452.733 407.659 452.265 407.923 451.893C408.187 451.509 408.517 451.215 408.913 451.011C409.321 450.807 409.777 450.705 410.281 450.705C410.941 450.705 411.511 450.849 411.991 451.137C412.471 451.413 412.837 451.821 413.089 452.361C413.353 452.901 413.485 453.567 413.485 454.359V460.533H411.181V454.953C411.181 454.161 411.043 453.567 410.767 453.171C410.503 452.775 410.095 452.577 409.543 452.577C409.171 452.577 408.853 452.673 408.589 452.865C408.325 453.057 408.121 453.339 407.977 453.711C407.845 454.071 407.779 454.509 407.779 455.025V460.533H405.637V455.025C405.637 454.233 405.517 453.627 405.277 453.207C405.037 452.787 404.623 452.577 404.035 452.577C403.663 452.577 403.345 452.673 403.081 452.865C402.829 453.057 402.625 453.339 402.469 453.711C402.325 454.071 402.253 454.509 402.253 455.025V460.533H399.949ZM419.927 460.749C418.967 460.749 418.133 460.545 417.425 460.137C416.717 459.717 416.171 459.129 415.787 458.373C415.403 457.617 415.211 456.735 415.211 455.727C415.211 454.719 415.403 453.843 415.787 453.099C416.171 452.343 416.711 451.755 417.407 451.335C418.115 450.915 418.937 450.705 419.873 450.705C420.785 450.705 421.583 450.909 422.267 451.317C422.963 451.725 423.497 452.313 423.869 453.081C424.241 453.849 424.427 454.773 424.427 455.853V456.375H417.605C417.653 457.215 417.881 457.851 418.289 458.283C418.709 458.703 419.261 458.913 419.945 458.913C420.461 458.913 420.887 458.799 421.223 458.571C421.571 458.331 421.811 458.001 421.943 457.581L424.301 457.725C424.037 458.661 423.515 459.399 422.735 459.939C421.967 460.479 421.031 460.749 419.927 460.749ZM417.605 454.827H422.051C422.003 454.047 421.781 453.471 421.385 453.099C420.989 452.715 420.485 452.523 419.873 452.523C419.261 452.523 418.751 452.721 418.343 453.117C417.947 453.513 417.701 454.083 417.605 454.827ZM426.228 460.533V450.921H428.316L428.406 453.621L428.136 453.513C428.232 452.841 428.43 452.301 428.73 451.893C429.03 451.485 429.396 451.185 429.828 450.993C430.26 450.801 430.734 450.705 431.25 450.705C431.958 450.705 432.552 450.861 433.032 451.173C433.524 451.485 433.896 451.917 434.148 452.469C434.4 453.009 434.526 453.639 434.526 454.359V460.533H432.222V455.097C432.222 454.557 432.168 454.101 432.06 453.729C431.952 453.357 431.772 453.075 431.52 452.883C431.28 452.679 430.956 452.577 430.548 452.577C429.936 452.577 429.444 452.793 429.072 453.225C428.712 453.657 428.532 454.281 428.532 455.097V460.533H426.228ZM440.223 460.533C439.263 460.533 438.555 460.311 438.099 459.867C437.655 459.423 437.433 458.727 437.433 457.779V448.671H439.737V457.563C439.737 458.007 439.833 458.319 440.025 458.499C440.217 458.667 440.517 458.751 440.925 458.751H442.275V460.533H440.223ZM435.921 452.703V450.921H442.275V452.703H435.921ZM446.702 460.749C445.694 460.749 444.884 460.521 444.272 460.065C443.66 459.597 443.354 458.949 443.354 458.121C443.354 457.293 443.612 456.645 444.128 456.177C444.644 455.709 445.43 455.373 446.486 455.169L449.672 454.539C449.672 453.855 449.516 453.345 449.204 453.009C448.892 452.661 448.43 452.487 447.818 452.487C447.266 452.487 446.828 452.619 446.504 452.883C446.192 453.135 445.976 453.501 445.856 453.981L443.516 453.873C443.708 452.853 444.176 452.073 444.92 451.533C445.664 450.981 446.63 450.705 447.818 450.705C449.186 450.705 450.218 451.053 450.914 451.749C451.622 452.433 451.976 453.417 451.976 454.701V458.193C451.976 458.445 452.018 458.619 452.102 458.715C452.198 458.811 452.336 458.859 452.516 458.859H452.822V460.533C452.75 460.557 452.63 460.575 452.462 460.587C452.306 460.599 452.144 460.605 451.976 460.605C451.58 460.605 451.226 460.545 450.914 460.425C450.602 460.293 450.362 460.071 450.194 459.759C450.026 459.435 449.942 458.997 449.942 458.445L450.14 458.589C450.044 459.009 449.834 459.387 449.51 459.723C449.198 460.047 448.802 460.299 448.322 460.479C447.842 460.659 447.302 460.749 446.702 460.749ZM447.17 459.075C447.686 459.075 448.13 458.973 448.502 458.769C448.874 458.565 449.162 458.283 449.366 457.923C449.57 457.563 449.672 457.137 449.672 456.645V456.105L447.188 456.609C446.672 456.717 446.3 456.879 446.072 457.095C445.856 457.299 445.748 457.569 445.748 457.905C445.748 458.277 445.868 458.565 446.108 458.769C446.36 458.973 446.714 459.075 447.17 459.075ZM457.678 460.533C456.718 460.533 456.01 460.311 455.554 459.867C455.11 459.423 454.888 458.727 454.888 457.779V448.671H457.192V457.563C457.192 458.007 457.288 458.319 457.48 458.499C457.672 458.667 457.972 458.751 458.38 458.751H459.73V460.533H457.678ZM453.376 452.703V450.921H459.73V452.703H453.376ZM461.42 460.533V450.921H463.724V460.533H461.42ZM461.384 449.643V447.591H463.778V449.643H461.384ZM470.254 460.749C469.306 460.749 468.472 460.545 467.752 460.137C467.044 459.717 466.492 459.129 466.096 458.373C465.712 457.617 465.52 456.735 465.52 455.727C465.52 454.707 465.712 453.825 466.096 453.081C466.492 452.325 467.044 451.743 467.752 451.335C468.472 450.915 469.306 450.705 470.254 450.705C471.202 450.705 472.03 450.915 472.738 451.335C473.446 451.743 473.992 452.325 474.376 453.081C474.772 453.825 474.97 454.707 474.97 455.727C474.97 456.735 474.772 457.617 474.376 458.373C473.992 459.129 473.446 459.717 472.738 460.137C472.03 460.545 471.202 460.749 470.254 460.749ZM470.254 458.877C470.998 458.877 471.568 458.601 471.964 458.049C472.372 457.497 472.576 456.723 472.576 455.727C472.576 454.743 472.372 453.975 471.964 453.423C471.568 452.859 470.998 452.577 470.254 452.577C469.51 452.577 468.934 452.859 468.526 453.423C468.118 453.975 467.914 454.743 467.914 455.727C467.914 456.723 468.118 457.497 468.526 458.049C468.934 458.601 469.51 458.877 470.254 458.877ZM476.748 460.533V450.921H478.836L478.926 453.621L478.656 453.513C478.752 452.841 478.95 452.301 479.25 451.893C479.55 451.485 479.916 451.185 480.348 450.993C480.78 450.801 481.254 450.705 481.77 450.705C482.478 450.705 483.072 450.861 483.552 451.173C484.044 451.485 484.416 451.917 484.668 452.469C484.92 453.009 485.046 453.639 485.046 454.359V460.533H482.742V455.097C482.742 454.557 482.688 454.101 482.58 453.729C482.472 453.357 482.292 453.075 482.04 452.883C481.8 452.679 481.476 452.577 481.068 452.577C480.456 452.577 479.964 452.793 479.592 453.225C479.232 453.657 479.052 454.281 479.052 455.097V460.533H476.748Z" fill="#FFFFEE"/>
<path d="M117.723 455.82V456.32H117.223V455.82H117.723ZM260.914 455.467C261.109 455.662 261.109 455.979 260.914 456.174L257.732 459.356C257.536 459.551 257.22 459.551 257.024 459.356C256.829 459.161 256.829 458.844 257.024 458.649L259.853 455.82L257.024 452.992C256.829 452.797 256.829 452.48 257.024 452.285C257.22 452.09 257.536 452.09 257.732 452.285L260.914 455.467ZM117.723 404.886H118.223V455.82H117.723H117.223V404.886H117.723ZM117.723 455.82V455.32H260.56V455.82V456.32H117.723V455.82Z" fill="#FFFFEE"/>
</g>
<defs>
<clipPath id="clip0_4488_2888">
<rect width="616" height="616" fill="white"/>
</clipPath>
</defs>
</svg>
