<svg width="616" height="616" viewBox="0 0 616 616" fill="none" xmlns="http://www.w3.org/2000/svg">
<g clip-path="url(#clip0_4752_7160)">
<rect x="38" y="148" width="174.948" height="55.3633" rx="5" fill="#C3BDFF"/>
<path d="M91.7061 180.865C90.7674 180.865 89.9568 180.7 89.2741 180.369C88.5914 180.038 88.0528 179.58 87.6581 178.993C87.2741 178.396 87.0501 177.702 86.9861 176.913L89.0981 176.785C89.1621 177.276 89.3008 177.692 89.5141 178.033C89.7381 178.374 90.0314 178.636 90.3941 178.817C90.7674 178.988 91.2154 179.073 91.7381 179.073C92.1861 179.073 92.5648 179.02 92.8741 178.913C93.1941 178.796 93.4341 178.63 93.5941 178.417C93.7648 178.193 93.8501 177.921 93.8501 177.601C93.8501 177.313 93.7808 177.057 93.6421 176.833C93.5034 176.598 93.2368 176.39 92.8421 176.209C92.4474 176.017 91.8608 175.83 91.0821 175.649C90.1434 175.436 89.3914 175.196 88.8261 174.929C88.2608 174.652 87.8501 174.31 87.5941 173.905C87.3381 173.489 87.2101 172.972 87.2101 172.353C87.2101 171.692 87.3754 171.11 87.7061 170.609C88.0368 170.097 88.5061 169.702 89.1141 169.425C89.7221 169.137 90.4528 168.993 91.3061 168.993C92.2128 168.993 92.9808 169.158 93.6101 169.489C94.2394 169.809 94.7354 170.252 95.0981 170.817C95.4608 171.382 95.6848 172.033 95.7701 172.769L93.6741 172.865C93.6208 172.449 93.4928 172.086 93.2901 171.777C93.0981 171.468 92.8314 171.228 92.4901 171.057C92.1594 170.876 91.7541 170.785 91.2741 170.785C90.6768 170.785 90.2021 170.924 89.8501 171.201C89.5088 171.468 89.3381 171.825 89.3381 172.273C89.3381 172.582 89.4074 172.838 89.5461 173.041C89.6954 173.244 89.9568 173.42 90.3301 173.569C90.7034 173.708 91.2261 173.857 91.8981 174.017C92.9114 174.23 93.7168 174.502 94.3141 174.833C94.9114 175.164 95.3381 175.548 95.5941 175.985C95.8501 176.422 95.9781 176.924 95.9781 177.489C95.9781 178.182 95.8021 178.785 95.4501 179.297C95.0981 179.798 94.6021 180.188 93.9621 180.465C93.3221 180.732 92.5701 180.865 91.7061 180.865ZM101.782 180.801C100.929 180.801 100.188 180.62 99.5582 180.257C98.9289 179.884 98.4436 179.361 98.1022 178.689C97.7609 178.017 97.5902 177.233 97.5902 176.337C97.5902 175.441 97.7609 174.662 98.1022 174.001C98.4436 173.329 98.9236 172.806 99.5422 172.433C100.172 172.06 100.902 171.873 101.734 171.873C102.545 171.873 103.254 172.054 103.862 172.417C104.481 172.78 104.956 173.302 105.286 173.985C105.617 174.668 105.782 175.489 105.782 176.449V176.913H99.7182C99.7609 177.66 99.9636 178.225 100.326 178.609C100.7 178.982 101.19 179.169 101.798 179.169C102.257 179.169 102.636 179.068 102.934 178.865C103.244 178.652 103.457 178.358 103.574 177.985L105.67 178.113C105.436 178.945 104.972 179.601 104.278 180.081C103.596 180.561 102.764 180.801 101.782 180.801ZM99.7182 175.537H103.67C103.628 174.844 103.43 174.332 103.078 174.001C102.726 173.66 102.278 173.489 101.734 173.489C101.19 173.489 100.737 173.665 100.374 174.017C100.022 174.369 99.8036 174.876 99.7182 175.537ZM111.031 183.201C110.284 183.201 109.644 183.1 109.111 182.897C108.578 182.694 108.146 182.406 107.815 182.033C107.495 181.67 107.271 181.249 107.143 180.769L109.255 180.625C109.362 180.945 109.543 181.196 109.799 181.377C110.066 181.558 110.476 181.649 111.031 181.649C111.66 181.649 112.146 181.505 112.487 181.217C112.828 180.94 112.999 180.502 112.999 179.905V178.817C112.796 179.233 112.471 179.569 112.023 179.825C111.575 180.07 111.074 180.193 110.519 180.193C109.815 180.193 109.186 180.022 108.631 179.681C108.087 179.329 107.66 178.844 107.351 178.225C107.042 177.596 106.887 176.87 106.887 176.049C106.887 175.228 107.036 174.508 107.335 173.889C107.644 173.26 108.071 172.769 108.615 172.417C109.159 172.054 109.783 171.873 110.487 171.873C111.106 171.873 111.639 172.012 112.087 172.289C112.535 172.566 112.86 172.934 113.063 173.393V172.065H115.063V179.857C115.063 180.582 114.892 181.196 114.551 181.697C114.22 182.198 113.751 182.572 113.143 182.817C112.546 183.073 111.842 183.201 111.031 183.201ZM110.999 178.593C111.607 178.593 112.092 178.369 112.455 177.921C112.818 177.462 113.004 176.833 113.015 176.033C113.026 175.5 112.946 175.046 112.775 174.673C112.615 174.289 112.38 173.996 112.071 173.793C111.772 173.58 111.415 173.473 110.999 173.473C110.37 173.473 109.879 173.708 109.527 174.177C109.186 174.636 109.015 175.254 109.015 176.033C109.015 176.812 109.191 177.436 109.543 177.905C109.906 178.364 110.391 178.593 110.999 178.593ZM117.305 180.609V172.065H119.161L119.225 174.161L119.033 174.065C119.129 173.606 119.294 173.217 119.529 172.897C119.774 172.566 120.068 172.316 120.409 172.145C120.761 171.964 121.145 171.873 121.561 171.873C122.286 171.873 122.873 172.081 123.321 172.497C123.769 172.902 124.052 173.462 124.169 174.177H123.897C123.993 173.676 124.158 173.26 124.393 172.929C124.628 172.588 124.921 172.326 125.273 172.145C125.636 171.964 126.041 171.873 126.489 171.873C127.076 171.873 127.582 172.001 128.009 172.257C128.436 172.502 128.761 172.865 128.985 173.345C129.22 173.825 129.337 174.417 129.337 175.121V180.609H127.289V175.649C127.289 174.945 127.166 174.417 126.921 174.065C126.686 173.713 126.324 173.537 125.833 173.537C125.502 173.537 125.22 173.622 124.985 173.793C124.75 173.964 124.569 174.214 124.441 174.545C124.324 174.865 124.265 175.254 124.265 175.713V180.609H122.361V175.713C122.361 175.009 122.254 174.47 122.041 174.097C121.828 173.724 121.46 173.537 120.937 173.537C120.606 173.537 120.324 173.622 120.089 173.793C119.865 173.964 119.684 174.214 119.545 174.545C119.417 174.865 119.353 175.254 119.353 175.713V180.609H117.305ZM135.063 180.801C134.21 180.801 133.469 180.62 132.839 180.257C132.21 179.884 131.725 179.361 131.383 178.689C131.042 178.017 130.871 177.233 130.871 176.337C130.871 175.441 131.042 174.662 131.383 174.001C131.725 173.329 132.205 172.806 132.823 172.433C133.453 172.06 134.183 171.873 135.015 171.873C135.826 171.873 136.535 172.054 137.143 172.417C137.762 172.78 138.237 173.302 138.567 173.985C138.898 174.668 139.063 175.489 139.063 176.449V176.913H132.999C133.042 177.66 133.245 178.225 133.607 178.609C133.981 178.982 134.471 179.169 135.079 179.169C135.538 179.169 135.917 179.068 136.215 178.865C136.525 178.652 136.738 178.358 136.855 177.985L138.951 178.113C138.717 178.945 138.253 179.601 137.559 180.081C136.877 180.561 136.045 180.801 135.063 180.801ZM132.999 175.537H136.951C136.909 174.844 136.711 174.332 136.359 174.001C136.007 173.66 135.559 173.489 135.015 173.489C134.471 173.489 134.018 173.665 133.655 174.017C133.303 174.369 133.085 174.876 132.999 175.537ZM140.664 180.609V172.065H142.52L142.6 174.465L142.36 174.369C142.446 173.772 142.622 173.292 142.888 172.929C143.155 172.566 143.48 172.3 143.864 172.129C144.248 171.958 144.67 171.873 145.128 171.873C145.758 171.873 146.286 172.012 146.712 172.289C147.15 172.566 147.48 172.95 147.704 173.441C147.928 173.921 148.04 174.481 148.04 175.121V180.609H145.992V175.777C145.992 175.297 145.944 174.892 145.848 174.561C145.752 174.23 145.592 173.98 145.368 173.809C145.155 173.628 144.867 173.537 144.504 173.537C143.96 173.537 143.523 173.729 143.192 174.113C142.872 174.497 142.712 175.052 142.712 175.777V180.609H140.664ZM153.104 180.609C152.251 180.609 151.621 180.412 151.216 180.017C150.821 179.622 150.624 179.004 150.624 178.161V170.065H152.672V177.969C152.672 178.364 152.757 178.641 152.928 178.801C153.099 178.95 153.365 179.025 153.728 179.025H154.928V180.609H153.104ZM149.28 173.649V172.065H154.928V173.649H149.28ZM160.001 180.801C159.159 180.801 158.417 180.62 157.777 180.257C157.148 179.884 156.657 179.361 156.305 178.689C155.964 178.017 155.793 177.233 155.793 176.337C155.793 175.43 155.964 174.646 156.305 173.985C156.657 173.313 157.148 172.796 157.777 172.433C158.417 172.06 159.159 171.873 160.001 171.873C160.844 171.873 161.58 172.06 162.209 172.433C162.839 172.796 163.324 173.313 163.665 173.985C164.017 174.646 164.193 175.43 164.193 176.337C164.193 177.233 164.017 178.017 163.665 178.689C163.324 179.361 162.839 179.884 162.209 180.257C161.58 180.62 160.844 180.801 160.001 180.801ZM160.001 179.137C160.663 179.137 161.169 178.892 161.521 178.401C161.884 177.91 162.065 177.222 162.065 176.337C162.065 175.462 161.884 174.78 161.521 174.289C161.169 173.788 160.663 173.537 160.001 173.537C159.34 173.537 158.828 173.788 158.465 174.289C158.103 174.78 157.921 175.462 157.921 176.337C157.921 177.222 158.103 177.91 158.465 178.401C158.828 178.892 159.34 179.137 160.001 179.137Z" fill="#17171A"/>
<rect x="220.699" y="148" width="174.948" height="55.3633" rx="5" fill="#C3BDFF"/>
<path d="M280.555 180.609V171.057H277.099V169.249H286.075V171.057H282.635V180.609H280.555ZM286.653 180.609V172.065H288.573L288.653 174.433L288.477 174.401C288.605 173.58 288.845 172.988 289.197 172.625C289.559 172.252 290.05 172.065 290.669 172.065H291.453V173.825H290.653C290.215 173.825 289.853 173.889 289.565 174.017C289.277 174.145 289.058 174.348 288.909 174.625C288.77 174.892 288.701 175.244 288.701 175.681V180.609H286.653ZM292.778 180.609V172.065H294.826V180.609H292.778ZM292.746 170.929V169.105H294.874V170.929H292.746ZM300.566 183.201C299.82 183.201 299.18 183.1 298.646 182.897C298.113 182.694 297.681 182.406 297.35 182.033C297.03 181.67 296.806 181.249 296.678 180.769L298.79 180.625C298.897 180.945 299.078 181.196 299.334 181.377C299.601 181.558 300.012 181.649 300.566 181.649C301.196 181.649 301.681 181.505 302.022 181.217C302.364 180.94 302.534 180.502 302.534 179.905V178.817C302.332 179.233 302.006 179.569 301.558 179.825C301.11 180.07 300.609 180.193 300.054 180.193C299.35 180.193 298.721 180.022 298.166 179.681C297.622 179.329 297.196 178.844 296.886 178.225C296.577 177.596 296.422 176.87 296.422 176.049C296.422 175.228 296.572 174.508 296.87 173.889C297.18 173.26 297.606 172.769 298.15 172.417C298.694 172.054 299.318 171.873 300.022 171.873C300.641 171.873 301.174 172.012 301.622 172.289C302.07 172.566 302.396 172.934 302.598 173.393V172.065H304.598V179.857C304.598 180.582 304.428 181.196 304.086 181.697C303.756 182.198 303.286 182.572 302.678 182.817C302.081 183.073 301.377 183.201 300.566 183.201ZM300.534 178.593C301.142 178.593 301.628 178.369 301.99 177.921C302.353 177.462 302.54 176.833 302.55 176.033C302.561 175.5 302.481 175.046 302.31 174.673C302.15 174.289 301.916 173.996 301.606 173.793C301.308 173.58 300.95 173.473 300.534 173.473C299.905 173.473 299.414 173.708 299.062 174.177C298.721 174.636 298.55 175.254 298.55 176.033C298.55 176.812 298.726 177.436 299.078 177.905C299.441 178.364 299.926 178.593 300.534 178.593ZM310.332 183.201C309.585 183.201 308.945 183.1 308.412 182.897C307.879 182.694 307.447 182.406 307.116 182.033C306.796 181.67 306.572 181.249 306.444 180.769L308.556 180.625C308.663 180.945 308.844 181.196 309.1 181.377C309.367 181.558 309.777 181.649 310.332 181.649C310.961 181.649 311.447 181.505 311.788 181.217C312.129 180.94 312.3 180.502 312.3 179.905V178.817C312.097 179.233 311.772 179.569 311.324 179.825C310.876 180.07 310.375 180.193 309.82 180.193C309.116 180.193 308.487 180.022 307.932 179.681C307.388 179.329 306.961 178.844 306.652 178.225C306.343 177.596 306.188 176.87 306.188 176.049C306.188 175.228 306.337 174.508 306.636 173.889C306.945 173.26 307.372 172.769 307.916 172.417C308.46 172.054 309.084 171.873 309.788 171.873C310.407 171.873 310.94 172.012 311.388 172.289C311.836 172.566 312.161 172.934 312.364 173.393V172.065H314.364V179.857C314.364 180.582 314.193 181.196 313.852 181.697C313.521 182.198 313.052 182.572 312.444 182.817C311.847 183.073 311.143 183.201 310.332 183.201ZM310.3 178.593C310.908 178.593 311.393 178.369 311.756 177.921C312.119 177.462 312.305 176.833 312.316 176.033C312.327 175.5 312.247 175.046 312.076 174.673C311.916 174.289 311.681 173.996 311.372 173.793C311.073 173.58 310.716 173.473 310.3 173.473C309.671 173.473 309.18 173.708 308.828 174.177C308.487 174.636 308.316 175.254 308.316 176.033C308.316 176.812 308.492 177.436 308.844 177.905C309.207 178.364 309.692 178.593 310.3 178.593ZM320.146 180.801C319.292 180.801 318.551 180.62 317.922 180.257C317.292 179.884 316.807 179.361 316.466 178.689C316.124 178.017 315.954 177.233 315.954 176.337C315.954 175.441 316.124 174.662 316.466 174.001C316.807 173.329 317.287 172.806 317.906 172.433C318.535 172.06 319.266 171.873 320.098 171.873C320.908 171.873 321.618 172.054 322.226 172.417C322.844 172.78 323.319 173.302 323.65 173.985C323.98 174.668 324.146 175.489 324.146 176.449V176.913H318.082C318.124 177.66 318.327 178.225 318.69 178.609C319.063 178.982 319.554 179.169 320.162 179.169C320.62 179.169 320.999 179.068 321.298 178.865C321.607 178.652 321.82 178.358 321.938 177.985L324.034 178.113C323.799 178.945 323.335 179.601 322.642 180.081C321.959 180.561 321.127 180.801 320.146 180.801ZM318.082 175.537H322.034C321.991 174.844 321.794 174.332 321.442 174.001C321.09 173.66 320.642 173.489 320.098 173.489C319.554 173.489 319.1 173.665 318.738 174.017C318.386 174.369 318.167 174.876 318.082 175.537ZM325.746 180.609V172.065H327.666L327.746 174.433L327.57 174.401C327.698 173.58 327.938 172.988 328.29 172.625C328.653 172.252 329.144 172.065 329.762 172.065H330.546V173.825H329.746C329.309 173.825 328.946 173.889 328.658 174.017C328.37 174.145 328.152 174.348 328.002 174.625C327.864 174.892 327.794 175.244 327.794 175.681V180.609H325.746ZM335.125 180.801C334.282 180.801 333.573 180.678 332.997 180.433C332.431 180.188 331.994 179.846 331.685 179.409C331.375 178.972 331.199 178.476 331.157 177.921L333.253 177.825C333.327 178.273 333.514 178.62 333.813 178.865C334.111 179.11 334.554 179.233 335.141 179.233C335.621 179.233 335.994 179.158 336.261 179.009C336.538 178.849 336.677 178.604 336.677 178.273C336.677 178.081 336.629 177.921 336.533 177.793C336.437 177.665 336.255 177.553 335.989 177.457C335.722 177.361 335.327 177.265 334.805 177.169C333.93 177.02 333.242 176.838 332.741 176.625C332.239 176.401 331.882 176.124 331.669 175.793C331.466 175.462 331.365 175.052 331.365 174.561C331.365 173.761 331.669 173.116 332.277 172.625C332.895 172.124 333.797 171.873 334.981 171.873C335.749 171.873 336.394 172.001 336.917 172.257C337.439 172.502 337.845 172.844 338.133 173.281C338.431 173.708 338.618 174.198 338.693 174.753L336.629 174.849C336.575 174.561 336.479 174.31 336.341 174.097C336.202 173.884 336.015 173.724 335.781 173.617C335.546 173.5 335.269 173.441 334.949 173.441C334.469 173.441 334.106 173.537 333.861 173.729C333.615 173.921 333.493 174.177 333.493 174.497C333.493 174.721 333.546 174.908 333.653 175.057C333.77 175.206 333.957 175.329 334.213 175.425C334.469 175.51 334.81 175.59 335.237 175.665C336.133 175.804 336.837 175.985 337.349 176.209C337.871 176.422 338.239 176.7 338.453 177.041C338.677 177.372 338.789 177.772 338.789 178.241C338.789 178.785 338.634 179.249 338.325 179.633C338.026 180.017 337.599 180.31 337.045 180.513C336.501 180.705 335.861 180.801 335.125 180.801Z" fill="#17171A"/>
<rect x="403.402" y="148" width="174.948" height="55.3633" rx="5" fill="#C3BDFF"/>
<path d="M455.633 180.609V169.249H460.033C461.366 169.249 462.406 169.569 463.153 170.209C463.9 170.849 464.273 171.734 464.273 172.865C464.273 173.622 464.102 174.278 463.761 174.833C463.42 175.377 462.934 175.793 462.305 176.081C461.676 176.369 460.918 176.513 460.033 176.513H457.713V180.609H455.633ZM457.713 174.705H459.937C460.641 174.705 461.18 174.55 461.553 174.241C461.937 173.932 462.129 173.473 462.129 172.865C462.129 172.268 461.937 171.82 461.553 171.521C461.18 171.212 460.641 171.057 459.937 171.057H457.713V174.705ZM465.989 180.609V172.065H467.909L467.989 174.433L467.813 174.401C467.941 173.58 468.181 172.988 468.533 172.625C468.895 172.252 469.386 172.065 470.005 172.065H470.789V173.825H469.989C469.551 173.825 469.189 173.889 468.901 174.017C468.613 174.145 468.394 174.348 468.245 174.625C468.106 174.892 468.037 175.244 468.037 175.681V180.609H465.989ZM475.607 180.801C474.764 180.801 474.023 180.62 473.383 180.257C472.753 179.884 472.263 179.361 471.911 178.689C471.569 178.017 471.399 177.233 471.399 176.337C471.399 175.43 471.569 174.646 471.911 173.985C472.263 173.313 472.753 172.796 473.383 172.433C474.023 172.06 474.764 171.873 475.607 171.873C476.449 171.873 477.185 172.06 477.815 172.433C478.444 172.796 478.929 173.313 479.271 173.985C479.623 174.646 479.799 175.43 479.799 176.337C479.799 177.233 479.623 178.017 479.271 178.689C478.929 179.361 478.444 179.884 477.815 180.257C477.185 180.62 476.449 180.801 475.607 180.801ZM475.607 179.137C476.268 179.137 476.775 178.892 477.127 178.401C477.489 177.91 477.671 177.222 477.671 176.337C477.671 175.462 477.489 174.78 477.127 174.289C476.775 173.788 476.268 173.537 475.607 173.537C474.945 173.537 474.433 173.788 474.071 174.289C473.708 174.78 473.527 175.462 473.527 176.337C473.527 177.222 473.708 177.91 474.071 178.401C474.433 178.892 474.945 179.137 475.607 179.137ZM485.971 180.801C485.374 180.801 484.851 180.673 484.403 180.417C483.966 180.161 483.625 179.804 483.379 179.345L483.331 180.609H481.379V169.249H483.427V173.281C483.662 172.886 483.998 172.556 484.435 172.289C484.873 172.012 485.385 171.873 485.971 171.873C486.707 171.873 487.342 172.06 487.875 172.433C488.419 172.796 488.835 173.313 489.123 173.985C489.422 174.646 489.571 175.43 489.571 176.337C489.571 177.244 489.422 178.033 489.123 178.705C488.835 179.366 488.419 179.884 487.875 180.257C487.342 180.62 486.707 180.801 485.971 180.801ZM485.507 179.137C486.094 179.137 486.563 178.892 486.915 178.401C487.267 177.9 487.443 177.212 487.443 176.337C487.443 175.452 487.267 174.764 486.915 174.273C486.574 173.782 486.11 173.537 485.523 173.537C485.086 173.537 484.707 173.649 484.387 173.873C484.078 174.086 483.838 174.401 483.667 174.817C483.507 175.233 483.427 175.74 483.427 176.337C483.427 176.913 483.507 177.414 483.667 177.841C483.838 178.257 484.078 178.577 484.387 178.801C484.697 179.025 485.07 179.137 485.507 179.137ZM493.287 180.609C492.668 180.609 492.172 180.449 491.799 180.129C491.425 179.809 491.239 179.297 491.239 178.593V169.249H493.287V178.385C493.287 178.598 493.34 178.758 493.447 178.865C493.564 178.972 493.724 179.025 493.927 179.025H494.551V180.609H493.287ZM499.56 180.801C498.706 180.801 497.965 180.62 497.336 180.257C496.706 179.884 496.221 179.361 495.88 178.689C495.538 178.017 495.368 177.233 495.368 176.337C495.368 175.441 495.538 174.662 495.88 174.001C496.221 173.329 496.701 172.806 497.32 172.433C497.949 172.06 498.68 171.873 499.512 171.873C500.322 171.873 501.032 172.054 501.64 172.417C502.258 172.78 502.733 173.302 503.064 173.985C503.394 174.668 503.56 175.489 503.56 176.449V176.913H497.496C497.538 177.66 497.741 178.225 498.104 178.609C498.477 178.982 498.968 179.169 499.576 179.169C500.034 179.169 500.413 179.068 500.712 178.865C501.021 178.652 501.234 178.358 501.352 177.985L503.448 178.113C503.213 178.945 502.749 179.601 502.056 180.081C501.373 180.561 500.541 180.801 499.56 180.801ZM497.496 175.537H501.448C501.405 174.844 501.208 174.332 500.856 174.001C500.504 173.66 500.056 173.489 499.512 173.489C498.968 173.489 498.514 173.665 498.152 174.017C497.8 174.369 497.581 174.876 497.496 175.537ZM505.16 180.609V172.065H507.016L507.08 174.161L506.888 174.065C506.984 173.606 507.15 173.217 507.384 172.897C507.63 172.566 507.923 172.316 508.264 172.145C508.616 171.964 509 171.873 509.416 171.873C510.142 171.873 510.728 172.081 511.176 172.497C511.624 172.902 511.907 173.462 512.024 174.177H511.752C511.848 173.676 512.014 173.26 512.248 172.929C512.483 172.588 512.776 172.326 513.128 172.145C513.491 171.964 513.896 171.873 514.344 171.873C514.931 171.873 515.438 172.001 515.864 172.257C516.291 172.502 516.616 172.865 516.84 173.345C517.075 173.825 517.192 174.417 517.192 175.121V180.609H515.144V175.649C515.144 174.945 515.022 174.417 514.776 174.065C514.542 173.713 514.179 173.537 513.688 173.537C513.358 173.537 513.075 173.622 512.84 173.793C512.606 173.964 512.424 174.214 512.296 174.545C512.179 174.865 512.12 175.254 512.12 175.713V180.609H510.216V175.713C510.216 175.009 510.11 174.47 509.896 174.097C509.683 173.724 509.315 173.537 508.792 173.537C508.462 173.537 508.179 173.622 507.944 173.793C507.72 173.964 507.539 174.214 507.4 174.545C507.272 174.865 507.208 175.254 507.208 175.713V180.609H505.16ZM521.719 180.801C520.823 180.801 520.103 180.598 519.559 180.193C519.015 179.777 518.743 179.201 518.743 178.465C518.743 177.729 518.972 177.153 519.431 176.737C519.889 176.321 520.588 176.022 521.527 175.841L524.359 175.281C524.359 174.673 524.22 174.22 523.943 173.921C523.665 173.612 523.255 173.457 522.711 173.457C522.22 173.457 521.831 173.574 521.543 173.809C521.265 174.033 521.073 174.358 520.967 174.785L518.887 174.689C519.057 173.782 519.473 173.089 520.135 172.609C520.796 172.118 521.655 171.873 522.711 171.873C523.927 171.873 524.844 172.182 525.463 172.801C526.092 173.409 526.407 174.284 526.407 175.425V178.529C526.407 178.753 526.444 178.908 526.519 178.993C526.604 179.078 526.727 179.121 526.887 179.121H527.159V180.609C527.095 180.63 526.988 180.646 526.839 180.657C526.7 180.668 526.556 180.673 526.407 180.673C526.055 180.673 525.74 180.62 525.463 180.513C525.185 180.396 524.972 180.198 524.823 179.921C524.673 179.633 524.599 179.244 524.599 178.753L524.775 178.881C524.689 179.254 524.503 179.59 524.215 179.889C523.937 180.177 523.585 180.401 523.159 180.561C522.732 180.721 522.252 180.801 521.719 180.801ZM522.135 179.313C522.593 179.313 522.988 179.222 523.319 179.041C523.649 178.86 523.905 178.609 524.087 178.289C524.268 177.969 524.359 177.59 524.359 177.153V176.673L522.151 177.121C521.692 177.217 521.361 177.361 521.159 177.553C520.967 177.734 520.871 177.974 520.871 178.273C520.871 178.604 520.977 178.86 521.191 179.041C521.415 179.222 521.729 179.313 522.135 179.313Z" fill="#17171A"/>
<rect x="38" y="211.114" width="174.948" height="55.3633" rx="5" fill="#C3BDFF"/>
<path d="M87.6369 243.723V232.363H89.7169V243.723H87.6369ZM92.2425 243.723V235.179H94.0985L94.1785 237.579L93.9385 237.483C94.0238 236.886 94.1998 236.406 94.4665 236.043C94.7331 235.68 95.0585 235.414 95.4425 235.243C95.8265 235.072 96.2478 234.987 96.7065 234.987C97.3358 234.987 97.8638 235.126 98.2905 235.403C98.7278 235.68 99.0585 236.064 99.2825 236.555C99.5065 237.035 99.6185 237.595 99.6185 238.235V243.723H97.5705V238.891C97.5705 238.411 97.5225 238.006 97.4265 237.675C97.3305 237.344 97.1705 237.094 96.9465 236.923C96.7331 236.742 96.4451 236.651 96.0825 236.651C95.5385 236.651 95.1011 236.843 94.7705 237.227C94.4505 237.611 94.2905 238.166 94.2905 238.891V243.723H92.2425ZM102.31 243.723V234.843C102.31 234.075 102.524 233.472 102.95 233.035C103.388 232.587 104.054 232.363 104.95 232.363H106.614V233.947H105.334C105.004 233.947 104.758 234.032 104.598 234.203C104.449 234.374 104.374 234.624 104.374 234.955V243.723H102.31ZM101.094 236.987V235.403H106.502V236.987H101.094ZM110.07 243.723C109.452 243.723 108.956 243.563 108.582 243.243C108.209 242.923 108.022 242.411 108.022 241.707V232.363H110.07V241.499C110.07 241.712 110.124 241.872 110.23 241.979C110.348 242.086 110.508 242.139 110.71 242.139H111.334V243.723H110.07ZM115.465 243.915C114.601 243.915 113.913 243.632 113.401 243.067C112.899 242.491 112.649 241.696 112.649 240.683V235.179H114.697V240.171C114.697 240.886 114.814 241.414 115.049 241.755C115.294 242.086 115.662 242.251 116.153 242.251C116.707 242.251 117.134 242.07 117.433 241.707C117.742 241.334 117.897 240.795 117.897 240.091V235.179H119.945V243.723H118.073L118.025 241.371L118.281 241.451C118.153 242.262 117.849 242.875 117.369 243.291C116.889 243.707 116.254 243.915 115.465 243.915ZM125.735 243.915C124.882 243.915 124.141 243.734 123.511 243.371C122.882 242.998 122.397 242.475 122.055 241.803C121.714 241.131 121.543 240.347 121.543 239.451C121.543 238.555 121.714 237.776 122.055 237.115C122.397 236.443 122.877 235.92 123.495 235.547C124.125 235.174 124.855 234.987 125.687 234.987C126.498 234.987 127.207 235.168 127.815 235.531C128.434 235.894 128.909 236.416 129.239 237.099C129.57 237.782 129.735 238.603 129.735 239.563V240.027H123.671C123.714 240.774 123.917 241.339 124.279 241.723C124.653 242.096 125.143 242.283 125.751 242.283C126.21 242.283 126.589 242.182 126.887 241.979C127.197 241.766 127.41 241.472 127.527 241.099L129.623 241.227C129.389 242.059 128.925 242.715 128.231 243.195C127.549 243.675 126.717 243.915 125.735 243.915ZM123.671 238.651H127.623C127.581 237.958 127.383 237.446 127.031 237.115C126.679 236.774 126.231 236.603 125.687 236.603C125.143 236.603 124.69 236.779 124.327 237.131C123.975 237.483 123.757 237.99 123.671 238.651ZM131.336 243.723V235.179H133.192L133.272 237.579L133.032 237.483C133.118 236.886 133.294 236.406 133.56 236.043C133.827 235.68 134.152 235.414 134.536 235.243C134.92 235.072 135.342 234.987 135.8 234.987C136.43 234.987 136.958 235.126 137.384 235.403C137.822 235.68 138.152 236.064 138.376 236.555C138.6 237.035 138.712 237.595 138.712 238.235V243.723H136.664V238.891C136.664 238.411 136.616 238.006 136.52 237.675C136.424 237.344 136.264 237.094 136.04 236.923C135.827 236.742 135.539 236.651 135.176 236.651C134.632 236.651 134.195 236.843 133.864 237.227C133.544 237.611 133.384 238.166 133.384 238.891V243.723H131.336ZM144.454 243.915C143.601 243.915 142.86 243.734 142.23 243.371C141.601 242.998 141.11 242.475 140.758 241.803C140.417 241.131 140.246 240.347 140.246 239.451C140.246 238.555 140.417 237.776 140.758 237.115C141.11 236.443 141.601 235.92 142.23 235.547C142.86 235.174 143.601 234.987 144.454 234.987C145.18 234.987 145.825 235.115 146.39 235.371C146.956 235.627 147.414 235.995 147.766 236.475C148.129 236.944 148.353 237.52 148.438 238.203L146.326 238.315C146.241 237.771 146.028 237.36 145.686 237.083C145.356 236.795 144.945 236.651 144.454 236.651C143.793 236.651 143.281 236.902 142.918 237.403C142.556 237.894 142.374 238.576 142.374 239.451C142.374 240.336 142.556 241.024 142.918 241.515C143.281 242.006 143.793 242.251 144.454 242.251C144.956 242.251 145.372 242.107 145.702 241.819C146.044 241.531 146.252 241.083 146.326 240.475L148.438 240.571C148.353 241.254 148.134 241.846 147.782 242.347C147.43 242.848 146.972 243.238 146.406 243.515C145.841 243.782 145.19 243.915 144.454 243.915ZM153.563 243.915C152.71 243.915 151.969 243.734 151.339 243.371C150.71 242.998 150.225 242.475 149.883 241.803C149.542 241.131 149.371 240.347 149.371 239.451C149.371 238.555 149.542 237.776 149.883 237.115C150.225 236.443 150.705 235.92 151.323 235.547C151.953 235.174 152.683 234.987 153.515 234.987C154.326 234.987 155.035 235.168 155.643 235.531C156.262 235.894 156.737 236.416 157.067 237.099C157.398 237.782 157.563 238.603 157.563 239.563V240.027H151.499C151.542 240.774 151.745 241.339 152.107 241.723C152.481 242.096 152.971 242.283 153.579 242.283C154.038 242.283 154.417 242.182 154.715 241.979C155.025 241.766 155.238 241.472 155.355 241.099L157.451 241.227C157.217 242.059 156.753 242.715 156.059 243.195C155.377 243.675 154.545 243.915 153.563 243.915ZM151.499 238.651H155.451C155.409 237.958 155.211 237.446 154.859 237.115C154.507 236.774 154.059 236.603 153.515 236.603C152.971 236.603 152.518 236.779 152.155 237.131C151.803 237.483 151.585 237.99 151.499 238.651ZM159.164 243.723V235.179H161.084L161.164 237.547L160.988 237.515C161.116 236.694 161.356 236.102 161.708 235.739C162.071 235.366 162.562 235.179 163.18 235.179H163.964V236.939H163.164C162.727 236.939 162.364 237.003 162.076 237.131C161.788 237.259 161.57 237.462 161.42 237.739C161.282 238.006 161.212 238.358 161.212 238.795V243.723H159.164Z" fill="#17171A"/>
<rect x="38" y="274.229" width="174.948" height="55.3633" rx="5" fill="#C3BDFF"/>
<path d="M50.2545 306.837V297.285H46.7985V295.477H55.7745V297.285H52.3345V306.837H50.2545ZM59.517 307.029C58.6743 307.029 57.933 306.848 57.293 306.485C56.6636 306.112 56.173 305.589 55.821 304.917C55.4796 304.245 55.309 303.461 55.309 302.565C55.309 301.659 55.4796 300.875 55.821 300.213C56.173 299.541 56.6636 299.024 57.293 298.661C57.933 298.288 58.6743 298.101 59.517 298.101C60.3596 298.101 61.0956 298.288 61.725 298.661C62.3543 299.024 62.8396 299.541 63.181 300.213C63.533 300.875 63.709 301.659 63.709 302.565C63.709 303.461 63.533 304.245 63.181 304.917C62.8396 305.589 62.3543 306.112 61.725 306.485C61.0956 306.848 60.3596 307.029 59.517 307.029ZM59.517 305.365C60.1783 305.365 60.685 305.12 61.037 304.629C61.3996 304.139 61.581 303.451 61.581 302.565C61.581 301.691 61.3996 301.008 61.037 300.517C60.685 300.016 60.1783 299.765 59.517 299.765C58.8556 299.765 58.3436 300.016 57.981 300.517C57.6183 301.008 57.437 301.691 57.437 302.565C57.437 303.451 57.6183 304.139 57.981 304.629C58.3436 305.12 58.8556 305.365 59.517 305.365ZM65.2894 306.837V298.293H67.1454L67.2094 300.389L67.0174 300.293C67.1134 299.835 67.2787 299.445 67.5134 299.125C67.7587 298.795 68.052 298.544 68.3934 298.373C68.7454 298.192 69.1294 298.101 69.5454 298.101C70.2707 298.101 70.8574 298.309 71.3054 298.725C71.7534 299.131 72.036 299.691 72.1534 300.405H71.8814C71.9774 299.904 72.1427 299.488 72.3774 299.157C72.612 298.816 72.9054 298.555 73.2574 298.373C73.62 298.192 74.0254 298.101 74.4734 298.101C75.06 298.101 75.5667 298.229 75.9934 298.485C76.42 298.731 76.7454 299.093 76.9694 299.573C77.204 300.053 77.3214 300.645 77.3214 301.349V306.837H75.2734V301.877C75.2734 301.173 75.1507 300.645 74.9054 300.293C74.6707 299.941 74.308 299.765 73.8174 299.765C73.4867 299.765 73.204 299.851 72.9694 300.021C72.7347 300.192 72.5534 300.443 72.4254 300.773C72.308 301.093 72.2494 301.483 72.2494 301.941V306.837H70.3454V301.941C70.3454 301.237 70.2387 300.699 70.0254 300.325C69.812 299.952 69.444 299.765 68.9214 299.765C68.5907 299.765 68.308 299.851 68.0734 300.021C67.8494 300.192 67.668 300.443 67.5294 300.773C67.4014 301.093 67.3374 301.483 67.3374 301.941V306.837H65.2894ZM81.8475 307.029C80.9515 307.029 80.2315 306.827 79.6875 306.421C79.1435 306.005 78.8715 305.429 78.8715 304.693C78.8715 303.957 79.1008 303.381 79.5595 302.965C80.0181 302.549 80.7168 302.251 81.6555 302.069L84.4875 301.509C84.4875 300.901 84.3488 300.448 84.0715 300.149C83.7941 299.84 83.3835 299.685 82.8395 299.685C82.3488 299.685 81.9595 299.803 81.6715 300.037C81.3941 300.261 81.2021 300.587 81.0955 301.013L79.0155 300.917C79.1861 300.011 79.6021 299.317 80.2635 298.837C80.9248 298.347 81.7835 298.101 82.8395 298.101C84.0555 298.101 84.9728 298.411 85.5915 299.029C86.2208 299.637 86.5355 300.512 86.5355 301.653V304.757C86.5355 304.981 86.5728 305.136 86.6475 305.221C86.7328 305.307 86.8555 305.349 87.0155 305.349H87.2875V306.837C87.2235 306.859 87.1168 306.875 86.9675 306.885C86.8288 306.896 86.6848 306.901 86.5355 306.901C86.1835 306.901 85.8688 306.848 85.5915 306.741C85.3141 306.624 85.1008 306.427 84.9515 306.149C84.8021 305.861 84.7275 305.472 84.7275 304.981L84.9035 305.109C84.8181 305.483 84.6315 305.819 84.3435 306.117C84.0661 306.405 83.7141 306.629 83.2875 306.789C82.8608 306.949 82.3808 307.029 81.8475 307.029ZM82.2635 305.541C82.7221 305.541 83.1168 305.451 83.4475 305.269C83.7781 305.088 84.0341 304.837 84.2155 304.517C84.3968 304.197 84.4875 303.819 84.4875 303.381V302.901L82.2795 303.349C81.8208 303.445 81.4901 303.589 81.2875 303.781C81.0955 303.963 80.9995 304.203 80.9995 304.501C80.9995 304.832 81.1061 305.088 81.3195 305.269C81.5435 305.451 81.8581 305.541 82.2635 305.541ZM91.5637 307.029C90.8384 307.029 90.2091 306.848 89.6757 306.485C89.1531 306.123 88.7477 305.605 88.4597 304.933C88.1717 304.261 88.0277 303.472 88.0277 302.565C88.0277 301.659 88.1717 300.869 88.4597 300.197C88.7477 299.525 89.1584 299.008 89.6917 298.645C90.2251 298.283 90.8491 298.101 91.5637 298.101C92.1611 298.101 92.6837 298.224 93.1317 298.469C93.5904 298.715 93.9371 299.061 94.1717 299.509V295.477H96.2197V306.837H94.2677L94.2197 305.573C93.9851 306.032 93.6331 306.389 93.1637 306.645C92.6944 306.901 92.1611 307.029 91.5637 307.029ZM92.1877 305.365C92.6144 305.365 92.9717 305.259 93.2597 305.045C93.5584 304.832 93.7824 304.517 93.9317 304.101C94.0917 303.675 94.1717 303.163 94.1717 302.565C94.1717 301.957 94.0917 301.445 93.9317 301.029C93.7824 300.613 93.5584 300.299 93.2597 300.085C92.9717 299.872 92.6144 299.765 92.1877 299.765C91.5691 299.765 91.0731 300.016 90.6997 300.517C90.3371 301.008 90.1557 301.691 90.1557 302.565C90.1557 303.419 90.3371 304.101 90.6997 304.613C91.0731 305.115 91.5691 305.365 92.1877 305.365ZM102.017 307.029C101.174 307.029 100.433 306.848 99.793 306.485C99.1636 306.112 98.673 305.589 98.321 304.917C97.9796 304.245 97.809 303.461 97.809 302.565C97.809 301.659 97.9796 300.875 98.321 300.213C98.673 299.541 99.1636 299.024 99.793 298.661C100.433 298.288 101.174 298.101 102.017 298.101C102.86 298.101 103.596 298.288 104.225 298.661C104.854 299.024 105.34 299.541 105.681 300.213C106.033 300.875 106.209 301.659 106.209 302.565C106.209 303.461 106.033 304.245 105.681 304.917C105.34 305.589 104.854 306.112 104.225 306.485C103.596 306.848 102.86 307.029 102.017 307.029ZM102.017 305.365C102.678 305.365 103.185 305.12 103.537 304.629C103.9 304.139 104.081 303.451 104.081 302.565C104.081 301.691 103.9 301.008 103.537 300.517C103.185 300.016 102.678 299.765 102.017 299.765C101.356 299.765 100.844 300.016 100.481 300.517C100.118 301.008 99.937 301.691 99.937 302.565C99.937 303.451 100.118 304.139 100.481 304.629C100.844 305.12 101.356 305.365 102.017 305.365ZM107.789 306.837V298.293H109.709L109.789 300.661L109.613 300.629C109.741 299.808 109.981 299.216 110.333 298.853C110.696 298.48 111.187 298.293 111.805 298.293H112.589V300.053H111.789C111.352 300.053 110.989 300.117 110.701 300.245C110.413 300.373 110.195 300.576 110.045 300.853C109.907 301.12 109.837 301.472 109.837 301.909V306.837H107.789ZM121.157 307.029C120.432 307.029 119.803 306.848 119.269 306.485C118.747 306.123 118.341 305.605 118.053 304.933C117.765 304.261 117.621 303.472 117.621 302.565C117.621 301.659 117.765 300.869 118.053 300.197C118.341 299.525 118.752 299.008 119.285 298.645C119.819 298.283 120.443 298.101 121.157 298.101C121.755 298.101 122.277 298.224 122.725 298.469C123.184 298.715 123.531 299.061 123.765 299.509V295.477H125.813V306.837H123.861L123.813 305.573C123.579 306.032 123.227 306.389 122.757 306.645C122.288 306.901 121.755 307.029 121.157 307.029ZM121.781 305.365C122.208 305.365 122.565 305.259 122.853 305.045C123.152 304.832 123.376 304.517 123.525 304.101C123.685 303.675 123.765 303.163 123.765 302.565C123.765 301.957 123.685 301.445 123.525 301.029C123.376 300.613 123.152 300.299 122.853 300.085C122.565 299.872 122.208 299.765 121.781 299.765C121.163 299.765 120.667 300.016 120.293 300.517C119.931 301.008 119.749 301.691 119.749 302.565C119.749 303.419 119.931 304.101 120.293 304.613C120.667 305.115 121.163 305.365 121.781 305.365ZM131.595 307.029C130.741 307.029 130 306.848 129.371 306.485C128.741 306.112 128.256 305.589 127.915 304.917C127.573 304.245 127.403 303.461 127.403 302.565C127.403 301.669 127.573 300.891 127.915 300.229C128.256 299.557 128.736 299.035 129.355 298.661C129.984 298.288 130.715 298.101 131.547 298.101C132.357 298.101 133.067 298.283 133.675 298.645C134.293 299.008 134.768 299.531 135.099 300.213C135.429 300.896 135.595 301.717 135.595 302.677V303.141H129.531C129.573 303.888 129.776 304.453 130.139 304.837C130.512 305.211 131.003 305.397 131.611 305.397C132.069 305.397 132.448 305.296 132.747 305.093C133.056 304.88 133.269 304.587 133.387 304.213L135.483 304.341C135.248 305.173 134.784 305.829 134.091 306.309C133.408 306.789 132.576 307.029 131.595 307.029ZM129.531 301.765H133.483C133.44 301.072 133.243 300.56 132.891 300.229C132.539 299.888 132.091 299.717 131.547 299.717C131.003 299.717 130.549 299.893 130.187 300.245C129.835 300.597 129.616 301.104 129.531 301.765ZM144.173 307.029C143.448 307.029 142.818 306.848 142.285 306.485C141.762 306.123 141.357 305.605 141.069 304.933C140.781 304.261 140.637 303.472 140.637 302.565C140.637 301.659 140.781 300.869 141.069 300.197C141.357 299.525 141.768 299.008 142.301 298.645C142.834 298.283 143.458 298.101 144.173 298.101C144.77 298.101 145.293 298.224 145.741 298.469C146.2 298.715 146.546 299.061 146.781 299.509V295.477H148.829V306.837H146.877L146.829 305.573C146.594 306.032 146.242 306.389 145.773 306.645C145.304 306.901 144.77 307.029 144.173 307.029ZM144.797 305.365C145.224 305.365 145.581 305.259 145.869 305.045C146.168 304.832 146.392 304.517 146.541 304.101C146.701 303.675 146.781 303.163 146.781 302.565C146.781 301.957 146.701 301.445 146.541 301.029C146.392 300.613 146.168 300.299 145.869 300.085C145.581 299.872 145.224 299.765 144.797 299.765C144.178 299.765 143.682 300.016 143.309 300.517C142.946 301.008 142.765 301.691 142.765 302.565C142.765 303.419 142.946 304.101 143.309 304.613C143.682 305.115 144.178 305.365 144.797 305.365ZM154.61 307.029C153.757 307.029 153.016 306.848 152.386 306.485C151.757 306.112 151.272 305.589 150.93 304.917C150.589 304.245 150.418 303.461 150.418 302.565C150.418 301.669 150.589 300.891 150.93 300.229C151.272 299.557 151.752 299.035 152.37 298.661C153 298.288 153.73 298.101 154.562 298.101C155.373 298.101 156.082 298.283 156.69 298.645C157.309 299.008 157.784 299.531 158.114 300.213C158.445 300.896 158.61 301.717 158.61 302.677V303.141H152.546C152.589 303.888 152.792 304.453 153.154 304.837C153.528 305.211 154.018 305.397 154.626 305.397C155.085 305.397 155.464 305.296 155.762 305.093C156.072 304.88 156.285 304.587 156.402 304.213L158.498 304.341C158.264 305.173 157.8 305.829 157.106 306.309C156.424 306.789 155.592 307.029 154.61 307.029ZM152.546 301.765H156.498C156.456 301.072 156.258 300.56 155.906 300.229C155.554 299.888 155.106 299.717 154.562 299.717C154.018 299.717 153.565 299.893 153.202 300.245C152.85 300.597 152.632 301.104 152.546 301.765ZM163.923 307.029C163.07 307.029 162.329 306.848 161.699 306.485C161.07 306.112 160.579 305.589 160.227 304.917C159.886 304.245 159.715 303.461 159.715 302.565C159.715 301.669 159.886 300.891 160.227 300.229C160.579 299.557 161.07 299.035 161.699 298.661C162.329 298.288 163.07 298.101 163.923 298.101C164.649 298.101 165.294 298.229 165.859 298.485C166.425 298.741 166.883 299.109 167.235 299.589C167.598 300.059 167.822 300.635 167.907 301.317L165.795 301.429C165.71 300.885 165.497 300.475 165.155 300.197C164.825 299.909 164.414 299.765 163.923 299.765C163.262 299.765 162.75 300.016 162.387 300.517C162.025 301.008 161.843 301.691 161.843 302.565C161.843 303.451 162.025 304.139 162.387 304.629C162.75 305.12 163.262 305.365 163.923 305.365C164.425 305.365 164.841 305.221 165.171 304.933C165.513 304.645 165.721 304.197 165.795 303.589L167.907 303.685C167.822 304.368 167.603 304.96 167.251 305.461C166.899 305.963 166.441 306.352 165.875 306.629C165.31 306.896 164.659 307.029 163.923 307.029ZM169.336 306.837V298.293H171.384V306.837H169.336ZM169.304 297.157V295.333H171.432V297.157H169.304ZM176.949 307.029C176.106 307.029 175.397 306.907 174.821 306.661C174.256 306.416 173.818 306.075 173.509 305.637C173.2 305.2 173.024 304.704 172.981 304.149L175.077 304.053C175.152 304.501 175.338 304.848 175.637 305.093C175.936 305.339 176.378 305.461 176.965 305.461C177.445 305.461 177.818 305.387 178.085 305.237C178.362 305.077 178.501 304.832 178.501 304.501C178.501 304.309 178.453 304.149 178.357 304.021C178.261 303.893 178.08 303.781 177.813 303.685C177.546 303.589 177.152 303.493 176.629 303.397C175.754 303.248 175.066 303.067 174.565 302.853C174.064 302.629 173.706 302.352 173.493 302.021C173.29 301.691 173.189 301.28 173.189 300.789C173.189 299.989 173.493 299.344 174.101 298.853C174.72 298.352 175.621 298.101 176.805 298.101C177.573 298.101 178.218 298.229 178.741 298.485C179.264 298.731 179.669 299.072 179.957 299.509C180.256 299.936 180.442 300.427 180.517 300.981L178.453 301.077C178.4 300.789 178.304 300.539 178.165 300.325C178.026 300.112 177.84 299.952 177.605 299.845C177.37 299.728 177.093 299.669 176.773 299.669C176.293 299.669 175.93 299.765 175.685 299.957C175.44 300.149 175.317 300.405 175.317 300.725C175.317 300.949 175.37 301.136 175.477 301.285C175.594 301.435 175.781 301.557 176.037 301.653C176.293 301.739 176.634 301.819 177.061 301.893C177.957 302.032 178.661 302.213 179.173 302.437C179.696 302.651 180.064 302.928 180.277 303.269C180.501 303.6 180.613 304 180.613 304.469C180.613 305.013 180.458 305.477 180.149 305.861C179.85 306.245 179.424 306.539 178.869 306.741C178.325 306.933 177.685 307.029 176.949 307.029ZM182.211 306.837V298.293H184.259V306.837H182.211ZM182.179 297.157V295.333H184.307V297.157H182.179ZM190.064 307.029C189.221 307.029 188.48 306.848 187.84 306.485C187.211 306.112 186.72 305.589 186.368 304.917C186.027 304.245 185.856 303.461 185.856 302.565C185.856 301.659 186.027 300.875 186.368 300.213C186.72 299.541 187.211 299.024 187.84 298.661C188.48 298.288 189.221 298.101 190.064 298.101C190.907 298.101 191.643 298.288 192.272 298.661C192.901 299.024 193.387 299.541 193.728 300.213C194.08 300.875 194.256 301.659 194.256 302.565C194.256 303.461 194.08 304.245 193.728 304.917C193.387 305.589 192.901 306.112 192.272 306.485C191.643 306.848 190.907 307.029 190.064 307.029ZM190.064 305.365C190.725 305.365 191.232 305.12 191.584 304.629C191.947 304.139 192.128 303.451 192.128 302.565C192.128 301.691 191.947 301.008 191.584 300.517C191.232 300.016 190.725 299.765 190.064 299.765C189.403 299.765 188.891 300.016 188.528 300.517C188.165 301.008 187.984 301.691 187.984 302.565C187.984 303.451 188.165 304.139 188.528 304.629C188.891 305.12 189.403 305.365 190.064 305.365ZM189.136 297.333L190.112 295.093H192.176L190.736 297.333H189.136ZM195.836 306.837V298.293H197.692L197.772 300.693L197.532 300.597C197.618 300 197.794 299.52 198.06 299.157C198.327 298.795 198.652 298.528 199.036 298.357C199.42 298.187 199.842 298.101 200.3 298.101C200.93 298.101 201.458 298.24 201.884 298.517C202.322 298.795 202.652 299.179 202.876 299.669C203.1 300.149 203.212 300.709 203.212 301.349V306.837H201.164V302.005C201.164 301.525 201.116 301.12 201.02 300.789C200.924 300.459 200.764 300.208 200.54 300.037C200.327 299.856 200.039 299.765 199.676 299.765C199.132 299.765 198.695 299.957 198.364 300.341C198.044 300.725 197.884 301.28 197.884 302.005V306.837H195.836Z" fill="#17171A"/>
<rect x="38" y="337.343" width="174.948" height="55.3633" rx="5" fill="#C3BDFF"/>
<path d="M101.746 370.208C100.828 370.208 100.023 370.032 99.3295 369.68C98.6469 369.328 98.1189 368.832 97.7455 368.192C97.3829 367.541 97.2015 366.773 97.2015 365.888V358.576H99.2815V365.888C99.2815 366.688 99.4949 367.306 99.9215 367.744C100.348 368.181 100.956 368.4 101.746 368.4C102.535 368.4 103.143 368.181 103.57 367.744C104.007 367.306 104.226 366.688 104.226 365.888V358.576H106.306V365.888C106.306 366.773 106.119 367.541 105.746 368.192C105.372 368.832 104.844 369.328 104.162 369.68C103.49 370.032 102.684 370.208 101.746 370.208ZM111.941 370.144C111.098 370.144 110.389 370.021 109.813 369.776C109.248 369.53 108.81 369.189 108.501 368.752C108.192 368.314 108.016 367.818 107.973 367.264L110.069 367.168C110.144 367.616 110.33 367.962 110.629 368.208C110.928 368.453 111.37 368.576 111.957 368.576C112.437 368.576 112.81 368.501 113.077 368.352C113.354 368.192 113.493 367.946 113.493 367.616C113.493 367.424 113.445 367.264 113.349 367.136C113.253 367.008 113.072 366.896 112.805 366.8C112.538 366.704 112.144 366.608 111.621 366.512C110.746 366.362 110.058 366.181 109.557 365.968C109.056 365.744 108.698 365.466 108.485 365.136C108.282 364.805 108.181 364.394 108.181 363.904C108.181 363.104 108.485 362.458 109.093 361.968C109.712 361.466 110.613 361.216 111.797 361.216C112.565 361.216 113.21 361.344 113.733 361.6C114.256 361.845 114.661 362.186 114.949 362.624C115.248 363.05 115.434 363.541 115.509 364.096L113.445 364.192C113.392 363.904 113.296 363.653 113.157 363.44C113.018 363.226 112.832 363.066 112.597 362.96C112.362 362.842 112.085 362.784 111.765 362.784C111.285 362.784 110.922 362.88 110.677 363.072C110.432 363.264 110.309 363.52 110.309 363.84C110.309 364.064 110.362 364.25 110.469 364.4C110.586 364.549 110.773 364.672 111.029 364.768C111.285 364.853 111.626 364.933 112.053 365.008C112.949 365.146 113.653 365.328 114.165 365.552C114.688 365.765 115.056 366.042 115.269 366.384C115.493 366.714 115.605 367.114 115.605 367.584C115.605 368.128 115.45 368.592 115.141 368.976C114.842 369.36 114.416 369.653 113.861 369.856C113.317 370.048 112.677 370.144 111.941 370.144ZM120.019 370.144C119.155 370.144 118.467 369.861 117.955 369.296C117.454 368.72 117.203 367.925 117.203 366.912V361.408H119.251V366.4C119.251 367.114 119.369 367.642 119.603 367.984C119.849 368.314 120.217 368.48 120.707 368.48C121.262 368.48 121.689 368.298 121.987 367.936C122.297 367.562 122.451 367.024 122.451 366.32V361.408H124.499V369.952H122.627L122.579 367.6L122.835 367.68C122.707 368.49 122.403 369.104 121.923 369.52C121.443 369.936 120.809 370.144 120.019 370.144ZM129.23 370.144C128.334 370.144 127.614 369.941 127.07 369.536C126.526 369.12 126.254 368.544 126.254 367.808C126.254 367.072 126.484 366.496 126.942 366.08C127.401 365.664 128.1 365.365 129.038 365.184L131.87 364.624C131.87 364.016 131.732 363.562 131.454 363.264C131.177 362.954 130.766 362.8 130.222 362.8C129.732 362.8 129.342 362.917 129.054 363.152C128.777 363.376 128.585 363.701 128.478 364.128L126.398 364.032C126.569 363.125 126.985 362.432 127.646 361.952C128.308 361.461 129.166 361.216 130.222 361.216C131.438 361.216 132.356 361.525 132.974 362.144C133.604 362.752 133.918 363.626 133.918 364.768V367.872C133.918 368.096 133.956 368.25 134.03 368.336C134.116 368.421 134.238 368.464 134.398 368.464H134.67V369.952C134.606 369.973 134.5 369.989 134.35 370C134.212 370.01 134.068 370.016 133.918 370.016C133.566 370.016 133.252 369.962 132.974 369.856C132.697 369.738 132.484 369.541 132.334 369.264C132.185 368.976 132.11 368.586 132.11 368.096L132.286 368.224C132.201 368.597 132.014 368.933 131.726 369.232C131.449 369.52 131.097 369.744 130.67 369.904C130.244 370.064 129.764 370.144 129.23 370.144ZM129.646 368.656C130.105 368.656 130.5 368.565 130.83 368.384C131.161 368.202 131.417 367.952 131.598 367.632C131.78 367.312 131.87 366.933 131.87 366.496V366.016L129.662 366.464C129.204 366.56 128.873 366.704 128.67 366.896C128.478 367.077 128.382 367.317 128.382 367.616C128.382 367.946 128.489 368.202 128.702 368.384C128.926 368.565 129.241 368.656 129.646 368.656ZM136 369.952V361.408H137.92L138 363.776L137.824 363.744C137.952 362.922 138.192 362.33 138.544 361.968C138.907 361.594 139.398 361.408 140.016 361.408H140.8V363.168H140C139.563 363.168 139.2 363.232 138.912 363.36C138.624 363.488 138.406 363.69 138.256 363.968C138.118 364.234 138.048 364.586 138.048 365.024V369.952H136ZM142.125 369.952V361.408H144.173V369.952H142.125ZM142.093 360.272V358.448H144.221V360.272H142.093ZM149.978 370.144C149.135 370.144 148.394 369.962 147.754 369.6C147.125 369.226 146.634 368.704 146.282 368.032C145.941 367.36 145.77 366.576 145.77 365.68C145.77 364.773 145.941 363.989 146.282 363.328C146.634 362.656 147.125 362.138 147.754 361.776C148.394 361.402 149.135 361.216 149.978 361.216C150.821 361.216 151.557 361.402 152.186 361.776C152.815 362.138 153.301 362.656 153.642 363.328C153.994 363.989 154.17 364.773 154.17 365.68C154.17 366.576 153.994 367.36 153.642 368.032C153.301 368.704 152.815 369.226 152.186 369.6C151.557 369.962 150.821 370.144 149.978 370.144ZM149.978 368.48C150.639 368.48 151.146 368.234 151.498 367.744C151.861 367.253 152.042 366.565 152.042 365.68C152.042 364.805 151.861 364.122 151.498 363.632C151.146 363.13 150.639 362.88 149.978 362.88C149.317 362.88 148.805 363.13 148.442 363.632C148.079 364.122 147.898 364.805 147.898 365.68C147.898 366.565 148.079 367.253 148.442 367.744C148.805 368.234 149.317 368.48 149.978 368.48Z" fill="#17171A"/>
<rect x="220.703" y="211.114" width="174.948" height="55.3633" rx="5" fill="#27273F"/>
<rect x="237.312" y="228.646" width="138.408" height="8.28684" rx="4" fill="#A0A0A0" fill-opacity="0.1"/>
<rect x="237.312" y="239.942" width="138.408" height="9.04018" rx="4" fill="#A0A0A0" fill-opacity="0.1"/>
<rect x="403.406" y="211.114" width="174.948" height="55.3633" rx="5" fill="#27273F"/>
<rect x="420.016" y="228.646" width="138.408" height="8.28684" rx="4" fill="#A0A0A0" fill-opacity="0.1"/>
<rect x="420.016" y="239.942" width="138.408" height="9.04018" rx="4" fill="#A0A0A0" fill-opacity="0.1"/>
<rect x="220.703" y="274.229" width="174.948" height="55.3633" rx="5" fill="#27273F"/>
<rect x="237.312" y="291.76" width="138.408" height="8.28684" rx="4" fill="#A0A0A0" fill-opacity="0.1"/>
<rect x="237.312" y="303.056" width="138.408" height="9.04018" rx="4" fill="#A0A0A0" fill-opacity="0.1"/>
<rect x="403.406" y="274.229" width="174.948" height="55.3633" rx="5" fill="#27273F"/>
<rect x="420.016" y="291.76" width="138.408" height="8.28684" rx="4" fill="#A0A0A0" fill-opacity="0.1"/>
<rect x="420.016" y="303.056" width="138.408" height="9.04018" rx="4" fill="#A0A0A0" fill-opacity="0.1"/>
<rect x="220.703" y="337.343" width="174.948" height="55.3633" rx="5" fill="#27273F"/>
<rect x="237.312" y="354.875" width="138.408" height="8.28684" rx="4" fill="#A0A0A0" fill-opacity="0.1"/>
<rect x="237.312" y="366.17" width="138.408" height="9.04018" rx="4" fill="#A0A0A0" fill-opacity="0.1"/>
<rect x="403.406" y="337.343" width="174.948" height="55.3633" rx="5" fill="#27273F"/>
<rect x="420.016" y="354.875" width="138.408" height="8.28684" rx="4" fill="#A0A0A0" fill-opacity="0.1"/>
<rect x="420.016" y="366.17" width="138.408" height="9.04018" rx="4" fill="#A0A0A0" fill-opacity="0.1"/>
<path d="M276 460.821C274.944 460.821 274.032 460.635 273.264 460.263C272.496 459.891 271.89 459.375 271.446 458.715C271.014 458.043 270.762 457.263 270.69 456.375L273.066 456.231C273.138 456.783 273.294 457.251 273.534 457.635C273.786 458.019 274.116 458.313 274.524 458.517C274.944 458.709 275.448 458.805 276.036 458.805C276.54 458.805 276.966 458.745 277.314 458.625C277.674 458.493 277.944 458.307 278.124 458.067C278.316 457.815 278.412 457.509 278.412 457.149C278.412 456.825 278.334 456.537 278.178 456.285C278.022 456.021 277.722 455.787 277.278 455.583C276.834 455.367 276.174 455.157 275.298 454.953C274.242 454.713 273.396 454.443 272.76 454.143C272.124 453.831 271.662 453.447 271.374 452.991C271.086 452.523 270.942 451.941 270.942 451.245C270.942 450.501 271.128 449.847 271.5 449.283C271.872 448.707 272.4 448.263 273.084 447.951C273.768 447.627 274.59 447.465 275.55 447.465C276.57 447.465 277.434 447.651 278.142 448.023C278.85 448.383 279.408 448.881 279.816 449.517C280.224 450.153 280.476 450.885 280.572 451.713L278.214 451.821C278.154 451.353 278.01 450.945 277.782 450.597C277.566 450.249 277.266 449.979 276.882 449.787C276.51 449.583 276.054 449.481 275.514 449.481C274.842 449.481 274.308 449.637 273.912 449.949C273.528 450.249 273.336 450.651 273.336 451.155C273.336 451.503 273.414 451.791 273.57 452.019C273.738 452.247 274.032 452.445 274.452 452.613C274.872 452.769 275.46 452.937 276.216 453.117C277.356 453.357 278.262 453.663 278.934 454.035C279.606 454.407 280.086 454.839 280.374 455.331C280.662 455.823 280.806 456.387 280.806 457.023C280.806 457.803 280.608 458.481 280.212 459.057C279.816 459.621 279.258 460.059 278.538 460.371C277.818 460.671 276.972 460.821 276 460.821ZM287.336 460.749C286.376 460.749 285.542 460.545 284.834 460.137C284.126 459.717 283.58 459.129 283.196 458.373C282.812 457.617 282.62 456.735 282.62 455.727C282.62 454.719 282.812 453.843 283.196 453.099C283.58 452.343 284.12 451.755 284.816 451.335C285.524 450.915 286.346 450.705 287.282 450.705C288.194 450.705 288.992 450.909 289.676 451.317C290.372 451.725 290.906 452.313 291.278 453.081C291.65 453.849 291.836 454.773 291.836 455.853V456.375H285.014C285.062 457.215 285.29 457.851 285.698 458.283C286.118 458.703 286.67 458.913 287.354 458.913C287.87 458.913 288.296 458.799 288.632 458.571C288.98 458.331 289.22 458.001 289.352 457.581L291.71 457.725C291.446 458.661 290.924 459.399 290.144 459.939C289.376 460.479 288.44 460.749 287.336 460.749ZM285.014 454.827H289.46C289.412 454.047 289.19 453.471 288.794 453.099C288.398 452.715 287.894 452.523 287.282 452.523C286.67 452.523 286.16 452.721 285.752 453.117C285.356 453.513 285.11 454.083 285.014 454.827ZM297.741 463.449C296.901 463.449 296.181 463.335 295.581 463.107C294.981 462.879 294.495 462.555 294.123 462.135C293.763 461.727 293.511 461.253 293.367 460.713L295.743 460.551C295.863 460.911 296.067 461.193 296.355 461.397C296.655 461.601 297.117 461.703 297.741 461.703C298.449 461.703 298.995 461.541 299.379 461.217C299.763 460.905 299.955 460.413 299.955 459.741V458.517C299.727 458.985 299.361 459.363 298.857 459.651C298.353 459.927 297.789 460.065 297.165 460.065C296.373 460.065 295.665 459.873 295.041 459.489C294.429 459.093 293.949 458.547 293.601 457.851C293.253 457.143 293.079 456.327 293.079 455.403C293.079 454.479 293.247 453.669 293.583 452.973C293.931 452.265 294.411 451.713 295.023 451.317C295.635 450.909 296.337 450.705 297.129 450.705C297.825 450.705 298.425 450.861 298.929 451.173C299.433 451.485 299.799 451.899 300.027 452.415V450.921H302.277V459.687C302.277 460.503 302.085 461.193 301.701 461.757C301.329 462.321 300.801 462.741 300.117 463.017C299.445 463.305 298.653 463.449 297.741 463.449ZM297.705 458.265C298.389 458.265 298.935 458.013 299.343 457.509C299.751 456.993 299.961 456.285 299.973 455.385C299.985 454.785 299.895 454.275 299.703 453.855C299.523 453.423 299.259 453.093 298.911 452.865C298.575 452.625 298.173 452.505 297.705 452.505C296.997 452.505 296.445 452.769 296.049 453.297C295.665 453.813 295.473 454.509 295.473 455.385C295.473 456.261 295.671 456.963 296.067 457.491C296.475 458.007 297.021 458.265 297.705 458.265ZM304.799 460.533V450.921H306.887L306.959 453.279L306.743 453.171C306.851 452.655 307.037 452.217 307.301 451.857C307.577 451.485 307.907 451.203 308.291 451.011C308.687 450.807 309.119 450.705 309.587 450.705C310.403 450.705 311.063 450.939 311.567 451.407C312.071 451.863 312.389 452.493 312.521 453.297H312.215C312.323 452.733 312.509 452.265 312.773 451.893C313.037 451.509 313.367 451.215 313.763 451.011C314.171 450.807 314.627 450.705 315.131 450.705C315.791 450.705 316.361 450.849 316.841 451.137C317.321 451.413 317.687 451.821 317.939 452.361C318.203 452.901 318.335 453.567 318.335 454.359V460.533H316.031V454.953C316.031 454.161 315.893 453.567 315.617 453.171C315.353 452.775 314.945 452.577 314.393 452.577C314.021 452.577 313.703 452.673 313.439 452.865C313.175 453.057 312.971 453.339 312.827 453.711C312.695 454.071 312.629 454.509 312.629 455.025V460.533H310.487V455.025C310.487 454.233 310.367 453.627 310.127 453.207C309.887 452.787 309.473 452.577 308.885 452.577C308.513 452.577 308.195 452.673 307.931 452.865C307.679 453.057 307.475 453.339 307.319 453.711C307.175 454.071 307.103 454.509 307.103 455.025V460.533H304.799ZM324.777 460.749C323.817 460.749 322.983 460.545 322.275 460.137C321.567 459.717 321.021 459.129 320.637 458.373C320.253 457.617 320.061 456.735 320.061 455.727C320.061 454.719 320.253 453.843 320.637 453.099C321.021 452.343 321.561 451.755 322.257 451.335C322.965 450.915 323.787 450.705 324.723 450.705C325.635 450.705 326.433 450.909 327.117 451.317C327.813 451.725 328.347 452.313 328.719 453.081C329.091 453.849 329.277 454.773 329.277 455.853V456.375H322.455C322.503 457.215 322.731 457.851 323.139 458.283C323.559 458.703 324.111 458.913 324.795 458.913C325.311 458.913 325.737 458.799 326.073 458.571C326.421 458.331 326.661 458.001 326.793 457.581L329.151 457.725C328.887 458.661 328.365 459.399 327.585 459.939C326.817 460.479 325.881 460.749 324.777 460.749ZM322.455 454.827H326.901C326.853 454.047 326.631 453.471 326.235 453.099C325.839 452.715 325.335 452.523 324.723 452.523C324.111 452.523 323.601 452.721 323.193 453.117C322.797 453.513 322.551 454.083 322.455 454.827ZM331.078 460.533V450.921H333.166L333.256 453.621L332.986 453.513C333.082 452.841 333.28 452.301 333.58 451.893C333.88 451.485 334.246 451.185 334.678 450.993C335.11 450.801 335.584 450.705 336.1 450.705C336.808 450.705 337.402 450.861 337.882 451.173C338.374 451.485 338.746 451.917 338.998 452.469C339.25 453.009 339.376 453.639 339.376 454.359V460.533H337.072V455.097C337.072 454.557 337.018 454.101 336.91 453.729C336.802 453.357 336.622 453.075 336.37 452.883C336.13 452.679 335.806 452.577 335.398 452.577C334.786 452.577 334.294 452.793 333.922 453.225C333.562 453.657 333.382 454.281 333.382 455.097V460.533H331.078ZM345.073 460.533C344.113 460.533 343.405 460.311 342.949 459.867C342.505 459.423 342.283 458.727 342.283 457.779V448.671H344.587V457.563C344.587 458.007 344.683 458.319 344.875 458.499C345.067 458.667 345.367 458.751 345.775 458.751H347.125V460.533H345.073ZM340.771 452.703V450.921H347.125V452.703H340.771ZM351.552 460.749C350.544 460.749 349.734 460.521 349.122 460.065C348.51 459.597 348.204 458.949 348.204 458.121C348.204 457.293 348.462 456.645 348.978 456.177C349.494 455.709 350.28 455.373 351.336 455.169L354.522 454.539C354.522 453.855 354.366 453.345 354.054 453.009C353.742 452.661 353.28 452.487 352.668 452.487C352.116 452.487 351.678 452.619 351.354 452.883C351.042 453.135 350.826 453.501 350.706 453.981L348.366 453.873C348.558 452.853 349.026 452.073 349.77 451.533C350.514 450.981 351.48 450.705 352.668 450.705C354.036 450.705 355.068 451.053 355.764 451.749C356.472 452.433 356.826 453.417 356.826 454.701V458.193C356.826 458.445 356.868 458.619 356.952 458.715C357.048 458.811 357.186 458.859 357.366 458.859H357.672V460.533C357.6 460.557 357.48 460.575 357.312 460.587C357.156 460.599 356.994 460.605 356.826 460.605C356.43 460.605 356.076 460.545 355.764 460.425C355.452 460.293 355.212 460.071 355.044 459.759C354.876 459.435 354.792 458.997 354.792 458.445L354.99 458.589C354.894 459.009 354.684 459.387 354.36 459.723C354.048 460.047 353.652 460.299 353.172 460.479C352.692 460.659 352.152 460.749 351.552 460.749ZM352.02 459.075C352.536 459.075 352.98 458.973 353.352 458.769C353.724 458.565 354.012 458.283 354.216 457.923C354.42 457.563 354.522 457.137 354.522 456.645V456.105L352.038 456.609C351.522 456.717 351.15 456.879 350.922 457.095C350.706 457.299 350.598 457.569 350.598 457.905C350.598 458.277 350.718 458.565 350.958 458.769C351.21 458.973 351.564 459.075 352.02 459.075ZM363.238 460.749C362.278 460.749 361.444 460.545 360.736 460.137C360.028 459.717 359.476 459.129 359.08 458.373C358.696 457.617 358.504 456.735 358.504 455.727C358.504 454.719 358.696 453.843 359.08 453.099C359.476 452.343 360.028 451.755 360.736 451.335C361.444 450.915 362.278 450.705 363.238 450.705C364.054 450.705 364.78 450.849 365.416 451.137C366.052 451.425 366.568 451.839 366.964 452.379C367.372 452.907 367.624 453.555 367.72 454.323L365.344 454.449C365.248 453.837 365.008 453.375 364.624 453.063C364.252 452.739 363.79 452.577 363.238 452.577C362.494 452.577 361.918 452.859 361.51 453.423C361.102 453.975 360.898 454.743 360.898 455.727C360.898 456.723 361.102 457.497 361.51 458.049C361.918 458.601 362.494 458.877 363.238 458.877C363.802 458.877 364.27 458.715 364.642 458.391C365.026 458.067 365.26 457.563 365.344 456.879L367.72 456.987C367.624 457.755 367.378 458.421 366.982 458.985C366.586 459.549 366.07 459.987 365.434 460.299C364.798 460.599 364.066 460.749 363.238 460.749ZM369.328 460.533V450.921H371.632V460.533H369.328ZM369.292 449.643V447.591H371.686V449.643H369.292ZM378.162 460.749C377.214 460.749 376.38 460.545 375.66 460.137C374.952 459.717 374.4 459.129 374.004 458.373C373.62 457.617 373.428 456.735 373.428 455.727C373.428 454.707 373.62 453.825 374.004 453.081C374.4 452.325 374.952 451.743 375.66 451.335C376.38 450.915 377.214 450.705 378.162 450.705C379.11 450.705 379.938 450.915 380.646 451.335C381.354 451.743 381.9 452.325 382.284 453.081C382.68 453.825 382.878 454.707 382.878 455.727C382.878 456.735 382.68 457.617 382.284 458.373C381.9 459.129 381.354 459.717 380.646 460.137C379.938 460.545 379.11 460.749 378.162 460.749ZM378.162 458.877C378.906 458.877 379.476 458.601 379.872 458.049C380.28 457.497 380.484 456.723 380.484 455.727C380.484 454.743 380.28 453.975 379.872 453.423C379.476 452.859 378.906 452.577 378.162 452.577C377.418 452.577 376.842 452.859 376.434 453.423C376.026 453.975 375.822 454.743 375.822 455.727C375.822 456.723 376.026 457.497 376.434 458.049C376.842 458.601 377.418 458.877 378.162 458.877ZM377.118 449.841L378.216 447.321H380.538L378.918 449.841H377.118ZM384.656 460.533V450.921H386.744L386.834 453.621L386.564 453.513C386.66 452.841 386.858 452.301 387.158 451.893C387.458 451.485 387.824 451.185 388.256 450.993C388.688 450.801 389.162 450.705 389.678 450.705C390.386 450.705 390.98 450.861 391.46 451.173C391.952 451.485 392.324 451.917 392.576 452.469C392.828 453.009 392.954 453.639 392.954 454.359V460.533H390.65V455.097C390.65 454.557 390.596 454.101 390.488 453.729C390.38 453.357 390.2 453.075 389.948 452.883C389.708 452.679 389.384 452.577 388.976 452.577C388.364 452.577 387.872 452.793 387.5 453.225C387.14 453.657 386.96 454.281 386.96 455.097V460.533H384.656ZM403.879 460.749C402.919 460.749 402.085 460.545 401.377 460.137C400.669 459.717 400.123 459.129 399.739 458.373C399.355 457.617 399.163 456.735 399.163 455.727C399.163 454.719 399.355 453.843 399.739 453.099C400.123 452.343 400.663 451.755 401.359 451.335C402.067 450.915 402.889 450.705 403.825 450.705C404.737 450.705 405.535 450.909 406.219 451.317C406.915 451.725 407.449 452.313 407.821 453.081C408.193 453.849 408.379 454.773 408.379 455.853V456.375H401.557C401.605 457.215 401.833 457.851 402.241 458.283C402.661 458.703 403.213 458.913 403.897 458.913C404.413 458.913 404.839 458.799 405.175 458.571C405.523 458.331 405.763 458.001 405.895 457.581L408.253 457.725C407.989 458.661 407.467 459.399 406.687 459.939C405.919 460.479 404.983 460.749 403.879 460.749ZM401.557 454.827H406.003C405.955 454.047 405.733 453.471 405.337 453.099C404.941 452.715 404.437 452.523 403.825 452.523C403.213 452.523 402.703 452.721 402.295 453.117C401.899 453.513 401.653 454.083 401.557 454.827ZM414.086 460.749C413.138 460.749 412.34 460.611 411.692 460.335C411.056 460.059 410.564 459.675 410.216 459.183C409.868 458.691 409.67 458.133 409.622 457.509L411.98 457.401C412.064 457.905 412.274 458.295 412.61 458.571C412.946 458.847 413.444 458.985 414.104 458.985C414.644 458.985 415.064 458.901 415.364 458.733C415.676 458.553 415.832 458.277 415.832 457.905C415.832 457.689 415.778 457.509 415.67 457.365C415.562 457.221 415.358 457.095 415.058 456.987C414.758 456.879 414.314 456.771 413.726 456.663C412.742 456.495 411.968 456.291 411.404 456.051C410.84 455.799 410.438 455.487 410.198 455.115C409.97 454.743 409.856 454.281 409.856 453.729C409.856 452.829 410.198 452.103 410.882 451.551C411.578 450.987 412.592 450.705 413.924 450.705C414.788 450.705 415.514 450.849 416.102 451.137C416.69 451.413 417.146 451.797 417.47 452.289C417.806 452.769 418.016 453.321 418.1 453.945L415.778 454.053C415.718 453.729 415.61 453.447 415.454 453.207C415.298 452.967 415.088 452.787 414.824 452.667C414.56 452.535 414.248 452.469 413.888 452.469C413.348 452.469 412.94 452.577 412.664 452.793C412.388 453.009 412.25 453.297 412.25 453.657C412.25 453.909 412.31 454.119 412.43 454.287C412.562 454.455 412.772 454.593 413.06 454.701C413.348 454.797 413.732 454.887 414.212 454.971C415.22 455.127 416.012 455.331 416.588 455.583C417.176 455.823 417.59 456.135 417.83 456.519C418.082 456.891 418.208 457.341 418.208 457.869C418.208 458.481 418.034 459.003 417.686 459.435C417.35 459.867 416.87 460.197 416.246 460.425C415.634 460.641 414.914 460.749 414.086 460.749ZM423.524 460.533C422.564 460.533 421.856 460.311 421.4 459.867C420.956 459.423 420.734 458.727 420.734 457.779V448.671H423.038V457.563C423.038 458.007 423.134 458.319 423.326 458.499C423.518 458.667 423.818 458.751 424.226 458.751H425.576V460.533H423.524ZM419.222 452.703V450.921H425.576V452.703H419.222ZM427.441 460.533V450.921H429.601L429.691 453.585L429.493 453.549C429.637 452.625 429.907 451.959 430.303 451.551C430.711 451.131 431.263 450.921 431.959 450.921H432.841V452.901H431.941C431.449 452.901 431.041 452.973 430.717 453.117C430.393 453.261 430.147 453.489 429.979 453.801C429.823 454.101 429.745 454.497 429.745 454.989V460.533H427.441ZM436.946 460.749C435.938 460.749 435.128 460.521 434.516 460.065C433.904 459.597 433.598 458.949 433.598 458.121C433.598 457.293 433.856 456.645 434.372 456.177C434.888 455.709 435.674 455.373 436.73 455.169L439.916 454.539C439.916 453.855 439.76 453.345 439.448 453.009C439.136 452.661 438.674 452.487 438.062 452.487C437.51 452.487 437.072 452.619 436.748 452.883C436.436 453.135 436.22 453.501 436.1 453.981L433.76 453.873C433.952 452.853 434.42 452.073 435.164 451.533C435.908 450.981 436.874 450.705 438.062 450.705C439.43 450.705 440.462 451.053 441.158 451.749C441.866 452.433 442.22 453.417 442.22 454.701V458.193C442.22 458.445 442.262 458.619 442.346 458.715C442.442 458.811 442.58 458.859 442.76 458.859H443.066V460.533C442.994 460.557 442.874 460.575 442.706 460.587C442.55 460.599 442.388 460.605 442.22 460.605C441.824 460.605 441.47 460.545 441.158 460.425C440.846 460.293 440.606 460.071 440.438 459.759C440.27 459.435 440.186 458.997 440.186 458.445L440.384 458.589C440.288 459.009 440.078 459.387 439.754 459.723C439.442 460.047 439.046 460.299 438.566 460.479C438.086 460.659 437.546 460.749 436.946 460.749ZM437.414 459.075C437.93 459.075 438.374 458.973 438.746 458.769C439.118 458.565 439.406 458.283 439.61 457.923C439.814 457.563 439.916 457.137 439.916 456.645V456.105L437.432 456.609C436.916 456.717 436.544 456.879 436.316 457.095C436.1 457.299 435.992 457.569 435.992 457.905C435.992 458.277 436.112 458.565 436.352 458.769C436.604 458.973 436.958 459.075 437.414 459.075ZM447.922 460.533C446.962 460.533 446.254 460.311 445.798 459.867C445.354 459.423 445.132 458.727 445.132 457.779V448.671H447.436V457.563C447.436 458.007 447.532 458.319 447.724 458.499C447.916 458.667 448.216 458.751 448.624 458.751H449.974V460.533H447.922ZM443.62 452.703V450.921H449.974V452.703H443.62ZM455.664 460.749C454.704 460.749 453.87 460.545 453.162 460.137C452.454 459.717 451.908 459.129 451.524 458.373C451.14 457.617 450.948 456.735 450.948 455.727C450.948 454.719 451.14 453.843 451.524 453.099C451.908 452.343 452.448 451.755 453.144 451.335C453.852 450.915 454.674 450.705 455.61 450.705C456.522 450.705 457.32 450.909 458.004 451.317C458.7 451.725 459.234 452.313 459.606 453.081C459.978 453.849 460.164 454.773 460.164 455.853V456.375H453.342C453.39 457.215 453.618 457.851 454.026 458.283C454.446 458.703 454.998 458.913 455.682 458.913C456.198 458.913 456.624 458.799 456.96 458.571C457.308 458.331 457.548 458.001 457.68 457.581L460.038 457.725C459.774 458.661 459.252 459.399 458.472 459.939C457.704 460.479 456.768 460.749 455.664 460.749ZM453.342 454.827H457.788C457.74 454.047 457.518 453.471 457.122 453.099C456.726 452.715 456.222 452.523 455.61 452.523C454.998 452.523 454.488 452.721 454.08 453.117C453.684 453.513 453.438 454.083 453.342 454.827ZM454.638 449.877L455.736 447.357H458.058L456.438 449.877H454.638ZM466.069 463.449C465.229 463.449 464.509 463.335 463.909 463.107C463.309 462.879 462.823 462.555 462.451 462.135C462.091 461.727 461.839 461.253 461.695 460.713L464.071 460.551C464.191 460.911 464.395 461.193 464.683 461.397C464.983 461.601 465.445 461.703 466.069 461.703C466.777 461.703 467.323 461.541 467.707 461.217C468.091 460.905 468.283 460.413 468.283 459.741V458.517C468.055 458.985 467.689 459.363 467.185 459.651C466.681 459.927 466.117 460.065 465.493 460.065C464.701 460.065 463.993 459.873 463.369 459.489C462.757 459.093 462.277 458.547 461.929 457.851C461.581 457.143 461.407 456.327 461.407 455.403C461.407 454.479 461.575 453.669 461.911 452.973C462.259 452.265 462.739 451.713 463.351 451.317C463.963 450.909 464.665 450.705 465.457 450.705C466.153 450.705 466.753 450.861 467.257 451.173C467.761 451.485 468.127 451.899 468.355 452.415V450.921H470.605V459.687C470.605 460.503 470.413 461.193 470.029 461.757C469.657 462.321 469.129 462.741 468.445 463.017C467.773 463.305 466.981 463.449 466.069 463.449ZM466.033 458.265C466.717 458.265 467.263 458.013 467.671 457.509C468.079 456.993 468.289 456.285 468.301 455.385C468.313 454.785 468.223 454.275 468.031 453.855C467.851 453.423 467.587 453.093 467.239 452.865C466.903 452.625 466.501 452.505 466.033 452.505C465.325 452.505 464.773 452.769 464.377 453.297C463.993 453.813 463.801 454.509 463.801 455.385C463.801 456.261 463.999 456.963 464.395 457.491C464.803 458.007 465.349 458.265 466.033 458.265ZM472.951 460.533V450.921H475.255V460.533H472.951ZM472.915 449.643V447.591H475.309V449.643H472.915ZM481.785 460.749C480.825 460.749 479.991 460.545 479.283 460.137C478.575 459.717 478.023 459.129 477.627 458.373C477.243 457.617 477.051 456.735 477.051 455.727C477.051 454.719 477.243 453.843 477.627 453.099C478.023 452.343 478.575 451.755 479.283 451.335C479.991 450.915 480.825 450.705 481.785 450.705C482.601 450.705 483.327 450.849 483.963 451.137C484.599 451.425 485.115 451.839 485.511 452.379C485.919 452.907 486.171 453.555 486.267 454.323L483.891 454.449C483.795 453.837 483.555 453.375 483.171 453.063C482.799 452.739 482.337 452.577 481.785 452.577C481.041 452.577 480.465 452.859 480.057 453.423C479.649 453.975 479.445 454.743 479.445 455.727C479.445 456.723 479.649 457.497 480.057 458.049C480.465 458.601 481.041 458.877 481.785 458.877C482.349 458.877 482.817 458.715 483.189 458.391C483.573 458.067 483.807 457.563 483.891 456.879L486.267 456.987C486.171 457.755 485.925 458.421 485.529 458.985C485.133 459.549 484.617 459.987 483.981 460.299C483.345 460.599 482.613 460.749 481.785 460.749ZM490.805 460.749C489.797 460.749 488.987 460.521 488.375 460.065C487.763 459.597 487.457 458.949 487.457 458.121C487.457 457.293 487.715 456.645 488.231 456.177C488.747 455.709 489.533 455.373 490.589 455.169L493.775 454.539C493.775 453.855 493.619 453.345 493.307 453.009C492.995 452.661 492.533 452.487 491.921 452.487C491.369 452.487 490.931 452.619 490.607 452.883C490.295 453.135 490.079 453.501 489.959 453.981L487.619 453.873C487.811 452.853 488.279 452.073 489.023 451.533C489.767 450.981 490.733 450.705 491.921 450.705C493.289 450.705 494.321 451.053 495.017 451.749C495.725 452.433 496.079 453.417 496.079 454.701V458.193C496.079 458.445 496.121 458.619 496.205 458.715C496.301 458.811 496.439 458.859 496.619 458.859H496.925V460.533C496.853 460.557 496.733 460.575 496.565 460.587C496.409 460.599 496.247 460.605 496.079 460.605C495.683 460.605 495.329 460.545 495.017 460.425C494.705 460.293 494.465 460.071 494.297 459.759C494.129 459.435 494.045 458.997 494.045 458.445L494.243 458.589C494.147 459.009 493.937 459.387 493.613 459.723C493.301 460.047 492.905 460.299 492.425 460.479C491.945 460.659 491.405 460.749 490.805 460.749ZM491.273 459.075C491.789 459.075 492.233 458.973 492.605 458.769C492.977 458.565 493.265 458.283 493.469 457.923C493.673 457.563 493.775 457.137 493.775 456.645V456.105L491.291 456.609C490.775 456.717 490.403 456.879 490.175 457.095C489.959 457.299 489.851 457.569 489.851 457.905C489.851 458.277 489.971 458.565 490.211 458.769C490.463 458.973 490.817 459.075 491.273 459.075Z" fill="#FFFFEE"/>
<path d="M117.723 455.82V456.32H117.223V455.82H117.723ZM260.914 455.467C261.109 455.662 261.109 455.979 260.914 456.174L257.732 459.356C257.536 459.551 257.22 459.551 257.024 459.356C256.829 459.161 256.829 458.844 257.024 458.649L259.853 455.82L257.024 452.992C256.829 452.797 256.829 452.48 257.024 452.285C257.22 452.09 257.536 452.09 257.732 452.285L260.914 455.467ZM117.723 404.886H118.223V455.82H117.723H117.223V404.886H117.723ZM117.723 455.82V455.32H260.56V455.82V456.32H117.723V455.82Z" fill="#FFFFEE"/>
</g>
<defs>
<clipPath id="clip0_4752_7160">
<rect width="616" height="616" fill="white"/>
</clipPath>
</defs>
</svg>
