<svg width="580" height="124" viewBox="0 0 580 124" fill="none" xmlns="http://www.w3.org/2000/svg">
<path d="M159.286 122.083V83.8102C159.286 81.5711 159.286 79.6705 159.286 78.1083C159.286 76.5462 159.286 75.0881 159.286 73.7343C159.286 69.6726 158.658 66.1057 157.402 63.0334C156.147 59.9091 154.08 57.4877 151.201 55.7693C148.323 53.9989 144.477 53.1137 139.663 53.1137C135.424 53.1137 131.578 54.1551 128.124 56.238C124.723 58.3209 122.002 61.1588 119.961 64.7518C117.973 68.2927 116.978 72.3283 116.978 76.8586L109.678 73.2656C109.678 66.5483 111.275 60.534 114.467 55.2226C117.659 49.8591 121.923 45.6153 127.261 42.4909C132.651 39.3666 138.538 37.8044 144.922 37.8044C151.515 37.8044 157.141 39.0802 161.798 41.6317C166.508 44.1312 170.092 47.7242 172.552 52.4107C175.063 57.0451 176.319 62.5908 176.319 69.0478C176.319 71.4431 176.319 74.0988 176.319 77.0148C176.319 79.9308 176.319 82.7427 176.319 85.4505V122.083H159.286ZM99.9453 122.083V39.1323H116.978V122.083H99.9453Z" fill="white"/>
<path d="M220.283 123.567C214.37 123.567 209.451 122.578 205.526 120.599C201.602 118.568 198.488 115.939 196.185 112.71C193.883 109.43 192.261 105.863 191.319 102.009C190.377 98.104 189.906 94.3028 189.906 90.6057C189.906 88.679 189.906 86.6742 189.906 84.5913C189.906 82.4563 189.906 80.3214 189.906 78.1864V39.1323H207.018V75.7651C207.018 77.6397 207.018 79.4882 207.018 81.3108C207.018 83.0812 207.018 84.7475 207.018 86.3097C207.018 90.3193 207.541 94.0164 208.587 97.4011C209.634 100.734 211.466 103.441 214.082 105.524C216.751 107.555 220.466 108.571 225.228 108.571C229.676 108.571 233.548 107.269 236.845 104.665C240.142 102.009 242.706 98.6768 244.537 94.6673C246.369 90.6057 247.285 86.544 247.285 82.4824L254.742 86.4659C254.742 91.2566 253.93 95.8649 252.308 100.291C250.738 104.717 248.462 108.701 245.479 112.242C242.497 115.73 238.86 118.49 234.569 120.521C230.33 122.552 225.568 123.567 220.283 123.567ZM247.285 122.083V39.1323H264.318V122.083H247.285ZM215.259 26.6349L234.019 6.87354H248.462L227.818 26.6349H215.259Z" fill="white"/>
<path d="M318.451 123.724C310.078 123.724 302.569 121.979 295.924 118.49C289.33 114.949 284.123 109.924 280.303 103.415C276.536 96.9064 274.652 89.2518 274.652 80.4516C274.652 71.6514 276.536 64.0749 280.303 57.722C284.123 51.3172 289.33 46.3963 295.924 42.9596C302.569 39.5228 310.078 37.8044 318.451 37.8044C324.783 37.8044 330.408 38.7678 335.327 40.6944C340.246 42.569 344.406 45.0685 347.808 48.1928C351.209 51.3172 353.799 54.7539 355.578 58.5031C357.358 62.2523 358.247 66.0015 358.247 69.7507C358.247 69.8028 358.247 69.8809 358.247 69.9851C358.247 70.0892 358.247 70.1933 358.247 70.2975H341.371C341.371 70.0371 341.345 69.7507 341.293 69.4383C341.24 69.0738 341.188 68.7353 341.136 68.4229C340.717 65.3506 339.514 62.6168 337.525 60.2215C335.537 57.8262 332.92 55.9256 329.676 54.5196C326.431 53.1137 322.637 52.4107 318.294 52.4107C313.532 52.4107 309.137 53.4521 305.107 55.535C301.13 57.5658 297.938 60.6641 295.531 64.8299C293.124 68.9957 291.92 74.2029 291.92 80.4516C291.92 86.7002 293.098 91.9595 295.453 96.2294C297.86 100.447 301.052 103.65 305.029 105.837C309.058 108.024 313.48 109.117 318.294 109.117C323.475 109.117 327.713 108.336 331.01 106.774C334.307 105.16 336.792 103.025 338.467 100.369C340.141 97.6614 341.11 94.7454 341.371 91.6211H358.247C358.247 95.3703 357.384 99.1715 355.657 103.025C353.93 106.826 351.392 110.289 348.043 113.413C344.694 116.538 340.534 119.037 335.563 120.912C330.644 122.786 324.94 123.724 318.451 123.724Z" fill="white"/>
<path d="M387.189 0V122.083H370.392V0H387.189Z" fill="white"/>
<path d="M408.189 86.544V73.3437H469.57L467.216 77.2491C467.216 76.9367 467.216 76.6243 467.216 76.3118C467.216 75.9473 467.216 75.6349 467.216 75.3745C467.216 71.1567 466.3 67.2773 464.468 63.7364C462.637 60.1434 459.89 57.2794 456.227 55.1445C452.616 52.9574 448.089 51.8639 442.647 51.8639C437.205 51.8639 432.417 53.0355 428.283 55.3788C424.201 57.67 421.009 60.9505 418.707 65.2204C416.457 69.4383 415.331 74.5153 415.331 80.4516C415.331 86.4919 416.43 91.6992 418.628 96.0732C420.826 100.395 423.992 103.728 428.126 106.071C432.26 108.414 437.205 109.586 442.961 109.586C446.99 109.586 450.47 109.195 453.401 108.414C456.384 107.581 458.817 106.488 460.701 105.134C462.637 103.78 464.102 102.322 465.096 100.76C466.091 99.1455 466.666 97.5573 466.823 95.9951H483.778C483.464 99.3798 482.339 102.738 480.402 106.071C478.519 109.352 475.824 112.346 472.318 115.054C468.864 117.709 464.625 119.844 459.602 121.458C454.631 123.021 448.9 123.802 442.412 123.802C433.725 123.802 426.111 121.979 419.57 118.334C413.029 114.689 407.927 109.638 404.264 103.181C400.601 96.6721 398.769 89.2257 398.769 80.8421C398.769 72.3023 400.627 64.8039 404.342 58.3469C408.058 51.89 413.212 46.865 419.806 43.272C426.399 39.627 433.961 37.8044 442.49 37.8044C451.177 37.8044 458.686 39.627 465.018 43.272C471.402 46.9171 476.321 51.942 479.775 58.3469C483.228 64.7518 484.955 72.12 484.955 80.4516C484.955 81.4409 484.929 82.5865 484.877 83.8883C484.824 85.1901 484.746 86.0754 484.641 86.544H408.189Z" fill="white"/>
<path d="M536.358 123.645C527.776 123.645 520.189 121.797 513.595 118.1C507.054 114.403 501.926 109.326 498.211 102.869C494.548 96.3596 492.716 88.9133 492.716 80.5297C492.716 72.1981 494.548 64.8299 498.211 58.425C501.926 51.9681 507.054 46.9431 513.595 43.3501C520.189 39.7051 527.776 37.8825 536.358 37.8825C544.94 37.8825 552.502 39.7051 559.043 43.3501C565.636 46.9431 570.765 51.9681 574.428 58.425C578.143 64.8299 580.001 72.1981 580.001 80.5297C580.001 88.9133 578.143 96.3596 574.428 102.869C570.765 109.326 565.636 114.403 559.043 118.1C552.502 121.797 544.94 123.645 536.358 123.645ZM536.358 109.117C541.591 109.117 546.196 107.946 550.173 105.602C554.15 103.259 557.264 99.9526 559.514 95.6827C561.764 91.3607 562.889 86.3097 562.889 80.5297C562.889 74.8017 561.764 69.8288 559.514 65.611C557.264 61.3931 554.15 58.1386 550.173 55.8474C546.196 53.5563 541.591 52.4107 536.358 52.4107C531.178 52.4107 526.573 53.5563 522.544 55.8474C518.567 58.1386 515.453 61.3931 513.203 65.611C510.953 69.8288 509.828 74.8017 509.828 80.5297C509.828 86.3097 510.953 91.3607 513.203 95.6827C515.453 99.9526 518.567 103.259 522.544 105.602C526.573 107.946 531.178 109.117 536.358 109.117Z" fill="white"/>
<path d="M82.9357 76.279C82.9357 78.4359 81.1786 80.1844 79.0111 80.1844H46.6885C44.5209 80.1844 42.7638 78.4359 42.7638 76.279V44.7597C42.7638 42.6028 44.5209 40.8542 46.6885 40.8542H79.0111C81.1786 40.8542 82.9357 42.6028 82.9357 44.7597V76.279Z" fill="#6D28FF"/>
<path d="M39.6162 120.094C39.6162 122.251 37.8591 124 35.6916 124H4.0169C1.84936 124 0.0922239 122.251 0.0922239 120.094V87.9302C0.0922239 85.7733 1.84936 84.0248 4.01689 84.0248H35.6916C37.8591 84.0248 39.6162 85.7733 39.6162 87.9302V120.094Z" fill="#6D28FF"/>
<path d="M82.9357 120.094C82.9357 122.251 81.1786 124 79.0111 124H46.6885C44.5209 124 42.7638 122.251 42.7638 120.094V87.9302C42.7638 85.7733 44.5209 84.0248 46.6885 84.0248H79.0111C81.1786 84.0248 82.9357 85.7733 82.9357 87.9302V120.094Z" fill="#6D28FF"/>
<path d="M39.524 36.3039C39.524 38.4608 37.7669 40.2093 35.5993 40.2093H3.92466C1.75713 40.2093 0 38.4608 0 36.3039V4.13979C0 1.98289 1.75713 0.234375 3.92467 0.234375H35.5993C37.7669 0.234375 39.524 1.98289 39.524 4.13979V36.3039Z" fill="#6D28FF"/>
</svg>
