<svg width="739" height="159" viewBox="0 0 739 159" fill="none" xmlns="http://www.w3.org/2000/svg">
<path d="M202.928 156.3V107.3C202.928 104.433 202.928 102 202.928 100C202.928 98 202.928 96.1333 202.928 94.4C202.928 89.2 202.128 84.6333 200.528 80.7C198.928 76.7 196.295 73.6 192.628 71.4C188.961 69.1333 184.061 68 177.928 68C172.528 68 167.628 69.3333 163.228 72C158.895 74.6667 155.428 78.3 152.828 82.9C150.295 87.4333 149.028 92.6 149.028 98.4L139.728 93.8C139.728 85.2 141.761 77.5 145.828 70.7C149.895 63.8333 155.328 58.4 162.128 54.4C168.995 50.4 176.495 48.4 184.628 48.4C193.028 48.4 200.195 50.0333 206.128 53.3C212.128 56.5 216.695 61.1 219.828 67.1C223.028 73.0333 224.628 80.1333 224.628 88.4C224.628 91.4667 224.628 94.8667 224.628 98.6C224.628 102.333 224.628 105.933 224.628 109.4V156.3H202.928ZM127.328 156.3V50.1H149.028V156.3H127.328Z" fill="black"/>
<path d="M280.637 158.2C273.104 158.2 266.838 156.933 261.838 154.4C256.838 151.8 252.871 148.433 249.938 144.3C247.004 140.1 244.938 135.533 243.738 130.6C242.538 125.6 241.938 120.733 241.938 116C241.938 113.533 241.938 110.967 241.938 108.3C241.938 105.567 241.938 102.833 241.938 100.1V50.1H263.738V97C263.738 99.4 263.738 101.767 263.738 104.1C263.738 106.367 263.738 108.5 263.738 110.5C263.738 115.633 264.404 120.367 265.738 124.7C267.071 128.967 269.404 132.433 272.738 135.1C276.138 137.7 280.871 139 286.938 139C292.604 139 297.538 137.333 301.738 134C305.938 130.6 309.204 126.333 311.538 121.2C313.871 116 315.038 110.8 315.038 105.6L324.538 110.7C324.538 116.833 323.504 122.733 321.438 128.4C319.438 134.067 316.538 139.167 312.738 143.7C308.938 148.167 304.304 151.7 298.838 154.3C293.438 156.9 287.371 158.2 280.637 158.2ZM315.038 156.3V50.1H336.738V156.3H315.038ZM274.238 34.1L298.138 8.80001H316.538L290.238 34.1H274.238Z" fill="black"/>
<path d="M405.703 158.4C395.036 158.4 385.47 156.167 377.003 151.7C368.603 147.167 361.97 140.733 357.103 132.4C352.303 124.067 349.903 114.267 349.903 103C349.903 91.7333 352.303 82.0333 357.103 73.9C361.97 65.7 368.603 59.4 377.003 55C385.47 50.6 395.036 48.4 405.703 48.4C413.77 48.4 420.936 49.6333 427.203 52.1C433.47 54.5 438.77 57.7 443.103 61.7C447.436 65.7 450.736 70.1 453.003 74.9C455.27 79.7 456.403 84.5 456.403 89.3C456.403 89.3667 456.403 89.4667 456.403 89.6C456.403 89.7333 456.403 89.8667 456.403 90H434.903C434.903 89.6667 434.87 89.3 434.803 88.9C434.736 88.4333 434.67 88 434.603 87.6C434.07 83.6667 432.536 80.1667 430.003 77.1C427.47 74.0333 424.136 71.6 420.003 69.8C415.87 68 411.036 67.1 405.503 67.1C399.436 67.1 393.836 68.4333 388.703 71.1C383.636 73.7 379.57 77.6667 376.503 83C373.436 88.3333 371.903 95 371.903 103C371.903 111 373.403 117.733 376.403 123.2C379.47 128.6 383.536 132.7 388.603 135.5C393.736 138.3 399.37 139.7 405.503 139.7C412.103 139.7 417.503 138.7 421.703 136.7C425.903 134.633 429.07 131.9 431.203 128.5C433.336 125.033 434.57 121.3 434.903 117.3H456.403C456.403 122.1 455.303 126.967 453.103 131.9C450.903 136.767 447.67 141.2 443.403 145.2C439.136 149.2 433.836 152.4 427.503 154.8C421.236 157.2 413.97 158.4 405.703 158.4Z" fill="black"/>
<path d="M493.275 0V156.3H471.875V0H493.275Z" fill="black"/>
<path d="M520.028 110.8V93.9H598.228L595.228 98.9C595.228 98.5 595.228 98.1 595.228 97.7C595.228 97.2333 595.228 96.8333 595.228 96.5C595.228 91.1 594.061 86.1333 591.728 81.6C589.395 77 585.895 73.3333 581.228 70.6C576.628 67.8 570.861 66.4 563.928 66.4C556.995 66.4 550.895 67.9 545.628 70.9C540.428 73.8333 536.361 78.0333 533.428 83.5C530.561 88.9 529.128 95.4 529.128 103C529.128 110.733 530.528 117.4 533.328 123C536.128 128.533 540.161 132.8 545.428 135.8C550.695 138.8 556.995 140.3 564.328 140.3C569.461 140.3 573.895 139.8 577.628 138.8C581.428 137.733 584.528 136.333 586.928 134.6C589.395 132.867 591.261 131 592.528 129C593.795 126.933 594.528 124.9 594.728 122.9H616.328C615.928 127.233 614.495 131.533 612.028 135.8C609.628 140 606.195 143.833 601.728 147.3C597.328 150.7 591.928 153.433 585.528 155.5C579.195 157.5 571.895 158.5 563.628 158.5C552.561 158.5 542.861 156.167 534.528 151.5C526.195 146.833 519.695 140.367 515.028 132.1C510.361 123.767 508.028 114.233 508.028 103.5C508.028 92.5667 510.395 82.9667 515.128 74.7C519.861 66.4333 526.428 60 534.828 55.4C543.228 50.7333 552.861 48.4 563.728 48.4C574.795 48.4 584.361 50.7333 592.428 55.4C600.561 60.0667 606.828 66.5 611.228 74.7C615.628 82.9 617.828 92.3333 617.828 103C617.828 104.267 617.795 105.733 617.728 107.4C617.661 109.067 617.561 110.2 617.428 110.8H520.028Z" fill="black"/>
<path d="M683.316 158.3C672.382 158.3 662.716 155.933 654.316 151.2C645.982 146.467 639.449 139.967 634.716 131.7C630.049 123.367 627.716 113.833 627.716 103.1C627.716 92.4333 630.049 83 634.716 74.8C639.449 66.5333 645.982 60.1 654.316 55.5C662.716 50.8333 672.382 48.5 683.316 48.5C694.249 48.5 703.882 50.8333 712.216 55.5C720.616 60.1 727.149 66.5333 731.816 74.8C736.549 83 738.916 92.4333 738.916 103.1C738.916 113.833 736.549 123.367 731.816 131.7C727.149 139.967 720.616 146.467 712.216 151.2C703.882 155.933 694.249 158.3 683.316 158.3ZM683.316 139.7C689.982 139.7 695.849 138.2 700.916 135.2C705.982 132.2 709.949 127.967 712.816 122.5C715.682 116.967 717.116 110.5 717.116 103.1C717.116 95.7667 715.682 89.4 712.816 84C709.949 78.6 705.982 74.4333 700.916 71.5C695.849 68.5667 689.982 67.1 683.316 67.1C676.716 67.1 670.849 68.5667 665.716 71.5C660.649 74.4333 656.682 78.6 653.816 84C650.949 89.4 649.516 95.7667 649.516 103.1C649.516 110.5 650.949 116.967 653.816 122.5C656.682 127.967 660.649 132.2 665.716 135.2C670.849 138.2 676.716 139.7 683.316 139.7Z" fill="black"/>
<path d="M105.66 97.6586C105.66 100.42 103.421 102.659 100.66 102.659H59.4808C56.7194 102.659 54.4808 100.42 54.4808 97.6586V57.3053C54.4808 54.5439 56.7194 52.3053 59.4808 52.3053H100.66C103.421 52.3053 105.66 54.5439 105.66 57.3053V97.6586Z" fill="#6D28FF"/>
<path d="M50.4708 153.754C50.4708 156.516 48.2323 158.754 45.4708 158.754H5.1175C2.35608 158.754 0.117493 156.516 0.117493 153.754V112.575C0.117493 109.814 2.35607 107.575 5.11749 107.575H45.4708C48.2322 107.575 50.4708 109.814 50.4708 112.575V153.754Z" fill="#6D28FF"/>
<path d="M105.66 153.754C105.66 156.516 103.421 158.754 100.66 158.754H59.4808C56.7194 158.754 54.4808 156.516 54.4808 153.754V112.575C54.4808 109.814 56.7194 107.575 59.4808 107.575H100.66C103.421 107.575 105.66 109.814 105.66 112.575V153.754Z" fill="#6D28FF"/>
<path d="M50.3533 46.4796C50.3533 49.241 48.1148 51.4796 45.3533 51.4796H4.99999C2.23857 51.4796 0 49.241 0 46.4796V5.30078C0 2.53936 2.23857 0.300781 5 0.300781H45.3533C48.1148 0.300781 50.3533 2.53936 50.3533 5.30078V46.4796Z" fill="#6D28FF"/>
</svg>
