<svg width="48" height="26" viewBox="0 0 48 26" fill="none" xmlns="http://www.w3.org/2000/svg">
<path d="M25.6514 5.35156V20.8255H22.9581V5.35156H0V26.0001H48V5.35156H25.6514ZM10.4002 19.0031C10.2214 19.4053 9.95736 19.763 9.6267 20.0512C9.26118 20.3671 8.83972 20.6105 8.38455 20.7684C7.84163 20.9557 7.27059 21.0463 6.6969 21.0363C6.01644 21.0309 5.34162 20.9112 4.70017 20.6821C4.0139 20.4439 3.3836 20.0657 2.84854 19.571L4.37947 17.7105C4.7388 18.0023 5.13567 18.2436 5.55923 18.4278C5.93431 18.6016 6.34082 18.6958 6.7535 18.7045C7.15981 18.7045 7.45438 18.6415 7.63722 18.5156C7.72475 18.4574 7.79587 18.3774 7.84368 18.2832C7.89148 18.1891 7.91433 18.0841 7.91003 17.9784C7.91425 17.8661 7.88161 17.7554 7.81716 17.6637C7.7407 17.5686 7.64778 17.4882 7.5429 17.4266C7.40329 17.3449 7.25776 17.2739 7.10757 17.2143C6.94069 17.1455 6.74769 17.0679 6.52712 16.986L5.28061 16.4531C5.00462 16.3454 4.74211 16.2054 4.49846 16.0359C4.25101 15.8647 4.02999 15.6575 3.84256 15.4211C3.65115 15.1766 3.50066 14.9022 3.39706 14.6087C3.28467 14.2847 3.22918 13.9434 3.23309 13.6002C3.22788 13.1688 3.3228 12.7422 3.51025 12.3544C3.69934 11.9679 3.96505 11.6246 4.29095 11.3459C4.64456 11.0456 5.04986 10.8134 5.48667 10.6608C5.97612 10.4877 6.49172 10.4021 7.01034 10.4076C7.61602 10.4133 8.21591 10.5273 8.78215 10.7443C9.38392 10.9673 9.9291 11.3222 10.3784 11.7836L9.03465 13.486C8.72684 13.2635 8.39419 13.0783 8.04353 12.9341C7.71207 12.8057 7.35957 12.7417 7.00454 12.7453C6.73313 12.7305 6.46283 12.7902 6.22238 12.918C6.13288 12.9707 6.05943 13.0471 6.01005 13.139C5.96066 13.2309 5.93723 13.3347 5.94232 13.4391C5.94232 13.6802 6.07485 13.8666 6.33992 13.9983C6.60499 14.1301 6.97213 14.2852 7.44132 14.4638L8.67622 14.9513C9.25563 15.1612 9.76598 15.529 10.1506 16.014C10.495 16.4648 10.6667 17.0479 10.6657 17.7632C10.6655 18.1909 10.5749 18.6135 10.4002 19.0031ZM20.6886 20.8577H18.0011V16.7913H14.9697V20.8577H12.2822V10.611H14.9697V14.4243H18.0011V10.614H20.6886V20.8577ZM34.5075 12.8726H30.5707V14.8268H34.5075V17.0972H30.5707V20.8446H27.8832V10.5979H34.5075V12.8726ZM44.5202 12.8726H41.8255V20.8446H39.138V12.8726H36.4506V10.5979H44.513L44.5202 12.8726Z" fill="white"/>
<path d="M25.6508 0H22.8574V2.81784H25.6508V0Z" fill="white"/>
</svg>
