<svg width="113" height="27" viewBox="0 0 113 27" fill="none" xmlns="http://www.w3.org/2000/svg">
<g clip-path="url(#clip0_4693_11784)">
<path d="M27.5664 19.1902V5.51855H30.1286V19.1902H27.5664Z" fill="white"/>
<path d="M35.4593 10.6629H35.5019C35.6628 10.4427 35.8488 10.2412 36.0565 10.0621C36.2894 9.85963 36.5463 9.68502 36.8217 9.54197C37.123 9.38687 37.4414 9.2656 37.7708 9.18048C38.1306 9.08573 38.502 9.03935 38.8746 9.04264C39.2338 9.04148 39.5919 9.08251 39.9411 9.16488C40.2758 9.24137 40.5954 9.37049 40.8876 9.54717C41.1804 9.72525 41.4378 9.95343 41.6474 10.2207C41.8781 10.5183 42.054 10.8527 42.1673 11.209C42.2387 11.4333 42.286 11.6643 42.3086 11.8982C42.3326 12.1582 42.3433 12.4339 42.3433 12.7616V19.1904H39.8611V13.1413C39.8611 12.8812 39.8611 12.6472 39.8318 12.4573C39.8173 12.2889 39.7815 12.1229 39.7251 11.9632C39.6248 11.6787 39.422 11.4394 39.1546 11.2896C38.8686 11.1471 38.5504 11.0773 38.2294 11.0868C37.7459 11.0864 37.2694 11.1997 36.8403 11.417C36.3806 11.6518 35.9786 11.981 35.6619 12.3819V19.1904H33.1797V9.28971H35.2326L35.4593 10.6629Z" fill="white"/>
<path d="M54.1393 9.28955L50.212 19.1902H47.7511L43.8105 9.28955H46.4314L47.8444 13.0683C48.2497 14.1328 48.6194 15.1956 48.9536 16.2567H48.9962C49.2895 15.3378 49.653 14.2975 50.0867 13.1359L51.4998 9.29475L54.1393 9.28955Z" fill="white"/>
<path d="M65.2827 14.2438C65.2915 14.967 65.1706 15.686 64.9254 16.3686C64.7062 16.9806 64.3584 17.5413 63.9043 18.0148C63.455 18.4754 62.9095 18.8364 62.3046 19.0732C61.6345 19.3283 60.9202 19.4546 60.201 19.4451C59.4722 19.4548 58.7483 19.3286 58.0681 19.0732C57.4625 18.8376 56.9167 18.4764 56.4684 18.0148C56.0186 17.54 55.6746 16.9795 55.4579 16.3686C55.2159 15.6854 55.0968 14.9666 55.106 14.2438C55.0974 13.5207 55.2183 12.8016 55.4632 12.1191C55.6828 11.508 56.0306 10.9482 56.4844 10.4755C56.9329 10.014 57.4787 9.65293 58.0841 9.417C58.7547 9.16066 59.4701 9.03434 60.1903 9.04511C60.9192 9.03401 61.6435 9.16028 62.3233 9.417C62.9293 9.65167 63.4753 10.013 63.923 10.4755C64.3734 10.9488 64.7176 11.5086 64.9334 12.1191C65.1744 12.8024 65.2925 13.5212 65.2827 14.2438ZM62.7152 14.2438C62.7234 13.7745 62.6605 13.3065 62.5286 12.8551C62.4189 12.4876 62.2379 12.1442 61.9953 11.8434C61.7834 11.5789 61.509 11.3683 61.1955 11.2297C60.8717 11.0925 60.522 11.0234 60.169 11.0268C59.8212 11.0236 59.4768 11.0928 59.1585 11.2297C58.8454 11.3689 58.5711 11.5794 58.3587 11.8434C58.1161 12.1441 57.935 12.4876 57.8254 12.8551C57.6925 13.3064 57.6287 13.7743 57.6361 14.2438C57.6289 14.7141 57.6927 15.1829 57.8254 15.6352C57.9334 16.0009 58.1147 16.3421 58.3587 16.639C58.5737 16.9006 58.8473 17.1105 59.1585 17.2528C59.4792 17.3917 59.8261 17.4635 60.177 17.4635C60.5279 17.4635 60.8748 17.3917 61.1955 17.2528C61.5071 17.1112 61.7809 16.9011 61.9953 16.639C62.2384 16.3415 62.4195 16.0005 62.5286 15.6352C62.6603 15.1828 62.7232 14.714 62.7152 14.2438Z" fill="white"/>
<path d="M67.4824 4.39502H70.0899V7.02168H67.4824V4.39502ZM67.5464 9.28945H70.0286V19.1901H67.5464V9.28945Z" fill="white"/>
<path d="M80.4296 11.8746C81.4338 13.272 82.2506 14.5116 82.8798 15.5935H82.9411C82.8593 13.8146 82.8176 12.5204 82.8158 11.7107V5.51855H85.3833V19.1902H82.6905L78.118 12.8966C77.3199 11.8061 76.4908 10.5413 75.6305 9.10226H75.5692C75.6518 10.7797 75.6945 12.0748 75.6945 13.0032V19.1902H73.127V5.51855H75.8198L80.4296 11.8746Z" fill="white"/>
<path d="M93.647 17.4947C94.1536 17.492 94.6588 17.4432 95.1561 17.349C95.6989 17.2517 96.2336 17.1152 96.7558 16.9407V18.873C96.2783 19.0512 95.7834 19.181 95.2787 19.2605C94.5982 19.3847 93.9074 19.4465 93.2151 19.4451C92.5235 19.4514 91.8344 19.3639 91.1675 19.1851C90.5464 19.0153 89.9699 18.7173 89.4771 18.3113C88.9768 17.8843 88.5844 17.3503 88.3307 16.7509C88.0276 16.0069 87.8833 15.2105 87.9068 14.4103C87.8892 13.6069 88.0239 12.8072 88.304 12.0515C88.536 11.4261 88.8992 10.8547 89.3705 10.3741C89.8034 9.93981 90.3259 9.60029 90.9035 9.37801C91.4722 9.15863 92.0783 9.04655 92.6899 9.04772C93.2944 9.04065 93.8954 9.13748 94.4655 9.3338C94.9997 9.51946 95.4805 9.8271 95.8679 10.231C96.2859 10.6858 96.5978 11.2234 96.7824 11.807C97.0163 12.5462 97.1279 13.317 97.113 14.0904C97.113 14.4311 97.0944 14.7224 97.081 14.959H90.4316C90.4532 15.366 90.5603 15.7643 90.7462 16.1293C90.9107 16.4369 91.145 16.7038 91.4314 16.9095C91.73 17.1163 92.0668 17.2646 92.4232 17.3464C92.8232 17.4455 93.2343 17.4953 93.647 17.4947ZM92.6525 10.9228C92.3747 10.9185 92.0992 10.9736 91.8454 11.0841C91.5917 11.1946 91.3657 11.3579 91.1835 11.5626C91.0018 11.7624 90.8583 11.9922 90.7596 12.2413C90.6541 12.5071 90.5842 12.7851 90.5516 13.0683H94.5508C94.5525 12.7884 94.5121 12.5098 94.4309 12.2413C94.3565 11.9957 94.2363 11.7656 94.0763 11.5626C93.9187 11.3681 93.7182 11.2107 93.4897 11.1022C93.2287 10.9799 92.9421 10.9184 92.6525 10.9228Z" fill="white"/>
<path d="M105.619 19.18C105.291 19.2706 104.956 19.3349 104.617 19.3725C104.258 19.4196 103.896 19.444 103.534 19.4453C102.815 19.4719 102.099 19.3338 101.444 19.0422C100.932 18.8018 100.525 18.3902 100.298 17.8823C100.118 17.412 100.037 16.9116 100.058 16.4103V11.2818H98.1621V9.28972H100.058V6.52002H102.54V9.28972H105.473V11.2818H102.54V16.093C102.52 16.3859 102.58 16.6788 102.716 16.9408C102.927 17.2633 103.343 17.4246 103.964 17.4246C104.249 17.425 104.535 17.4033 104.817 17.3595C105.086 17.3173 105.353 17.2609 105.617 17.1905L105.619 19.18Z" fill="white"/>
<path d="M11.6786 3.66446L18.9945 4.06236C19.8119 3.58857 20.6766 3.19732 21.5754 2.89467L10.1322 2.27051C6.10628 11.339 9.59896 21.6402 9.59896 21.6402C9.5788 20.1411 9.69569 18.6433 9.94822 17.1645C9.5243 13.4143 9.59896 8.37425 11.6786 3.66446Z" fill="white"/>
<path d="M24.8597 5.33936C23.6792 5.97638 22.5787 6.74528 21.5804 7.63053C21.0151 9.79948 20.6739 13.1543 21.4231 18.0774L13.2726 21.9992C13.126 22.6727 13.006 23.3645 12.8887 24.0797L23.1694 19.1384C21.5964 8.75662 24.8597 5.33936 24.8597 5.33936Z" fill="white"/>
<path d="M13.2715 22.0092L21.4193 18.0875C20.6701 13.1644 21.0114 9.80957 21.5793 7.64062C18.7505 10.067 14.8818 14.5974 13.2715 22.0092Z" fill="white"/>
<path d="M18.9931 4.06245L11.6745 3.66455C9.59753 8.37434 9.52021 13.4144 9.94413 17.1646C11.2425 9.57064 15.9777 5.75808 18.9931 4.06245Z" fill="white"/>
<path d="M18.9943 4.06201C15.9788 5.75764 11.2464 9.5702 9.94531 17.1641C10.1544 19.1505 10.5552 21.1131 11.1424 23.026L13.2754 21.9987C14.875 14.5869 18.7543 10.0591 21.5831 7.63271C22.2097 5.2245 23.1135 4.27787 23.1135 4.27787L18.9943 4.06201Z" fill="#EBEBEB"/>
</g>
<defs>
<clipPath id="clip0_4693_11784">
<rect width="113" height="27" fill="white"/>
</clipPath>
</defs>
</svg>
