<svg width="105" height="19" viewBox="0 0 105 19" fill="none" xmlns="http://www.w3.org/2000/svg">
<g clip-path="url(#clip0_4693_11807)">
<mask id="mask0_4693_11807" style="mask-type:luminance" maskUnits="userSpaceOnUse" x="0" y="0" width="105" height="19">
<path d="M105 0H0V19H105V0Z" fill="white"/>
</mask>
<g mask="url(#mask0_4693_11807)">
<path d="M2.58977 18.9694C4.23442 16.1901 5.17953 12.9521 5.17953 9.495C5.17953 6.03785 4.23442 2.79984 2.58977 0.0185547C0.94511 2.79984 0 6.03785 0 9.495C0 12.9521 0.94511 16.1901 2.58977 18.9694Z" fill="white"/>
<path d="M2.625 -2.95924e-05C4.22838 2.80379 6.58084 5.23485 9.59776 6.96343C12.6147 8.69201 15.9122 9.49895 19.1603 9.47642C17.5569 6.6726 15.2044 4.24154 12.1875 2.51296C9.17061 0.784384 5.87304 -0.0225584 2.625 -2.95924e-05Z" fill="white"/>
<path d="M2.625 18.9999C4.22838 16.1961 6.58084 13.765 9.59776 12.0364C12.6147 10.3078 15.9122 9.50088 19.1603 9.52341C17.5569 12.3272 15.2044 14.7583 12.1875 16.4869C9.17061 18.2155 5.87304 19.0224 2.625 18.9999Z" fill="#F2F2F2"/>
<path d="M27.3825 10.5907H30.7791C31.1258 10.5907 31.4147 10.7279 31.6417 11.0003C31.8687 11.2747 31.9842 11.6065 31.9842 11.9997C31.9842 12.393 31.8584 12.7309 31.6066 12.9808C31.3549 13.2306 31.0371 13.3556 30.6532 13.3556H27.3825V10.5907ZM27.3825 5.66712H30.385C30.6966 5.66712 30.9628 5.77976 31.1856 6.0071C31.4064 6.23239 31.5179 6.55393 31.5179 6.96969C31.5179 7.42232 31.392 7.75411 31.1402 7.96915C30.8885 8.1842 30.6017 8.2907 30.2777 8.2907H27.3846V5.66712H27.3825ZM24.4337 3.16846V15.8358H30.6532C31.2393 15.8358 31.7965 15.7682 32.3247 15.631C32.8509 15.4938 33.3132 15.291 33.7094 15.0247C34.1056 14.7564 34.4172 14.4206 34.6442 14.0171C34.8712 13.6136 34.9846 13.1364 34.9846 12.5896C34.9846 11.7335 34.7721 11.031 34.347 10.4842C33.9219 9.93736 33.3421 9.55641 32.6116 9.34137C33.2224 9.06897 33.6805 8.66345 33.9859 8.1289C34.2913 7.59436 34.444 7.02294 34.444 6.41671C34.444 6.01324 34.3759 5.61592 34.2376 5.23088C34.0994 4.84379 33.9054 4.49971 33.6537 4.1966C33.4019 3.89348 33.0965 3.64771 32.7374 3.45724C32.3784 3.26677 31.976 3.17256 31.5323 3.17256H24.4316L24.4337 3.16846Z" fill="white"/>
<mask id="mask1_4693_11807" style="mask-type:luminance" maskUnits="userSpaceOnUse" x="24" y="3" width="11" height="13">
<path d="M27.3825 10.5907H30.7791C31.1258 10.5907 31.4147 10.7279 31.6417 11.0003C31.8687 11.2747 31.9842 11.6065 31.9842 11.9997C31.9842 12.393 31.8584 12.7309 31.6066 12.9808C31.3549 13.2306 31.0371 13.3556 30.6532 13.3556H27.3825V10.5907ZM27.3825 5.66712H30.385C30.6966 5.66712 30.9628 5.77976 31.1856 6.0071C31.4064 6.23239 31.5179 6.55393 31.5179 6.96969C31.5179 7.42232 31.392 7.75411 31.1402 7.96915C30.8885 8.1842 30.6017 8.2907 30.2777 8.2907H27.3846V5.66712H27.3825ZM24.4337 3.16846V15.8358H30.6532C31.2393 15.8358 31.7965 15.7682 32.3247 15.631C32.8509 15.4938 33.3132 15.291 33.7094 15.0247C34.1056 14.7564 34.4172 14.4206 34.6442 14.0171C34.8712 13.6136 34.9846 13.1364 34.9846 12.5896C34.9846 11.7335 34.7721 11.031 34.347 10.4842C33.9219 9.93736 33.3421 9.55641 32.6116 9.34137C33.2224 9.06897 33.6805 8.66345 33.9859 8.1289C34.2913 7.59436 34.444 7.02294 34.444 6.41671C34.444 6.01324 34.3759 5.61592 34.2376 5.23088C34.0994 4.84379 33.9054 4.49971 33.6537 4.1966C33.4019 3.89348 33.0965 3.64771 32.7374 3.45724C32.3784 3.26677 31.976 3.17256 31.5323 3.17256H24.4316L24.4337 3.16846Z" fill="white"/>
</mask>
<g mask="url(#mask1_4693_11807)">
<path d="M34.9845 3.16846H24.4336V15.8358H34.9845V3.16846Z" fill="white"/>
</g>
<path d="M36.4961 15.8357H39.3727V6.46783H36.4961V15.8337V15.8357ZM36.4961 5.39873H39.3727V2.81201H36.4961V5.39873Z" fill="white"/>
<mask id="mask2_4693_11807" style="mask-type:luminance" maskUnits="userSpaceOnUse" x="36" y="2" width="4" height="14">
<path d="M36.4961 15.8357H39.3727V6.46783H36.4961V15.8337V15.8357ZM36.4961 5.39873H39.3727V2.81201H36.4961V5.39873Z" fill="white"/>
</mask>
<g mask="url(#mask2_4693_11807)">
<path d="M39.3727 2.81201H36.4961V15.8357H39.3727V2.81201Z" fill="white"/>
</g>
<path d="M44.3342 12.9356C43.938 12.4891 43.7419 11.8972 43.7419 11.1599C43.7419 10.8035 43.7956 10.4738 43.9029 10.1707C44.0102 9.86754 44.1567 9.60948 44.3424 9.39444C44.5281 9.17939 44.7489 9.01349 45.0069 8.89471C45.2648 8.77592 45.5434 8.71652 45.8426 8.71652C46.441 8.71652 46.9384 8.93976 47.3346 9.38624C47.7308 9.83273 47.9268 10.4246 47.9268 11.1619C47.9268 11.5183 47.8732 11.8481 47.7659 12.1512C47.6585 12.4543 47.51 12.7123 47.3263 12.9274C47.1406 13.1424 46.9219 13.3083 46.6701 13.4271C46.4184 13.5459 46.1418 13.6053 45.8426 13.6053C45.2318 13.6053 44.7283 13.3821 44.3321 12.9356M43.6945 6.69098C43.0651 6.95927 42.5347 7.31564 42.1035 7.76212C41.6722 8.2086 41.3461 8.72472 41.1233 9.31456C40.9004 9.90236 40.791 10.5189 40.791 11.1619C40.791 11.805 40.9025 12.4195 41.1233 13.0093C41.3441 13.5971 41.6722 14.1153 42.1035 14.5618C42.5347 15.0082 43.0651 15.3625 43.6945 15.6227C44.3238 15.8848 45.0399 16.0159 45.8426 16.0159C46.6453 16.0159 47.3614 15.8848 47.9908 15.6227C48.6202 15.3605 49.1505 15.0082 49.5818 14.5618C50.0131 14.1153 50.3391 13.5992 50.562 13.0093C50.7828 12.4215 50.8942 11.805 50.8942 11.1619C50.8942 10.5189 50.7807 9.90441 50.5537 9.31456C50.3267 8.72676 49.9966 8.2086 49.5653 7.76212C49.134 7.31564 48.6057 6.95927 47.9825 6.69098C47.3593 6.42268 46.6453 6.28955 45.8426 6.28955C45.0399 6.28955 44.3238 6.42268 43.6945 6.69098Z" fill="white"/>
<mask id="mask3_4693_11807" style="mask-type:luminance" maskUnits="userSpaceOnUse" x="40" y="6" width="11" height="11">
<path d="M44.3342 12.9356C43.938 12.4891 43.7419 11.8972 43.7419 11.1599C43.7419 10.8035 43.7956 10.4738 43.9029 10.1707C44.0102 9.86754 44.1567 9.60948 44.3424 9.39444C44.5281 9.17939 44.7489 9.01349 45.0069 8.89471C45.2648 8.77592 45.5434 8.71652 45.8426 8.71652C46.441 8.71652 46.9384 8.93976 47.3346 9.38624C47.7308 9.83273 47.9268 10.4246 47.9268 11.1619C47.9268 11.5183 47.8732 11.8481 47.7659 12.1512C47.6585 12.4543 47.51 12.7123 47.3263 12.9274C47.1406 13.1424 46.9219 13.3083 46.6701 13.4271C46.4184 13.5459 46.1418 13.6053 45.8426 13.6053C45.2318 13.6053 44.7283 13.3821 44.3321 12.9356M43.6945 6.69098C43.0651 6.95927 42.5347 7.31564 42.1035 7.76212C41.6722 8.2086 41.3461 8.72472 41.1233 9.31456C40.9004 9.90236 40.791 10.5189 40.791 11.1619C40.791 11.805 40.9025 12.4195 41.1233 13.0093C41.3441 13.5971 41.6722 14.1153 42.1035 14.5618C42.5347 15.0082 43.0651 15.3625 43.6945 15.6227C44.3238 15.8848 45.0399 16.0159 45.8426 16.0159C46.6453 16.0159 47.3614 15.8848 47.9908 15.6227C48.6202 15.3605 49.1505 15.0082 49.5818 14.5618C50.0131 14.1153 50.3391 13.5992 50.562 13.0093C50.7828 12.4215 50.8942 11.805 50.8942 11.1619C50.8942 10.5189 50.7807 9.90441 50.5537 9.31456C50.3267 8.72676 49.9966 8.2086 49.5653 7.76212C49.134 7.31564 48.6057 6.95927 47.9825 6.69098C47.3593 6.42268 46.6453 6.28955 45.8426 6.28955C45.0399 6.28955 44.3238 6.42268 43.6945 6.69098Z" fill="white"/>
</mask>
<g mask="url(#mask3_4693_11807)">
<path d="M50.8941 6.28955H40.793V16.0118H50.8941V6.28955Z" fill="white"/>
</g>
<path d="M57.0976 6.50478L58.5896 10.9818H55.5706L57.0976 6.50478ZM55.7666 3.16846L51.1113 15.8358H54.1302L55.1001 12.9992H59.0725L60.0609 15.8358H63.0799L58.4245 3.16846H55.7646H55.7666Z" fill="white"/>
<mask id="mask4_4693_11807" style="mask-type:luminance" maskUnits="userSpaceOnUse" x="51" y="3" width="13" height="13">
<path d="M57.0976 6.50478L58.5896 10.9818H55.5706L57.0976 6.50478ZM55.7666 3.16846L51.1113 15.8358H54.1302L55.1001 12.9992H59.0725L60.0609 15.8358H63.0799L58.4245 3.16846H55.7646H55.7666Z" fill="white"/>
</mask>
<g mask="url(#mask4_4693_11807)">
<path d="M63.082 3.16846H51.1113V15.8358H63.082V3.16846Z" fill="white"/>
</g>
<path d="M66.2169 6.6826C65.5875 6.94475 65.0572 7.29702 64.6259 7.7435C64.1946 8.18998 63.8645 8.70609 63.6375 9.29594C63.4105 9.88579 63.2949 10.5002 63.2949 11.1433C63.2949 11.7864 63.4084 12.4009 63.6375 12.9887C63.8645 13.5765 64.1967 14.0946 64.6342 14.5411C65.0716 14.9876 65.604 15.344 66.2334 15.6122C66.8628 15.8805 67.5727 16.0137 68.363 16.0137C69.4526 16.0137 70.3791 15.7822 71.1406 15.3173C71.902 14.8524 72.455 14.2585 72.8038 13.5335L69.9994 12.6774C69.855 12.9518 69.6342 13.175 69.3349 13.3471C69.0357 13.5191 68.7056 13.6051 68.3465 13.6051C68.0597 13.6051 67.7852 13.5457 67.5293 13.4269C67.2714 13.3082 67.0465 13.1423 66.8545 12.9272C66.6626 12.7122 66.5141 12.4541 66.4047 12.151C66.2974 11.8479 66.2437 11.512 66.2437 11.1433C66.2437 10.406 66.4439 9.81615 66.8463 9.37786C67.2466 8.93753 67.7481 8.71838 68.3465 8.71838C69.0646 8.71838 69.6115 9.01535 69.9829 9.6093L72.7873 8.77163C72.4158 8.03433 71.8587 7.43629 71.1158 6.97957C70.3729 6.5208 69.4567 6.29346 68.3651 6.29346C67.5623 6.29346 66.8463 6.42454 66.2169 6.68669" fill="white"/>
<mask id="mask5_4693_11807" style="mask-type:luminance" maskUnits="userSpaceOnUse" x="63" y="6" width="10" height="11">
<path d="M66.2169 6.6826C65.5875 6.94475 65.0572 7.29702 64.6259 7.7435C64.1946 8.18998 63.8645 8.70609 63.6375 9.29594C63.4105 9.88579 63.2949 10.5002 63.2949 11.1433C63.2949 11.7864 63.4084 12.4009 63.6375 12.9887C63.8645 13.5765 64.1967 14.0946 64.6342 14.5411C65.0716 14.9876 65.604 15.344 66.2334 15.6122C66.8628 15.8805 67.5727 16.0137 68.363 16.0137C69.4526 16.0137 70.3791 15.7822 71.1406 15.3173C71.902 14.8524 72.455 14.2585 72.8038 13.5335L69.9994 12.6774C69.855 12.9518 69.6342 13.175 69.3349 13.3471C69.0357 13.5191 68.7056 13.6051 68.3465 13.6051C68.0597 13.6051 67.7852 13.5457 67.5293 13.4269C67.2714 13.3082 67.0465 13.1423 66.8545 12.9272C66.6626 12.7122 66.5141 12.4541 66.4047 12.151C66.2974 11.8479 66.2437 11.512 66.2437 11.1433C66.2437 10.406 66.4439 9.81615 66.8463 9.37786C67.2466 8.93753 67.7481 8.71838 68.3465 8.71838C69.0646 8.71838 69.6115 9.01535 69.9829 9.6093L72.7873 8.77163C72.4158 8.03433 71.8587 7.43629 71.1158 6.97957C70.3729 6.5208 69.4567 6.29346 68.3651 6.29346C67.5623 6.29346 66.8463 6.42454 66.2169 6.68669" fill="white"/>
</mask>
<g mask="url(#mask5_4693_11807)">
<path d="M72.8057 6.28906H63.2969V16.0113H72.8057V6.28906Z" fill="white"/>
</g>
<path d="M74.6914 3.48983V6.46978H73.4863V8.62846H74.6914V13.5172C74.6914 13.9699 74.7595 14.3549 74.8978 14.6765C75.036 14.998 75.2238 15.2561 75.4632 15.4527C75.7026 15.6493 75.9811 15.7927 76.2989 15.8807C76.6167 15.9708 76.9551 16.0138 77.3142 16.0138C77.8301 16.0138 78.3419 15.9422 78.8516 15.8008C79.3613 15.6575 79.8132 15.5039 80.2094 15.3359L79.6522 13.0708C79.4851 13.1547 79.287 13.2305 79.06 13.3022C78.833 13.3739 78.6101 13.4087 78.3955 13.4087C78.1561 13.4087 77.958 13.3411 77.8033 13.2039C77.6485 13.0667 77.5701 12.8434 77.5701 12.5342V8.62641H79.4933V6.46774H77.5701V3.48779H74.6935L74.6914 3.48983Z" fill="white"/>
<mask id="mask6_4693_11807" style="mask-type:luminance" maskUnits="userSpaceOnUse" x="73" y="3" width="8" height="14">
<path d="M74.6914 3.48983V6.46978H73.4863V8.62846H74.6914V13.5172C74.6914 13.9699 74.7595 14.3549 74.8978 14.6765C75.036 14.998 75.2238 15.2561 75.4632 15.4527C75.7026 15.6493 75.9811 15.7927 76.2989 15.8807C76.6167 15.9708 76.9551 16.0138 77.3142 16.0138C77.8301 16.0138 78.3419 15.9422 78.8516 15.8008C79.3613 15.6575 79.8132 15.5039 80.2094 15.3359L79.6522 13.0708C79.4851 13.1547 79.287 13.2305 79.06 13.3022C78.833 13.3739 78.6101 13.4087 78.3955 13.4087C78.1561 13.4087 77.958 13.3411 77.8033 13.2039C77.6485 13.0667 77.5701 12.8434 77.5701 12.5342V8.62641H79.4933V6.46774H77.5701V3.48779H74.6935L74.6914 3.48983Z" fill="white"/>
</mask>
<g mask="url(#mask6_4693_11807)">
<path d="M80.2113 3.48975H73.4883V16.0138H80.2113V3.48975Z" fill="white"/>
</g>
<path d="M81.3262 15.8357H84.2028V6.46783H81.3262V15.8337V15.8357ZM81.3262 5.39873H84.2028V2.81201H81.3262V5.39873Z" fill="white"/>
<mask id="mask7_4693_11807" style="mask-type:luminance" maskUnits="userSpaceOnUse" x="81" y="2" width="4" height="14">
<path d="M81.3262 15.8357H84.2028V6.46783H81.3262V15.8337V15.8357ZM81.3262 5.39873H84.2028V2.81201H81.3262V5.39873Z" fill="white"/>
</mask>
<g mask="url(#mask7_4693_11807)">
<path d="M84.2028 2.81201H81.3262V15.8357H84.2028V2.81201Z" fill="white"/>
</g>
<path d="M92.4005 6.46777L90.3142 13.5521L88.2466 6.46777H85.2812L88.6242 15.8357H91.7525L95.077 6.46777H92.4005Z" fill="white"/>
<mask id="mask8_4693_11807" style="mask-type:luminance" maskUnits="userSpaceOnUse" x="85" y="6" width="11" height="10">
<path d="M92.4005 6.46777L90.3142 13.5521L88.2466 6.46777H85.2812L88.6242 15.8357H91.7525L95.077 6.46777H92.4005Z" fill="white"/>
</mask>
<g mask="url(#mask8_4693_11807)">
<path d="M95.077 6.46777H85.2812V15.8336H95.077V6.46777Z" fill="white"/>
</g>
<path d="M98.4558 13.632C98.1917 13.4129 98.0596 13.1302 98.0596 12.7841C98.0596 12.4032 98.2309 12.0939 98.5714 11.8563C98.9139 11.6187 99.3473 11.5 99.8755 11.5C100.127 11.5 100.4 11.5266 100.693 11.5798C100.986 11.6331 101.258 11.7068 101.51 11.8031V12.696C101.51 12.9336 101.372 13.1609 101.097 13.3739C100.905 13.5521 100.662 13.6955 100.369 13.802C100.076 13.9085 99.7723 13.9617 99.4607 13.9617C99.0522 13.9617 98.7179 13.8511 98.4537 13.632M97.7707 6.59481C97.1 6.79757 96.4521 7.10068 95.8289 7.50415L96.6729 9.28803C97.1888 8.94395 97.6799 8.68385 98.1463 8.51181C98.6126 8.33977 99.1038 8.25375 99.6196 8.25375C100.878 8.25375 101.508 8.79444 101.508 9.87787V10.3059C101.231 10.1748 100.909 10.0765 100.538 10.011C100.166 9.94546 99.7827 9.91269 99.3865 9.91269C98.788 9.91269 98.2412 9.99052 97.7501 10.1441C97.2589 10.2977 96.8338 10.5128 96.4727 10.7872C96.1137 11.0617 95.8351 11.3873 95.637 11.7682C95.4389 12.1492 95.3398 12.5711 95.3398 13.034C95.3398 13.462 95.4244 13.8573 95.5916 14.2198C95.7587 14.5823 95.9878 14.8977 96.2746 15.166C96.5614 15.4343 96.9061 15.6412 97.3085 15.7907C97.7088 15.9402 98.1442 16.0139 98.6126 16.0139C99.2606 16.0139 99.8735 15.8705 100.455 15.5859C101.037 15.3012 101.537 14.8895 101.956 14.355L102.009 14.783C102.081 15.164 102.255 15.4589 102.531 15.6657C102.808 15.8726 103.214 15.977 103.753 15.977C103.92 15.977 104.106 15.9689 104.31 15.9504C104.514 15.932 104.741 15.8931 104.993 15.8337V13.4251C104.766 13.4006 104.607 13.333 104.516 13.2203C104.428 13.1077 104.382 12.909 104.382 12.6223V10.2138C104.382 8.92962 103.992 7.95473 103.214 7.28706C102.434 6.62143 101.332 6.2876 99.9065 6.2876C99.1512 6.2876 98.4372 6.38795 97.7666 6.59071" fill="white"/>
<mask id="mask9_4693_11807" style="mask-type:luminance" maskUnits="userSpaceOnUse" x="95" y="6" width="10" height="11">
<path d="M98.4558 13.632C98.1917 13.4129 98.0596 13.1302 98.0596 12.7841C98.0596 12.4032 98.2309 12.0939 98.5714 11.8563C98.9139 11.6187 99.3473 11.5 99.8755 11.5C100.127 11.5 100.4 11.5266 100.693 11.5798C100.986 11.6331 101.258 11.7068 101.51 11.8031V12.696C101.51 12.9336 101.372 13.1609 101.097 13.3739C100.905 13.5521 100.662 13.6955 100.369 13.802C100.076 13.9085 99.7723 13.9617 99.4607 13.9617C99.0522 13.9617 98.7179 13.8511 98.4537 13.632M97.7707 6.59481C97.1 6.79757 96.4521 7.10068 95.8289 7.50415L96.6729 9.28803C97.1888 8.94395 97.6799 8.68385 98.1463 8.51181C98.6126 8.33977 99.1038 8.25375 99.6196 8.25375C100.878 8.25375 101.508 8.79444 101.508 9.87787V10.3059C101.231 10.1748 100.909 10.0765 100.538 10.011C100.166 9.94546 99.7827 9.91269 99.3865 9.91269C98.788 9.91269 98.2412 9.99052 97.7501 10.1441C97.2589 10.2977 96.8338 10.5128 96.4727 10.7872C96.1137 11.0617 95.8351 11.3873 95.637 11.7682C95.4389 12.1492 95.3398 12.5711 95.3398 13.034C95.3398 13.462 95.4244 13.8573 95.5916 14.2198C95.7587 14.5823 95.9878 14.8977 96.2746 15.166C96.5614 15.4343 96.9061 15.6412 97.3085 15.7907C97.7088 15.9402 98.1442 16.0139 98.6126 16.0139C99.2606 16.0139 99.8735 15.8705 100.455 15.5859C101.037 15.3012 101.537 14.8895 101.956 14.355L102.009 14.783C102.081 15.164 102.255 15.4589 102.531 15.6657C102.808 15.8726 103.214 15.977 103.753 15.977C103.92 15.977 104.106 15.9689 104.31 15.9504C104.514 15.932 104.741 15.8931 104.993 15.8337V13.4251C104.766 13.4006 104.607 13.333 104.516 13.2203C104.428 13.1077 104.382 12.909 104.382 12.6223V10.2138C104.382 8.92962 103.992 7.95473 103.214 7.28706C102.434 6.62143 101.332 6.2876 99.9065 6.2876C99.1512 6.2876 98.4372 6.38795 97.7666 6.59071" fill="white"/>
</mask>
<g mask="url(#mask9_4693_11807)">
<path d="M105.001 6.29004H95.3477V16.0122H105.001V6.29004Z" fill="white"/>
</g>
</g>
</g>
<defs>
<clipPath id="clip0_4693_11807">
<rect width="105" height="19" fill="white"/>
</clipPath>
</defs>
</svg>
