<svg width="94" height="13" viewBox="0 0 94 13" fill="none" xmlns="http://www.w3.org/2000/svg">
<path d="M30.0641 5.15416L29.4131 6.22992L31.1123 6.14535L31.5646 5.60846C32.2999 5.72322 33.0519 5.66301 33.7596 5.4327C34.4673 5.20239 35.1107 4.80848 35.6376 4.28293C35.6495 4.27171 35.6591 4.25816 35.6656 4.24311C35.6721 4.22805 35.6755 4.21182 35.6755 4.19542C35.6755 4.17902 35.6721 4.16278 35.6656 4.14773C35.6591 4.13268 35.6495 4.11912 35.6376 4.1079C35.1519 3.68568 34.5952 3.35277 33.9935 3.12458C33.2124 2.83241 32.3752 2.72145 31.545 2.80008L31.1517 2.27498L29.3974 2.16289L30.0621 3.26618C29.8261 3.31141 29.5705 3.35074 29.2971 3.38024C28.9824 3.41368 28.6855 3.43138 28.4121 3.43531C28.1902 3.43557 27.9704 3.39205 27.7653 3.30724C27.5602 3.22243 27.3739 3.09801 27.217 2.94109C27.0601 2.78416 26.9356 2.59783 26.8508 2.39275C26.766 2.18767 26.7225 1.96788 26.7228 1.74596C26.7228 1.30104 26.8995 0.874349 27.2141 0.559747C27.5287 0.245145 27.9554 0.0684061 28.4003 0.0684061H33.7555C34.8762 0.0631757 35.9543 0.497387 36.7586 1.27789C37.1334 1.63246 37.4327 2.05912 37.6385 2.53226C37.8444 3.0054 37.9524 3.51525 37.9563 4.0312C37.9425 5.40786 37.4233 6.84745 35.7929 7.42761C36.8549 7.79537 37.5197 8.41093 37.5472 10.116V12.8202H33.7162V10.3028C33.7162 10.0061 33.5983 9.72144 33.3884 9.51158C33.1786 9.30172 32.8939 9.18382 32.5971 9.18382H30.4043V12.8359H26.711V6.67438C26.7099 6.4546 26.7522 6.23676 26.8353 6.03331C26.9185 5.82986 27.0409 5.64478 27.1956 5.48864C27.3503 5.3325 27.5342 5.20836 27.7368 5.1233C27.9395 5.03824 28.1569 4.99393 28.3767 4.99289C28.6678 4.99289 28.9785 5.01649 29.3069 5.04993C29.5783 5.08139 29.8281 5.1168 30.0641 5.15416Z" fill="white"/>
<path d="M8.14783 0.172852H10.9424V11.0209C10.9424 11.4992 10.7524 11.9579 10.4142 12.2961C10.076 12.6343 9.61731 12.8243 9.13902 12.8243H7.72696L2.75331 4.61158V12.8243H0V0.172852H3.09747L8.15373 8.25185L8.14783 0.172852Z" fill="white"/>
<path d="M25.6156 5.77846C25.6333 6.04986 25.6687 6.36846 25.6687 6.56512C25.6687 10.4257 23.1947 13 19.1532 13C15.1117 13 12.2109 10.3922 12.2109 6.49629C12.2109 2.60036 14.9642 0.00634766 19.1729 0.00634766C21.3362 0.00634766 22.8564 0.75171 23.9597 1.88647L22.1268 3.69971C21.3498 3.0051 20.3388 2.62996 19.2968 2.64952C16.8227 2.64952 15.3261 4.20711 15.3261 6.35862C15.3261 8.74614 16.9643 10.3214 19.3145 10.3214C21.3264 10.3214 22.5181 9.30467 22.7502 8.00078H20.4256C20.2772 8.00078 20.1303 7.97151 19.9932 7.91466C19.8561 7.85781 19.7316 7.77448 19.6267 7.66945C19.5219 7.56442 19.4388 7.43974 19.3821 7.30255C19.3255 7.16537 19.2965 7.01836 19.2968 6.86996V6.84242C19.2968 6.56129 19.4085 6.29166 19.6072 6.09287C19.806 5.89408 20.0757 5.7824 20.3568 5.7824L25.6156 5.77846Z" fill="white"/>
<path d="M38.6699 6.48994C38.6699 2.59598 41.4645 0 45.6299 0C49.7953 0 52.6076 2.59204 52.6076 6.48994C52.6076 10.3878 49.7776 12.9937 45.6299 12.9937C41.4822 12.9937 38.6699 10.3859 38.6699 6.48994ZM49.4865 6.48994C49.4865 4.2047 47.9564 2.64711 45.624 2.64711C43.2916 2.64711 41.7792 4.2047 41.7792 6.48994C41.7792 8.77519 43.3093 10.319 45.624 10.319C47.9387 10.319 49.4924 8.77715 49.4924 6.48994H49.4865Z" fill="white"/>
<path d="M68.989 0.172852H71.0284L67.0774 12.8243H64.1274L61.7006 4.20448L59.3151 12.8243H56.3435L52.4102 0.172852H54.4083C54.775 0.172937 55.1314 0.294022 55.4223 0.517327C55.7131 0.740633 55.9222 1.05368 56.017 1.40791L58.0544 9.03064L60.4144 0.180717H63.2857L65.7244 8.92444L67.8877 1.01851C67.9541 0.776831 68.0976 0.563446 68.2964 0.410802C68.4952 0.258159 68.7384 0.174606 68.989 0.172852Z" fill="white"/>
<path d="M75.1863 12.842V2.69606H72.2363V0.172852H81.1197V2.69606H78.15V11.3218C78.15 11.725 77.9899 12.1116 77.7048 12.3967C77.4197 12.6818 77.033 12.842 76.6298 12.842H75.1863Z" fill="white"/>
<path d="M92.0185 0.172852H93.698V12.8243H90.7224V7.82902H85.4912V12.8243H82.5176V0.172852H84.0103C84.402 0.172848 84.7778 0.32806 85.0553 0.604506C85.3329 0.880951 85.4896 1.25611 85.4912 1.64784V5.34907H90.7224V1.46691C90.723 1.12352 90.8597 0.794379 91.1027 0.551753C91.3457 0.309127 91.6751 0.172851 92.0185 0.172852Z" fill="white"/>
</svg>
